<?xml version="1.0" encoding="utf-8"?>
<!-- Generator: Adobe Illustrator 16.0.4, SVG Export Plug-In . SVG Version: 6.00 Build 0)  -->
<!DOCTYPE svg PUBLIC "-//W3C//DTD SVG 1.0//EN" "http://www.w3.org/TR/2001/REC-SVG-20010904/DTD/svg10.dtd">
<svg version="1.0"
	 id="svg2985" xmlns:dc="http://purl.org/dc/elements/1.1/" xmlns:cc="http://creativecommons.org/ns#" xmlns:rdf="http://www.w3.org/1999/02/22-rdf-syntax-ns#" xmlns:svg="http://www.w3.org/2000/svg" xmlns:sodipodi="http://sodipodi.sourceforge.net/DTD/sodipodi-0.dtd" xmlns:inkscape="http://www.inkscape.org/namespaces/inkscape" sodipodi:docname="150330 Deventer Logo EF rgb.pdf" inkscape:version="0.48.4 r9939"
	 xmlns="http://www.w3.org/2000/svg" xmlns:xlink="http://www.w3.org/1999/xlink" x="0px" y="0px" width="468.092px"
	 height="123.914px" viewBox="0 0 468.092 123.914" enable-background="new 0 0 468.092 123.914" xml:space="preserve">
<sodipodi:namedview  inkscape:cy="65.762777" inkscape:cx="229.99938" inkscape:zoom="0.6448131" fit-margin-left="5" fit-margin-top="5" showgrid="false" guidetolerance="10" gridtolerance="10" objecttolerance="10" borderopacity="1" pagecolor="#ffffff" bordercolor="#666666" id="namedview2987" inkscape:current-layer="g2993" inkscape:window-maximized="1" inkscape:window-y="-8" inkscape:window-x="-8" fit-margin-bottom="5" fit-margin-right="5" inkscape:window-height="1018" inkscape:window-width="1920" inkscape:pageshadow="2" inkscape:pageopacity="0">
	</sodipodi:namedview>
<g id="g2993" transform="matrix(1.25,0,0,-1.25,-37.52,153.8195)" inkscape:label="150330 Deventer Logo EF rgb" inkscape:groupmode="layer">
	<g id="g2997">
		<g>
			<defs>
				<rect id="SVGID_1_" x="-53.504" y="-19.134" width="535.039" height="191.339"/>
			</defs>
			<clipPath id="SVGID_2_">
				<use xlink:href="#SVGID_1_"  overflow="visible"/>
			</clipPath>
			<g id="g2999" clip-path="url(#SVGID_2_)">
				<g id="g3005" transform="translate(52.213,101.3116)">
					<path id="path3007" inkscape:connector-curvature="0" fill="#DD0033" d="M0,0h1.129C7.77,0,11.821-3.383,11.821-11.353
						c0-7.443-4.649-10.601-10.692-10.601H0V0z M-18.197-38.946H4.848c14.677,0,25.17,10.677,25.17,27.518
						c0,20.826-12.884,29.172-29.686,29.172h-18.529V-38.946z"/>
				</g>
				<g id="g3009" transform="translate(371.2031,103.567)">
					<path id="path3011" inkscape:connector-curvature="0" fill="#DD0033" d="M0,0h1.394c3.122,0,5.845-0.526,5.845-4.887
						c0-4.21-2.989-4.736-5.977-4.736H0V0z M-17.798-41.202H0v18.196h0.332l7.969-18.196h20.986L18.396-22.781
						c-0.996,1.654-2.125,2.556-3.055,3.383v0.451c6.774,2.557,9.696,6.166,9.696,14.737c0,14.285-9.562,19.698-20.852,19.698
						h-21.982V-41.202z"/>
				</g>
			</g>
		</g>
	</g>
	<g id="g3013" transform="translate(85.4489,62.3658)">
		<path id="path3015" inkscape:connector-curvature="0" fill="#DD0033" d="M0,0h34.202v15.488H18.329v5.564h14.013v14.736H18.329
			v5.413h15.342v15.488H0V0z"/>
	</g>
	<g id="g3017" transform="translate(156.6746,62.3658)">
		<path id="path3019" inkscape:connector-curvature="0" fill="#DD0033" d="M0,0l19.766,56.689H2.972L-7.708,22.67l-10.837,34.019
			H-35.34L-14.907,0H0z"/>
	</g>
	<g id="g3021" transform="translate(178.4983,62.3658)">
		<path id="path3023" inkscape:connector-curvature="0" fill="#DD0033" d="M0,0h34.202v15.488H18.33v5.564h14.013v14.736H18.33
			v5.413H33.67v15.488H0V0z"/>
	</g>
	<g id="g3025">
		<g>
			<defs>
				<rect id="SVGID_3_" x="-53.504" y="-19.134" width="535.039" height="191.339"/>
			</defs>
			<clipPath id="SVGID_4_">
				<use xlink:href="#SVGID_3_"  overflow="visible"/>
			</clipPath>
			<g id="g3027" clip-path="url(#SVGID_4_)">
				<g id="g3033" transform="translate(218.8349,62.3658)">
					<path id="path3035" inkscape:connector-curvature="0" fill="#DD0033" d="M0,0h17.4v18.42c0,3.76-0.531,7.444-1.129,11.353h0.53
						L32.807,0h17.4v56.689h-17.4V39.698c0-4.812,0.797-9.699,1.528-14.436h-0.532L17.466,56.689H0V0z"/>
				</g>
			</g>
		</g>
	</g>
	<g id="g3037" transform="translate(272.4556,100.6349)">
		<path id="path3039" inkscape:connector-curvature="0" fill="#DD0033" d="M0,0l10.028,0.526V-38.27h18.197V0.526L38.253,0v18.42H0
			V0z"/>
	</g>
	<g id="g3041" transform="translate(314.1318,62.3658)">
		<path id="path3043" inkscape:connector-curvature="0" fill="#DD0033" d="M0,0h34.202v15.488H18.33v5.564h14.013v14.736H18.33
			v5.413h15.341v15.488H0V0z"/>
	</g>
	<g id="g3045">
		<g>
			<defs>
				<rect id="SVGID_5_" x="-53.504" y="-19.134" width="535.039" height="191.339"/>
			</defs>
			<clipPath id="SVGID_6_">
				<use xlink:href="#SVGID_5_"  overflow="visible"/>
			</clipPath>
			<g id="g3047" clip-path="url(#SVGID_6_)">
				<g id="g3053" transform="translate(129.7651,35.0253)">
					<path id="path3055" inkscape:connector-curvature="0" d="M0-0.001c0,3.68-2.541,5.4-6.28,5.4c-1.14,0-3.04-0.12-3.74-0.22
						V-6.76h2.84C-2.82-6.76,0-4.34,0-0.001 M-2.76-0.201c0-2.82-1.5-4.159-3.86-4.159h-0.7v7.5c0.26,0.02,0.66,0.04,1,0.04
						C-4.24,3.18-2.76,2.099-2.76-0.201 M15.96-6.44L12.12,5.28H9.38l-4-12.04h2.7L9-3.42h3.359l1.02-3.68L15.96-6.44z M11.92-1.68
						H9.48l1.22,4.4h0.02L11.92-1.68z M29.139-2.94c0,1.52-1.02,2.48-2.5,3.1l-1.48,0.62c-0.78,0.32-1.28,0.6-1.28,1.28
						c0,0.82,0.76,1.18,1.74,1.18c0.84,0,1.6-0.341,2.22-0.641l0.88,2.2c-1.06,0.441-1.92,0.72-3.24,0.72
						c-2.2,0-4.22-1.34-4.22-3.64c0-1.88,1-2.74,2.2-3.26l1.66-0.72c0.86-0.359,1.36-0.639,1.36-1.359c0-0.82-0.66-1.2-1.76-1.2
						c-0.94,0-1.86,0.34-2.66,0.74l-0.86-2.26c1.18-0.559,2.32-0.82,3.741-0.82C27.479-7.001,29.139-5.24,29.139-2.94 M53.958-0.001
						c0,3.68-2.54,5.4-6.28,5.4c-1.14,0-3.04-0.12-3.74-0.22V-6.76h2.84C51.138-6.76,53.958-4.34,53.958-0.001 M51.198-0.201
						c0-2.82-1.5-4.159-3.86-4.159h-0.7v7.5c0.26,0.02,0.66,0.04,1,0.04C49.718,3.18,51.198,2.099,51.198-0.201 M63.178,5.28h-2.7
						V-6.76h2.7V5.28z M79.278-6.001l-0.9,2.12c-0.78-0.38-1.54-0.7-2.54-0.7c-2.26,0-3.34,1.18-3.34,3.941
						c0,2.539,1.6,3.78,3.32,3.78c1.1,0,1.72-0.28,2.44-0.641l0.98,2.261c-1.08,0.48-1.96,0.759-3.46,0.759
						c-3.5,0-6.08-2.3-6.08-6.459c0-3.961,2.32-6.061,5.44-6.061C76.778-7.001,77.858-6.74,79.278-6.001 M94.897-6.76V5.28h-2.68
						V0.44h-4.12v4.84h-2.7V-6.76h2.7v5h4.12v-5H94.897z M109.997,3.02v2.26h-9.18V3.02h3.241v-9.78h2.7v9.78H109.997L109.997,3.02z
						 M123.596,2.02c0,2.2-1.6,3.38-4.42,3.38c-1.26,0-2.64-0.139-3.26-0.239V-6.76h2.64v4.38h0.18
						C121.356-2.38,123.596-0.701,123.596,2.02 M121.036,1.74c0-1.4-1.041-2.141-2.3-2.141h-0.18v3.78c0.2,0.04,0.44,0.04,0.64,0.04
						C120.276,3.42,121.036,2.98,121.036,1.74 M138.596-6.06l-2.98,5.059c1.06,0.661,1.84,1.68,1.84,3.08c0,2.26-1.62,3.32-4.4,3.32
						c-1.3,0-2.6-0.139-3.26-0.239V-6.76h2.641v4.78h0.18c0.24,0,0.48,0,0.74,0.041l2.82-5.12L138.596-6.06z M134.936,1.799
						c0-1.459-1.12-2.059-2.341-2.059h-0.159v3.659c0.18,0.02,0.4,0.041,0.6,0.041C134.076,3.44,134.936,3.02,134.936,1.799
						 M155.376-0.72c0,3.1-1.38,6.24-5.721,6.24c-4.32,0-5.74-3.159-5.74-6.24c0-3.06,1.461-6.28,5.74-6.28
						C153.915-7.001,155.376-3.76,155.376-0.72 M152.576-0.72c0-2.48-0.96-4.02-2.921-4.02c-1.979,0-2.92,1.52-2.92,4.02
						c0,2.46,0.92,3.96,2.92,3.96C151.676,3.24,152.576,1.76,152.576-0.72 M168.315,3.02v2.26h-6.42V-6.76h2.66v4.72h3.34v2.22
						h-3.34v2.84H168.315z M177.234,5.28h-2.7V-6.76h2.7V5.28z M191.294-6.76v2.259h-4.2v9.78h-2.7V-6.76H191.294z M199.554-5.401
						c0,0.82-0.68,1.5-1.52,1.5s-1.52-0.68-1.52-1.5c0-0.839,0.68-1.52,1.52-1.52S199.554-6.24,199.554-5.401"/>
				</g>
			</g>
		</g>
	</g>
</g>
</svg>
