<svg xmlns="http://www.w3.org/2000/svg" xmlns:xlink="http://www.w3.org/1999/xlink" viewBox="0 0 121.32 236.74"><defs><style>.cls-1{fill:url(#Безымянный_градиент_133);}.cls-2{fill:#cecece;}.cls-3{fill:#b2b2b2;}.cls-4{fill:#b5b5b5;}.cls-5{fill:url(#Безымянный_градиент_143);}.cls-6{fill:url(#Безымянный_градиент_143-2);}.cls-7{fill:url(#Безымянный_градиент_7);}.cls-8{fill:#494949;}.cls-9{fill:url(#Безымянный_градиент_7-2);}.cls-10{fill:url(#Безымянный_градиент_103);}.cls-11{fill:url(#Безымянный_градиент_90);}</style><linearGradient id="Безымянный_градиент_133" x1="-5.51" y1="3.18" x2="127.15" y2="232.97" gradientUnits="userSpaceOnUse"><stop offset="0" stop-color="#c69c6d"/><stop offset="0.5" stop-color="#c69c6d"/><stop offset="0.6" stop-color="#c09667"/><stop offset="0.73" stop-color="#ae8558"/><stop offset="0.88" stop-color="#92693e"/><stop offset="1" stop-color="#754c24"/></linearGradient><linearGradient id="Безымянный_градиент_143" x1="429.76" y1="109.74" x2="426.19" y2="106.17" gradientTransform="matrix(-1, 0, 0, 1, 531.39, 0)" gradientUnits="userSpaceOnUse"><stop offset="0" stop-color="#a67c52"/><stop offset="0.48" stop-color="#754c24"/><stop offset="0.98" stop-color="#a47a50"/><stop offset="1" stop-color="#a67c52"/></linearGradient><linearGradient id="Безымянный_градиент_143-2" x1="554.28" y1="201.24" x2="387.81" y2="34.76" xlink:href="#Безымянный_градиент_143"/><linearGradient id="Безымянный_градиент_7" x1="525.08" y1="219.2" x2="527.78" y2="219.2" gradientTransform="matrix(-1, 0, 0, 1, 531.39, 0)" gradientUnits="userSpaceOnUse"><stop offset="0" stop-color="#4d4d4d"/><stop offset="1" stop-color="#736357"/></linearGradient><linearGradient id="Безымянный_градиент_7-2" x1="525.72" y1="16.8" x2="528.41" y2="16.8" xlink:href="#Безымянный_градиент_7"/><linearGradient id="Безымянный_градиент_103" x1="421.42" y1="107.95" x2="425.72" y2="107.95" gradientTransform="matrix(-1, 0, 0, 1, 531.39, 0)" gradientUnits="userSpaceOnUse"><stop offset="0" stop-color="#4d4d4d"/><stop offset="1" stop-color="#333"/></linearGradient><linearGradient id="Безымянный_градиент_90" x1="422.36" y1="107.95" x2="437.84" y2="107.95" gradientTransform="matrix(-1, 0, 0, 1, 531.39, 0)" gradientUnits="userSpaceOnUse"><stop offset="0" stop-color="#4d4d4d"/><stop offset="1" stop-color="#1a1a1a"/></linearGradient></defs><g id="Слой_2" data-name="Слой 2"><g id="Слой_2-2" data-name="Слой 2"><path class="cls-1" d="M0,0V235.59l120.62,1.15L121.32,0ZM6.32,229.68,5.67,6.21H115l-.71,224.29Z"/></g><g id="Слой_3" data-name="Слой 3"><polygon class="cls-2" points="19.14 20.03 20.2 216.62 22.32 214.15 22.32 23.74 19.14 20.03"/><polygon class="cls-2" points="97.97 23.74 97.91 215.03 100.97 217.44 101.17 109.27 101.18 106.63 101.29 20.03 97.97 23.74"/><polygon class="cls-3" points="19.14 20.03 22.32 23.74 97.97 23.74 101.29 20.03 19.14 20.03"/><polygon class="cls-4" points="20.2 216.62 100.97 217.44 97.91 215.03 22.32 214.15 20.2 216.62"/><path class="cls-5" d="M101.17,109.27h4.5v-2.64h-4.49Z"/><path class="cls-6" d="M5.67,6.21,6.38,230.5H114.32L115,6.21ZM19.14,20h82.15l-.11,86.6h4.49V105a2.15,2.15,0,1,1,4.3,0v5.89a2.15,2.15,0,1,1-4.3,0v-1.63h-4.5L101,217.44l-80.77-.82Z"/><path class="cls-7" d="M3.61,211.62v16.27h2.7V211.62a1.07,1.07,0,0,0-1-1.12h-.7A1.07,1.07,0,0,0,3.61,211.62Z"/><path class="cls-8" d="M3.61,227.89v1.49a1.07,1.07,0,0,0,1,1.12h.7a1.07,1.07,0,0,0,1-1.12v-1.49Z"/><path class="cls-9" d="M3,8.87V24.74a1,1,0,0,0,1,1h.69a1,1,0,0,0,1-1V8.87a1,1,0,0,0-1-1H4A1,1,0,0,0,3,8.87Z"/><path class="cls-10" d="M105.67,105v5.89a2.15,2.15,0,1,0,4.3,0V105a2.15,2.15,0,0,0-4.3,0Z"/><path class="cls-11" d="M93.55,108a1.32,1.32,0,0,0,1.32,1.32H107.7a1.32,1.32,0,1,0,0-2.64H94.87A1.32,1.32,0,0,0,93.55,108Z"/></g></g></svg>