<svg xmlns="http://www.w3.org/2000/svg" xmlns:xlink="http://www.w3.org/1999/xlink" viewBox="0 0 121.32 236.74"><defs><style>.cls-1{fill:url(#Безымянный_градиент_133);}.cls-2{fill:#cecece;}.cls-3{fill:#b2b2b2;}.cls-4{fill:#b5b5b5;}.cls-5{fill:url(#Безымянный_градиент_143);}.cls-6{fill:url(#Безымянный_градиент_143-2);}</style><linearGradient id="Безымянный_градиент_133" x1="-5.51" y1="3.18" x2="127.15" y2="232.97" gradientUnits="userSpaceOnUse"><stop offset="0" stop-color="#c69c6d"/><stop offset="0.5" stop-color="#c69c6d"/><stop offset="0.6" stop-color="#c09667"/><stop offset="0.73" stop-color="#ae8558"/><stop offset="0.88" stop-color="#92693e"/><stop offset="1" stop-color="#754c24"/></linearGradient><linearGradient id="Безымянный_градиент_143" x1="170.7" y1="174.3" x2="58.82" y2="62.42" gradientUnits="userSpaceOnUse"><stop offset="0" stop-color="#a67c52"/><stop offset="0.48" stop-color="#754c24"/><stop offset="0.98" stop-color="#a47a50"/><stop offset="1" stop-color="#a67c52"/></linearGradient><linearGradient id="Безымянный_градиент_143-2" x1="143.82" y1="201" x2="-22.56" y2="34.62" xlink:href="#Безымянный_градиент_143"/></defs><g id="Слой_2" data-name="Слой 2"><g id="Слой_2-2" data-name="Слой 2"><path class="cls-1" d="M0,0V235.59l120.62,1.15L121.32,0ZM6.5,229.68H6.32L5.67,6.21H115l-.71,224.29Z"/></g><g id="Слой_3" data-name="Слой 3"><polygon class="cls-2" points="101.73 20.03 100.67 216.62 98.55 214.15 98.55 23.74 101.73 20.03"/><polygon class="cls-2" points="22.9 23.74 22.9 214.21 19.84 216.62 19.7 109.27 19.69 106.63 19.58 20.03 22.9 23.74"/><polygon class="cls-3" points="101.73 20.03 98.55 23.74 22.9 23.74 19.58 20.03 101.73 20.03"/><polygon class="cls-4" points="100.67 216.62 19.84 216.62 22.9 214.21 98.55 214.15 100.67 216.62"/><path class="cls-5" d="M115,6.21l-.71,224.29h.18l.7-224.29Z"/><path class="cls-6" d="M5.84,6.21,6.5,229.68l107.82.82L115,6.21Zm94.84,210.41H19.84L19.7,109.27v-2.64L19.58,20h82.16Z"/></g></g></svg>