<svg width="42" height="50" viewBox="0 0 42 50" fill="none" xmlns="http://www.w3.org/2000/svg">
<path d="M11.6603 5.5C7.93311 6.72935 1.66032 6.5 1.66032 6.5C1.66032 6.5 -2.67233 25.2229 2.66032 35C7.04177 43.0331 20.6603 50 20.6603 50C20.6603 50 34.2789 43.0331 38.6603 35C43.993 25.2229 39.6603 6.5 39.6603 6.5C39.6603 6.5 33.3875 6.72935 29.6603 5.5C25.7485 4.20978 20.6603 0 20.6603 0C20.6603 0 15.5721 4.20978 11.6603 5.5Z" fill="#70DA40"/>
<path d="M29.6602 5.5C25.7484 4.20978 20.6602 0 20.6602 0V50C20.6602 50 34.2787 43.0331 38.6602 35C43.9928 25.2229 39.6602 6.5 39.6602 6.5C39.6602 6.5 33.3874 6.72935 29.6602 5.5Z" fill="#459D1D"/>
<circle cx="21" cy="25" r="13" fill="#E4EFF2"/>
<path d="M14 24L19.5 29L28 21" stroke="#4EA64B" stroke-width="3" stroke-linecap="round"/>
</svg>
