<svg width="45" height="51" viewBox="0 0 45 51" fill="none" xmlns="http://www.w3.org/2000/svg">
<path d="M12 28.9311C9.5 28.9311 0 40.9311 0 40.9311L9 50.4311L15.5 43.9311H26.5C31.5 43.9311 31.2509 43.6449 32.5 42.9311C36 40.9311 44 24.9311 44 24.9311C44 24.9311 44.2073 24.3823 43.5 23.6743C42.7927 22.9664 41.6412 22.845 40.5 23.1743C39.562 23.445 38.5 24.4311 38.5 24.4311L30 37.9311H29H18C18 37.9311 16.5 37.9311 16.5 36.4311C16.5 34.9311 18 34.9311 18 34.9311H29L32 28.9311H12Z" fill="#F89580"/>
<path d="M12 28.918C9.5 28.918 0 40.918 0 40.918L9 50.418L15.5 43.918H24V37.918H18C18 37.918 16.5 37.918 16.5 36.418C16.5 34.918 18 34.918 18 34.918H24V28.918H12Z" fill="#FFBFAB"/>
<path fill-rule="evenodd" clip-rule="evenodd" d="M25.9146 11.688C28.2895 10.889 30 8.64424 30 6C30 2.68629 27.3137 0 24 0C20.6863 0 18 2.68629 18 6C18 8.58331 19.6326 10.7853 21.9223 11.6305C19.9628 12.3244 17.1588 13.5997 16.0004 15.5C14.4623 18.023 15.0004 23 15.0004 23H32.5C32.5 23 33.1479 17.9914 31.5004 15.5C30.331 13.7317 27.7242 12.425 25.9146 11.688Z" fill="#4EA64B"/>
<path fill-rule="evenodd" clip-rule="evenodd" d="M21.9671 11.6469C19.6539 10.814 18 8.60013 18 6C18 2.68629 20.6863 0 24 0V11.0224V12V23H23.841H15.0912C15.0912 23 14.5531 18.023 16.0912 15.5C17.2406 13.6145 20.01 12.3443 21.9671 11.6469Z" fill="#74DE71"/>
</svg>
