<svg width="50" height="47" viewBox="0 0 50 47" fill="none" xmlns="http://www.w3.org/2000/svg">
<path d="M3 34.3425C3 39.3131 7.02944 43.3425 12 43.3425V25.3425C7.02944 25.3425 3 29.372 3 34.3425Z" fill="#5A5A5A"/>
<rect width="5.97022" height="4.28492" rx="1" transform="matrix(0.869214 0.494435 0.494435 -0.869214 3.50879 43.0671)" fill="#5A5A5A"/>
<rect y="37.3132" width="5.97022" height="4.28492" rx="1" transform="rotate(-90 0 37.3132)" fill="#5A5A5A"/>
<rect x="3.50879" y="25.9519" width="5.97022" height="4.28492" rx="1" transform="rotate(-29.6325 3.50879 25.9519)" fill="#5A5A5A"/>
<path d="M21 34.3425C21 39.3131 16.9706 43.3425 12 43.3425V25.3425C16.9706 25.3425 21 29.372 21 34.3425Z" fill="#444444"/>
<rect x="20.4912" y="43.0671" width="5.97022" height="4.28492" rx="1" transform="rotate(150.367 20.4912 43.0671)" fill="#444444"/>
<rect width="5.97022" height="4.28492" rx="1" transform="matrix(4.37114e-08 -1 -1 -4.37114e-08 24 37.3132)" fill="#444444"/>
<rect width="5.97022" height="4.28492" rx="1" transform="matrix(-0.869214 -0.494435 -0.494435 0.869214 20.4912 25.9519)" fill="#444444"/>
<circle cx="12.5" cy="34.5" r="4.5" fill="white"/>
<path d="M29 34.3425C29 39.3131 33.0294 43.3425 38 43.3425V25.3425C33.0294 25.3425 29 29.372 29 34.3425Z" fill="#5A5A5A"/>
<rect width="5.97022" height="4.28492" rx="1" transform="matrix(0.869214 0.494435 0.494435 -0.869214 29.5088 43.0671)" fill="#5A5A5A"/>
<rect x="26" y="37.3132" width="5.97022" height="4.28492" rx="1" transform="rotate(-90 26 37.3132)" fill="#5A5A5A"/>
<rect x="29.5088" y="25.9519" width="5.97022" height="4.28492" rx="1" transform="rotate(-29.6325 29.5088 25.9519)" fill="#5A5A5A"/>
<path d="M47 34.3425C47 39.3131 42.9706 43.3425 38 43.3425V25.3425C42.9706 25.3425 47 29.372 47 34.3425Z" fill="#444444"/>
<rect x="46.4912" y="43.0671" width="5.97022" height="4.28492" rx="1" transform="rotate(150.367 46.4912 43.0671)" fill="#444444"/>
<rect width="5.97022" height="4.28492" rx="1" transform="matrix(4.37114e-08 -1 -1 -4.37114e-08 50 37.3132)" fill="#444444"/>
<rect width="5.97022" height="4.28492" rx="1" transform="matrix(-0.869214 -0.494435 -0.494435 0.869214 46.4912 25.9519)" fill="#444444"/>
<circle cx="38.5" cy="34.5" r="4.5" fill="white"/>
<path d="M16 11.3425C16 16.3131 20.0294 20.3425 25 20.3425V2.34253C20.0294 2.34253 16 6.37197 16 11.3425Z" fill="#5A5A5A"/>
<rect width="5.97022" height="4.28492" rx="1" transform="matrix(0.869214 0.494435 0.494435 -0.869214 16.5088 20.0671)" fill="#5A5A5A"/>
<rect x="13" y="14.3132" width="5.97022" height="4.28492" rx="1" transform="rotate(-90 13 14.3132)" fill="#5A5A5A"/>
<rect x="16.5088" y="2.9519" width="5.97022" height="4.28492" rx="1" transform="rotate(-29.6325 16.5088 2.9519)" fill="#5A5A5A"/>
<path d="M34 11.3425C34 16.3131 29.9706 20.3425 25 20.3425V2.34253C29.9706 2.34253 34 6.37197 34 11.3425Z" fill="#444444"/>
<rect x="33.4912" y="20.0671" width="5.97022" height="4.28492" rx="1" transform="rotate(150.367 33.4912 20.0671)" fill="#444444"/>
<rect width="5.97022" height="4.28492" rx="1" transform="matrix(4.37114e-08 -1 -1 -4.37114e-08 37 14.3132)" fill="#444444"/>
<rect width="5.97022" height="4.28492" rx="1" transform="matrix(-0.869214 -0.494435 -0.494435 0.869214 33.4912 2.9519)" fill="#444444"/>
<circle cx="25.5" cy="11.5" r="4.5" fill="white"/>
</svg>
