<svg width="206" height="184" viewBox="0 0 206 184" fill="none" xmlns="http://www.w3.org/2000/svg">
<g clip-path="url(#clip0_229_3598)">
<path d="M205.9 8.5L0.809998 9.08L0 169.79H8L198.67 166.73H205.93L205.9 8.5ZM7.96 162.02L8.3 16.63H198.68L198.61 157.81L7.96 162.02Z" fill="url(#paint0_linear_229_3598)"/>
<path d="M12.3409 154.73L7.96094 162.02L8.30094 16.6299L12.6809 20.8899L12.3409 154.73Z" fill="url(#paint1_linear_229_3598)"/>
<path d="M198.612 157.77L193.762 150.48L193.782 20.8501L198.682 16.5901L198.612 157.77Z" fill="url(#paint2_linear_229_3598)"/>
<path d="M198.681 16.5901L193.781 20.8501L12.6808 20.8901L8.30078 16.6301L198.681 16.5901Z" fill="url(#paint3_linear_229_3598)"/>
<path d="M198.611 157.77L7.96094 162.02L12.3409 154.73L193.761 150.48L198.611 157.77Z" fill="url(#paint4_linear_229_3598)"/>
<path d="M205.9 167.98H203.11L203.12 11.61L3.71 11.99L3.06 171.58H0L0.83 9.08L205.9 8.5V167.98Z" fill="url(#paint5_linear_229_3598)"/>
<path d="M5.39859 13.62L4.74859 169.79L3.69859 170.91L3.05859 171.58L3.70859 11.99L5.39859 13.62Z" fill="url(#paint6_linear_229_3598)"/>
<path d="M203.108 167.98L202.278 167.45L201.248 166.74V166.09L201.238 13.2401L203.118 11.6101L203.108 167.98Z" fill="url(#paint7_linear_229_3598)"/>
<path d="M203.121 11.6101L201.241 13.2401L5.40094 13.6201L3.71094 11.9901L203.121 11.6101Z" fill="url(#paint8_linear_229_3598)"/>
<path d="M50.3587 169.41L47.7388 169.46L47.7188 164.15L50.3288 164.09L50.3587 169.41Z" fill="url(#paint9_linear_229_3598)"/>
<path d="M168.879 161.7V156.91V17.0901V0.370117L132.529 8.85012L111.859 13.6701V23.4801L113.269 23.6101V29.2001L111.859 28.9801V85.5501H111.919L113.859 85.8701V91.4601L112.159 91.0501H111.859V148.11H112.249L114.189 148.84V154.43L112.489 153.61H111.859V162.96L126.669 167.88L168.849 181.71V161.71L168.879 161.7ZM167.189 94.9101C167.189 95.023 167.167 95.1349 167.124 95.2392C167.081 95.3436 167.017 95.4384 166.937 95.5182C166.858 95.5981 166.763 95.6614 166.658 95.7047C166.554 95.7479 166.442 95.7701 166.329 95.7701H165.199C164.972 95.7675 164.755 95.6761 164.594 95.5154C164.433 95.3546 164.342 95.1374 164.339 94.9101V93.6801H161.739V170.88L150.669 167.37L134.759 162.37L121.099 158.06L118.239 157.16L117.299 19.6901L129.979 17.0701L143.879 14.2001L144.879 13.9901L161.729 10.5101V92.4201H164.329V91.2001C164.329 90.972 164.42 90.7533 164.581 90.592C164.743 90.4307 164.961 90.3401 165.189 90.3401H166.319C166.433 90.3388 166.545 90.3601 166.65 90.4028C166.755 90.4456 166.85 90.5089 166.93 90.589C167.011 90.6691 167.074 90.7645 167.117 90.8694C167.159 90.9744 167.181 91.0868 167.179 91.2001L167.189 94.9101Z" fill="url(#paint10_linear_229_3598)"/>
<path d="M167.187 91.2199V94.9099C167.187 95.0228 167.165 95.1347 167.122 95.239C167.078 95.3434 167.015 95.4382 166.935 95.518C166.855 95.5979 166.76 95.6612 166.656 95.7045C166.552 95.7477 166.44 95.7699 166.327 95.7699H165.207C165.434 95.7673 165.652 95.6759 165.812 95.5152C165.973 95.3544 166.064 95.1372 166.067 94.9099V91.2199C166.067 91.107 166.045 90.9951 166.002 90.8908C165.958 90.7865 165.895 90.6917 165.815 90.6118C165.735 90.5319 165.64 90.4686 165.536 90.4254C165.432 90.3822 165.32 90.3599 165.207 90.3599H166.327C166.44 90.3586 166.553 90.3799 166.658 90.4227C166.763 90.4654 166.858 90.5287 166.938 90.6088C167.018 90.689 167.082 90.7843 167.124 90.8892C167.167 90.9942 167.188 91.1066 167.187 91.2199V91.2199Z" fill="url(#paint11_linear_229_3598)"/>
<path d="M109.408 162.9L109.348 158.37L109.278 153.65H108.198V148.15H109.198L108.388 91.0901H107.858V85.5901H108.298L107.498 28.9701H107.258V23.4701H107.418L107.328 17.0901V14.2201V13.7101L89.3281 8.96011L56.8281 0.370117V181.67L94.4181 168.49L109.418 163.23L109.408 162.9ZM104.568 156.25L97.4281 158.66L83.3381 163.43L66.6081 169.09L61.3081 170.88V159.55L60.9481 17.0901V11.0901L74.5981 14.0901L75.5981 14.3001L88.8781 17.1701L104.658 20.5801L104.568 156.25Z" fill="url(#paint12_linear_229_3598)"/>
<path d="M56.8284 0.409912V181.71L54.5084 179.27L50.3884 177.38L50.3584 169.41L50.3284 164.09L50.3084 159.82L50.2984 156.25L50.2684 148.87L50.0384 95.2399L49.9984 87.8599L49.7384 26.2299L49.7084 18.8499L49.6984 17.0899L49.6884 14.2199V14.0099L49.6584 9.02991L49.6484 5.70991L53.6084 4.35991L56.8284 0.409912Z" fill="url(#paint13_linear_229_3598)"/>
<path d="M104.567 20.5V156.25L101.867 155.08V21.91L104.567 20.5Z" fill="#CECECE"/>
<path d="M104.567 20.5001L101.867 21.9101L78.4167 17.0901L64.4467 14.2201L63.4267 14.0101L60.8967 13.4901L60.8867 11.0601L74.5367 14.0101L75.5067 14.2201L88.7867 17.0901L104.567 20.5001Z" fill="#B2B2B2"/>
<path d="M104.569 156.25L97.4291 158.66L83.3391 163.43H83.3291L66.5991 169.09L61.2991 170.88V169.19L61.2891 168.03L75.1991 163.59L90.0791 158.84H90.0891L101.869 155.08L104.569 156.25Z" fill="#B5B5B5"/>
<path d="M121.067 156.25L118.237 157.18L117.297 19.71L120.417 21.21L121.067 156.25Z" fill="#CECECE"/>
<path d="M161.737 10.53V13L156.657 14.01L155.597 14.22L141.157 17.09L120.417 21.21L117.297 19.71L129.977 17.09L143.877 14.22L144.887 14.01L161.737 10.53Z" fill="#B2B2B2"/>
<path d="M161.738 168.61V170.88L150.698 167.4H150.688L134.778 162.39H134.768L121.108 158.08H121.098L118.238 157.18L121.068 156.25L126.658 157.95L140.848 162.26H140.858L157.328 167.27L161.738 168.61Z" fill="#B5B5B5"/>
<path d="M42.6681 169.57V160.01L42.2781 17.09V14.01V9.01001V0.0100098L16.6681 9.08001L2.82812 14.01V163.62L5.21812 164.83L7.46812 165.96L10.8781 167.68L15.6781 170.11L42.6781 183.74L42.6681 169.57ZM41.3681 95.57C41.3681 95.6829 41.3459 95.7948 41.3027 95.8991C41.2594 96.0035 41.1961 96.0983 41.1162 96.1781C41.0364 96.258 40.9416 96.3213 40.8372 96.3645C40.7329 96.4078 40.6211 96.43 40.5081 96.43H39.3781C39.2652 96.43 39.1534 96.4078 39.049 96.3645C38.9447 96.3213 38.8499 96.258 38.77 96.1781C38.6902 96.0983 38.6268 96.0035 38.5836 95.8991C38.5404 95.7948 38.5181 95.6829 38.5181 95.57V94.35H37.1081L37.4281 160.18V164.4V168.7V170.93L34.9281 169.77L23.9281 164.68L15.4081 160.68L11.4081 158.81L10.0781 158.19L9.45813 19.06L11.4581 18.43L15.6681 17.09L24.6681 14.22L25.3281 14.01L36.6681 10.37V17.05L37.0381 93.05H38.4481V91.82C38.4507 91.5927 38.5422 91.3755 38.7029 91.2148C38.8636 91.054 39.0808 90.9626 39.3081 90.96H40.4381C40.6654 90.9626 40.8826 91.054 41.0434 91.2148C41.2041 91.3755 41.2955 91.5927 41.2981 91.82L41.3681 95.57Z" fill="url(#paint14_linear_229_3598)"/>
<path d="M41.3689 91.83V95.52C41.3689 95.6329 41.3467 95.7447 41.3034 95.8491C41.2602 95.9534 41.1969 96.0482 41.117 96.1281C41.0372 96.2079 40.9424 96.2713 40.838 96.3145C40.7337 96.3577 40.6218 96.38 40.5089 96.38H39.3789C39.4922 96.3813 39.6046 96.36 39.7096 96.3172C39.8145 96.2745 39.9099 96.2112 39.99 96.1311C40.0701 96.0509 40.1334 95.9556 40.1762 95.8506C40.2189 95.7457 40.2402 95.6333 40.2389 95.52V91.83C40.2389 91.717 40.2167 91.6052 40.1734 91.5009C40.1302 91.3965 40.0669 91.3017 39.987 91.2218C39.9072 91.142 39.8124 91.0786 39.708 91.0354C39.6037 90.9922 39.4918 90.97 39.3789 90.97H40.5089C40.7362 90.9726 40.9534 91.064 41.1141 91.2247C41.2749 91.3855 41.3663 91.6027 41.3689 91.83V91.83Z" fill="url(#paint15_linear_229_3598)"/>
<path d="M47.7683 177.36L45.0083 179.16L42.7083 183.74L42.6683 169.57L42.6583 164.25L42.6483 160.01L42.2783 17.09V14.01L42.2583 9.04L42.2383 0L44.6983 4.49L47.0783 5.77L47.0883 9.03L47.1083 14.01V14.22L47.1283 17.09V18.85L47.1583 26.23L47.4083 87.86L47.4383 95.24L47.6583 148.87L47.6883 156.25L47.6983 159.88L47.7183 164.15L47.7383 169.46L47.7683 177.36Z" fill="url(#paint16_linear_229_3598)"/>
<path d="M12.087 157.3L11.447 157.59L10.117 158.18L9.45703 19.0601L11.247 20.1901L11.447 52.8401L12.087 157.3Z" fill="#CECECE"/>
<path d="M36.717 12.2999L31.197 14.0099L30.517 14.2199L21.257 17.0899L11.447 20.1299L11.247 20.1899L9.45703 19.0599L11.447 18.4299L15.667 17.0899L24.707 14.2199L25.367 14.0099L36.707 10.4099L36.717 12.2999Z" fill="#B2B2B2"/>
<path d="M37.4772 170.88L34.9772 169.72L24.0172 164.63H24.0072L15.4872 160.67H15.4772L11.4472 158.8L10.1172 158.18L11.4472 157.59L12.0872 157.3L19.3972 160.57H19.4072L28.2772 164.54L37.4672 168.65V169.67L37.4772 170.88Z" fill="#B5B5B5"/>
<path d="M170.538 1.05991V180.71L168.888 181.71V167.04L168.878 161.7V156.91L168.838 17.0899L168.828 14.2199V0.409912L170.538 1.05991Z" fill="url(#paint17_linear_229_3598)"/>
<path d="M40.2395 91.83V95.52C40.2395 95.748 40.1489 95.9668 39.9876 96.1281C39.8264 96.2894 39.6076 96.38 39.3795 96.38C39.1514 96.38 38.9327 96.2894 38.7714 96.1281C38.6101 95.9668 38.5195 95.748 38.5195 95.52V94.3H39.3595C39.4179 94.3 39.4738 94.2768 39.5151 94.2355C39.5564 94.1943 39.5795 94.1383 39.5795 94.08V93.28C39.5795 93.2216 39.5564 93.1657 39.5151 93.1244C39.4738 93.0831 39.4179 93.06 39.3595 93.06H38.5195V91.83C38.5195 91.6019 38.6101 91.3831 38.7714 91.2218C38.9327 91.0606 39.1514 90.97 39.3795 90.97C39.6076 90.97 39.8264 91.0606 39.9876 91.2218C40.1489 91.3831 40.2395 91.6019 40.2395 91.83V91.83Z" fill="url(#paint18_linear_229_3598)"/>
<path d="M39.5788 93.2801V94.0801C39.5788 94.1384 39.5556 94.1944 39.5143 94.2356C39.4731 94.2769 39.4171 94.3 39.3587 94.3H34.0887C33.9243 94.3 33.7666 94.2347 33.6503 94.1185C33.5341 94.0022 33.4688 93.8445 33.4688 93.6801C33.4688 93.5156 33.5341 93.3579 33.6503 93.2417C33.7666 93.1254 33.9243 93.0601 34.0887 93.0601H39.3587C39.4171 93.0601 39.4731 93.0832 39.5143 93.1245C39.5556 93.1658 39.5788 93.2217 39.5788 93.2801Z" fill="url(#paint19_linear_229_3598)"/>
<path d="M166.068 91.2201V94.9101C166.065 95.1374 165.974 95.3546 165.813 95.5153C165.652 95.6761 165.435 95.7675 165.208 95.7701V95.7701C164.98 95.7675 164.763 95.6761 164.602 95.5153C164.442 95.3546 164.35 95.1374 164.348 94.9101V93.6801H165.188C165.246 93.6801 165.302 93.6569 165.343 93.6157C165.384 93.5744 165.408 93.5184 165.408 93.4601V92.6601C165.408 92.6017 165.384 92.5458 165.343 92.5045C165.302 92.4633 165.246 92.4401 165.188 92.4401H164.348V91.2201C164.348 91.1072 164.37 90.9953 164.413 90.891C164.456 90.7867 164.52 90.6918 164.6 90.612C164.679 90.5321 164.774 90.4688 164.879 90.4256C164.983 90.3823 165.095 90.3601 165.208 90.3601V90.3601C165.321 90.3601 165.432 90.3823 165.537 90.4256C165.641 90.4688 165.736 90.5321 165.816 90.612C165.896 90.6918 165.959 90.7867 166.002 90.891C166.045 90.9953 166.068 91.1072 166.068 91.2201V91.2201Z" fill="url(#paint20_linear_229_3598)"/>
<path d="M165.397 92.6599V93.4599C165.397 93.5183 165.374 93.5742 165.333 93.6155C165.292 93.6568 165.236 93.6799 165.177 93.6799H157.897C157.733 93.6799 157.575 93.6146 157.459 93.4983C157.343 93.3821 157.277 93.2244 157.277 93.0599C157.277 92.8955 157.343 92.7378 157.459 92.6215C157.575 92.5052 157.733 92.4399 157.897 92.4399H165.177C165.236 92.4399 165.292 92.4631 165.333 92.5044C165.374 92.5456 165.397 92.6016 165.397 92.6599V92.6599Z" fill="url(#paint21_linear_229_3598)"/>
<path d="M111.789 148.15V153.65H108.199L108.209 148.15H111.789Z" fill="url(#paint22_linear_229_3598)"/>
<path d="M114.119 148.88V154.47L112.419 153.65H111.789V148.15H112.179L114.119 148.88Z" fill="url(#paint23_linear_229_3598)"/>
<path d="M111.787 85.5901V91.0901H107.867L107.877 85.5901H111.787Z" fill="url(#paint24_linear_229_3598)"/>
<path d="M113.789 85.9101V91.5001L112.089 91.0901H111.789V85.5901H111.849L113.789 85.9101Z" fill="url(#paint25_linear_229_3598)"/>
<path d="M111.787 23.52V29.02L111.487 28.97H107.277V23.47H111.257L111.787 23.52Z" fill="url(#paint26_linear_229_3598)"/>
<path d="M113.199 23.65V29.24L111.789 29.02V23.52L113.199 23.65Z" fill="url(#paint27_linear_229_3598)"/>
<path d="M50.0402 95.2401H47.4402L47.4102 87.8601H50.0002L50.0402 95.2401Z" fill="url(#paint28_linear_229_3598)"/>
<path d="M49.7389 26.2301H47.1589L47.1289 18.8501H49.7089L49.7389 26.2301Z" fill="url(#paint29_linear_229_3598)"/>
<path d="M50.3002 156.25H47.6902L47.6602 148.87H50.2702L50.3002 156.25Z" fill="url(#paint30_linear_229_3598)"/>
</g>
<defs>
<linearGradient id="paint0_linear_229_3598" x1="-8.32" y1="24.9" x2="213.76" y2="153.12" gradientUnits="userSpaceOnUse">
<stop stop-color="#8C6239"/>
<stop offset="0.21" stop-color="#A67C50"/>
<stop offset="0.45" stop-color="#BD9365"/>
<stop offset="0.61" stop-color="#C69C6D"/>
<stop offset="0.71" stop-color="#BC9264"/>
<stop offset="0.88" stop-color="#A2784D"/>
<stop offset="1" stop-color="#8C6239"/>
</linearGradient>
<linearGradient id="paint1_linear_229_3598" x1="44.4209" y1="125.56" x2="-28.0991" y2="53.0299" gradientUnits="userSpaceOnUse">
<stop stop-color="#754C24"/>
<stop offset="1" stop-color="#42210B"/>
</linearGradient>
<linearGradient id="paint2_linear_229_3598" x1="233.922" y1="122.45" x2="163.052" y2="51.5801" gradientUnits="userSpaceOnUse">
<stop stop-color="#754C24"/>
<stop offset="1" stop-color="#42210B"/>
</linearGradient>
<linearGradient id="paint3_linear_229_3598" x1="151.081" y1="64.1901" x2="55.9108" y2="-30.9699" gradientUnits="userSpaceOnUse">
<stop stop-color="#754C24"/>
<stop offset="1" stop-color="#42210B"/>
</linearGradient>
<linearGradient id="paint4_linear_229_3598" x1="103.291" y1="150.48" x2="103.291" y2="162.02" gradientUnits="userSpaceOnUse">
<stop stop-color="#754C24"/>
<stop offset="1" stop-color="#42210B"/>
</linearGradient>
<linearGradient id="paint5_linear_229_3598" x1="-8.69" y1="25.58" x2="213.92" y2="154.1" gradientUnits="userSpaceOnUse">
<stop stop-color="#A67C52"/>
<stop offset="0.61" stop-color="#C69C6D"/>
<stop offset="0.77" stop-color="#BC9265"/>
<stop offset="1" stop-color="#A67C52"/>
</linearGradient>
<linearGradient id="paint6_linear_229_3598" x1="43.1386" y1="131.51" x2="-36.3314" y2="52.03" gradientUnits="userSpaceOnUse">
<stop stop-color="#754C24"/>
<stop offset="1" stop-color="#42210B"/>
</linearGradient>
<linearGradient id="paint7_linear_229_3598" x1="242.048" y1="129.04" x2="163.748" y2="50.7305" gradientUnits="userSpaceOnUse">
<stop stop-color="#754C24"/>
<stop offset="1" stop-color="#42210B"/>
</linearGradient>
<linearGradient id="paint8_linear_229_3598" x1="153.181" y1="61.5501" x2="53.6609" y2="-37.9599" gradientUnits="userSpaceOnUse">
<stop stop-color="#754C24"/>
<stop offset="1" stop-color="#42210B"/>
</linearGradient>
<linearGradient id="paint9_linear_229_3598" x1="51.0087" y1="168.75" x2="47.0587" y2="164.8" gradientUnits="userSpaceOnUse">
<stop stop-color="#808080"/>
<stop offset="1" stop-color="#4D4D4D"/>
</linearGradient>
<linearGradient id="paint10_linear_229_3598" x1="90.6594" y1="126.39" x2="203.849" y2="61.0501" gradientUnits="userSpaceOnUse">
<stop stop-color="#A67C52"/>
<stop offset="0.61" stop-color="#A67C52"/>
<stop offset="0.7" stop-color="#9C7349"/>
<stop offset="0.84" stop-color="#825932"/>
<stop offset="1" stop-color="#603813"/>
</linearGradient>
<linearGradient id="paint11_linear_229_3598" x1="165.217" y1="93.0599" x2="167.197" y2="93.0599" gradientUnits="userSpaceOnUse">
<stop stop-color="#B3B3B3"/>
<stop offset="1" stop-color="#CCCCCC"/>
</linearGradient>
<linearGradient id="paint12_linear_229_3598" x1="20.1681" y1="118.19" x2="130.758" y2="54.3401" gradientUnits="userSpaceOnUse">
<stop stop-color="#C69C6D"/>
<stop offset="0.61" stop-color="#A67C52"/>
<stop offset="0.7" stop-color="#9C7349"/>
<stop offset="0.84" stop-color="#825932"/>
<stop offset="1" stop-color="#603813"/>
</linearGradient>
<linearGradient id="paint13_linear_229_3598" x1="49.6484" y1="91.0599" x2="56.8284" y2="91.0599" gradientUnits="userSpaceOnUse">
<stop stop-color="#754C24"/>
<stop offset="1" stop-color="#8C6239"/>
</linearGradient>
<linearGradient id="paint14_linear_229_3598" x1="80.1881" y1="65.73" x2="-20.2119" y2="123.7" gradientUnits="userSpaceOnUse">
<stop stop-color="#C69C6D"/>
<stop offset="0.52" stop-color="#C69C6D"/>
<stop offset="0.6" stop-color="#BC9264"/>
<stop offset="0.74" stop-color="#A2794D"/>
<stop offset="0.91" stop-color="#784F28"/>
<stop offset="1" stop-color="#603813"/>
</linearGradient>
<linearGradient id="paint15_linear_229_3598" x1="39.3889" y1="93.67" x2="41.3789" y2="93.67" gradientUnits="userSpaceOnUse">
<stop stop-color="#B3B3B3"/>
<stop offset="1" stop-color="#CCCCCC"/>
</linearGradient>
<linearGradient id="paint16_linear_229_3598" x1="42.2383" y1="91.87" x2="47.7683" y2="91.87" gradientUnits="userSpaceOnUse">
<stop stop-color="#754C24"/>
<stop offset="1" stop-color="#8C6239"/>
</linearGradient>
<linearGradient id="paint17_linear_229_3598" x1="168.828" y1="91.0599" x2="170.538" y2="91.0599" gradientUnits="userSpaceOnUse">
<stop stop-color="#754C24"/>
<stop offset="1" stop-color="#8C6239"/>
</linearGradient>
<linearGradient id="paint18_linear_229_3598" x1="38.5295" y1="93.67" x2="40.2495" y2="93.67" gradientUnits="userSpaceOnUse">
<stop stop-color="#CCCCCC"/>
<stop offset="1" stop-color="#E6E6E6"/>
</linearGradient>
<linearGradient id="paint19_linear_229_3598" x1="33.4888" y1="93.6801" x2="39.5888" y2="93.6801" gradientUnits="userSpaceOnUse">
<stop stop-color="#999999"/>
<stop offset="1" stop-color="#CCCCCC"/>
</linearGradient>
<linearGradient id="paint20_linear_229_3598" x1="164.348" y1="93.0601" x2="166.078" y2="93.0601" gradientUnits="userSpaceOnUse">
<stop stop-color="#CCCCCC"/>
<stop offset="1" stop-color="#E6E6E6"/>
</linearGradient>
<linearGradient id="paint21_linear_229_3598" x1="157.297" y1="93.0599" x2="165.407" y2="93.0599" gradientUnits="userSpaceOnUse">
<stop stop-color="#999999"/>
<stop offset="1" stop-color="#CCCCCC"/>
</linearGradient>
<linearGradient id="paint22_linear_229_3598" x1="108.199" y1="150.9" x2="111.789" y2="150.9" gradientUnits="userSpaceOnUse">
<stop stop-color="#736357"/>
<stop offset="1" stop-color="#534741"/>
</linearGradient>
<linearGradient id="paint23_linear_229_3598" x1="111.649" y1="153.57" x2="114.299" y2="148.98" gradientUnits="userSpaceOnUse">
<stop stop-color="#736357"/>
<stop offset="1" stop-color="#998675"/>
</linearGradient>
<linearGradient id="paint24_linear_229_3598" x1="107.867" y1="88.3401" x2="111.787" y2="88.3401" gradientUnits="userSpaceOnUse">
<stop stop-color="#736357"/>
<stop offset="1" stop-color="#534741"/>
</linearGradient>
<linearGradient id="paint25_linear_229_3598" x1="111.439" y1="90.8901" x2="114.179" y2="86.1401" gradientUnits="userSpaceOnUse">
<stop stop-color="#736357"/>
<stop offset="1" stop-color="#998675"/>
</linearGradient>
<linearGradient id="paint26_linear_229_3598" x1="107.277" y1="26.24" x2="111.787" y2="26.24" gradientUnits="userSpaceOnUse">
<stop stop-color="#736357"/>
<stop offset="1" stop-color="#534741"/>
</linearGradient>
<linearGradient id="paint27_linear_229_3598" x1="111.169" y1="28.67" x2="113.849" y2="24.03" gradientUnits="userSpaceOnUse">
<stop stop-color="#736357"/>
<stop offset="1" stop-color="#998675"/>
</linearGradient>
<linearGradient id="paint28_linear_229_3598" x1="47.4102" y1="91.5501" x2="50.0402" y2="91.5501" gradientUnits="userSpaceOnUse">
<stop stop-color="#736357"/>
<stop offset="1" stop-color="#534741"/>
</linearGradient>
<linearGradient id="paint29_linear_229_3598" x1="47.1289" y1="22.5401" x2="49.7389" y2="22.5401" gradientUnits="userSpaceOnUse">
<stop stop-color="#736357"/>
<stop offset="1" stop-color="#534741"/>
</linearGradient>
<linearGradient id="paint30_linear_229_3598" x1="47.6602" y1="152.56" x2="50.3002" y2="152.56" gradientUnits="userSpaceOnUse">
<stop stop-color="#736357"/>
<stop offset="1" stop-color="#534741"/>
</linearGradient>
<clipPath id="clip0_229_3598">
<rect width="205.9" height="183.74" fill="white"/>
</clipPath>
</defs>
</svg>
