<svg width="177" height="197" viewBox="0 0 177 197" fill="none" xmlns="http://www.w3.org/2000/svg">
<path d="M175.5 8.20002L0.400002 7.90002L0 190.6H8L168.8 191.8H176.1L175.5 8.20002ZM8 182.8L7.9 15.5L168.3 16.3L168.8 182.8H8Z" fill="url(#paint0_linear_229_4342)"/>
<path d="M12.2984 175.5L7.99844 182.8L7.89844 15.5L12.1984 19.8L12.2984 175.5Z" fill="url(#paint1_linear_229_4342)"/>
<path d="M168.701 182.8L163.901 175.5L163.301 20.5L168.201 16.3L168.701 182.8Z" fill="url(#paint2_linear_229_4342)"/>
<path d="M168.298 16.3L163.398 20.5L12.1984 19.8L7.89844 15.5L168.298 16.3Z" fill="url(#paint3_linear_229_4342)"/>
<path d="M168.7 182.8H8L12.3 175.5H163.9L168.7 182.8Z" fill="url(#paint4_linear_229_4342)"/>
<path d="M176 193H173.2L172.7 11.3L3.3 10.8L3.1 192.4H0L0.400002 7.90002L175.5 8.20002L176 193Z" fill="url(#paint5_linear_229_4342)"/>
<path d="M4.90157 12.5L4.70156 190.6L3.70156 191.7L3.10156 192.4L3.30157 10.8L4.90157 12.5Z" fill="url(#paint6_linear_229_4342)"/>
<path d="M173.201 193L172.401 192.5L171.401 191.8V191.1L170.801 12.9L172.701 11.3L173.201 193Z" fill="url(#paint7_linear_229_4342)"/>
<path d="M172.701 11.3L170.801 12.9L4.90078 12.5L3.30078 10.8L172.701 11.3Z" fill="url(#paint8_linear_229_4342)"/>
<path d="M126.398 23.1001V23.8001H128.698V23.1001H127.998V17.5001H128.698V16.7001H126.498V17.5001H127.198V23.1001H126.398Z" fill="url(#paint9_linear_229_4342)"/>
<path d="M76 20.6001V170.8L76.9 171V175.5L79 176.4V179.7L84.2 181.5L97.4 185.9L118.5 193V185.7V181.2V178.9L119.3 7.10007V2.20007L99.8 7.10007L88.4 10.0001L81 11.9001L79 12.4001L79.1 15.2001L77 16.0001V20.4001L76 20.6001ZM80.7 20.7001L113.5 13.7001V14.8001L112.9 179.2V181V181.5V182.3L110.5 181.5L103.5 179.2L80.7 171.7V20.7001Z" fill="url(#paint10_linear_229_4342)"/>
<path d="M75.3984 13.5V20.8L75.9984 20.6L76.9984 20.4V16L79.1984 15.4L79.0984 12.6L75.3984 13.5Z" fill="url(#paint11_linear_229_4342)"/>
<path d="M75.3984 170.7V178.6L75.9984 178.8L76.2984 178.9L77.3984 179.3L79.0984 179.9V176.6L76.8984 175.7V171.1L75.9984 170.9L75.3984 170.7Z" fill="url(#paint12_linear_229_4342)"/>
<path d="M118.5 193.2L122.3 191.7L124.1 192.4V185.9L124.2 181.4V179.1L124.9 7.3V5.7V3.5L119.4 2.5V7.3L118.6 179.1V181.4L118.5 185.9V193.2Z" fill="url(#paint13_linear_229_4342)"/>
<path d="M80.6992 20.7001V171.7L81.8992 171L81.7992 21.4001L80.6992 20.7001Z" fill="#CECECE"/>
<path d="M80.6992 171.7L103.499 179.2L110.499 181.5L112.899 182.2V181.4V180.9L107.399 179.2H107.299L81.8992 171L80.6992 171.7Z" fill="#B5B5B5"/>
<path d="M80.6992 20.7001L81.7992 21.4001L113.499 14.7001V13.7001L80.6992 20.7001Z" fill="#B2B2B2"/>
<path d="M4 14L5.7 179.8L8 180.9L13.1 183.3L22.4 187.8L39.8 196.1L39.7 187.6V183.1V180.7L38.6 8.59998V1.09998L18.4 8.59998L5.7 13.3L4 14ZM9.5 20.9L32.6 13.5V14.7L33.3 100.1C33.5 100.1 33.6 100.1 33.8 100.1V98.9C33.8 98.4 34.2 98 34.7 98H35.4C35.9 98 36.3 98.4 36.3 98.9V103.6C36.3 104.1 35.9 104.5 35.4 104.5H34.7C34.2 104.5 33.8 104.1 33.8 103.6V102.4C33.6 102.4 33.5 102.4 33.3 102.4L33.9 180.8V182.7V183.2V184L32.3 183.2L27.1 180.8L11 173.3L9.5 20.9Z" fill="url(#paint14_linear_229_4342)"/>
<path d="M34.6992 104.4H35.3992C35.8992 104.4 36.2992 104 36.2992 103.5V98.8C36.2992 98.3 35.8992 97.9 35.3992 97.9H34.6992C35.1992 97.9 35.5992 98.3 35.5992 98.8V103.5C35.5992 104 35.1992 104.4 34.6992 104.4Z" fill="url(#paint15_linear_229_4342)"/>
<path d="M9.5 20.9L11 173.3L12.2 172.7L10.6 21.8L9.5 20.9Z" fill="#CECECE"/>
<path d="M11 173.3L27.1 180.8L32.3 183.2L34 183.9V183.2V182.6L29.8 180.7L12.2 172.7L11 173.3Z" fill="#B5B5B5"/>
<path d="M9.5 20.9L10.6 21.8L32.6 14.7V13.5L9.5 20.9Z" fill="#B2B2B2"/>
<path d="M38.6016 1.09998L38.7016 8.59998L39.7016 180.7V183.1L39.8016 187.7V196.1L44.8016 193L44.7016 187.6V183.1V180.7L44.6016 177.8L43.5016 19.1L43.4016 13.2V11.3V8.59998V6.29998L38.6016 1.09998Z" fill="url(#paint16_linear_229_4342)"/>
<path d="M132.5 194.3L149.8 185.7L159 181.1L163.6 178.8L165 178.1V177L165.1 170.1L166.8 12.9L164.3 12L151.2 7.30002L133.5 0.900024V7.30002L132.5 179V181.3V185.8V194.3ZM134.4 98.4C134.4 97.9 134.8 97.5 135.3 97.5H136C136.5 97.5 136.9 97.9 136.9 98.4V99.6C137.4 99.6 137.9 99.6 138.5 99.7L139.1 15V13.7L161.7 20.4L159.5 171.7L143.7 178.9L138.7 181.2L137.9 181.6V181.2V180.4V178.9L138.5 101.7C138 101.7 137.5 101.7 136.9 101.7V102.9C136.9 103.4 136.5 103.8 136 103.8H135.3C134.8 103.8 134.4 103.4 134.4 102.9V98.4V98.4Z" fill="url(#paint17_linear_229_4342)"/>
<path d="M134.398 98.4V103.1C134.398 103.6 134.798 104 135.298 104H135.998C135.498 104 135.098 103.6 135.098 103.1V98.4C135.098 97.9 135.498 97.5 135.998 97.5H135.298C134.798 97.5 134.398 97.9 134.398 98.4Z" fill="url(#paint18_linear_229_4342)"/>
<path d="M124.102 192.4L125.602 191.6V185.9L125.702 181.4V179.1V178.2L126.102 102.4V101.2V96.7V95.6L126.402 23.8V23.1L126.502 17.5V16.7V12V7.29998V6.19998L124.902 5.59998V7.29998L124.202 179.1V181.4L124.102 185.9V192.4Z" fill="url(#paint19_linear_229_4342)"/>
<path d="M127.699 191.3L132.499 194.3V185.8V181.3V179L133.399 7.30002L133.499 0.900024L128.799 6.00002V7.30002V12L128.699 16.7V17.5V23.1V23.8L128.299 95.6L128.199 96.7V101.2V102.4L127.699 178.2V179V181.3V185.9V191.3Z" fill="url(#paint20_linear_229_4342)"/>
<path d="M158.5 171.1L159.6 171.7L161.8 20.4L160.3 21.1L158.5 171.1Z" fill="#CECECE"/>
<path d="M137.898 181.3H138.798L143.798 179L159.598 171.7L158.498 171.1L141.198 179L137.898 180.5V181.3Z" fill="#B5B5B5"/>
<path d="M139.199 14.9001L160.299 21.1001L161.799 20.4001L139.199 13.7001V14.9001Z" fill="#B2B2B2"/>
<path d="M126.102 101.2V102.4H128.202V101.2H127.402V96.7H128.202L128.302 95.6H126.102V96.7H126.702V101.2H126.102Z" fill="url(#paint21_linear_229_4342)"/>
<path d="M35.0008 100.8V101.6C35.0008 102 34.7008 102.4 34.2008 102.4C34.0008 102.4 33.9008 102.4 33.8008 102.4V103.6C33.8008 104.1 34.2008 104.5 34.7008 104.5C35.2008 104.5 35.6008 104.1 35.6008 103.6V98.9C35.6008 98.4 35.2008 98 34.7008 98C34.2008 98 33.8008 98.4 33.8008 98.9V100.1C34.0008 100.1 34.1008 100.1 34.2008 100.1C34.6008 100.1 35.0008 100.4 35.0008 100.8Z" fill="url(#paint22_linear_229_4342)"/>
<path d="M25.3008 101C25.3008 101.5 25.6008 101.9 26.1008 101.9C27.3008 102 30.0008 102.3 33.3008 102.4C33.5008 102.4 33.6008 102.4 33.8008 102.4C33.9008 102.4 34.1008 102.4 34.2008 102.4C34.6008 102.4 35.0008 102.1 35.0008 101.6V100.8C35.0008 100.4 34.6008 100 34.2008 100C34.1008 100 33.9008 100 33.8008 100C33.6008 100 33.5008 100 33.3008 100C31.5008 100.1 28.5008 100.1 26.3008 99.9C25.8008 100 25.3008 100.4 25.3008 101Z" fill="url(#paint23_linear_229_4342)"/>
<path d="M135.102 98.4V103.1C135.102 103.6 135.502 104 136.002 104C136.502 104 136.902 103.6 136.902 103.1V101.9C136.702 101.9 136.602 101.9 136.402 101.9C136.002 101.9 135.602 101.6 135.602 101.1V100.3C135.602 99.9 136.002 99.5 136.402 99.5C136.502 99.5 136.702 99.5 136.802 99.5V98.3C136.802 97.8 136.402 97.4 135.902 97.4C135.502 97.5 135.102 97.9 135.102 98.4Z" fill="url(#paint24_linear_229_4342)"/>
<path d="M135.699 100.3V101.1C135.699 101.5 135.999 101.9 136.499 101.9C136.699 101.9 136.799 101.9 136.999 101.9C137.599 101.9 138.099 101.9 138.599 101.9C141.399 101.8 143.599 101.6 144.699 101.4C145.199 101.3 145.499 101 145.499 100.5C145.499 100 144.999 99.6 144.499 99.6C142.699 99.7 140.399 99.7 138.599 99.7C137.999 99.7 137.399 99.7 136.999 99.6C136.799 99.6 136.699 99.6 136.599 99.6C136.099 99.5 135.699 99.9 135.699 100.3Z" fill="url(#paint25_linear_229_4342)"/>
<path d="M125.699 179.1L127.699 179V178.2H127.199V172.1H126.299V178.2H125.699V179.1Z" fill="url(#paint26_linear_229_4342)"/>
<defs>
<linearGradient id="paint0_linear_229_4342" x1="-17.3886" y1="38.6989" x2="193.95" y2="160.715" gradientUnits="userSpaceOnUse">
<stop stop-color="#8C6239"/>
<stop offset="0.2098" stop-color="#A67C50"/>
<stop offset="0.4547" stop-color="#BD9365"/>
<stop offset="0.6068" stop-color="#C69C6D"/>
<stop offset="0.7088" stop-color="#BC9264"/>
<stop offset="0.8797" stop-color="#A2784D"/>
<stop offset="1" stop-color="#8C6239"/>
</linearGradient>
<linearGradient id="paint1_linear_229_4342" x1="49.7884" y1="140.98" x2="-33.9216" y2="57.27" gradientUnits="userSpaceOnUse">
<stop stop-color="#754C24"/>
<stop offset="1" stop-color="#42210B"/>
</linearGradient>
<linearGradient id="paint2_linear_229_4342" x1="210.238" y1="141.303" x2="126.413" y2="57.4776" gradientUnits="userSpaceOnUse">
<stop stop-color="#754C24"/>
<stop offset="1" stop-color="#42210B"/>
</linearGradient>
<linearGradient id="paint3_linear_229_4342" x1="128.351" y1="56.1828" x2="47.7596" y2="-24.4082" gradientUnits="userSpaceOnUse">
<stop stop-color="#754C24"/>
<stop offset="1" stop-color="#42210B"/>
</linearGradient>
<linearGradient id="paint4_linear_229_4342" x1="88.335" y1="175.53" x2="88.335" y2="182.82" gradientUnits="userSpaceOnUse">
<stop stop-color="#754C24"/>
<stop offset="1" stop-color="#42210B"/>
</linearGradient>
<linearGradient id="paint5_linear_229_4342" x1="-17.7745" y1="39.3671" x2="194.106" y2="161.697" gradientUnits="userSpaceOnUse">
<stop stop-color="#A67C52"/>
<stop offset="0.6068" stop-color="#C69C6D"/>
<stop offset="0.7665" stop-color="#BC9265"/>
<stop offset="1" stop-color="#A67C52"/>
</linearGradient>
<linearGradient id="paint6_linear_229_4342" x1="48.504" y1="146.932" x2="-42.1664" y2="56.2618" gradientUnits="userSpaceOnUse">
<stop stop-color="#754C24"/>
<stop offset="1" stop-color="#42210B"/>
</linearGradient>
<linearGradient id="paint7_linear_229_4342" x1="218.371" y1="147.886" x2="127.117" y2="56.6325" gradientUnits="userSpaceOnUse">
<stop stop-color="#754C24"/>
<stop offset="1" stop-color="#42210B"/>
</linearGradient>
<linearGradient id="paint8_linear_229_4342" x1="130.448" y1="53.5475" x2="45.4975" y2="-31.4029" gradientUnits="userSpaceOnUse">
<stop stop-color="#754C24"/>
<stop offset="1" stop-color="#42210B"/>
</linearGradient>
<linearGradient id="paint9_linear_229_4342" x1="129.933" y1="17.9386" x2="125.233" y2="22.6386" gradientUnits="userSpaceOnUse">
<stop stop-color="#736357"/>
<stop offset="1" stop-color="#534741"/>
</linearGradient>
<linearGradient id="paint10_linear_229_4342" x1="159.3" y1="42.3738" x2="50.4324" y2="151.241" gradientUnits="userSpaceOnUse">
<stop stop-color="#C69C6D"/>
<stop offset="0.6068" stop-color="#A67C52"/>
<stop offset="0.6953" stop-color="#9C7349"/>
<stop offset="0.8442" stop-color="#825932"/>
<stop offset="1" stop-color="#603813"/>
</linearGradient>
<linearGradient id="paint11_linear_229_4342" x1="79.1487" y1="16.6898" x2="75.4099" y2="16.6898" gradientUnits="userSpaceOnUse">
<stop stop-color="#333333"/>
<stop offset="0.1249" stop-color="#3A3A3A"/>
<stop offset="1" stop-color="#666666"/>
</linearGradient>
<linearGradient id="paint12_linear_229_4342" x1="79.0658" y1="175.305" x2="75.4099" y2="175.305" gradientUnits="userSpaceOnUse">
<stop stop-color="#333333"/>
<stop offset="0.3557" stop-color="#424242"/>
<stop offset="1" stop-color="#666666"/>
</linearGradient>
<linearGradient id="paint13_linear_229_4342" x1="124.891" y1="97.8214" x2="118.506" y2="97.8214" gradientUnits="userSpaceOnUse">
<stop stop-color="#603813"/>
<stop offset="0.0490451" stop-color="#5C3512"/>
<stop offset="0.2817" stop-color="#4D2A0E"/>
<stop offset="0.5599" stop-color="#45230C"/>
<stop offset="1" stop-color="#42210B"/>
</linearGradient>
<linearGradient id="paint14_linear_229_4342" x1="82.2334" y1="44.7386" x2="-23.5475" y2="150.519" gradientUnits="userSpaceOnUse">
<stop stop-color="#603813"/>
<stop offset="0.474" stop-color="#C69C6D"/>
<stop offset="1" stop-color="#A67C52"/>
</linearGradient>
<linearGradient id="paint15_linear_229_4342" x1="36.2922" y1="101.21" x2="34.6791" y2="101.21" gradientUnits="userSpaceOnUse">
<stop stop-color="#999999"/>
<stop offset="1" stop-color="#F2F2F2"/>
</linearGradient>
<linearGradient id="paint16_linear_229_4342" x1="44.7598" y1="98.624" x2="38.6238" y2="98.624" gradientUnits="userSpaceOnUse">
<stop stop-color="#603813"/>
<stop offset="0.0490451" stop-color="#5C3512"/>
<stop offset="0.2817" stop-color="#4D2A0E"/>
<stop offset="0.5599" stop-color="#45230C"/>
<stop offset="1" stop-color="#42210B"/>
</linearGradient>
<linearGradient id="paint17_linear_229_4342" x1="194.544" y1="148.584" x2="90.1464" y2="44.1866" gradientUnits="userSpaceOnUse">
<stop stop-color="#603813"/>
<stop offset="0.474" stop-color="#C69C6D"/>
<stop offset="1" stop-color="#A67C52"/>
</linearGradient>
<linearGradient id="paint18_linear_229_4342" x1="136.023" y1="100.682" x2="134.41" y2="100.682" gradientUnits="userSpaceOnUse">
<stop stop-color="#999999"/>
<stop offset="1" stop-color="#F2F2F2"/>
</linearGradient>
<linearGradient id="paint19_linear_229_4342" x1="126.536" y1="99.0335" x2="124.106" y2="99.0335" gradientUnits="userSpaceOnUse">
<stop stop-color="#754C24"/>
<stop offset="0.0306588" stop-color="#704822"/>
<stop offset="0.2041" stop-color="#5C3718"/>
<stop offset="0.3992" stop-color="#4D2A11"/>
<stop offset="0.6319" stop-color="#45230C"/>
<stop offset="1" stop-color="#42210B"/>
</linearGradient>
<linearGradient id="paint20_linear_229_4342" x1="133.454" y1="97.6085" x2="127.664" y2="97.6085" gradientUnits="userSpaceOnUse">
<stop stop-color="#603813"/>
<stop offset="0.0490451" stop-color="#5C3512"/>
<stop offset="0.2817" stop-color="#4D2A0E"/>
<stop offset="0.5599" stop-color="#45230C"/>
<stop offset="1" stop-color="#42210B"/>
</linearGradient>
<linearGradient id="paint21_linear_229_4342" x1="128.254" y1="98.9785" x2="126.053" y2="98.9785" gradientUnits="userSpaceOnUse">
<stop stop-color="#736357"/>
<stop offset="1" stop-color="#534741"/>
</linearGradient>
<linearGradient id="paint22_linear_229_4342" x1="35.5777" y1="101.209" x2="33.7836" y2="101.209" gradientUnits="userSpaceOnUse">
<stop stop-color="#CCCCCC"/>
<stop offset="1" stop-color="#E6E6E6"/>
</linearGradient>
<linearGradient id="paint23_linear_229_4342" x1="34.9898" y1="101.227" x2="25.326" y2="101.227" gradientUnits="userSpaceOnUse">
<stop stop-color="#999999"/>
<stop offset="1" stop-color="#CCCCCC"/>
</linearGradient>
<linearGradient id="paint24_linear_229_4342" x1="136.923" y1="100.682" x2="135.122" y2="100.682" gradientUnits="userSpaceOnUse">
<stop stop-color="#CCCCCC"/>
<stop offset="1" stop-color="#E6E6E6"/>
</linearGradient>
<linearGradient id="paint25_linear_229_4342" x1="145.379" y1="100.7" x2="135.707" y2="100.7" gradientUnits="userSpaceOnUse">
<stop stop-color="#999999"/>
<stop offset="1" stop-color="#CCCCCC"/>
</linearGradient>
<linearGradient id="paint26_linear_229_4342" x1="127.747" y1="175.569" x2="125.659" y2="175.569" gradientUnits="userSpaceOnUse">
<stop stop-color="#736357"/>
<stop offset="1" stop-color="#534741"/>
</linearGradient>
</defs>
</svg>
