<svg width="274" height="236" viewBox="0 0 274 236" fill="none" xmlns="http://www.w3.org/2000/svg">
<path d="M273.701 17.6L1.70078 18.3L0.800781 223H8.80078L266.201 222.6H273.501L273.701 17.6ZM8.80078 215.3L9.30078 25.9L266.601 25.7L266.301 213.7L8.80078 215.3Z" fill="url(#paint0_linear_229_4344)"/>
<path d="M13.2008 208L8.80078 215.3L9.20078 25.9L13.6008 30.2L13.2008 208Z" fill="url(#paint1_linear_229_4344)"/>
<path d="M266.199 213.7L261.199 206.4L261.599 29.9L266.499 25.7L266.199 213.7Z" fill="url(#paint2_linear_229_4344)"/>
<path d="M266.499 25.7L261.599 29.9L13.5992 30.1999L9.19922 25.9L266.499 25.7Z" fill="url(#paint3_linear_229_4344)"/>
<path d="M266.201 213.7L8.80078 215.3L13.2008 208L261.201 206.4L266.201 213.7Z" fill="url(#paint4_linear_229_4344)"/>
<path d="M273.501 223.9H270.701L271.001 20.7L4.60078 21.2L3.90078 224.8H0.800781L1.80078 18.3L273.701 17.6L273.501 223.9Z" fill="url(#paint5_linear_229_4344)"/>
<path d="M6.30234 22.9L5.60234 223L4.50234 224.1L3.90234 224.8L4.60234 21.2L6.30234 22.9Z" fill="url(#paint6_linear_229_4344)"/>
<path d="M270.701 223.9L269.801 223.4L268.801 222.7V222L269.101 22.2999L271.001 20.7L270.701 223.9Z" fill="url(#paint7_linear_229_4344)"/>
<path d="M271.002 20.7L269.102 22.2999L6.30156 22.9L4.60156 21.2L271.002 20.7Z" fill="url(#paint8_linear_229_4344)"/>
<path d="M190.698 17.5L190.598 22.9H193.698L193.798 17.4H190.598L190.698 17.5Z" fill="#534741"/>
<path d="M116.099 216.7L114.699 216.1V213.8" fill="#E0CFBD"/>
<path d="M115.898 17.1V17L130.398 11.9" fill="#E0CFBD"/>
<path d="M250.699 108.9H254.499L254.599 101.1H250.799L250.699 108.9Z" fill="url(#paint9_linear_229_4344)"/>
<path d="M189.801 119.2H193.401V112.5H189.901L189.801 119.2Z" fill="#534741"/>
<path d="M114.699 216.1L116.099 216.7L159.699 234.8L159.799 216.7V213.5L161.099 22.8V17.3V12L161.199 1.09998L130.299 11.9L115.899 17V17.1V22.5L114.799 213.8L114.699 216.1ZM119.799 204.8L121.699 23.7L125.099 22.6L142.099 17.3L155.999 12.9V14.1V17.4V22.9L155.599 117.5H156.299V115.8C156.299 115.3 156.699 114.8 157.299 114.8C157.599 114.8 157.799 114.9 157.999 115.1C158.199 115.3 158.299 115.5 158.299 115.8V121.1C158.299 121.6 157.899 122.1 157.299 122.1C156.999 122.1 156.799 122 156.599 121.8C156.399 121.6 156.299 121.4 156.299 121.1V119H155.599L155.199 213.5V215.7V216.7V217.8L152.299 216.7L143.799 213.6L119.799 204.8Z" fill="url(#paint10_linear_229_4344)"/>
<path d="M119.801 204.8L122.801 204.1L125.001 23.8L121.801 23.6L119.801 204.8Z" fill="#CECECE"/>
<path d="M121.801 23.6L125.001 23.8L128.801 22.6L145.801 17.2001L156.101 14V12.8L142.201 17.2001L125.201 22.5L121.801 23.6Z" fill="#B2B2B2"/>
<path d="M119.801 204.8L143.701 213.6L152.201 216.7L155.101 217.8L155.201 216.7V215.7L149.201 213.6L122.801 204.1L119.801 204.8Z" fill="#B5B5B5"/>
<path d="M128.801 22.6001L156.001 22.7001L156.101 17.3001L145.801 17.2001L128.801 22.6001Z" fill="url(#paint11_linear_229_4344)"/>
<path d="M159.699 234.8L163.699 233.2V225L163.799 217.8V216.7V213.4L164.499 108.8V101.5L164.999 25.5V22.8V18.1L165.099 17.3V12V6.19998L161.299 1.09998L161.199 12V17.3V22.7L159.899 213.5L159.799 216.7L159.699 234.8Z" fill="url(#paint12_linear_229_4344)"/>
<path d="M175.5 233.2L189 217.1V216.7V213.3L189.8 119.2L189.9 112.5L190.6 22.9001L190.7 17.5L190.6 17.4001L185.7 12.1L177.1 2.80005V10.8L178.3 12.1L183.2 17.4001L187.4 21.9001V204.8L178.6 213.3L175.7 216.2V216.7L175.5 233.2Z" fill="url(#paint13_linear_229_4344)"/>
<path d="M184 204.3L187.4 204.8V21.9L184.8 22.7V22.9L184 204.3Z" fill="#CECECE"/>
<path d="M177.098 14.9001L179.498 17.4001L184.798 22.7001L187.398 21.9001L183.198 17.4001L178.298 12.1L177.098 10.8V12.1V14.9001Z" fill="#B2B2B2"/>
<path d="M175.699 216.2L178.599 213.3L187.399 204.8L183.999 204.3L175.699 212.1V213.4V216.2Z" fill="#B5B5B5"/>
<path d="M177 22.8L184.8 22.9V22.7L179.5 17.4H177V22.8Z" fill="url(#paint14_linear_229_4344)"/>
<path d="M170.5 232.9L175.5 233.2L175.7 216.7V216.2V213.4V212.1L177 22.8V17.4001L177.1 14.9001V12.1V10.8V2.80005L172 5.50005L171.9 12V17.3V22.8L170.6 213.4V216.7L170.5 232.9Z" fill="url(#paint15_linear_229_4344)"/>
<path d="M167.301 233.2L170.501 232.9L170.601 216.7V213.4L171.901 22.8V17.3V12L172.001 5.5L168.801 5.9L168.701 12V17.3V22.8L168.601 25.5L168.201 101.5L168.101 108.8L167.401 213.4V216.7V217.9L167.301 225.3V233.2Z" fill="url(#paint16_linear_229_4344)"/>
<path d="M193.1 216.4L193.9 216.7L241.7 233.4L241.8 216.7V212.9L243.4 23.2001V17.6001V12.2001L243.5 2.70007L210.6 12.1001L193.6 17.0001V17.4001V22.9001L193.3 112.5V119.2L193 213.2L193.1 216.4ZM195.6 204.3L196.6 23.6001L198.7 23.0001L218.4 17.6001L237.6 12.3001L240 11.6001V12.3001V13.6001V17.7001L239.9 23.3001L238 212.9V214.8V216.7V217.3L236.1 216.7L224.1 213L195.6 204.3Z" fill="url(#paint17_linear_229_4344)"/>
<path d="M241.699 233.4L244.899 233.2L249.399 233.6L249.499 225.9V218.2L249.599 216.7V212.8L250.699 108.9L250.799 101.1L251.599 25.5L251.699 23.3V18.3V17.7001L251.799 12.3L251.899 5.50005L247.499 4.90005L243.699 2.80005L243.599 12.3V17.6L243.499 23.2001L241.899 212.9V216.7L241.699 233.4Z" fill="url(#paint18_linear_229_4344)"/>
<path d="M195.598 204.3L199.998 203.6L200.798 24.3L196.598 23.5L195.598 204.3Z" fill="#CECECE"/>
<path d="M196.598 23.5L200.798 24.3L205.498 23L225.398 17.6L239.998 13.6L240.098 12.2V11.6L237.598 12.2L218.398 17.5L198.698 23L196.598 23.5Z" fill="#B2B2B2"/>
<path d="M195.598 204.3L224.098 213L236.098 216.7L237.998 217.3V216.7V214.8L231.698 213L199.998 203.6L195.598 204.3Z" fill="#B5B5B5"/>
<path d="M165 22.8H168.7V17.3H165.1L165 18.1V22.8Z" fill="#534741"/>
<path d="M256.699 233.9L261.099 235.5L261.299 216.7L263.699 17.7L263.799 12.3L263.899 0.900024L259.599 4.20002L259.499 12.3L259.399 17.7L256.899 216.7L256.699 233.9Z" fill="url(#paint19_linear_229_4344)"/>
<path d="M253.098 233.6L256.698 233.9L256.898 216.7L259.398 17.7001L259.498 12.3001L259.598 4.20007L255.698 5.50007L255.598 12.3001V17.7001V18.3001L255.498 23.3001L254.598 101.1L254.498 108.9L253.298 212.8V216.7L253.198 218.2L253.098 225.9V233.6Z" fill="url(#paint20_linear_229_4344)"/>
<path d="M249.5 225.9H253.1L253.2 218.2H249.5V225.9Z" fill="url(#paint21_linear_229_4344)"/>
<path d="M164.5 108.8H168.1L168.2 101.5H164.5V108.8Z" fill="#534741"/>
<path d="M163.699 225C163.799 225.1 164.999 226.2 167.299 225.3V218C164.899 219 163.699 217.9 163.699 217.9V225Z" fill="url(#paint22_linear_229_4344)"/>
<path d="M157.601 117.6V118.6C157.601 118.8 157.501 118.9 157.301 118.9H156.301V120.8C156.301 121.1 156.401 121.3 156.601 121.5C156.801 121.7 157.001 121.8 157.301 121.8C157.801 121.8 158.301 121.4 158.301 120.8V115.5C158.301 115.2 158.201 115 158.001 114.8C157.801 114.6 157.601 114.5 157.301 114.5C156.801 114.5 156.301 114.9 156.301 115.5V117.2H157.301C157.401 117.3 157.601 117.5 157.601 117.6Z" fill="url(#paint23_linear_229_4344)"/>
<path d="M146 118.2C146 118.7 146.4 119 146.8 119H157.3C157.5 119 157.6 118.9 157.6 118.7V117.7C157.6 117.5 157.5 117.4 157.3 117.4H146.8C146.6 117.4 146.4 117.5 146.2 117.6C146.1 117.7 146 117.9 146 118.2Z" fill="url(#paint24_linear_229_4344)"/>
<path d="M262.898 115V121.4C262.898 121.6 262.998 121.7 263.198 121.7H264.198C264.398 121.7 264.498 121.6 264.498 121.4V115C264.498 114.8 264.398 114.7 264.198 114.7H263.198C262.998 114.7 262.898 114.9 262.898 115Z" fill="url(#paint25_linear_229_4344)"/>
<path d="M264.398 117.1V119.4H268.198C268.798 119.4 269.298 118.9 269.298 118.3C269.298 118 269.198 117.7 268.998 117.5C268.798 117.3 268.498 117.2 268.198 117.2H264.398V117.1Z" fill="url(#paint26_linear_229_4344)"/>
<defs>
<linearGradient id="paint0_linear_229_4344" x1="-8.52332" y1="36.143" x2="283.75" y2="204.887" gradientUnits="userSpaceOnUse">
<stop stop-color="#8C6239"/>
<stop offset="0.2098" stop-color="#A67C50"/>
<stop offset="0.4547" stop-color="#BD9365"/>
<stop offset="0.6068" stop-color="#C69C6D"/>
<stop offset="0.7088" stop-color="#BC9264"/>
<stop offset="0.8797" stop-color="#A2784D"/>
<stop offset="1" stop-color="#8C6239"/>
</linearGradient>
<linearGradient id="paint1_linear_229_4344" x1="56.2781" y1="167.795" x2="-38.1907" y2="73.3261" gradientUnits="userSpaceOnUse">
<stop stop-color="#754C24"/>
<stop offset="1" stop-color="#42210B"/>
</linearGradient>
<linearGradient id="paint2_linear_229_4344" x1="313.279" y1="166.617" x2="219.115" y2="72.4543" gradientUnits="userSpaceOnUse">
<stop stop-color="#754C24"/>
<stop offset="1" stop-color="#42210B"/>
</linearGradient>
<linearGradient id="paint3_linear_229_4344" x1="202.156" y1="90.0579" x2="73.6176" y2="-38.4809" gradientUnits="userSpaceOnUse">
<stop stop-color="#754C24"/>
<stop offset="1" stop-color="#42210B"/>
</linearGradient>
<linearGradient id="paint4_linear_229_4344" x1="137.485" y1="206.419" x2="137.485" y2="215.291" gradientUnits="userSpaceOnUse">
<stop stop-color="#754C24"/>
<stop offset="1" stop-color="#42210B"/>
</linearGradient>
<linearGradient id="paint5_linear_229_4344" x1="-8.90392" y1="36.8023" x2="283.9" y2="205.853" gradientUnits="userSpaceOnUse">
<stop stop-color="#A67C52"/>
<stop offset="0.6068" stop-color="#C69C6D"/>
<stop offset="0.7665" stop-color="#BC9265"/>
<stop offset="1" stop-color="#A67C52"/>
</linearGradient>
<linearGradient id="paint6_linear_229_4344" x1="54.9807" y1="173.725" x2="-46.4318" y2="72.3125" gradientUnits="userSpaceOnUse">
<stop stop-color="#754C24"/>
<stop offset="1" stop-color="#42210B"/>
</linearGradient>
<linearGradient id="paint7_linear_229_4344" x1="321.402" y1="173.197" x2="219.817" y2="71.6117" gradientUnits="userSpaceOnUse">
<stop stop-color="#754C24"/>
<stop offset="1" stop-color="#42210B"/>
</linearGradient>
<linearGradient id="paint8_linear_229_4344" x1="204.254" y1="87.4227" x2="71.3554" y2="-45.4754" gradientUnits="userSpaceOnUse">
<stop stop-color="#754C24"/>
<stop offset="1" stop-color="#42210B"/>
</linearGradient>
<linearGradient id="paint9_linear_229_4344" x1="255.581" y1="102.039" x2="249.741" y2="107.879" gradientUnits="userSpaceOnUse">
<stop stop-color="#736357"/>
<stop offset="1" stop-color="#534741"/>
</linearGradient>
<linearGradient id="paint10_linear_229_4344" x1="161.321" y1="117.975" x2="114.729" y2="117.975" gradientUnits="userSpaceOnUse">
<stop stop-color="#C69C6D"/>
<stop offset="0.6068" stop-color="#A67C52"/>
<stop offset="0.6953" stop-color="#9C7349"/>
<stop offset="0.8442" stop-color="#825932"/>
<stop offset="1" stop-color="#603813"/>
</linearGradient>
<linearGradient id="paint11_linear_229_4344" x1="156.053" y1="19.9658" x2="128.806" y2="19.9658" gradientUnits="userSpaceOnUse">
<stop stop-color="#C69C6D"/>
<stop offset="0.1916" stop-color="#C29869"/>
<stop offset="0.3921" stop-color="#B58C5E"/>
<stop offset="0.5967" stop-color="#A0774C"/>
<stop offset="0.8028" stop-color="#835B32"/>
<stop offset="1" stop-color="#603813"/>
</linearGradient>
<linearGradient id="paint12_linear_229_4344" x1="165.123" y1="117.975" x2="159.719" y2="117.975" gradientUnits="userSpaceOnUse">
<stop stop-color="#603813"/>
<stop offset="0.0490451" stop-color="#5C3512"/>
<stop offset="0.2817" stop-color="#4D2A0E"/>
<stop offset="0.5599" stop-color="#45230C"/>
<stop offset="1" stop-color="#42210B"/>
</linearGradient>
<linearGradient id="paint13_linear_229_4344" x1="190.683" y1="117.993" x2="175.549" y2="117.993" gradientUnits="userSpaceOnUse">
<stop stop-color="#C69C6D"/>
<stop offset="0.6068" stop-color="#A67C52"/>
<stop offset="0.6953" stop-color="#9C7349"/>
<stop offset="0.8442" stop-color="#825932"/>
<stop offset="1" stop-color="#603813"/>
</linearGradient>
<linearGradient id="paint14_linear_229_4344" x1="184.838" y1="20.115" x2="177.004" y2="20.115" gradientUnits="userSpaceOnUse">
<stop stop-color="#C69C6D"/>
<stop offset="0.1916" stop-color="#C29869"/>
<stop offset="0.3921" stop-color="#B58C5E"/>
<stop offset="0.5967" stop-color="#A0774C"/>
<stop offset="0.8028" stop-color="#835B32"/>
<stop offset="1" stop-color="#603813"/>
</linearGradient>
<linearGradient id="paint15_linear_229_4344" x1="177.143" y1="117.993" x2="170.49" y2="117.993" gradientUnits="userSpaceOnUse">
<stop stop-color="#603813"/>
<stop offset="0.0490451" stop-color="#5C3512"/>
<stop offset="0.2817" stop-color="#4D2A0E"/>
<stop offset="0.5599" stop-color="#45230C"/>
<stop offset="1" stop-color="#42210B"/>
</linearGradient>
<linearGradient id="paint16_linear_229_4344" x1="171.985" y1="119.378" x2="167.287" y2="119.378" gradientUnits="userSpaceOnUse">
<stop stop-color="#754C24"/>
<stop offset="0.1904" stop-color="#6B431C"/>
<stop offset="0.5037" stop-color="#633A15"/>
<stop offset="1" stop-color="#603813"/>
</linearGradient>
<linearGradient id="paint17_linear_229_4344" x1="243.718" y1="118.084" x2="193.108" y2="118.084" gradientUnits="userSpaceOnUse">
<stop stop-color="#C69C6D"/>
<stop offset="0.6068" stop-color="#A67C52"/>
<stop offset="0.6953" stop-color="#9C7349"/>
<stop offset="0.8442" stop-color="#825932"/>
<stop offset="1" stop-color="#603813"/>
</linearGradient>
<linearGradient id="paint18_linear_229_4344" x1="251.863" y1="118.192" x2="241.727" y2="118.192" gradientUnits="userSpaceOnUse">
<stop stop-color="#603813"/>
<stop offset="0.0490451" stop-color="#5C3512"/>
<stop offset="0.2817" stop-color="#4D2A0E"/>
<stop offset="0.5599" stop-color="#45230C"/>
<stop offset="1" stop-color="#42210B"/>
</linearGradient>
<linearGradient id="paint19_linear_229_4344" x1="263.919" y1="118.184" x2="256.696" y2="118.184" gradientUnits="userSpaceOnUse">
<stop stop-color="#603813"/>
<stop offset="0.0490451" stop-color="#5C3512"/>
<stop offset="0.2817" stop-color="#4D2A0E"/>
<stop offset="0.5599" stop-color="#45230C"/>
<stop offset="1" stop-color="#42210B"/>
</linearGradient>
<linearGradient id="paint20_linear_229_4344" x1="307.072" y1="31.6115" x2="206.094" y2="206.51" gradientUnits="userSpaceOnUse">
<stop stop-color="#754C24"/>
<stop offset="0.1904" stop-color="#6B431C"/>
<stop offset="0.5037" stop-color="#633A15"/>
<stop offset="1" stop-color="#603813"/>
</linearGradient>
<linearGradient id="paint21_linear_229_4344" x1="254.225" y1="219.197" x2="248.462" y2="224.96" gradientUnits="userSpaceOnUse">
<stop stop-color="#736357"/>
<stop offset="1" stop-color="#534741"/>
</linearGradient>
<linearGradient id="paint22_linear_229_4344" x1="168.266" y1="218.819" x2="162.913" y2="224.172" gradientUnits="userSpaceOnUse">
<stop stop-color="#736357"/>
<stop offset="1" stop-color="#534741"/>
</linearGradient>
<linearGradient id="paint23_linear_229_4344" x1="158.245" y1="118.305" x2="156.263" y2="118.305" gradientUnits="userSpaceOnUse">
<stop stop-color="#CCCCCC"/>
<stop offset="1" stop-color="#E6E6E6"/>
</linearGradient>
<linearGradient id="paint24_linear_229_4344" x1="157.566" y1="118.17" x2="145.972" y2="118.17" gradientUnits="userSpaceOnUse">
<stop stop-color="#999999"/>
<stop offset="1" stop-color="#CCCCCC"/>
</linearGradient>
<linearGradient id="paint25_linear_229_4344" x1="264.425" y1="118.255" x2="262.849" y2="118.255" gradientUnits="userSpaceOnUse">
<stop stop-color="#CCCCCC"/>
<stop offset="1" stop-color="#E6E6E6"/>
</linearGradient>
<linearGradient id="paint26_linear_229_4344" x1="269.354" y1="118.256" x2="264.425" y2="118.256" gradientUnits="userSpaceOnUse">
<stop stop-color="#999999"/>
<stop offset="1" stop-color="#CCCCCC"/>
</linearGradient>
</defs>
</svg>
