<svg xmlns="http://www.w3.org/2000/svg" xmlns:xlink="http://www.w3.org/1999/xlink" viewBox="0 0 222.85 200.55"><defs><style>.cls-1{fill:url(#Безымянный_градиент_118);}.cls-2{fill:url(#Безымянный_градиент_118-2);}.cls-3{fill:#cecece;}.cls-4{fill:#b2b2b2;}.cls-5{fill:none;}.cls-6{fill:url(#Безымянный_градиент_7);}.cls-7{fill:url(#Безымянный_градиент_7-2);}.cls-8{fill:#494949;}.cls-9{fill:url(#Безымянный_градиент_103);}.cls-10{fill:url(#Безымянный_градиент_90);}.cls-11{fill:url(#Безымянный_градиент_143);}.cls-12{fill:url(#Безымянный_градиент_143-2);}.cls-13{fill:#b5b5b5;}.cls-14{fill:url(#Безымянный_градиент_71);}.cls-15{fill:url(#Безымянный_градиент_7-3);}.cls-16{fill:url(#Безымянный_градиент_7-4);}.cls-17{fill:url(#Безымянный_градиент_103-2);}.cls-18{fill:url(#Безымянный_градиент_90-2);}.cls-19{fill:url(#Безымянный_градиент_143-3);}</style><linearGradient id="Безымянный_градиент_118" x1="42.67" y1="218.67" x2="180.19" y2="-19.52" gradientUnits="userSpaceOnUse"><stop offset="0" stop-color="#c69c6d"/><stop offset="0.74" stop-color="#c69c6d"/><stop offset="0.86" stop-color="#c49a6b"/><stop offset="0.91" stop-color="#bd9365"/><stop offset="0.95" stop-color="#b08659"/><stop offset="0.98" stop-color="#9e7449"/><stop offset="1" stop-color="#8c6239"/></linearGradient><linearGradient id="Безымянный_градиент_118-2" x1="40.15" y1="223.73" x2="182.7" y2="-23.18" xlink:href="#Безымянный_градиент_118"/><linearGradient id="Безымянный_градиент_7" x1="71.72" y1="13.08" x2="74.69" y2="13.08" gradientUnits="userSpaceOnUse"><stop offset="0" stop-color="#4d4d4d"/><stop offset="1" stop-color="#736357"/></linearGradient><linearGradient id="Безымянный_градиент_7-2" x1="71.72" y1="184.92" x2="74.69" y2="184.92" xlink:href="#Безымянный_градиент_7"/><linearGradient id="Безымянный_градиент_103" x1="63.23" y1="99.1" x2="67.77" y2="99.1" gradientTransform="matrix(-1, 0, 0, 1, 73.87, 0)" gradientUnits="userSpaceOnUse"><stop offset="0" stop-color="#4d4d4d"/><stop offset="1" stop-color="#333"/></linearGradient><linearGradient id="Безымянный_градиент_90" x1="64.07" y1="105.81" x2="66.92" y2="105.81" gradientTransform="matrix(-1, 0, 0, 1, 73.87, 0)" gradientUnits="userSpaceOnUse"><stop offset="0" stop-color="#4d4d4d"/><stop offset="1" stop-color="#1a1a1a"/></linearGradient><linearGradient id="Безымянный_градиент_143" x1="46.19" y1="164.8" x2="176.69" y2="34.3" gradientUnits="userSpaceOnUse"><stop offset="0" stop-color="#a67c52"/><stop offset="0.48" stop-color="#754c24"/><stop offset="0.98" stop-color="#a47a50"/><stop offset="1" stop-color="#a67c52"/></linearGradient><linearGradient id="Безымянный_градиент_143-2" x1="46.19" y1="164.8" x2="176.68" y2="34.31" xlink:href="#Безымянный_градиент_143"/><linearGradient id="Безымянный_градиент_71" x1="121.26" y1="164.81" x2="251.76" y2="34.31" gradientTransform="matrix(-1, 0, 0, 1, 372.23, 0)" gradientUnits="userSpaceOnUse"><stop offset="0" stop-color="#a67c52"/><stop offset="0.55" stop-color="#754c24"/><stop offset="0.82" stop-color="#a47a4e"/><stop offset="1" stop-color="#c69c6d"/></linearGradient><linearGradient id="Безымянный_градиент_7-3" x1="148.16" y1="13.04" x2="151.14" y2="13.04" xlink:href="#Безымянный_градиент_7"/><linearGradient id="Безымянный_градиент_7-4" x1="148.16" y1="184.89" x2="151.14" y2="184.89" xlink:href="#Безымянный_градиент_7"/><linearGradient id="Безымянный_градиент_103-2" x1="155.48" y1="99.06" x2="160.02" y2="99.06" gradientTransform="matrix(-1, 0, 0, 1, 372.23, 0)" xlink:href="#Безымянный_градиент_103"/><linearGradient id="Безымянный_градиент_90-2" x1="156.32" y1="105.77" x2="159.18" y2="105.77" gradientTransform="matrix(-1, 0, 0, 1, 372.23, 0)" xlink:href="#Безымянный_градиент_90"/><linearGradient id="Безымянный_градиент_143-3" x1="-28.51" y1="164.84" x2="101.99" y2="34.34" gradientTransform="matrix(-1, 0, 0, 1, 73.87, 0)" xlink:href="#Безымянный_градиент_143"/></defs><g id="Слой_2" data-name="Слой 2"><g id="Слой_2-2" data-name="Слой 2"><path class="cls-1" d="M151.14,3.64v.52h68.07V195.47h1.1V3.64Zm-2,175.1a1,1,0,0,0-1,1v13.68a1,1,0,0,0,1,1H150V178.74Zm0-173.54a1,1,0,0,0-1,1V19.88a1,1,0,0,0,1,1H150V5.2ZM76.85,3.64V195.46h.4V4.12H146V3.64ZM73.69,178.78H73v15.67h.67a1,1,0,0,0,1-1V179.78A1,1,0,0,0,73.69,178.78Zm0-173.54H73V20.91h.67a1,1,0,0,0,1-1V6.24A1,1,0,0,0,73.69,5.24ZM2.54,3.68V195.5H3.83V4.12H71.72V3.68Z"/><path class="cls-2" d="M0,0V200.55H222.85V0ZM74.69,19.91a1,1,0,0,1-1,1h-1a1,1,0,0,1-1-1V179.78a1,1,0,0,1,1-1h1a1,1,0,0,1,1,1v13.67a1,1,0,0,1-1,1h-1a1,1,0,0,1-1-1v2.05H2.54V3.68H71.72V6.24a1,1,0,0,1,1-1h1a1,1,0,0,1,1,1ZM146,195.46H76.85V3.64H146Zm74.28,0H151.14v-2.05a1,1,0,0,1-1,1h-1a1,1,0,0,1-1-1V179.74a1,1,0,0,1,1-1h1a1,1,0,0,1,1,1V19.88a1,1,0,0,1-1,1h-1a1,1,0,0,1-1-1V6.2a1,1,0,0,1,1-1h1a1,1,0,0,1,1,1V3.64h69.17Z"/></g><g id="Слой_3" data-name="Слой 3"><polygon class="cls-3" points="14.25 15.32 14.25 183.78 14.98 183.09 14.98 16.11 14.25 15.32"/><polygon class="cls-4" points="14.25 15.32 14.98 16.11 59.25 16.11 60.11 15.32 14.25 15.32"/><rect class="cls-5" x="14.98" y="16.11" width="44.27" height="166.98"/><rect class="cls-5" x="14.98" y="16.11" width="44.27" height="166.98"/><path class="cls-6" d="M74.69,6.24V19.91a1,1,0,0,1-1,1h-1a1,1,0,0,1-1-1V6.24a1,1,0,0,1,1-1h1A1,1,0,0,1,74.69,6.24Z"/><path class="cls-7" d="M74.69,179.78v11.28h-3V179.78a1,1,0,0,1,1-1h1A1,1,0,0,1,74.69,179.78Z"/><path class="cls-8" d="M74.69,191.06v2.39a1,1,0,0,1-1,1h-1a1,1,0,0,1-1-1v-2.39Z"/><path class="cls-9" d="M6.1,96.3v6.11a2.27,2.27,0,0,0,.67,1.6l.18.17V99.4a1.43,1.43,0,1,1,2.85,0v4.77a2.26,2.26,0,0,0,.84-1.76V96.3A2.27,2.27,0,0,0,10,94.69,2.23,2.23,0,0,0,8.37,94,2.28,2.28,0,0,0,6.1,96.3Z"/><path class="cls-10" d="M7,99.4v12.83a1.43,1.43,0,0,0,2.85,0V99.4A1.43,1.43,0,1,0,7,99.4Z"/><path class="cls-11" d="M76.85,3.64V195.46h0V3.64Zm69.17,0V195.46h0V3.64Z"/><path class="cls-12" d="M76.86,3.64V195.46H146V3.64Zm57.57,180.1H88.56V15.28h45.87Z"/><rect class="cls-5" x="89.3" y="16.07" width="44.26" height="166.98"/><polygon class="cls-13" points="134.43 183.74 88.56 183.74 89.3 183.05 133.56 183.05 134.43 183.74"/><polygon class="cls-3" points="134.43 15.28 134.43 183.74 133.56 183.05 133.56 16.07 134.43 15.28"/><polygon class="cls-3" points="89.3 16.07 89.3 183.05 88.56 183.74 88.56 15.28 89.3 16.07"/><polygon class="cls-4" points="134.43 15.28 133.56 16.07 89.3 16.07 88.56 15.28 134.43 15.28"/><rect class="cls-5" x="89.3" y="16.07" width="44.26" height="166.98"/><rect class="cls-5" x="89.3" y="16.07" width="44.26" height="166.98"/><path class="cls-14" d="M151.14,3.64V195.47h69.17V3.64Zm57.47,180.11H162.74V15.28h45.87Zm8.14-81.38a2.27,2.27,0,0,1-.66,1.61l-.18.16v8a1.43,1.43,0,0,1-2.86,0v-8a2.3,2.3,0,0,1-.84-1.77V96.26a2.21,2.21,0,0,1,.67-1.6,2.26,2.26,0,0,1,3.87,1.6Z"/><rect class="cls-5" x="163.61" y="16.07" width="44.26" height="166.99"/><polygon class="cls-13" points="162.74 183.75 208.61 183.75 207.87 183.06 163.61 183.06 162.74 183.75"/><polygon class="cls-3" points="207.87 16.07 207.87 183.06 208.61 183.75 208.61 15.28 207.87 16.07"/><polygon class="cls-3" points="162.74 15.28 162.74 183.75 163.61 183.06 163.61 16.07 162.74 15.28"/><polygon class="cls-4" points="162.74 15.28 163.61 16.07 207.87 16.07 208.61 15.28 162.74 15.28"/><rect class="cls-5" x="163.61" y="16.07" width="44.26" height="166.99"/><rect class="cls-5" x="163.61" y="16.07" width="44.26" height="166.99"/><rect class="cls-15" x="148.16" y="5.2" width="2.98" height="15.68" rx="1"/><path class="cls-16" d="M151.14,179.74V191h-3V179.74a1,1,0,0,1,1-1h1A1,1,0,0,1,151.14,179.74Z"/><path class="cls-8" d="M151.14,191v2.39a1,1,0,0,1-1,1h-1a1,1,0,0,1-1-1V191Z"/><path class="cls-17" d="M212.21,96.26v6.11a2.3,2.3,0,0,0,.84,1.77V99.36a1.43,1.43,0,0,1,2.86,0v4.78l.18-.16a2.27,2.27,0,0,0,.66-1.61V96.26a2.26,2.26,0,0,0-3.87-1.6A2.21,2.21,0,0,0,212.21,96.26Z"/><path class="cls-18" d="M213.05,99.36v12.83a1.43,1.43,0,0,0,2.86,0V99.36a1.43,1.43,0,0,0-2.86,0Z"/><path class="cls-19" d="M2.54,3.68V195.5H71.72V3.68Zm8.1,98.73a2.26,2.26,0,0,1-.84,1.76v8.06a1.43,1.43,0,0,1-2.85,0v-8L6.77,104a2.27,2.27,0,0,1-.67-1.6V96.3A2.28,2.28,0,0,1,8.37,94a2.23,2.23,0,0,1,1.61.67,2.27,2.27,0,0,1,.66,1.61Zm49.47,81.37H14.25V15.32H60.11Z"/><rect class="cls-5" x="14.98" y="16.11" width="44.27" height="166.98"/><polygon class="cls-13" points="14.25 183.78 60.11 183.78 59.25 183.09 14.98 183.09 14.25 183.78"/><polygon class="cls-3" points="59.25 16.11 59.25 183.09 60.11 183.78 60.11 15.32 59.25 16.11"/></g></g></svg>