<svg xmlns="http://www.w3.org/2000/svg" xmlns:xlink="http://www.w3.org/1999/xlink" viewBox="0 0 222.85 200.55"><defs><style>.cls-1{fill:url(#Безымянный_градиент_118);}.cls-2{fill:url(#Безымянный_градиент_118-2);}.cls-3{fill:#cecece;}.cls-4{fill:#b2b2b2;}.cls-5{fill:none;}.cls-6{fill:url(#Безымянный_градиент_7);}.cls-7{fill:url(#Безымянный_градиент_7-2);}.cls-8{fill:#494949;}.cls-9{fill:url(#Безымянный_градиент_103);}.cls-10{fill:url(#Безымянный_градиент_90);}.cls-11{fill:url(#Безымянный_градиент_143);}.cls-12{fill:url(#Безымянный_градиент_143-2);}.cls-13{fill:#b5b5b5;}.cls-14{fill:url(#Безымянный_градиент_71);}.cls-15{fill:url(#Безымянный_градиент_7-3);}.cls-16{fill:url(#Безымянный_градиент_7-4);}.cls-17{fill:url(#Безымянный_градиент_103-2);}.cls-18{fill:url(#Безымянный_градиент_90-2);}.cls-19{fill:url(#Безымянный_градиент_143-3);}</style><linearGradient id="Безымянный_градиент_118" x1="89.51" y1="203.02" x2="208.43" y2="-2.96" gradientUnits="userSpaceOnUse"><stop offset="0" stop-color="#c69c6d"/><stop offset="0.74" stop-color="#c69c6d"/><stop offset="0.86" stop-color="#c49a6b"/><stop offset="0.91" stop-color="#bd9365"/><stop offset="0.95" stop-color="#b08659"/><stop offset="0.98" stop-color="#9e7449"/><stop offset="1" stop-color="#8c6239"/></linearGradient><linearGradient id="Безымянный_градиент_118-2" x1="40.15" y1="223.73" x2="182.7" y2="-23.18" xlink:href="#Безымянный_градиент_118"/><linearGradient id="Безымянный_градиент_7" x1="0.86" y1="13.51" x2="3.83" y2="13.51" gradientUnits="userSpaceOnUse"><stop offset="0" stop-color="#4d4d4d"/><stop offset="1" stop-color="#736357"/></linearGradient><linearGradient id="Безымянный_градиент_7-2" x1="0.86" y1="185.36" x2="3.83" y2="185.36" xlink:href="#Безымянный_градиент_7"/><linearGradient id="Безымянный_градиент_103" x1="64.91" y1="99.54" x2="69.45" y2="99.54" gradientUnits="userSpaceOnUse"><stop offset="0" stop-color="#4d4d4d"/><stop offset="1" stop-color="#333"/></linearGradient><linearGradient id="Безымянный_градиент_90" x1="65.75" y1="106.25" x2="68.6" y2="106.25" gradientUnits="userSpaceOnUse"><stop offset="0" stop-color="#4d4d4d"/><stop offset="1" stop-color="#1a1a1a"/></linearGradient><linearGradient id="Безымянный_градиент_143" x1="46.58" y1="165.28" x2="177.08" y2="34.78" gradientUnits="userSpaceOnUse"><stop offset="0" stop-color="#a67c52"/><stop offset="0.48" stop-color="#754c24"/><stop offset="0.98" stop-color="#a47a50"/><stop offset="1" stop-color="#a67c52"/></linearGradient><linearGradient id="Безымянный_градиент_143-2" x1="46.58" y1="165.28" x2="177.07" y2="34.79" xlink:href="#Безымянный_градиент_143"/><linearGradient id="Безымянный_градиент_71" x1="120.87" y1="165.29" x2="251.37" y2="34.79" gradientTransform="matrix(-1, 0, 0, 1, 372.24, 0)" gradientUnits="userSpaceOnUse"><stop offset="0" stop-color="#a67c52"/><stop offset="0.55" stop-color="#754c24"/><stop offset="0.82" stop-color="#a47a4e"/><stop offset="1" stop-color="#c69c6d"/></linearGradient><linearGradient id="Безымянный_градиент_7-3" x1="148.55" y1="13.52" x2="151.53" y2="13.52" xlink:href="#Безымянный_градиент_7"/><linearGradient id="Безымянный_градиент_7-4" x1="148.55" y1="185.37" x2="151.53" y2="185.37" xlink:href="#Безымянный_градиент_7"/><linearGradient id="Безымянный_градиент_103-2" x1="155.09" y1="99.54" x2="159.63" y2="99.54" gradientTransform="matrix(-1, 0, 0, 1, 372.24, 0)" xlink:href="#Безымянный_градиент_103"/><linearGradient id="Безымянный_градиент_90-2" x1="155.93" y1="106.25" x2="158.79" y2="106.25" gradientTransform="matrix(-1, 0, 0, 1, 372.24, 0)" xlink:href="#Безымянный_градиент_90"/><linearGradient id="Безымянный_градиент_143-3" x1="-26.83" y1="165.28" x2="103.67" y2="34.78" xlink:href="#Безымянный_градиент_143"/></defs><g id="Слой_2" data-name="Слой 2"><g id="Слой_2-2" data-name="Слой 2"><path class="cls-1" d="M151.53,4.12v0h67.68V196h1.49V4.12Zm-2,175.1a1,1,0,0,0-1,1V193.9a1,1,0,0,0,1,1H150V179.22Zm0-173.54a1,1,0,0,0-1,1V20.36a1,1,0,0,0,1,1H150V5.68Zm-3.14-1.56V195.94h0V4.12Zm-69.17,0V195.94h0V4.12Z"/><path class="cls-2" d="M0,0V200.55H222.85V0ZM73,195.94H3.83V4.12H73Zm73.4,0H77.24V4.12h69.18Zm74.28,0H151.53v-2a1,1,0,0,1-1,1h-1a1,1,0,0,1-1-1V180.22a1,1,0,0,1,1-1h1a1,1,0,0,1,1,1V20.36a1,1,0,0,1-1,1h-1a1,1,0,0,1-1-1V6.68a1,1,0,0,1,1-1h1a1,1,0,0,1,1,1V4.12H220.7Z"/></g><g id="Слой_3" data-name="Слой 3"><polygon class="cls-3" points="61.3 15.76 61.3 184.22 60.57 183.53 60.57 16.55 61.3 15.76"/><polygon class="cls-4" points="61.3 15.76 60.57 16.55 16.3 16.55 15.44 15.76 61.3 15.76"/><rect class="cls-5" x="16.3" y="16.55" width="44.27" height="166.98"/><rect class="cls-5" x="16.3" y="16.55" width="44.27" height="166.98"/><path class="cls-6" d="M3.83,6.68V20.35a1,1,0,0,1-1,1h-1a1,1,0,0,1-1-1V6.68a1,1,0,0,1,1-1h1A1,1,0,0,1,3.83,6.68Z"/><path class="cls-7" d="M3.83,180.22V191.5h-3V180.22a1,1,0,0,1,1-1h1A1,1,0,0,1,3.83,180.22Z"/><path class="cls-8" d="M3.83,191.5v2.39a1,1,0,0,1-1,1h-1a1,1,0,0,1-1-1V191.5Z"/><path class="cls-9" d="M69.45,96.74v6.11a2.27,2.27,0,0,1-.67,1.6l-.18.17V99.84a1.43,1.43,0,1,0-2.85,0v4.77a2.26,2.26,0,0,1-.84-1.76V96.74a2.27,2.27,0,0,1,.66-1.61,2.23,2.23,0,0,1,1.61-.67A2.28,2.28,0,0,1,69.45,96.74Z"/><path class="cls-10" d="M68.6,99.84v12.83a1.43,1.43,0,0,1-2.85,0V99.84a1.43,1.43,0,1,1,2.85,0Z"/><path class="cls-11" d="M77.24,4.12V195.94h0V4.12Zm69.17,0V195.94h0V4.12Z"/><path class="cls-12" d="M77.25,4.12V195.94h69.16V4.12Zm57.57,180.1H89V15.76h45.87Z"/><rect class="cls-5" x="89.69" y="16.55" width="44.26" height="166.98"/><polygon class="cls-13" points="134.82 184.22 88.95 184.22 89.69 183.53 133.95 183.53 134.82 184.22"/><polygon class="cls-3" points="134.82 15.76 134.82 184.22 133.95 183.53 133.95 16.55 134.82 15.76"/><polygon class="cls-3" points="89.69 16.55 89.69 183.53 88.95 184.22 88.95 15.76 89.69 16.55"/><polygon class="cls-4" points="134.82 15.76 133.95 16.55 89.69 16.55 88.95 15.76 134.82 15.76"/><rect class="cls-5" x="89.69" y="16.55" width="44.26" height="166.98"/><rect class="cls-5" x="89.69" y="16.55" width="44.26" height="166.98"/><path class="cls-14" d="M151.53,4.12V196H220.7V4.12ZM209,184.23H163.13V15.76H209Zm8.14-81.38a2.27,2.27,0,0,1-.66,1.61l-.18.16v8a1.43,1.43,0,1,1-2.86,0v-8a2.3,2.3,0,0,1-.84-1.77V96.74a2.21,2.21,0,0,1,.67-1.6,2.26,2.26,0,0,1,3.87,1.6Z"/><rect class="cls-5" x="164" y="16.55" width="44.26" height="166.99"/><polygon class="cls-13" points="163.13 184.23 209 184.23 208.26 183.54 164 183.54 163.13 184.23"/><polygon class="cls-3" points="208.26 16.55 208.26 183.54 209 184.23 209 15.76 208.26 16.55"/><polygon class="cls-3" points="163.13 15.76 163.13 184.23 164 183.54 164 16.55 163.13 15.76"/><polygon class="cls-4" points="163.13 15.76 164 16.55 208.26 16.55 209 15.76 163.13 15.76"/><rect class="cls-5" x="164" y="16.55" width="44.26" height="166.99"/><rect class="cls-5" x="164" y="16.55" width="44.26" height="166.99"/><rect class="cls-15" x="148.55" y="5.68" width="2.98" height="15.68" rx="1"/><path class="cls-16" d="M151.53,180.22v11.29h-3V180.22a1,1,0,0,1,1-1h1A1,1,0,0,1,151.53,180.22Z"/><path class="cls-8" d="M151.53,191.51v2.39a1,1,0,0,1-1,1h-1a1,1,0,0,1-1-1v-2.39Z"/><path class="cls-17" d="M212.6,96.74v6.11a2.3,2.3,0,0,0,.84,1.77V99.84a1.43,1.43,0,0,1,2.86,0v4.78l.18-.16a2.27,2.27,0,0,0,.66-1.61V96.74a2.26,2.26,0,0,0-3.87-1.6A2.21,2.21,0,0,0,212.6,96.74Z"/><path class="cls-18" d="M213.44,99.84v12.83a1.43,1.43,0,1,0,2.86,0V99.84a1.43,1.43,0,0,0-2.86,0Z"/><path class="cls-19" d="M3.83,4.12V195.94H73V4.12ZM61.3,184.22H15.44V15.76H61.3Zm8.15-81.37a2.27,2.27,0,0,1-.67,1.6l-.18.17v8a1.43,1.43,0,0,1-2.85,0v-8.06a2.26,2.26,0,0,1-.84-1.76V96.74a2.27,2.27,0,0,1,.66-1.61,2.23,2.23,0,0,1,1.61-.67,2.28,2.28,0,0,1,2.27,2.28Z"/><rect class="cls-5" x="16.3" y="16.55" width="44.27" height="166.98"/><polygon class="cls-13" points="61.3 184.22 15.44 184.22 16.3 183.53 60.57 183.53 61.3 184.22"/><polygon class="cls-3" points="16.3 16.55 16.3 183.53 15.44 184.22 15.44 15.76 16.3 16.55"/></g></g></svg>