<svg xmlns="http://www.w3.org/2000/svg" xmlns:xlink="http://www.w3.org/1999/xlink" viewBox="0 0 222.86 200.55"><defs><style>.cls-1{fill:url(#Безымянный_градиент_118);}.cls-2{fill:#cecece;}.cls-3{fill:#b2b2b2;}.cls-4{fill:none;}.cls-5{fill:url(#Безымянный_градиент_143);}.cls-6{fill:#b5b5b5;}.cls-7{fill:url(#Безымянный_градиент_143-2);}.cls-8{fill:url(#Безымянный_градиент_143-3);}</style><linearGradient id="Безымянный_градиент_118" x1="40.15" y1="223.73" x2="182.71" y2="-23.18" gradientUnits="userSpaceOnUse"><stop offset="0" stop-color="#c69c6d"/><stop offset="0.74" stop-color="#c69c6d"/><stop offset="0.86" stop-color="#c49a6b"/><stop offset="0.91" stop-color="#bd9365"/><stop offset="0.95" stop-color="#b08659"/><stop offset="0.98" stop-color="#9e7449"/><stop offset="1" stop-color="#8c6239"/></linearGradient><linearGradient id="Безымянный_градиент_143" x1="46.59" y1="165.28" x2="177.08" y2="34.78" gradientUnits="userSpaceOnUse"><stop offset="0" stop-color="#a67c52"/><stop offset="0.48" stop-color="#754c24"/><stop offset="0.98" stop-color="#a47a50"/><stop offset="1" stop-color="#a67c52"/></linearGradient><linearGradient id="Безымянный_градиент_143-2" x1="119.38" y1="165.32" x2="249.88" y2="34.82" xlink:href="#Безымянный_градиент_143"/><linearGradient id="Безымянный_градиент_143-3" x1="-26.82" y1="165.28" x2="103.68" y2="34.78" xlink:href="#Безымянный_градиент_143"/></defs><g id="Слой_2" data-name="Слой 2"><g id="Слой_2-2" data-name="Слой 2"><path class="cls-1" d="M0,0V200.55H222.86V0ZM73,195.94H3.84V4.12H73Zm73.4,0H77.25V4.12h69.17Zm72.8.05H150.05V4.16h69.17Z"/></g><g id="Слой_3" data-name="Слой 3"><polygon class="cls-2" points="61.31 15.76 61.31 184.22 60.58 183.53 60.58 16.55 61.31 15.76"/><polygon class="cls-3" points="61.31 15.76 60.58 16.55 16.31 16.55 15.45 15.76 61.31 15.76"/><rect class="cls-4" x="16.3" y="16.55" width="44.27" height="166.98"/><rect class="cls-4" x="16.3" y="16.55" width="44.27" height="166.98"/><path class="cls-5" d="M77.25,4.12V195.94h69.17V4.12Zm57.58,180.1H89V15.76h45.87Z"/><rect class="cls-4" x="89.7" y="16.55" width="44.26" height="166.98"/><polygon class="cls-6" points="134.82 184.22 88.95 184.22 89.69 183.53 133.96 183.53 134.82 184.22"/><polygon class="cls-2" points="134.83 15.76 134.83 184.22 133.96 183.53 133.96 16.55 134.83 15.76"/><polygon class="cls-2" points="89.7 16.55 89.7 183.53 88.96 184.22 88.96 15.76 89.7 16.55"/><polygon class="cls-3" points="134.82 15.76 133.96 16.55 89.69 16.55 88.95 15.76 134.82 15.76"/><rect class="cls-4" x="89.7" y="16.55" width="44.26" height="166.98"/><rect class="cls-4" x="89.7" y="16.55" width="44.26" height="166.98"/><path class="cls-7" d="M150.05,4.16V196h69.17V4.16Zm57.56,180.11H161.75V15.8h45.86Z"/><rect class="cls-4" x="162.49" y="16.59" width="44.26" height="166.99"/><polygon class="cls-6" points="207.62 184.27 161.75 184.27 162.49 183.58 206.75 183.58 207.62 184.27"/><polygon class="cls-2" points="162.49 16.59 162.49 183.58 161.75 184.27 161.75 15.8 162.49 16.59"/><polygon class="cls-2" points="207.61 15.8 207.61 184.27 206.75 183.58 206.75 16.59 207.61 15.8"/><polygon class="cls-3" points="207.62 15.8 206.75 16.59 162.49 16.59 161.75 15.8 207.62 15.8"/><rect class="cls-4" x="162.49" y="16.59" width="44.26" height="166.99"/><rect class="cls-4" x="162.49" y="16.59" width="44.26" height="166.99"/><path class="cls-8" d="M3.84,4.12V195.94H73V4.12Zm57.47,180.1H15.45V15.76H61.31Z"/><rect class="cls-4" x="16.3" y="16.55" width="44.27" height="166.98"/><polygon class="cls-6" points="61.31 184.22 15.45 184.22 16.31 183.53 60.58 183.53 61.31 184.22"/><polygon class="cls-2" points="16.31 16.55 16.31 183.53 15.45 184.22 15.45 15.76 16.31 16.55"/></g></g></svg>