<svg xmlns="http://www.w3.org/2000/svg" xmlns:xlink="http://www.w3.org/1999/xlink" viewBox="0 0 222.86 200.55"><defs><style>.cls-1{fill:url(#Безымянный_градиент_118);}.cls-2{fill:url(#Безымянный_градиент_118-2);}.cls-3{fill:url(#Безымянный_градиент_118-3);}.cls-4{fill:url(#Безымянный_градиент_118-4);}.cls-5{fill:#cecece;}.cls-6{fill:#b2b2b2;}.cls-7{fill:none;}.cls-8{fill:url(#Безымянный_градиент_143);}.cls-9{fill:#b5b5b5;}.cls-10{fill:url(#Безымянный_градиент_7);}.cls-11{fill:url(#Безымянный_градиент_7-2);}.cls-12{fill:#494949;}.cls-13{fill:url(#Безымянный_градиент_103);}.cls-14{fill:url(#Безымянный_градиент_90);}.cls-15{fill:url(#Безымянный_градиент_71);}.cls-16{fill:url(#Безымянный_градиент_7-3);}.cls-17{fill:url(#Безымянный_градиент_7-4);}.cls-18{fill:url(#Безымянный_градиент_103-2);}.cls-19{fill:url(#Безымянный_градиент_90-2);}.cls-20{fill:url(#Безымянный_градиент_143-2);}.cls-21{fill:url(#Безымянный_градиент_143-3);}</style><linearGradient id="Безымянный_градиент_118" x1="35.88" y1="171.68" x2="118.1" y2="29.27" gradientUnits="userSpaceOnUse"><stop offset="0" stop-color="#c69c6d"/><stop offset="0.74" stop-color="#c69c6d"/><stop offset="0.86" stop-color="#c49a6b"/><stop offset="0.91" stop-color="#bd9365"/><stop offset="0.95" stop-color="#b08659"/><stop offset="0.98" stop-color="#9e7449"/><stop offset="1" stop-color="#8c6239"/></linearGradient><linearGradient id="Безымянный_градиент_118-2" x1="89.86" y1="202.91" x2="208.63" y2="-2.81" xlink:href="#Безымянный_градиент_118"/><linearGradient id="Безымянный_градиент_118-3" x1="17.18" y1="204.13" x2="137.36" y2="-4.03" xlink:href="#Безымянный_градиент_118"/><linearGradient id="Безымянный_градиент_118-4" x1="40.15" y1="223.73" x2="182.71" y2="-23.18" xlink:href="#Безымянный_градиент_118"/><linearGradient id="Безымянный_градиент_143" x1="-476.28" y1="165.28" x2="-345.78" y2="34.78" gradientTransform="matrix(-1, 0, 0, 1, -299.49, 0)" gradientUnits="userSpaceOnUse"><stop offset="0" stop-color="#a67c52"/><stop offset="0.48" stop-color="#754c24"/><stop offset="0.98" stop-color="#a47a50"/><stop offset="1" stop-color="#a67c52"/></linearGradient><linearGradient id="Безымянный_градиент_7" x1="73.98" y1="13.51" x2="76.95" y2="13.51" gradientUnits="userSpaceOnUse"><stop offset="0" stop-color="#4d4d4d"/><stop offset="1" stop-color="#736357"/></linearGradient><linearGradient id="Безымянный_градиент_7-2" x1="73.98" y1="185.36" x2="76.95" y2="185.36" xlink:href="#Безымянный_градиент_7"/><linearGradient id="Безымянный_градиент_103" x1="-442.05" y1="99.54" x2="-437.5" y2="99.54" gradientTransform="matrix(-1, 0, 0, 1, -299.49, 0)" gradientUnits="userSpaceOnUse"><stop offset="0" stop-color="#4d4d4d"/><stop offset="1" stop-color="#333"/></linearGradient><linearGradient id="Безымянный_градиент_90" x1="-441.2" y1="106.25" x2="-438.35" y2="106.25" gradientTransform="matrix(-1, 0, 0, 1, -299.49, 0)" gradientUnits="userSpaceOnUse"><stop offset="0" stop-color="#4d4d4d"/><stop offset="1" stop-color="#1a1a1a"/></linearGradient><linearGradient id="Безымянный_градиент_71" x1="121.69" y1="165.32" x2="252.19" y2="34.82" gradientTransform="matrix(-1, 0, 0, 1, 372.23, 0)" gradientUnits="userSpaceOnUse"><stop offset="0" stop-color="#a67c52"/><stop offset="0.55" stop-color="#754c24"/><stop offset="0.82" stop-color="#a47a4e"/><stop offset="1" stop-color="#c69c6d"/></linearGradient><linearGradient id="Безымянный_градиент_7-3" x1="147.73" y1="13.56" x2="150.71" y2="13.56" xlink:href="#Безымянный_градиент_7"/><linearGradient id="Безымянный_градиент_7-4" x1="147.73" y1="185.4" x2="150.71" y2="185.4" xlink:href="#Безымянный_градиент_7"/><linearGradient id="Безымянный_градиент_103-2" x1="155.92" y1="99.58" x2="160.46" y2="99.58" gradientTransform="matrix(-1, 0, 0, 1, 372.23, 0)" xlink:href="#Безымянный_градиент_103"/><linearGradient id="Безымянный_градиент_90-2" x1="156.76" y1="106.29" x2="159.62" y2="106.29" gradientTransform="matrix(-1, 0, 0, 1, 372.23, 0)" xlink:href="#Безымянный_градиент_90"/><linearGradient id="Безымянный_градиент_143-2" x1="-44.96" y1="147.99" x2="50.95" y2="52.07" gradientTransform="matrix(1, 0, 0, 1, 0, 0)" xlink:href="#Безымянный_градиент_143"/><linearGradient id="Безымянный_градиент_143-3" x1="-27.66" y1="165.28" x2="102.83" y2="34.78" gradientTransform="matrix(1, 0, 0, 1, 0, 0)" xlink:href="#Безымянный_градиент_143"/></defs><g id="Слой_2" data-name="Слой 2"><g id="Слой_2-2" data-name="Слой 2"><path class="cls-1" d="M76.36,179.22l-.2,0h0a1,1,0,0,0-.79,1v13.67a1,1,0,0,0,.79,1h0l.2,0h.89V179.22ZM77,5.68V21.35h.3V5.68Z"/><path class="cls-2" d="M219.22,4.16V196h1.49V4.16Zm-69.66,175.1a1,1,0,0,0-1,1v13.68a1,1,0,0,0,1,1h.49V179.26ZM77.78,194.78v1.16h.55v-2.05A1,1,0,0,1,77.78,194.78Zm0-173.54V179.33a1,1,0,0,1,.55.89V20.35A1,1,0,0,1,77.78,21.24Zm0-17.12V5.79a1,1,0,0,1,.55.89V4.12Z"/><path class="cls-3" d="M3,4.12V195.94h.85V4.12ZM75.36,193.89V180.22a1,1,0,0,1,.79-1l-.2,0H75a1,1,0,0,0-1,1v13.67a1,1,0,0,0,1,1h1l.2,0A1,1,0,0,1,75.36,193.89Zm0-173.54V6.68a1,1,0,0,1,.79-1l-.2,0H75a1,1,0,0,0-1,1V20.35a1,1,0,0,0,1,1h1l.2,0A1,1,0,0,1,75.36,20.35ZM77,4.12V5.68h.38a1,1,0,0,1,.45.11V4.12Zm.38,17.23H77V179.22h.38a1,1,0,0,1,.45.11V21.24A1,1,0,0,1,77.33,21.35Zm0,173.54H77v1.05h.83v-1.16A1,1,0,0,1,77.33,194.89Zm71.23-.95V180.26a1,1,0,0,1,1-1h-.83a1,1,0,0,0-1,1v13.68a1,1,0,0,0,1,1h.83A1,1,0,0,1,148.56,193.94Zm0-173.54V6.72a1,1,0,0,1,1-1h-.83a1,1,0,0,0-1,1V20.4a1,1,0,0,0,1,1h.83A1,1,0,0,1,148.56,20.4Zm2.15-16.24V5.74a1,1,0,0,1,.83,1V4.16Zm0,17.22v157.9a1,1,0,0,1,.83,1V20.4A1,1,0,0,1,150.71,21.38Zm0,173.54V196h.83v-2.05A1,1,0,0,1,150.71,194.92Z"/><path class="cls-4" d="M0,0V200.55H222.86V0ZM147.73,6.72a1,1,0,0,1,1-1h.83a1,1,0,0,0-1,1V20.4a1,1,0,0,0,1,1h-.83a1,1,0,0,1-1-1ZM74,6.68a1,1,0,0,1,1-1h1l.2,0a1,1,0,0,0-.79,1V20.35a1,1,0,0,0,.79,1l-.2,0H75a1,1,0,0,1-1-1ZM72.17,195.94H3V4.12H72.17Zm74,0H77v-1.05h-.59l-.2,0h0l-.2,0H75a1,1,0,0,1-1-1V180.22a1,1,0,0,1,1-1h1l.2,0h0l.2,0H77V4.12h69.18Zm74.58.05h-70v-1.07l-.17,0h-1.81a1,1,0,0,1-1-1V180.26a1,1,0,0,1,1-1h1.32v.06a1,1,0,0,1,.66.94V4.16h70Z"/></g><g id="Слой_3" data-name="Слой 3"><polygon class="cls-5" points="60.46 15.76 60.46 184.22 59.73 183.53 59.73 16.55 60.46 15.76"/><polygon class="cls-6" points="60.47 15.76 59.74 16.55 15.47 16.55 14.61 15.76 60.47 15.76"/><rect class="cls-7" x="15.47" y="16.55" width="44.27" height="166.98"/><rect class="cls-7" x="15.47" y="16.55" width="44.27" height="166.98"/><path class="cls-8" d="M77,4.12V195.94h69.18V4.12Zm57.47,180.1H88.55V15.76h45.87Zm8.15-81.37a2.23,2.23,0,0,1-.67,1.6l-.18.16v8.06a1.46,1.46,0,0,1-.11.55c0,.08-.09.16-.14.24a1.73,1.73,0,0,1-.17.21h0a1.39,1.39,0,0,1-1,.42h0a1.37,1.37,0,0,1-1-.42,1.39,1.39,0,0,1-.42-1v-8h0l-.18-.16a2.26,2.26,0,0,1-.66-1.6V96.74a2.28,2.28,0,0,1,.67-1.61,2.21,2.21,0,0,1,1.59-.67h0a2.25,2.25,0,0,1,1.6.67,2.23,2.23,0,0,1,.68,1.61Z"/><rect class="cls-7" x="89.41" y="16.55" width="44.26" height="166.98"/><polygon class="cls-9" points="88.54 184.22 134.41 184.22 133.67 183.53 89.41 183.53 88.54 184.22"/><polygon class="cls-5" points="88.54 15.76 88.54 184.22 89.41 183.53 89.41 16.55 88.54 15.76"/><polygon class="cls-5" points="133.67 16.55 133.67 183.53 134.41 184.22 134.41 15.76 133.67 16.55"/><polygon class="cls-6" points="88.54 15.76 89.41 16.55 133.67 16.55 134.41 15.76 88.54 15.76"/><rect class="cls-7" x="89.41" y="16.55" width="44.26" height="166.98"/><rect class="cls-7" x="89.41" y="16.55" width="44.26" height="166.98"/><path class="cls-10" d="M77,6.68V20.35a1,1,0,0,1-.79,1h0l-.2,0H75a1,1,0,0,1-1-1V6.68a1,1,0,0,1,1-1h1l.2,0h0A1,1,0,0,1,77,6.68Z"/><path class="cls-11" d="M77,180.22V191.5H74V180.22a1,1,0,0,1,1-1h1l.2,0h0A1,1,0,0,1,77,180.22Z"/><path class="cls-12" d="M77,191.5v2.39a1,1,0,0,1-.79,1h0l-.2,0H75a1,1,0,0,1-1-1V191.5Z"/><path class="cls-13" d="M138,96.74v6.11a2.27,2.27,0,0,0,.85,1.77V99.84a1.43,1.43,0,0,1,1.42-1.43h0a1.43,1.43,0,0,1,1.42,1.43v4.77a2.24,2.24,0,0,0,.85-1.76V96.74a2.28,2.28,0,0,0-2.27-2.28h0A2.28,2.28,0,0,0,138,96.74Z"/><path class="cls-14" d="M138.86,99.84v12.83a1.43,1.43,0,0,0,1.42,1.42h0a1.43,1.43,0,0,0,1.42-1.42V99.84a1.43,1.43,0,0,0-1.42-1.43h0A1.43,1.43,0,0,0,138.86,99.84Z"/><path class="cls-15" d="M150.71,4.16V196h69.17V4.16Zm57.47,180.11H162.31V15.8h45.87Zm8.14-81.38a2.27,2.27,0,0,1-.66,1.61h0l-.17.16v8a1.36,1.36,0,0,1-.43,1,1.41,1.41,0,0,1-2,0,1.43,1.43,0,0,1-.42-1v-8h0a1.29,1.29,0,0,1-.17-.16,2.26,2.26,0,0,1-.66-1.6V96.78a2.21,2.21,0,0,1,.67-1.6,2.27,2.27,0,0,1,3.87,1.6Z"/><rect class="cls-7" x="163.17" y="16.59" width="44.26" height="166.99"/><polygon class="cls-9" points="162.3 184.26 208.17 184.26 207.43 183.57 163.17 183.57 162.3 184.26"/><polygon class="cls-5" points="207.43 16.59 207.43 183.57 208.17 184.26 208.17 15.79 207.43 16.59"/><polygon class="cls-5" points="162.3 15.79 162.3 184.26 163.17 183.57 163.17 16.59 162.3 15.79"/><polygon class="cls-6" points="162.3 15.79 163.17 16.59 207.43 16.59 208.17 15.79 162.3 15.79"/><rect class="cls-7" x="163.17" y="16.59" width="44.26" height="166.99"/><rect class="cls-7" x="163.17" y="16.59" width="44.26" height="166.99"/><path class="cls-16" d="M150.71,6.72V20.4a1,1,0,0,1-.66.94,1,1,0,0,1-.34.06h-1a1,1,0,0,1-1-1V6.72a1,1,0,0,1,1-1h1a1,1,0,0,1,.34.06A1,1,0,0,1,150.71,6.72Z"/><path class="cls-17" d="M150.71,180.26v11.29h-3V180.26a1,1,0,0,1,1-1h1a1,1,0,0,1,.34.06A1,1,0,0,1,150.71,180.26Z"/><path class="cls-12" d="M150.71,191.55v2.39a1,1,0,0,1-.66.94,1,1,0,0,1-.34.06h-1a1,1,0,0,1-1-1v-2.39Z"/><path class="cls-18" d="M211.77,96.78v6.11a2.3,2.3,0,0,0,.84,1.77V99.88a1.43,1.43,0,0,1,2.86,0v4.78l.18-.16a2.27,2.27,0,0,0,.66-1.61V96.78a2.26,2.26,0,0,0-3.87-1.6A2.21,2.21,0,0,0,211.77,96.78Z"/><path class="cls-19" d="M212.61,99.88v12.83a1.43,1.43,0,0,0,2.86,0V99.88a1.43,1.43,0,0,0-2.86,0Z"/><path class="cls-20" d="M3,4.12V195.94H3V4.12Z"/><path class="cls-21" d="M3,4.12V195.94H72.17V4.12Zm57.46,180.1H14.6V15.76H60.46Z"/><rect class="cls-7" x="15.47" y="16.55" width="44.27" height="166.98"/><polygon class="cls-9" points="60.47 184.22 14.61 184.22 15.47 183.53 59.74 183.53 60.47 184.22"/><polygon class="cls-5" points="15.46 16.55 15.46 183.53 14.6 184.22 14.6 15.76 15.46 16.55"/></g></g></svg>