<svg xmlns="http://www.w3.org/2000/svg" xmlns:xlink="http://www.w3.org/1999/xlink" viewBox="0 0 222.86 200.55"><defs><style>.cls-1{fill:url(#Безымянный_градиент_118);}.cls-2{fill:#cecece;}.cls-3{fill:#b2b2b2;}.cls-4{fill:none;}.cls-5{fill:url(#Безымянный_градиент_143);}.cls-6{fill:#b5b5b5;}.cls-7{fill:url(#Безымянный_градиент_7);}.cls-8{fill:url(#Безымянный_градиент_7-2);}.cls-9{fill:#494949;}.cls-10{fill:url(#Безымянный_градиент_103);}.cls-11{fill:url(#Безымянный_градиент_90);}.cls-12{fill:url(#Безымянный_градиент_143-2);}.cls-13{fill:url(#Безымянный_градиент_143-3);}</style><linearGradient id="Безымянный_градиент_118" x1="1034.1" y1="223.73" x2="1176.66" y2="-23.18" gradientTransform="matrix(-1, 0, 0, 1, 1216.81, 0)" gradientUnits="userSpaceOnUse"><stop offset="0" stop-color="#c69c6d"/><stop offset="0.74" stop-color="#c69c6d"/><stop offset="0.86" stop-color="#c49a6b"/><stop offset="0.91" stop-color="#bd9365"/><stop offset="0.95" stop-color="#b08659"/><stop offset="0.98" stop-color="#9e7449"/><stop offset="1" stop-color="#8c6239"/></linearGradient><linearGradient id="Безымянный_градиент_143" x1="1040.53" y1="165.28" x2="1171.03" y2="34.78" gradientTransform="matrix(-1, 0, 0, 1, 1216.81, 0)" gradientUnits="userSpaceOnUse"><stop offset="0" stop-color="#a67c52"/><stop offset="0.48" stop-color="#754c24"/><stop offset="0.98" stop-color="#a47a50"/><stop offset="1" stop-color="#a67c52"/></linearGradient><linearGradient id="Безымянный_градиент_7" x1="1140.37" y1="13.51" x2="1143.34" y2="13.51" gradientTransform="matrix(-1, 0, 0, 1, 1216.81, 0)" gradientUnits="userSpaceOnUse"><stop offset="0" stop-color="#4d4d4d"/><stop offset="1" stop-color="#736357"/></linearGradient><linearGradient id="Безымянный_градиент_7-2" x1="1140.37" y1="185.36" x2="1143.34" y2="185.36" xlink:href="#Безымянный_градиент_7"/><linearGradient id="Безымянный_градиент_103" x1="1074.75" y1="99.54" x2="1079.3" y2="99.54" gradientTransform="matrix(-1, 0, 0, 1, 1216.81, 0)" gradientUnits="userSpaceOnUse"><stop offset="0" stop-color="#4d4d4d"/><stop offset="1" stop-color="#333"/></linearGradient><linearGradient id="Безымянный_градиент_90" x1="1075.6" y1="106.25" x2="1078.45" y2="106.25" gradientTransform="matrix(-1, 0, 0, 1, 1216.81, 0)" gradientUnits="userSpaceOnUse"><stop offset="0" stop-color="#4d4d4d"/><stop offset="1" stop-color="#1a1a1a"/></linearGradient><linearGradient id="Безымянный_градиент_143-2" x1="1113.33" y1="165.32" x2="1243.83" y2="34.83" xlink:href="#Безымянный_градиент_143"/><linearGradient id="Безымянный_градиент_143-3" x1="967.13" y1="165.28" x2="1097.62" y2="34.78" xlink:href="#Безымянный_градиент_143"/></defs><g id="Слой_2" data-name="Слой 2"><g id="Слой_2-2" data-name="Слой 2"><path class="cls-1" d="M0,0V200.55H222.86V0ZM149.84,4.12H219V195.94H149.84Zm-73.4,0h69.17V195.94H76.44Zm-72.8,0H72.81V196H3.64Z"/></g><g id="Слой_3" data-name="Слой 3"><polygon class="cls-2" points="161.56 15.76 161.56 184.22 162.29 183.53 162.29 16.55 161.56 15.76"/><polygon class="cls-3" points="161.56 15.76 162.28 16.55 206.56 16.55 207.41 15.76 161.56 15.76"/><rect class="cls-4" x="162.29" y="16.55" width="44.27" height="166.98"/><rect class="cls-4" x="162.29" y="16.55" width="44.27" height="166.98"/><path class="cls-5" d="M76.44,4.12V195.94h69.18V4.12Zm61.07,92.62a2.28,2.28,0,0,1,2.27-2.28h0a2.28,2.28,0,0,1,2.27,2.28v6.11a2.24,2.24,0,0,1-.85,1.76v8.06a1.43,1.43,0,0,1-1.42,1.42h0a1.43,1.43,0,0,1-1.42-1.42v-8a2.27,2.27,0,0,1-.85-1.77ZM88,15.76h45.87V184.22H88Z"/><rect class="cls-4" x="88.91" y="16.55" width="44.26" height="166.98"/><polygon class="cls-6" points="88.03 184.22 133.91 184.22 133.16 183.53 88.91 183.53 88.03 184.22"/><polygon class="cls-2" points="88.03 15.76 88.03 184.22 88.91 183.53 88.91 16.55 88.03 15.76"/><polygon class="cls-2" points="133.16 16.55 133.16 183.53 133.91 184.22 133.91 15.76 133.16 16.55"/><polygon class="cls-3" points="88.03 15.76 88.91 16.55 133.16 16.55 133.91 15.76 88.03 15.76"/><rect class="cls-4" x="88.91" y="16.55" width="44.26" height="166.98"/><rect class="cls-4" x="88.91" y="16.55" width="44.26" height="166.98"/><path class="cls-7" d="M73.47,6.68V20.35a1,1,0,0,0,1,1h1a1,1,0,0,0,1-1V6.68a1,1,0,0,0-1-1h-1A1,1,0,0,0,73.47,6.68Z"/><path class="cls-8" d="M73.47,180.22V191.5h3V180.22a1,1,0,0,0-1-1h-1A1,1,0,0,0,73.47,180.22Z"/><path class="cls-9" d="M73.47,191.5v2.39a1,1,0,0,0,1,1h1a1,1,0,0,0,1-1V191.5Z"/><path class="cls-10" d="M137.51,96.74v6.11a2.27,2.27,0,0,0,.85,1.77V99.84a1.43,1.43,0,0,1,1.42-1.43h0a1.43,1.43,0,0,1,1.42,1.43v4.77a2.24,2.24,0,0,0,.85-1.76V96.74a2.28,2.28,0,0,0-2.27-2.28h0A2.28,2.28,0,0,0,137.51,96.74Z"/><path class="cls-11" d="M138.36,99.84v12.83a1.43,1.43,0,0,0,1.42,1.42h0a1.43,1.43,0,0,0,1.42-1.42V99.84a1.43,1.43,0,0,0-1.42-1.43h0A1.43,1.43,0,0,0,138.36,99.84Z"/><path class="cls-12" d="M3.64,4.16V196H72.81V4.16ZM15.25,15.8H61.12V184.27H15.25Z"/><rect class="cls-4" x="16.12" y="16.59" width="44.26" height="166.99"/><polygon class="cls-6" points="15.24 184.26 61.12 184.26 60.38 183.57 16.11 183.57 15.24 184.26"/><polygon class="cls-2" points="60.37 16.59 60.37 183.58 61.12 184.27 61.12 15.8 60.37 16.59"/><polygon class="cls-2" points="15.25 15.8 15.25 184.27 16.12 183.58 16.12 16.59 15.25 15.8"/><polygon class="cls-3" points="15.24 15.79 16.11 16.59 60.38 16.59 61.12 15.79 15.24 15.79"/><rect class="cls-4" x="16.12" y="16.59" width="44.26" height="166.99"/><rect class="cls-4" x="16.12" y="16.59" width="44.26" height="166.99"/><path class="cls-13" d="M149.85,4.12V195.94H219V4.12Zm11.71,11.64h45.86V184.22H161.56Z"/><rect class="cls-4" x="162.29" y="16.55" width="44.27" height="166.98"/><polygon class="cls-6" points="161.56 184.22 207.41 184.22 206.56 183.53 162.28 183.53 161.56 184.22"/><polygon class="cls-2" points="206.56 16.55 206.56 183.53 207.42 184.22 207.42 15.76 206.56 16.55"/></g></g></svg>