<svg xmlns="http://www.w3.org/2000/svg" xmlns:xlink="http://www.w3.org/1999/xlink" viewBox="0 0 222.86 200.55"><defs><style>.cls-1{fill:url(#Безымянный_градиент_118);}.cls-2{fill:url(#Безымянный_градиент_118-2);}.cls-3{fill:#cecece;}.cls-4{fill:#b2b2b2;}.cls-5{fill:none;}.cls-6{fill:url(#Безымянный_градиент_143);}.cls-7{fill:#b5b5b5;}.cls-8{fill:url(#Безымянный_градиент_7);}.cls-9{fill:url(#Безымянный_градиент_7-2);}.cls-10{fill:#494949;}.cls-11{fill:url(#Безымянный_градиент_103);}.cls-12{fill:url(#Безымянный_градиент_90);}.cls-13{fill:url(#Безымянный_градиент_71);}.cls-14{fill:url(#Безымянный_градиент_7-3);}.cls-15{fill:url(#Безымянный_градиент_7-4);}.cls-16{fill:url(#Безымянный_градиент_103-2);}.cls-17{fill:url(#Безымянный_градиент_90-2);}.cls-18{fill:url(#Безымянный_градиент_143-2);}.cls-19{fill:url(#Безымянный_градиент_143-3);}</style><linearGradient id="Безымянный_градиент_118" x1="42.62" y1="219.25" x2="180.25" y2="-19.14" gradientUnits="userSpaceOnUse"><stop offset="0" stop-color="#c69c6d"/><stop offset="0.74" stop-color="#c69c6d"/><stop offset="0.86" stop-color="#c49a6b"/><stop offset="0.91" stop-color="#bd9365"/><stop offset="0.95" stop-color="#b08659"/><stop offset="0.98" stop-color="#9e7449"/><stop offset="1" stop-color="#8c6239"/></linearGradient><linearGradient id="Безымянный_градиент_118-2" x1="40.15" y1="223.73" x2="182.71" y2="-23.18" xlink:href="#Безымянный_градиент_118"/><linearGradient id="Безымянный_градиент_143" x1="45" y1="165.28" x2="175.5" y2="34.78" gradientUnits="userSpaceOnUse"><stop offset="0" stop-color="#a67c52"/><stop offset="0.48" stop-color="#754c24"/><stop offset="0.98" stop-color="#a47a50"/><stop offset="1" stop-color="#a67c52"/></linearGradient><linearGradient id="Безымянный_градиент_7" x1="144.84" y1="13.51" x2="147.81" y2="13.51" gradientUnits="userSpaceOnUse"><stop offset="0" stop-color="#4d4d4d"/><stop offset="1" stop-color="#736357"/></linearGradient><linearGradient id="Безымянный_градиент_7-2" x1="144.84" y1="185.36" x2="147.81" y2="185.36" xlink:href="#Безымянный_градиент_7"/><linearGradient id="Безымянный_градиент_103" x1="79.22" y1="99.54" x2="83.77" y2="99.54" gradientUnits="userSpaceOnUse"><stop offset="0" stop-color="#4d4d4d"/><stop offset="1" stop-color="#333"/></linearGradient><linearGradient id="Безымянный_градиент_90" x1="80.07" y1="106.25" x2="82.92" y2="106.25" gradientUnits="userSpaceOnUse"><stop offset="0" stop-color="#4d4d4d"/><stop offset="1" stop-color="#1a1a1a"/></linearGradient><linearGradient id="Безымянный_градиент_71" x1="120.96" y1="165.32" x2="251.46" y2="34.82" gradientTransform="matrix(-1, 0, 0, 1, 372.24, 0)" gradientUnits="userSpaceOnUse"><stop offset="0" stop-color="#a67c52"/><stop offset="0.55" stop-color="#754c24"/><stop offset="0.82" stop-color="#a47a4e"/><stop offset="1" stop-color="#c69c6d"/></linearGradient><linearGradient id="Безымянный_градиент_7-3" x1="148.46" y1="13.56" x2="151.44" y2="13.56" xlink:href="#Безымянный_градиент_7"/><linearGradient id="Безымянный_градиент_7-4" x1="148.46" y1="185.4" x2="151.44" y2="185.4" xlink:href="#Безымянный_градиент_7"/><linearGradient id="Безымянный_градиент_103-2" x1="155.19" y1="99.58" x2="159.73" y2="99.58" gradientTransform="matrix(-1, 0, 0, 1, 372.24, 0)" xlink:href="#Безымянный_градиент_103"/><linearGradient id="Безымянный_градиент_90-2" x1="156.03" y1="106.29" x2="158.89" y2="106.29" gradientTransform="matrix(-1, 0, 0, 1, 372.24, 0)" xlink:href="#Безымянный_градиент_90"/><linearGradient id="Безымянный_градиент_143-2" x1="-45.7" y1="147.99" x2="50.21" y2="52.07" xlink:href="#Безымянный_градиент_143"/><linearGradient id="Безымянный_градиент_143-3" x1="-28.4" y1="165.28" x2="102.09" y2="34.78" xlink:href="#Безымянный_градиент_143"/></defs><g id="Слой_2" data-name="Слой 2"><g id="Слой_2-2" data-name="Слой 2"><path class="cls-1" d="M2.25,4.12V195.94H3.84V4.12Zm73.41,0V195.94h1.59V4.12Zm71.15,1.56h-.39V21.35h.39a1,1,0,0,0,1-1V6.68A1,1,0,0,0,146.81,5.68Zm0,173.54h-.39v15.67h.39a1,1,0,0,0,1-1V180.22A1,1,0,0,0,146.81,179.22Zm2.65-173.5a1,1,0,0,0-1,1V20.4a1,1,0,0,0,1,1h.59V5.72Zm0,173.54a1,1,0,0,0-1,1v13.68a1,1,0,0,0,1,1h.59V179.26ZM219.22,4.16V196h1.39V4.16Z"/><path class="cls-2" d="M0,0V200.55H222.86V0ZM71.43,195.94H2.25V4.12H71.43ZM147.81,20.35a1,1,0,0,1-1,1h-1a1,1,0,0,1-1-1V180.22a1,1,0,0,1,1-1h1a1,1,0,0,1,1,1v13.67a1,1,0,0,1-1,1h-1a1,1,0,0,1-1-1v2.05H75.66V4.12h69.18V6.68a1,1,0,0,1,1-1h1a1,1,0,0,1,1,1ZM220.61,196H151.44v-2.05a1,1,0,0,1-1,1h-1a1,1,0,0,1-1-1V180.26a1,1,0,0,1,1-1h1a1,1,0,0,1,1,1V20.4a1,1,0,0,1-1,1h-1a1,1,0,0,1-1-1V6.72a1,1,0,0,1,1-1h1a1,1,0,0,1,1,1V4.16h69.17Z"/></g><g id="Слой_3" data-name="Слой 3"><polygon class="cls-3" points="59.72 15.76 59.72 184.22 58.99 183.53 58.99 16.55 59.72 15.76"/><polygon class="cls-4" points="59.72 15.76 58.99 16.55 14.72 16.55 13.86 15.76 59.72 15.76"/><rect class="cls-5" x="14.72" y="16.55" width="44.27" height="166.98"/><rect class="cls-5" x="14.72" y="16.55" width="44.27" height="166.98"/><path class="cls-6" d="M75.66,4.12V195.94h69.18V4.12Zm8.11,98.73a2.27,2.27,0,0,1-.85,1.77v8a1.43,1.43,0,0,1-1.42,1.42h0a1.43,1.43,0,0,1-1.42-1.42v-8.06a2.24,2.24,0,0,1-.85-1.76V96.74a2.28,2.28,0,0,1,2.27-2.28h0a2.28,2.28,0,0,1,2.27,2.28Zm49.47,81.37H87.37V15.76h45.87Z"/><rect class="cls-5" x="88.11" y="16.55" width="44.26" height="166.98"/><polygon class="cls-7" points="133.24 184.22 87.37 184.22 88.11 183.53 132.37 183.53 133.24 184.22"/><polygon class="cls-3" points="133.24 15.76 133.24 184.22 132.37 183.53 132.37 16.55 133.24 15.76"/><polygon class="cls-3" points="88.11 16.55 88.11 183.53 87.37 184.22 87.37 15.76 88.11 16.55"/><polygon class="cls-4" points="133.24 15.76 132.37 16.55 88.11 16.55 87.37 15.76 133.24 15.76"/><rect class="cls-5" x="88.11" y="16.55" width="44.26" height="166.98"/><rect class="cls-5" x="88.11" y="16.55" width="44.26" height="166.98"/><path class="cls-8" d="M147.81,6.68V20.35a1,1,0,0,1-1,1h-1a1,1,0,0,1-1-1V6.68a1,1,0,0,1,1-1h1A1,1,0,0,1,147.81,6.68Z"/><path class="cls-9" d="M147.81,180.22V191.5h-3V180.22a1,1,0,0,1,1-1h1A1,1,0,0,1,147.81,180.22Z"/><path class="cls-10" d="M147.81,191.5v2.39a1,1,0,0,1-1,1h-1a1,1,0,0,1-1-1V191.5Z"/><path class="cls-11" d="M83.77,96.74v6.11a2.27,2.27,0,0,1-.85,1.77V99.84a1.43,1.43,0,0,0-1.42-1.43h0a1.43,1.43,0,0,0-1.42,1.43v4.77a2.24,2.24,0,0,1-.85-1.76V96.74a2.28,2.28,0,0,1,2.27-2.28h0A2.28,2.28,0,0,1,83.77,96.74Z"/><path class="cls-12" d="M82.92,99.84v12.83a1.43,1.43,0,0,1-1.42,1.42h0a1.43,1.43,0,0,1-1.42-1.42V99.84a1.43,1.43,0,0,1,1.42-1.43h0A1.43,1.43,0,0,1,82.92,99.84Z"/><path class="cls-13" d="M151.44,4.16V196h69.17V4.16Zm57.47,180.11H163V15.8h45.87Zm8.14-81.38a2.27,2.27,0,0,1-.66,1.61l-.18.16v8a1.43,1.43,0,1,1-2.86,0v-8a2.3,2.3,0,0,1-.84-1.77V96.78a2.21,2.21,0,0,1,.67-1.6,2.26,2.26,0,0,1,3.87,1.6Z"/><rect class="cls-5" x="163.91" y="16.59" width="44.26" height="166.99"/><polygon class="cls-7" points="163.04 184.26 208.91 184.26 208.17 183.57 163.91 183.57 163.04 184.26"/><polygon class="cls-3" points="208.17 16.59 208.17 183.57 208.91 184.26 208.91 15.79 208.17 16.59"/><polygon class="cls-3" points="163.04 15.79 163.04 184.26 163.91 183.57 163.91 16.59 163.04 15.79"/><polygon class="cls-4" points="163.04 15.79 163.91 16.59 208.17 16.59 208.91 15.79 163.04 15.79"/><rect class="cls-5" x="163.91" y="16.59" width="44.26" height="166.99"/><rect class="cls-5" x="163.91" y="16.59" width="44.26" height="166.99"/><rect class="cls-14" x="148.46" y="5.72" width="2.98" height="15.68" rx="1"/><path class="cls-15" d="M151.44,180.26v11.29h-3V180.26a1,1,0,0,1,1-1h1A1,1,0,0,1,151.44,180.26Z"/><path class="cls-10" d="M151.44,191.55v2.39a1,1,0,0,1-1,1h-1a1,1,0,0,1-1-1v-2.39Z"/><path class="cls-16" d="M212.51,96.78v6.11a2.3,2.3,0,0,0,.84,1.77V99.88a1.43,1.43,0,0,1,2.86,0v4.78l.18-.16a2.27,2.27,0,0,0,.66-1.61V96.78a2.26,2.26,0,0,0-3.87-1.6A2.21,2.21,0,0,0,212.51,96.78Z"/><path class="cls-17" d="M213.35,99.88v12.83a1.43,1.43,0,1,0,2.86,0V99.88a1.43,1.43,0,0,0-2.86,0Z"/><path class="cls-18" d="M2.25,4.12V195.94h0V4.12Z"/><path class="cls-19" d="M2.26,4.12V195.94H71.43V4.12Zm57.46,180.1H13.86V15.76H59.72Z"/><rect class="cls-5" x="14.72" y="16.55" width="44.27" height="166.98"/><polygon class="cls-7" points="59.72 184.22 13.86 184.22 14.72 183.53 58.99 183.53 59.72 184.22"/><polygon class="cls-3" points="14.72 16.55 14.72 183.53 13.86 184.22 13.86 15.76 14.72 16.55"/></g></g></svg>