<svg xmlns="http://www.w3.org/2000/svg" xmlns:xlink="http://www.w3.org/1999/xlink" viewBox="0 0 222.86 200.55"><defs><style>.cls-1{fill:url(#Безымянный_градиент_118);}.cls-2{fill:url(#Безымянный_градиент_118-2);}.cls-3{fill:#cecece;}.cls-4{fill:#b2b2b2;}.cls-5{fill:none;}.cls-6{fill:url(#Безымянный_градиент_143);}.cls-7{fill:#b5b5b5;}.cls-8{fill:url(#Безымянный_градиент_7);}.cls-9{fill:url(#Безымянный_градиент_7-2);}.cls-10{fill:#494949;}.cls-11{fill:url(#Безымянный_градиент_103);}.cls-12{fill:url(#Безымянный_градиент_90);}.cls-13{fill:url(#Безымянный_градиент_71);}.cls-14{fill:url(#Безымянный_градиент_7-3);}.cls-15{fill:url(#Безымянный_градиент_7-4);}.cls-16{fill:url(#Безымянный_градиент_103-2);}.cls-17{fill:url(#Безымянный_градиент_90-2);}.cls-18{fill:url(#Безымянный_градиент_143-2);}.cls-19{fill:url(#Безымянный_градиент_143-3);}</style><linearGradient id="Безымянный_градиент_118" x1="62.02" y1="186.77" x2="162.48" y2="12.76" gradientUnits="userSpaceOnUse"><stop offset="0" stop-color="#c69c6d"/><stop offset="0.74" stop-color="#c69c6d"/><stop offset="0.86" stop-color="#c49a6b"/><stop offset="0.91" stop-color="#bd9365"/><stop offset="0.95" stop-color="#b08659"/><stop offset="0.98" stop-color="#9e7449"/><stop offset="1" stop-color="#8c6239"/></linearGradient><linearGradient id="Безымянный_градиент_118-2" x1="40.15" y1="223.73" x2="182.71" y2="-23.18" xlink:href="#Безымянный_градиент_118"/><linearGradient id="Безымянный_градиент_143" x1="48.46" y1="165.28" x2="178.96" y2="34.78" gradientTransform="matrix(-1, 0, 0, 1, 226.63, 0)" gradientUnits="userSpaceOnUse"><stop offset="0" stop-color="#a67c52"/><stop offset="0.48" stop-color="#754c24"/><stop offset="0.98" stop-color="#a47a50"/><stop offset="1" stop-color="#a67c52"/></linearGradient><linearGradient id="Безымянный_градиент_7" x1="75.36" y1="13.51" x2="78.33" y2="13.51" gradientUnits="userSpaceOnUse"><stop offset="0" stop-color="#4d4d4d"/><stop offset="1" stop-color="#736357"/></linearGradient><linearGradient id="Безымянный_градиент_7-2" x1="75.36" y1="185.36" x2="78.33" y2="185.36" xlink:href="#Безымянный_градиент_7"/><linearGradient id="Безымянный_градиент_103" x1="82.69" y1="99.54" x2="87.24" y2="99.54" gradientTransform="matrix(-1, 0, 0, 1, 226.63, 0)" gradientUnits="userSpaceOnUse"><stop offset="0" stop-color="#4d4d4d"/><stop offset="1" stop-color="#333"/></linearGradient><linearGradient id="Безымянный_градиент_90" x1="83.54" y1="106.25" x2="86.39" y2="106.25" gradientTransform="matrix(-1, 0, 0, 1, 226.63, 0)" gradientUnits="userSpaceOnUse"><stop offset="0" stop-color="#4d4d4d"/><stop offset="1" stop-color="#1a1a1a"/></linearGradient><linearGradient id="Безымянный_градиент_71" x1="119.38" y1="165.32" x2="249.88" y2="34.82" gradientUnits="userSpaceOnUse"><stop offset="0" stop-color="#a67c52"/><stop offset="0.55" stop-color="#754c24"/><stop offset="0.82" stop-color="#a47a4e"/><stop offset="1" stop-color="#c69c6d"/></linearGradient><linearGradient id="Безымянный_градиент_7-3" x1="219.21" y1="13.56" x2="222.19" y2="13.56" xlink:href="#Безымянный_градиент_7"/><linearGradient id="Безымянный_градиент_7-4" x1="219.21" y1="185.4" x2="222.19" y2="185.4" xlink:href="#Безымянный_градиент_7"/><linearGradient id="Безымянный_градиент_103-2" x1="153.6" y1="99.58" x2="158.14" y2="99.58" gradientTransform="matrix(1, 0, 0, 1, 0, 0)" xlink:href="#Безымянный_градиент_103"/><linearGradient id="Безымянный_градиент_90-2" x1="154.44" y1="106.29" x2="157.3" y2="106.29" gradientTransform="matrix(1, 0, 0, 1, 0, 0)" xlink:href="#Безымянный_градиент_90"/><linearGradient id="Безымянный_градиент_143-2" x1="-44.12" y1="147.99" x2="51.79" y2="52.07" gradientTransform="matrix(1, 0, 0, 1, 0, 0)" xlink:href="#Безымянный_градиент_143"/><linearGradient id="Безымянный_градиент_143-3" x1="-26.82" y1="165.28" x2="103.67" y2="34.78" gradientTransform="matrix(1, 0, 0, 1, 0, 0)" xlink:href="#Безымянный_градиент_143"/></defs><g id="Слой_2" data-name="Слой 2"><g id="Слой_2-2" data-name="Слой 2"><path class="cls-1" d="M146.42,4.12V195.94h1.09V4.12ZM76.36,179.22a1,1,0,0,0-1,1v13.67a1,1,0,0,0,1,1h.89V179.22Zm0-173.54a1,1,0,0,0-1,1V20.35a1,1,0,0,0,1,1h.89V5.68Z"/><path class="cls-2" d="M0,0V200.55H222.86V0ZM73,195.94H3.84V4.12H73Zm74.49,0H78.33v-2.05a1,1,0,0,1-1,1h-1a1,1,0,0,1-1-1V180.22a1,1,0,0,1,1-1h1a1,1,0,0,1,1,1V20.35a1,1,0,0,1-1,1h-1a1,1,0,0,1-1-1V6.68a1,1,0,0,1,1-1h1a1,1,0,0,1,1,1V4.12h69.18Zm71.71.05H150.05V4.16h69.17Z"/></g><g id="Слой_3" data-name="Слой 3"><polygon class="cls-3" points="61.3 15.76 61.3 184.22 60.57 183.53 60.57 16.55 61.3 15.76"/><polygon class="cls-4" points="61.3 15.76 60.57 16.55 16.3 16.55 15.44 15.76 61.3 15.76"/><rect class="cls-5" x="16.3" y="16.55" width="44.27" height="166.98"/><rect class="cls-5" x="16.3" y="16.55" width="44.27" height="166.98"/><path class="cls-6" d="M78.33,4.12V195.94h69.18V4.12Zm57.47,180.1H89.93V15.76H135.8ZM144,102.85a2.24,2.24,0,0,1-.85,1.76v8.06a1.43,1.43,0,0,1-1.42,1.42h0a1.43,1.43,0,0,1-1.42-1.42v-8a2.27,2.27,0,0,1-.85-1.77V96.74a2.28,2.28,0,0,1,2.27-2.28h0A2.28,2.28,0,0,1,144,96.74Z"/><rect class="cls-5" x="90.8" y="16.55" width="44.26" height="166.98"/><polygon class="cls-7" points="89.92 184.22 135.79 184.22 135.06 183.53 90.8 183.53 89.92 184.22"/><polygon class="cls-3" points="89.92 15.76 89.92 184.22 90.8 183.53 90.8 16.55 89.92 15.76"/><polygon class="cls-3" points="135.06 16.55 135.06 183.53 135.79 184.22 135.79 15.76 135.06 16.55"/><polygon class="cls-4" points="89.92 15.76 90.8 16.55 135.06 16.55 135.79 15.76 89.92 15.76"/><rect class="cls-5" x="90.8" y="16.55" width="44.26" height="166.98"/><rect class="cls-5" x="90.8" y="16.55" width="44.26" height="166.98"/><path class="cls-8" d="M78.33,6.68V20.35a1,1,0,0,1-1,1h-1a1,1,0,0,1-1-1V6.68a1,1,0,0,1,1-1h1A1,1,0,0,1,78.33,6.68Z"/><path class="cls-9" d="M78.33,180.22V191.5h-3V180.22a1,1,0,0,1,1-1h1A1,1,0,0,1,78.33,180.22Z"/><path class="cls-10" d="M78.33,191.5v2.39a1,1,0,0,1-1,1h-1a1,1,0,0,1-1-1V191.5Z"/><path class="cls-11" d="M139.39,96.74v6.11a2.28,2.28,0,0,0,.86,1.77V99.84a1.43,1.43,0,0,1,1.42-1.43h0a1.43,1.43,0,0,1,1.42,1.43v4.77a2.24,2.24,0,0,0,.85-1.76V96.74a2.28,2.28,0,0,0-2.27-2.28h0A2.29,2.29,0,0,0,139.39,96.74Z"/><path class="cls-12" d="M140.25,99.84v12.83a1.43,1.43,0,0,0,1.42,1.42h0a1.43,1.43,0,0,0,1.42-1.42V99.84a1.43,1.43,0,0,0-1.42-1.43h0A1.43,1.43,0,0,0,140.25,99.84Z"/><path class="cls-13" d="M150,4.16V196h69.17V4.16Zm8.1,98.73a2.3,2.3,0,0,1-.84,1.77v8a1.43,1.43,0,0,1-2.86,0v-8l-.18-.16a2.27,2.27,0,0,1-.66-1.61V96.78a2.26,2.26,0,0,1,3.87-1.6,2.21,2.21,0,0,1,.67,1.6Zm49.47,81.38H161.74V15.8h45.87Z"/><rect class="cls-5" x="162.48" y="16.59" width="44.26" height="166.99"/><polygon class="cls-7" points="207.61 184.26 161.74 184.26 162.48 183.57 206.74 183.57 207.61 184.26"/><polygon class="cls-3" points="162.48 16.59 162.48 183.57 161.74 184.26 161.74 15.79 162.48 16.59"/><polygon class="cls-3" points="207.61 15.79 207.61 184.26 206.74 183.57 206.74 16.59 207.61 15.79"/><polygon class="cls-4" points="207.61 15.79 206.74 16.59 162.48 16.59 161.74 15.79 207.61 15.79"/><rect class="cls-5" x="162.48" y="16.59" width="44.26" height="166.99"/><rect class="cls-5" x="162.48" y="16.59" width="44.26" height="166.99"/><rect class="cls-14" x="219.21" y="5.72" width="2.98" height="15.68" rx="1"/><path class="cls-15" d="M222.19,180.26v11.29h-3V180.26a1,1,0,0,1,1-1h1A1,1,0,0,1,222.19,180.26Z"/><path class="cls-10" d="M222.19,191.55v2.39a1,1,0,0,1-1,1h-1a1,1,0,0,1-1-1v-2.39Z"/><path class="cls-16" d="M158.14,96.78v6.11a2.3,2.3,0,0,1-.84,1.77V99.88a1.43,1.43,0,0,0-2.86,0v4.78l-.18-.16a2.27,2.27,0,0,1-.66-1.61V96.78a2.26,2.26,0,0,1,3.87-1.6A2.21,2.21,0,0,1,158.14,96.78Z"/><path class="cls-17" d="M157.3,99.88v12.83a1.43,1.43,0,0,1-2.86,0V99.88a1.43,1.43,0,0,1,2.86,0Z"/><path class="cls-18" d="M3.83,4.12V195.94h0V4.12Z"/><path class="cls-19" d="M3.84,4.12V195.94H73V4.12ZM61.3,184.22H15.44V15.76H61.3Z"/><rect class="cls-5" x="16.3" y="16.55" width="44.27" height="166.98"/><polygon class="cls-7" points="61.3 184.22 15.44 184.22 16.3 183.53 60.57 183.53 61.3 184.22"/><polygon class="cls-3" points="16.3 16.55 16.3 183.53 15.44 184.22 15.44 15.76 16.3 16.55"/></g></g></svg>