<svg width="157" height="160" viewBox="0 0 157 160" fill="none" xmlns="http://www.w3.org/2000/svg">
<g clip-path="url(#clip0_0_4794)">
<path d="M156.855 0H0V160H156.855V0Z" fill="#4EBC4A"/>
<path d="M59.0031 51.9671C63.6598 43.4283 74.4369 19.2593 74.4369 19.2593C74.4369 19.2593 75.501 29.2453 82.5528 39.0865C89.604 48.9278 93.5961 54.7168 91.068 53.2696C88.5399 51.8223 83.7502 49.362 83.7502 49.362C86.1451 52.2565 95.9909 75.8467 94.7935 75.8467C93.5961 75.8467 92.557 74.5593 91.2425 74.0241C87.8749 71.6496 86.9433 72.9521 86.9433 72.9521C86.9433 72.9521 92.635 84.4104 99.0507 94.0822C104.634 102.5 111.112 108.779 110.493 109.857C109.873 110.934 98.2524 106.528 98.2524 106.528C98.2001 106.527 102.077 114.167 106.9 121.145C112.092 128.658 118.232 135.547 117.411 135.473C115.828 135.33 101.046 126.066 101.046 126.066L117.677 154.287L30.9297 157.037L48.093 128.092C48.093 128.092 33.3112 137.356 31.728 137.499C30.9073 137.573 37.047 130.684 42.2389 123.172C47.062 116.193 50.9394 108.553 50.887 108.554C50.887 108.554 39.2657 112.961 38.6466 111.883C38.0274 110.805 44.5044 104.526 50.0888 96.1082C56.5045 86.4363 62.1962 74.9785 62.1962 74.9785C62.1962 74.9785 61.2649 73.6757 57.8974 76.0504C56.5829 76.5859 55.5438 77.8726 54.3463 77.8726C53.1489 77.8726 56.2765 71.779 59.0031 66.15C61.8503 60.2722 64.3886 55.5527 66.0547 49.362C66.0547 49.362 63.9556 49.9146 62.1962 51.3882C59.1463 53.9425 56.0499 57.3822 59.0031 51.9671Z" fill="#4EA64B"/>
<path d="M10.6218 74.3469C15.6818 65.7671 27.3921 41.4817 27.3921 41.4817C27.3921 41.4817 28.5487 51.5157 36.211 61.4044C43.8733 71.2931 48.2104 77.1098 45.4635 75.6557C42.7166 74.2017 37.5121 71.7294 37.5121 71.7294C40.1144 74.638 50.8127 98.3417 49.5115 98.3417C48.2104 98.3417 47.0813 97.0483 45.6529 96.5106C41.9938 94.1239 40.9818 95.4328 40.9818 95.4328C40.9818 95.4328 47.1665 106.947 54.1378 116.665C60.2057 125.123 67.2438 131.433 66.571 132.516C65.8982 133.598 53.2704 129.17 53.2704 129.17C53.2135 129.17 57.4267 136.846 62.6676 143.859C68.309 151.407 74.9802 158.33 74.0884 158.255C72.3684 158.111 56.3064 148.802 56.3064 148.802L74.3778 177.16L-19.8828 179.923L-1.23305 150.839C-1.23305 150.839 -17.295 160.148 -19.0153 160.291C-19.9071 160.365 -13.2357 153.443 -7.59421 145.894C-2.35344 138.882 1.85978 131.206 1.80295 131.207C1.80295 131.207 -10.8248 135.634 -11.4976 134.551C-12.1704 133.468 -5.13242 127.159 0.935518 118.7C7.90687 108.982 14.0916 97.4691 14.0916 97.4691C14.0916 97.4691 13.0795 96.1602 9.42042 98.5461C7.99207 99.0839 6.86295 100.377 5.56181 100.377C4.26067 100.377 7.65907 94.2543 10.6218 88.598C13.7156 82.692 16.4738 77.9498 18.2841 71.7294C18.2841 71.7294 16.0033 72.2846 14.0916 73.7652C10.7774 76.332 7.41289 79.7883 10.6218 74.3469Z" fill="#3F933C"/>
<path d="M105.912 68.3126C111.754 58.4073 125.273 30.3704 125.273 30.3704C125.273 30.3704 126.608 41.9545 135.455 53.3707C144.3 64.7869 149.307 71.5024 146.136 69.8235C142.965 68.1447 136.956 65.2906 136.956 65.2906C139.961 68.6484 152.312 96.0141 150.81 96.0141C149.307 96.0141 148.004 94.5207 146.355 93.8992C142.13 91.1452 140.962 92.6563 140.962 92.6563C140.962 92.6563 148.103 105.948 156.151 117.167C163.155 126.933 171.281 134.217 170.504 135.467C169.728 136.717 155.149 131.605 155.149 131.605C155.084 131.604 159.948 140.466 165.998 148.562C172.511 157.277 180.213 165.269 179.183 165.183C177.197 165.017 158.654 154.27 158.654 154.27L179.517 187.008L70.6953 190.198L92.2258 156.621C92.2258 156.621 73.683 167.367 71.6968 167.533C70.6672 167.619 78.3695 159.627 84.8823 150.913C90.9326 142.816 95.7966 133.955 95.7311 133.956C95.7311 133.956 81.1524 139.067 80.3755 137.817C79.5993 136.567 87.7241 129.283 94.7296 119.518C102.778 108.298 109.918 95.0067 109.918 95.0067C109.918 95.0067 108.749 93.4955 104.525 96.2504C102.877 96.8711 101.572 98.3644 100.071 98.3644C98.5685 98.3644 102.492 91.2948 105.912 84.7652C109.484 77.9467 112.668 72.4721 114.759 65.2906C114.759 65.2906 112.125 65.9317 109.918 67.641C106.092 70.6043 102.208 74.5941 105.912 68.3126Z" fill="#3F933C"/>
<path d="M7.36433 -11.8518H-11.0459V6.6667V153.333V171.852H7.36433H150.228H168.638V153.333V6.6667V-11.8518H150.228H7.36433Z" stroke="white" stroke-width="50"/>
<path d="M5.15527 85.1853H152.437" stroke="white" stroke-width="8"/>
<path d="M78.7959 4.44434V153.333" stroke="white" stroke-width="8"/>
<rect x="2.5" y="2.5" width="152" height="155" stroke="#EBEBEB" stroke-width="5"/>
</g>
<defs>
<clipPath id="clip0_0_4794">
<rect width="157" height="160" fill="white"/>
</clipPath>
</defs>
</svg>
