<svg width="300" height="300" viewBox="0 0 300 300" fill="none" xmlns="http://www.w3.org/2000/svg">
<path d="M14.7649 92.8354C14.4555 92.8354 14.1416 92.7725 13.8412 92.6392C12.6813 92.128 12.1534 90.7737 12.6643 89.6139C13.2831 88.2088 13.9216 86.819 14.5822 85.4379C15.1297 84.293 16.4985 83.8086 17.6452 84.357C18.789 84.9043 19.2731 86.2746 18.7258 87.4184C18.0864 88.7561 17.4658 90.1046 16.8676 91.4646C16.4884 92.3224 15.6467 92.8354 14.7649 92.8354ZM10.3032 104.236C10.0545 104.236 9.80386 104.194 9.55594 104.11C8.35671 103.697 7.72001 102.391 8.13104 101.192C8.80531 99.2309 9.52734 97.267 10.2775 95.3535C10.7393 94.1713 12.0756 93.5897 13.2519 94.0535C14.4332 94.5156 15.0156 95.847 14.5527 97.028C13.8262 98.8826 13.1263 100.786 12.4751 102.684C12.1478 103.637 11.2564 104.236 10.3032 104.236V104.236ZM5.43017 121.933C5.27335 121.933 5.11631 121.915 4.95766 121.882C3.71554 121.624 2.92026 120.407 3.18053 119.165C4.02317 115.129 5.05037 111.075 6.23106 107.113C6.59451 105.896 7.8726 105.21 9.08789 105.569C10.3032 105.931 10.9932 107.21 10.6313 108.425C9.48708 112.265 8.493 116.193 7.67351 120.106C7.4479 121.188 6.49311 121.933 5.43017 121.933V121.933ZM2.29585 152.33C1.02805 152.33 0 151.303 0 150.034C0 141.735 0.684455 133.406 2.0338 125.278C2.24181 124.027 3.41958 123.185 4.67508 123.389C5.92498 123.597 6.77099 124.779 6.56322 126.03C5.25522 133.912 4.59199 141.986 4.59199 150.034C4.59199 151.303 3.56296 152.33 2.29585 152.33" fill="#577B56"/>
<path d="M150 300C67.2902 300 0 232.894 0 149.969H4.59199C4.59199 229.463 69.8226 295.409 150 295.409C189.99 295.409 227.265 279.525 254.955 250.657L258.27 253.825C229.704 283.607 191.254 300 150 300Z" fill="#577B56"/>
<path d="M245.656 247.119L267.336 239.762L262.871 262.216L245.656 247.119Z" fill="#577B56"/>
<path d="M295.705 176.711C295.581 176.711 295.455 176.7 295.326 176.679C294.077 176.473 293.23 175.289 293.438 174.039C294.745 166.165 295.408 158.087 295.408 150.034C295.408 148.766 296.437 147.738 297.705 147.738C298.971 147.738 300 148.766 300 150.034C300 158.34 299.317 166.669 297.967 174.79C297.78 175.914 296.807 176.711 295.705 176.711V176.711ZM291.572 194.596C291.353 194.596 291.133 194.565 290.914 194.499C289.699 194.137 289.008 192.858 289.369 191.644C290.514 187.804 291.509 183.875 292.328 179.963C292.586 178.721 293.813 177.929 295.044 178.185C296.286 178.446 297.081 179.662 296.821 180.903C295.978 184.939 294.95 188.994 293.77 192.957C293.473 193.952 292.559 194.596 291.572 194.596V194.596ZM287.585 206.176C287.307 206.176 287.024 206.125 286.749 206.017C285.569 205.555 284.985 204.224 285.446 203.043C286.184 201.156 286.884 199.252 287.525 197.384C287.939 196.185 289.246 195.548 290.444 195.961C291.643 196.373 292.28 197.68 291.868 198.878C291.205 200.805 290.483 202.768 289.723 204.714C289.369 205.62 288.503 206.176 287.585 206.176V206.176ZM283.64 215.313C283.312 215.313 282.979 215.243 282.663 215.093C281.516 214.552 281.025 213.183 281.566 212.038C282.1 210.9 282.624 209.757 283.132 208.605C283.643 207.444 284.996 206.918 286.159 207.43C287.318 207.942 287.844 209.297 287.332 210.457C286.809 211.644 286.271 212.824 285.718 213.996C285.326 214.826 284.501 215.313 283.64 215.313" fill="#577B56"/>
<path d="M300 149.969H295.408C295.408 68.7596 230.178 4.59509 150 4.59509C110.062 4.59509 72.8219 20.4749 45.1406 49.2808L41.8281 46.1074C70.3838 16.3922 108.8 -0.000109945 150 -0.000109945C232.71 -0.000109945 300 67.6158 300 149.969Z" fill="#577B56"/>
<path d="M54.4345 52.8585L32.749 60.1948L37.2362 37.7456L54.4345 52.8585Z" fill="#577B56"/>
<path d="M102.8 182.018L104.753 179.904C106.106 178.546 107.454 177.184 108.905 175.934C110.309 174.631 111.834 173.47 113.33 172.286C114.872 171.159 116.409 170.028 118.029 169.024C119.604 167.951 121.292 167.064 122.928 166.104C124.628 165.258 126.285 164.325 128.03 163.591L130.627 162.448C131.499 162.084 132.39 161.77 133.271 161.43C135.023 160.724 136.83 160.186 138.62 159.612C140.407 159.021 142.246 158.625 144.054 158.124C145.878 157.695 147.717 157.344 149.547 156.953L149.611 156.938L149.712 156.925C151.533 156.679 153.675 156.115 155.627 155.468C157.615 154.81 159.578 154.027 161.483 153.111C163.4 152.216 165.259 151.19 167.067 150.077C168.867 148.951 170.639 147.764 172.313 146.442C173.169 145.805 173.996 145.13 174.801 144.426C175.627 143.748 176.418 143.029 177.19 142.287C177.983 141.567 178.749 140.817 179.481 140.033C180.229 139.264 180.98 138.498 181.671 137.673C183.115 136.083 184.433 134.38 185.754 132.677C187.007 130.925 188.27 129.172 189.396 127.326C190.598 125.527 191.592 123.601 192.67 121.72C193.632 119.78 194.678 117.876 195.521 115.872C195.958 114.879 196.422 113.893 196.84 112.89L198.03 109.853C198.871 107.843 199.478 105.748 200.209 103.693C200.882 101.621 201.446 99.512 202.072 97.42L203.625 91.0542L204.911 84.6213L205.956 78.1369C205.956 78.1369 186.355 95.2063 154.282 98.7786C90.8661 105.843 90.0378 153.201 90.0378 153.201C89.6205 168.259 92.6941 179.81 97.5574 188.676C98.6199 187.141 99.7603 185.659 100.937 184.211C101.559 183.481 102.162 182.734 102.8 182.018" fill="#577B56"/>
<path d="M205.956 78.1371L205.19 84.6649L204.178 91.1638L202.893 97.6224C202.356 99.7495 201.879 101.898 201.29 104.016C200.644 106.118 200.12 108.261 199.358 110.329L198.284 113.457C197.903 114.491 197.479 115.508 197.077 116.537C196.307 118.608 195.329 120.591 194.429 122.613C193.416 124.577 192.481 126.591 191.329 128.488C190.256 130.43 189.037 132.287 187.821 134.15C186.535 135.964 185.248 137.784 183.819 139.499C183.138 140.385 182.393 141.216 181.649 142.05C180.92 142.899 180.156 143.713 179.361 144.503C178.588 145.312 177.792 146.099 176.956 146.848C176.144 147.622 175.308 148.369 174.435 149.079C172.732 150.543 170.917 151.879 169.059 153.154C167.19 154.419 165.259 155.595 163.249 156.641C161.251 157.708 159.176 158.644 157.041 159.453C154.868 160.262 152.791 160.946 150.288 161.4L150.452 161.372C148.721 161.824 146.979 162.233 145.261 162.715C143.564 163.268 141.833 163.716 140.17 164.348C138.501 164.964 136.819 165.54 135.205 166.277C134.392 166.632 133.569 166.961 132.766 167.336L130.387 168.509C128.786 169.261 127.287 170.201 125.746 171.047C124.268 172.008 122.742 172.888 121.336 173.942C119.883 174.929 118.52 176.032 117.15 177.121C115.827 178.268 114.478 179.383 113.251 180.628C111.976 181.823 110.805 183.118 109.628 184.4L107.938 186.396C107.389 187.071 106.871 187.773 106.336 188.458C105.298 189.855 104.294 191.276 103.372 192.75C102.839 193.579 102.333 194.424 101.843 195.278C117.778 216.145 144.149 217.754 144.149 217.754C204.408 216.945 208.171 163.389 208.171 163.389C213.321 121.437 205.956 78.1371 205.956 78.1371" fill="#577B56"/>
<path d="M104.365 191.568C103.26 193.14 102.219 194.76 101.251 196.423C100.264 198.074 99.3627 199.776 98.5121 201.505C97.6601 203.233 96.8823 204.999 96.1664 206.794C95.4494 208.588 94.8129 210.42 94.2399 212.283C93.6725 214.181 93.182 215.983 92.8029 218.14C92.7936 218.196 92.7813 218.269 92.7746 218.327C92.4826 220.596 94.0852 222.673 96.3536 222.966C98.6241 223.257 100.7 221.655 100.993 219.385L101.002 219.311C101.189 217.853 101.567 216.09 101.984 214.465C102.419 212.811 102.911 211.158 103.484 209.528C104.054 207.897 104.684 206.282 105.381 204.697C106.08 203.11 106.826 201.539 107.652 200.013C108.002 199.348 108.37 198.691 108.745 198.039C107.207 196.025 105.77 193.826 104.46 191.438C104.43 191.481 104.396 191.523 104.365 191.568Z" fill="#577B56"/>
</svg>
