<svg width="300" height="300" viewBox="0 0 300 300" fill="none" xmlns="http://www.w3.org/2000/svg">
<path d="M14.7649 92.8354C14.4555 92.8354 14.1416 92.7725 13.8412 92.6392C12.6813 92.128 12.1534 90.7737 12.6643 89.6139C13.2831 88.2088 13.9216 86.819 14.5822 85.4379C15.1297 84.293 16.4985 83.8086 17.6452 84.357C18.789 84.9043 19.2731 86.2746 18.7258 87.4184C18.0864 88.7561 17.4658 90.1046 16.8676 91.4646C16.4884 92.3224 15.6467 92.8354 14.7649 92.8354ZM10.3032 104.236C10.0545 104.236 9.80386 104.194 9.55594 104.11C8.35671 103.697 7.72001 102.391 8.13104 101.192C8.80531 99.2309 9.52734 97.267 10.2775 95.3535C10.7393 94.1713 12.0756 93.5897 13.2519 94.0535C14.4332 94.5156 15.0156 95.847 14.5527 97.028C13.8262 98.8826 13.1263 100.786 12.4751 102.684C12.1478 103.637 11.2564 104.236 10.3032 104.236V104.236ZM5.43017 121.933C5.27335 121.933 5.11631 121.915 4.95766 121.882C3.71554 121.624 2.92026 120.407 3.18053 119.165C4.02317 115.129 5.05037 111.075 6.23106 107.113C6.59451 105.896 7.8726 105.21 9.08789 105.569C10.3032 105.931 10.9932 107.21 10.6313 108.425C9.48708 112.265 8.493 116.193 7.67351 120.106C7.4479 121.188 6.49311 121.933 5.43017 121.933V121.933ZM2.29585 152.33C1.02805 152.33 0 151.303 0 150.034C0 141.735 0.684455 133.406 2.0338 125.278C2.24181 124.027 3.41958 123.185 4.67508 123.389C5.92498 123.597 6.77099 124.779 6.56322 126.03C5.25522 133.912 4.59199 141.986 4.59199 150.034C4.59199 151.303 3.56296 152.33 2.29585 152.33" fill="#577B56"/>
<path d="M150 300C67.2902 300 0 232.894 0 149.969H4.59199C4.59199 229.463 69.8226 295.409 150 295.409C189.99 295.409 227.265 279.525 254.955 250.657L258.27 253.825C229.704 283.607 191.254 300 150 300Z" fill="#577B56"/>
<path d="M245.656 247.119L267.336 239.762L262.871 262.216L245.656 247.119Z" fill="#577B56"/>
<path d="M295.705 176.711C295.581 176.711 295.455 176.7 295.326 176.679C294.077 176.473 293.23 175.289 293.438 174.039C294.745 166.165 295.408 158.087 295.408 150.034C295.408 148.766 296.437 147.738 297.705 147.738C298.971 147.738 300 148.766 300 150.034C300 158.34 299.317 166.669 297.967 174.79C297.78 175.914 296.807 176.711 295.705 176.711V176.711ZM291.572 194.596C291.353 194.596 291.133 194.565 290.914 194.499C289.699 194.137 289.008 192.858 289.369 191.644C290.514 187.804 291.509 183.875 292.328 179.963C292.586 178.721 293.813 177.929 295.044 178.185C296.286 178.446 297.081 179.662 296.821 180.903C295.978 184.939 294.95 188.994 293.77 192.957C293.473 193.952 292.559 194.596 291.572 194.596V194.596ZM287.585 206.176C287.307 206.176 287.024 206.125 286.749 206.017C285.569 205.555 284.985 204.224 285.446 203.043C286.184 201.156 286.884 199.252 287.525 197.384C287.939 196.185 289.246 195.548 290.444 195.961C291.643 196.373 292.28 197.68 291.868 198.878C291.205 200.805 290.483 202.768 289.723 204.714C289.369 205.62 288.503 206.176 287.585 206.176V206.176ZM283.64 215.313C283.312 215.313 282.979 215.243 282.663 215.093C281.516 214.552 281.025 213.183 281.566 212.038C282.1 210.9 282.624 209.757 283.132 208.605C283.643 207.444 284.996 206.918 286.159 207.43C287.318 207.942 287.844 209.297 287.332 210.457C286.809 211.644 286.271 212.824 285.718 213.996C285.326 214.826 284.501 215.313 283.64 215.313" fill="#577B56"/>
<path d="M300 149.969H295.408C295.408 68.7596 230.178 4.59509 150 4.59509C110.062 4.59509 72.8219 20.4749 45.1406 49.2808L41.8281 46.1074C70.3838 16.3922 108.8 -0.000109945 150 -0.000109945C232.71 -0.000109945 300 67.6158 300 149.969Z" fill="#577B56"/>
<path d="M54.4345 52.8585L32.749 60.1948L37.2362 37.7456L54.4345 52.8585Z" fill="#577B56"/>
<path d="M177.608 154.891C177.283 154.666 177.017 154.366 176.831 154.017C176.646 153.668 176.546 153.28 176.541 152.885V103.495C176.541 98.5901 174.593 93.8857 171.124 90.4172C167.656 86.9486 162.951 85 158.046 85C153.141 85 148.436 86.9486 144.968 90.4172C141.499 93.8857 139.551 98.5901 139.551 103.495V152.885C139.556 153.256 139.474 153.623 139.31 153.956C139.146 154.289 138.905 154.578 138.608 154.8C132.935 158.898 128.695 164.677 126.49 171.319C124.285 177.96 124.226 185.128 126.322 191.805C128.417 198.482 132.561 204.33 138.166 208.521C143.771 212.711 150.552 215.032 157.549 215.153H158.046C162.42 215.152 166.751 214.29 170.791 212.616C174.832 210.942 178.504 208.488 181.596 205.395C184.688 202.302 187.141 198.63 188.815 194.589C190.488 190.548 191.349 186.217 191.349 181.843C191.338 176.587 190.089 171.407 187.701 166.724C185.314 162.041 181.856 157.987 177.608 154.891V154.891ZM176.839 200.922C174.21 203.517 171.073 205.54 167.625 206.863C164.176 208.187 160.492 208.784 156.802 208.615C153.112 208.446 149.497 207.516 146.184 205.883C142.871 204.25 139.932 201.949 137.551 199.125C135.17 196.302 133.399 193.016 132.349 189.475C131.299 185.933 130.992 182.213 131.449 178.548C131.906 174.883 133.116 171.352 135.004 168.177C136.891 165.002 139.414 162.251 142.416 160.098C143.552 159.27 144.475 158.185 145.11 156.931C145.746 155.677 146.075 154.291 146.071 152.885V103.495C146.071 101.924 146.381 100.368 146.982 98.9156C147.584 97.4636 148.465 96.1443 149.576 95.033C150.688 93.9217 152.007 93.0402 153.459 92.4387C154.911 91.8373 156.467 91.5278 158.039 91.5278C159.61 91.5278 161.167 91.8373 162.619 92.4387C164.071 93.0402 165.39 93.9217 166.501 95.033C167.612 96.1443 168.494 97.4636 169.095 98.9156C169.697 100.368 170.006 101.924 170.006 103.495V152.885C170.016 154.309 170.362 155.711 171.014 156.977C171.667 158.243 172.609 159.337 173.763 160.171C177.179 162.661 179.96 165.922 181.88 169.688C183.8 173.454 184.805 177.619 184.814 181.847C184.826 185.398 184.127 188.915 182.757 192.192C181.387 195.468 179.375 198.437 176.839 200.922V200.922Z" fill="#577B56"/>
<path d="M162.395 165.038V127.071H153.691V165.038C149.577 166.097 145.99 168.621 143.604 172.136C141.218 175.651 140.196 179.916 140.73 184.13C141.264 188.345 143.317 192.22 146.505 195.029C149.692 197.838 153.794 199.388 158.043 199.388C162.291 199.388 166.394 197.838 169.581 195.029C172.768 192.22 174.821 188.345 175.355 184.13C175.889 179.916 174.867 175.651 172.481 172.136C170.095 168.621 166.509 166.097 162.395 165.038V165.038Z" fill="#577B56"/>
<path d="M204.411 91.8108H187.123V97.6133H204.411V91.8108Z" fill="#577B56"/>
<path d="M215 106.886H187.123V112.689H215V106.886Z" fill="#577B56"/>
<path d="M204.411 121.961H187.123V127.764H204.411V121.961Z" fill="#577B56"/>
<path d="M215 137.033H187.123V142.836H215V137.033Z" fill="#577B56"/>
<path d="M129.81 124.863C129.81 122.099 125.378 120.239 124.37 117.835C123.336 115.343 125.095 110.904 123.238 109.029C121.381 107.154 116.921 108.928 114.429 107.898C112.029 106.901 110.165 102.458 107.405 102.458C104.645 102.458 102.781 106.89 100.377 107.898C97.8887 108.928 93.4462 107.151 91.5713 109.029C89.6964 110.908 91.4697 115.343 90.4398 117.835C89.4425 120.239 85 122.099 85 124.863C85 127.626 89.4316 129.487 90.4398 131.887C91.4843 134.379 89.7072 138.814 91.5858 140.693C93.4643 142.571 97.9032 140.794 100.391 141.824C102.795 142.821 104.656 147.264 107.419 147.264C110.183 147.264 112.043 142.832 114.444 141.824C116.935 140.794 121.374 142.571 123.253 140.693C125.131 138.814 123.351 134.379 124.384 131.887C125.378 129.487 129.81 127.623 129.81 124.863ZM107.419 134.158C105.58 134.158 103.782 133.612 102.253 132.59C100.724 131.568 99.5319 130.116 98.8283 128.417C98.1246 126.717 97.9407 124.848 98.2997 123.044C98.6588 121.24 99.5448 119.583 100.846 118.283C102.146 116.983 103.803 116.097 105.607 115.739C107.411 115.381 109.281 115.565 110.98 116.27C112.679 116.974 114.131 118.166 115.152 119.696C116.174 121.225 116.718 123.024 116.718 124.863C116.718 126.084 116.477 127.293 116.01 128.421C115.542 129.549 114.858 130.573 113.994 131.436C113.131 132.3 112.105 132.984 110.977 133.451C109.849 133.918 108.64 134.158 107.419 134.158V134.158Z" fill="#577B56"/>
</svg>
