<svg width="300" height="300" viewBox="0 0 300 300" fill="none" xmlns="http://www.w3.org/2000/svg">
<path d="M14.7649 92.8354C14.4555 92.8354 14.1416 92.7725 13.8412 92.6392C12.6813 92.128 12.1534 90.7737 12.6643 89.6139C13.2831 88.2088 13.9216 86.819 14.5822 85.4379C15.1297 84.293 16.4985 83.8086 17.6452 84.357C18.789 84.9043 19.2731 86.2746 18.7258 87.4184C18.0864 88.7561 17.4658 90.1046 16.8676 91.4646C16.4884 92.3224 15.6467 92.8354 14.7649 92.8354ZM10.3032 104.236C10.0545 104.236 9.80386 104.194 9.55594 104.11C8.35671 103.697 7.72001 102.391 8.13104 101.192C8.80531 99.2309 9.52734 97.267 10.2775 95.3535C10.7393 94.1713 12.0756 93.5897 13.2519 94.0535C14.4332 94.5156 15.0156 95.847 14.5527 97.028C13.8262 98.8826 13.1263 100.786 12.4751 102.684C12.1478 103.637 11.2564 104.236 10.3032 104.236V104.236ZM5.43017 121.933C5.27335 121.933 5.11631 121.915 4.95766 121.882C3.71554 121.624 2.92026 120.407 3.18053 119.165C4.02317 115.129 5.05037 111.075 6.23106 107.113C6.59451 105.896 7.8726 105.21 9.08789 105.569C10.3032 105.931 10.9932 107.21 10.6313 108.425C9.48708 112.265 8.493 116.193 7.67351 120.106C7.4479 121.188 6.49311 121.933 5.43017 121.933V121.933ZM2.29585 152.33C1.02805 152.33 0 151.303 0 150.034C0 141.735 0.684455 133.406 2.0338 125.278C2.24181 124.027 3.41958 123.185 4.67508 123.389C5.92498 123.597 6.77099 124.779 6.56322 126.03C5.25522 133.912 4.59199 141.986 4.59199 150.034C4.59199 151.303 3.56296 152.33 2.29585 152.33" fill="#577B56"/>
<path d="M150 300C67.2902 300 0 232.894 0 149.969H4.59199C4.59199 229.463 69.8226 295.409 150 295.409C189.99 295.409 227.265 279.525 254.955 250.657L258.27 253.825C229.704 283.607 191.254 300 150 300Z" fill="#577B56"/>
<path d="M245.656 247.119L267.336 239.762L262.871 262.216L245.656 247.119Z" fill="#577B56"/>
<path d="M295.705 176.711C295.581 176.711 295.455 176.7 295.326 176.679C294.077 176.473 293.23 175.289 293.438 174.039C294.745 166.165 295.408 158.087 295.408 150.034C295.408 148.766 296.437 147.738 297.705 147.738C298.971 147.738 300 148.766 300 150.034C300 158.34 299.317 166.669 297.967 174.79C297.78 175.914 296.807 176.711 295.705 176.711V176.711ZM291.572 194.596C291.353 194.596 291.133 194.565 290.914 194.499C289.699 194.137 289.008 192.858 289.369 191.644C290.514 187.804 291.509 183.875 292.328 179.963C292.586 178.721 293.813 177.929 295.044 178.185C296.286 178.446 297.081 179.662 296.821 180.903C295.978 184.939 294.95 188.994 293.77 192.957C293.473 193.952 292.559 194.596 291.572 194.596V194.596ZM287.585 206.176C287.307 206.176 287.024 206.125 286.749 206.017C285.569 205.555 284.985 204.224 285.446 203.043C286.184 201.156 286.884 199.252 287.525 197.384C287.939 196.185 289.246 195.548 290.444 195.961C291.643 196.373 292.28 197.68 291.868 198.878C291.205 200.805 290.483 202.768 289.723 204.714C289.369 205.62 288.503 206.176 287.585 206.176V206.176ZM283.64 215.313C283.312 215.313 282.979 215.243 282.663 215.093C281.516 214.552 281.025 213.183 281.566 212.038C282.1 210.9 282.624 209.757 283.132 208.605C283.643 207.444 284.996 206.918 286.159 207.43C287.318 207.942 287.844 209.297 287.332 210.457C286.809 211.644 286.271 212.824 285.718 213.996C285.326 214.826 284.501 215.313 283.64 215.313" fill="#577B56"/>
<path d="M300 149.969H295.408C295.408 68.7596 230.178 4.59509 150 4.59509C110.062 4.59509 72.8219 20.4749 45.1406 49.2808L41.8281 46.1074C70.3838 16.3922 108.8 -0.000109945 150 -0.000109945C232.71 -0.000109945 300 67.6158 300 149.969Z" fill="#577B56"/>
<path d="M54.4345 52.8585L32.749 60.1948L37.2362 37.7456L54.4345 52.8585Z" fill="#577B56"/>
<path fill-rule="evenodd" clip-rule="evenodd" d="M157 145.959V115C157 111.136 153.864 108 150 108C146.136 108 143 111.136 143 115V149.922C142.988 151.157 143.303 152.378 143.91 153.452C144.592 154.611 145.492 155.494 146.568 156.101L176.811 173.562C180.157 175.494 184.441 174.346 186.373 171C188.305 167.654 187.157 163.37 183.811 161.438L157 145.959ZM150 80C188.661 80 220 111.339 220 150C220 188.661 188.661 220 150 220C111.339 220 80 188.661 80 150C80 111.339 111.339 80 150 80Z" fill="#577B56"/>
</svg>
