<svg xmlns="http://www.w3.org/2000/svg" xmlns:xlink="http://www.w3.org/1999/xlink" viewBox="0 0 221.21 190.99"><defs><style>.cls-1{fill:url(#Безымянный_градиент_105);}.cls-2{fill:url(#Безымянный_градиент_105-2);}.cls-3{fill:url(#Безымянный_градиент_105-3);}.cls-4{fill:url(#Безымянный_градиент_90);}.cls-5{fill:none;}.cls-6{fill:#cecece;}.cls-7{fill:url(#Безымянный_градиент_12);}.cls-8{fill:url(#Безымянный_градиент_7);}.cls-9{fill:url(#Безымянный_градиент_7-2);}.cls-10{fill:#494949;}.cls-11{fill:#b5b5b5;}.cls-12{fill:#b2b2b2;}.cls-13{fill:url(#Безымянный_градиент_103);}.cls-14{fill:url(#Безымянный_градиент_90-2);}.cls-15{fill:url(#Безымянный_градиент_103-2);}.cls-16{fill:url(#Безымянный_градиент_94);}.cls-17{fill:url(#Безымянный_градиент_7-3);}.cls-18{fill:url(#Безымянный_градиент_7-4);}</style><linearGradient id="Безымянный_градиент_105" x1="94.71" y1="165.97" x2="237.46" y2="23.22" gradientUnits="userSpaceOnUse"><stop offset="0" stop-color="#a67c52"/><stop offset="0.04" stop-color="#b2885c"/><stop offset="0.11" stop-color="#bd9366"/><stop offset="0.21" stop-color="#c49a6b"/><stop offset="0.49" stop-color="#c69c6d"/><stop offset="0.67" stop-color="#c49a6b"/><stop offset="0.74" stop-color="#bd9366"/><stop offset="0.79" stop-color="#b2885c"/><stop offset="0.82" stop-color="#a67c52"/><stop offset="1" stop-color="#c69c6d"/></linearGradient><linearGradient id="Безымянный_градиент_105-2" x1="10.94" y1="194.64" x2="210.27" y2="-4.7" xlink:href="#Безымянный_градиент_105"/><linearGradient id="Безымянный_градиент_105-3" x1="7.55" y1="198.54" x2="213.65" y2="-7.55" xlink:href="#Безымянный_градиент_105"/><linearGradient id="Безымянный_градиент_90" x1="115.85" y1="97.23" x2="119.1" y2="97.23" gradientTransform="matrix(-1, 0, 0, 1, 331.89, 0)" gradientUnits="userSpaceOnUse"><stop offset="0" stop-color="#4d4d4d"/><stop offset="1" stop-color="#1a1a1a"/></linearGradient><linearGradient id="Безымянный_градиент_12" x1="112.86" y1="94.97" x2="217.57" y2="94.97" gradientTransform="matrix(-1, 0, 0, 1, 331.89, 0)" gradientUnits="userSpaceOnUse"><stop offset="0" stop-color="#a67c52"/><stop offset="0.48" stop-color="#754c24"/><stop offset="0.98" stop-color="#a47a50"/><stop offset="1" stop-color="#a67c52"/></linearGradient><linearGradient id="Безымянный_градиент_7" x1="111.01" y1="14.51" x2="114.32" y2="14.51" gradientUnits="userSpaceOnUse"><stop offset="0" stop-color="#4d4d4d"/><stop offset="1" stop-color="#736357"/></linearGradient><linearGradient id="Безымянный_градиент_7-2" x1="111.01" y1="171.92" x2="114.32" y2="171.92" xlink:href="#Безымянный_градиент_7"/><linearGradient id="Безымянный_градиент_103" x1="115.05" y1="88.88" x2="119.9" y2="88.88" gradientTransform="matrix(-1, 0, 0, 1, 331.89, 0)" gradientUnits="userSpaceOnUse"><stop offset="0" stop-color="#4d4d4d"/><stop offset="1" stop-color="#333"/></linearGradient><linearGradient id="Безымянный_градиент_90-2" x1="101.31" y1="97.23" x2="104.56" y2="97.23" gradientTransform="matrix(-1, 0, 0, 1, 109.87, 0)" xlink:href="#Безымянный_градиент_90"/><linearGradient id="Безымянный_градиент_103-2" x1="100.51" y1="88.88" x2="105.36" y2="88.88" gradientTransform="matrix(-1, 0, 0, 1, 109.87, 0)" xlink:href="#Безымянный_градиент_103"/><linearGradient id="Безымянный_градиент_94" x1="2.99" y1="94.97" x2="107.69" y2="94.97" gradientTransform="matrix(-1, 0, 0, 1, 109.87, 0)" gradientUnits="userSpaceOnUse"><stop offset="0" stop-color="#a67c52"/><stop offset="0.01" stop-color="#a47a50"/><stop offset="0.09" stop-color="#8f663d"/><stop offset="0.19" stop-color="#80572f"/><stop offset="0.3" stop-color="#784f27"/><stop offset="0.48" stop-color="#754c24"/><stop offset="0.98" stop-color="#a47a50"/><stop offset="1" stop-color="#a67c52"/></linearGradient><linearGradient id="Безымянный_градиент_7-3" x1="106.89" y1="14.51" x2="110.2" y2="14.51" xlink:href="#Безымянный_градиент_7"/><linearGradient id="Безымянный_градиент_7-4" x1="106.89" y1="171.92" x2="110.2" y2="171.92" xlink:href="#Безымянный_градиент_7"/></defs><g id="Слой_2" data-name="Слой 2"><g id="Слой_2-2" data-name="Слой 2"><path class="cls-1" d="M216.65,4.06V185.88h1.65V4.06ZM111,166v15.89a1,1,0,0,0,.93,1V165A1,1,0,0,0,111,166ZM111,6.56v15.9a1,1,0,0,0,.93.94V5.61A1,1,0,0,0,111,6.56Z"/><path class="cls-2" d="M2.18,4.06V185.88H4.24V4.06Zm107,1.54h-.26V23.41h.26a1,1,0,0,0,1-.95V6.56A1,1,0,0,0,109.2,5.6Zm0,159.43h-.26v17.81h.26a1,1,0,0,0,1-1V166A1,1,0,0,0,109.2,165ZM113.32,5.6h-.73a1,1,0,0,1,1,1V5.64A.84.84,0,0,0,113.32,5.6Zm-.73,17.81h.73a.84.84,0,0,0,.27,0v-.91A1,1,0,0,1,112.59,23.41ZM113.32,165h-.73a1,1,0,0,1,1,1v-.92A.84.84,0,0,0,113.32,165Zm-.73,17.81h.73a.84.84,0,0,0,.27,0v-.92A1,1,0,0,1,112.59,182.84ZM218.3,4.06V185.88H219V4.06Z"/><path class="cls-3" d="M0,0V191H221.21V0ZM106.88,185.88H2.18V4.06h104.7Zm3.32-4a1,1,0,0,1-1,1h-1.31a1,1,0,0,1-1-1V166a1,1,0,0,1,1-1h1.31a1,1,0,0,1,1,1Zm0-159.42a1,1,0,0,1-1,.95h-1.31a1,1,0,0,1-1-.95V6.56a1,1,0,0,1,1-1h1.31a1,1,0,0,1,1,1ZM219,185.88H114.32v-4a1,1,0,0,1-.73.92.84.84,0,0,1-.27,0h-1.38a1,1,0,0,1-.93-1V166a1,1,0,0,1,.93-1h1.38a.84.84,0,0,1,.27,0,1,1,0,0,1,.73.92V22.46a.93.93,0,0,1-.73.91.84.84,0,0,1-.27,0h-1.38a1,1,0,0,1-.93-.94V6.56a1,1,0,0,1,.93-.95h1.38a.84.84,0,0,1,.27,0,1,1,0,0,1,.73.92V4.06H219Z"/></g><g id="Слой_3" data-name="Слой 3"><path class="cls-4" d="M212.8,89.6v15.23a1.69,1.69,0,0,0,1.63,1.76,1.54,1.54,0,0,0,1.14-.51,1.83,1.83,0,0,0,.48-1.25V89.6a1.55,1.55,0,0,0,0-.31,1.67,1.67,0,0,0-1.59-1.42,1.59,1.59,0,0,0-1.15.52,1.79,1.79,0,0,0-.45.9A1.55,1.55,0,0,0,212.8,89.6Z"/><polygon class="cls-5" points="123.46 176.13 208.26 176.13 208.26 14.73 123.57 15.05 123.46 176.13"/><polygon class="cls-6" points="208.26 14.73 208.26 176.13 209.68 176.94 209.68 13.15 208.26 14.73"/><path class="cls-7" d="M114.32,4.06V185.88H219V4.06Zm95.36,172.88H122.56V13.15h87.12Zm7.17-85.2a2.39,2.39,0,0,1-.2,1,2.24,2.24,0,0,1-.22.4,2.45,2.45,0,0,1-.29.35.76.76,0,0,1-.09.09v11.29a1.83,1.83,0,0,1-.48,1.25,1.54,1.54,0,0,1-1.14.51,1.69,1.69,0,0,1-1.63-1.76V93.54a2.42,2.42,0,0,1-.8-1.8V86.65a2.42,2.42,0,0,1,.71-1.71,2.39,2.39,0,0,1,1.72-.72,2.31,2.31,0,0,1,.37,0,2,2,0,0,1,.35.08l.32.13.16.08a2.3,2.3,0,0,1,.57.46,1.14,1.14,0,0,1,.15.17c.06.07.1.15.15.22a1.59,1.59,0,0,1,.15.29,1.06,1.06,0,0,1,.09.25c0,.12.06.23.08.35a2.31,2.31,0,0,1,0,.37Z"/><polygon class="cls-5" points="123.46 176.13 208.26 176.13 208.26 14.73 123.57 15.05 123.46 176.13"/><path class="cls-5" d="M123.46,176.12h84.8V14.73l-84.69.32Zm0,0h84.8V14.73l-84.69.32Zm0,0h84.8V14.73l-84.69.32Zm0,0h84.8V14.73l-84.69.32Zm0,0h84.8V14.73l-84.69.32Zm0,0h84.8V14.73l-84.69.32Zm0,0h84.8V14.73l-84.69.32Zm0,0h84.8V14.73l-84.69.32Zm0,0h84.8V14.73l-84.69.32Zm0,0h84.8V14.73l-84.69.32Zm0,0h84.8V14.73l-84.69.32Z"/><path class="cls-8" d="M114.32,6.56v15.9a.93.93,0,0,1-.73.91.84.84,0,0,1-.27,0h-1.38a1,1,0,0,1-.93-.94V6.56a1,1,0,0,1,.93-.95h1.38a.84.84,0,0,1,.27,0A1,1,0,0,1,114.32,6.56Z"/><path class="cls-9" d="M114.32,166v12.82H111V166a1,1,0,0,1,.93-1h1.38a.84.84,0,0,1,.27,0A1,1,0,0,1,114.32,166Z"/><path class="cls-10" d="M114.32,178.81v3.07a1,1,0,0,1-.73.92.84.84,0,0,1-.27,0h-1.38a1,1,0,0,1-.93-1v-3.07Z"/><polygon class="cls-11" points="122.56 176.94 209.68 176.94 208.26 176.13 123.46 176.13 122.56 176.94"/><polygon class="cls-6" points="122.56 13.15 122.56 176.94 123.46 176.13 123.57 15.05 122.56 13.15"/><polygon class="cls-12" points="122.56 13.15 123.57 15.05 208.26 14.73 209.68 13.15 122.56 13.15"/><path class="cls-13" d="M212,86.65v5.09a2.42,2.42,0,0,0,.8,1.8V89.63a1.55,1.55,0,0,1,0-.31,1.81,1.81,0,0,1,.45-.93,1.59,1.59,0,0,1,1.15-.52A1.67,1.67,0,0,1,216,89.32a1.55,1.55,0,0,1,0,.31v3.91a.76.76,0,0,0,.09-.09,2.42,2.42,0,0,0,.71-1.71V86.65a2.42,2.42,0,0,0-2.42-2.43,2.39,2.39,0,0,0-1.72.72A2.42,2.42,0,0,0,212,86.65Z"/><path class="cls-14" d="M5.31,89.6v15.23a1.69,1.69,0,0,0,1.63,1.76,1.54,1.54,0,0,0,1.14-.51,1.83,1.83,0,0,0,.48-1.25V89.6a1.55,1.55,0,0,0,0-.31,1.67,1.67,0,0,0-1.59-1.42,1.59,1.59,0,0,0-1.15.52,1.79,1.79,0,0,0-.45.9A1.55,1.55,0,0,0,5.31,89.6Z"/><path class="cls-15" d="M4.51,86.65v5.09a2.42,2.42,0,0,0,.8,1.8V89.63a1.55,1.55,0,0,1,0-.31,1.81,1.81,0,0,1,.45-.93,1.59,1.59,0,0,1,1.15-.52,1.67,1.67,0,0,1,1.59,1.45,1.55,1.55,0,0,1,0,.31v3.91l.09-.09a2.42,2.42,0,0,0,.71-1.71V86.65a2.42,2.42,0,0,0-2.42-2.43,2.39,2.39,0,0,0-1.72.72A2.42,2.42,0,0,0,4.51,86.65Z"/><polygon class="cls-5" points="12.95 14.73 12.95 176.13 97.76 176.13 97.65 15.05 12.95 14.73"/><polygon class="cls-6" points="11.54 13.15 11.54 176.94 12.95 176.13 12.95 14.73 11.54 13.15"/><path class="cls-5" d="M4.51,86.65v5.09a2.42,2.42,0,0,0,.8,1.8v11.29a1.69,1.69,0,0,0,1.63,1.76,1.54,1.54,0,0,0,1.14-.51,1.83,1.83,0,0,0,.48-1.25V93.54l.09-.09a2.42,2.42,0,0,0,.71-1.71V86.65a2.42,2.42,0,0,0-2.42-2.43,2.39,2.39,0,0,0-1.72.72A2.42,2.42,0,0,0,4.51,86.65Z"/><path class="cls-16" d="M2.18,4.06V185.88h104.7V4.06ZM8.55,93.54v11.29a1.83,1.83,0,0,1-.48,1.25,1.54,1.54,0,0,1-1.14.51,1.44,1.44,0,0,1-.62-.14,1.46,1.46,0,0,1-.52-.37,1.28,1.28,0,0,1-.2-.26,1.4,1.4,0,0,1-.15-.3,1.15,1.15,0,0,1-.1-.33,1.47,1.47,0,0,1,0-.36V93.54l-.17-.17a2.24,2.24,0,0,1-.5-.86A1.72,1.72,0,0,1,4.52,92a.62.62,0,0,1,0-.13.53.53,0,0,1,0-.13V86.65a2.42,2.42,0,0,1,.71-1.71h0a2.4,2.4,0,0,1,3.42,0,2.43,2.43,0,0,1,.71,1.72v5.09a2.42,2.42,0,0,1-.71,1.71l-.08.08h0Zm3,83.4V13.15H98.65V176.94Z"/><polygon class="cls-5" points="12.95 14.73 12.95 176.13 97.76 176.13 97.65 15.05 12.95 14.73"/><polygon class="cls-5" points="12.95 14.73 12.95 176.13 97.76 176.13 97.65 15.05 12.95 14.73"/><path class="cls-17" d="M110.2,6.56v15.9a1,1,0,0,1-1,.95h-1.31a1,1,0,0,1-1-.95V6.56a1,1,0,0,1,1-1h1.31A1,1,0,0,1,110.2,6.56Z"/><path class="cls-18" d="M110.2,166v12.82h-3.31V166a1,1,0,0,1,1-1h1.31A1,1,0,0,1,110.2,166Z"/><path class="cls-10" d="M110.2,178.81v3.07a1,1,0,0,1-1,1h-1.31a1,1,0,0,1-1-1v-3.07Z"/><polygon class="cls-11" points="11.54 176.94 98.66 176.94 97.76 176.13 12.95 176.13 11.54 176.94"/><polygon class="cls-6" points="97.65 15.05 97.76 176.13 98.66 176.94 98.66 13.15 97.65 15.05"/><polygon class="cls-12" points="11.54 13.15 12.95 14.73 97.65 15.05 98.66 13.15 11.54 13.15"/></g></g></svg>