<svg xmlns="http://www.w3.org/2000/svg" xmlns:xlink="http://www.w3.org/1999/xlink" viewBox="0 0 221.21 190.99"><defs><style>.cls-1{fill:url(#Безымянный_градиент_105);}.cls-2{fill:none;}.cls-3{fill:#cecece;}.cls-4{fill:url(#Безымянный_градиент_12);}.cls-5{fill:#b5b5b5;}.cls-6{fill:#b2b2b2;}.cls-7{fill:url(#Безымянный_градиент_90);}.cls-8{fill:url(#Безымянный_градиент_103);}.cls-9{fill:url(#Безымянный_градиент_94);}.cls-10{fill:url(#Безымянный_градиент_7);}.cls-11{fill:url(#Безымянный_градиент_7-2);}.cls-12{fill:#494949;}</style><linearGradient id="Безымянный_градиент_105" x1="7.56" y1="198.54" x2="213.66" y2="-7.56" gradientUnits="userSpaceOnUse"><stop offset="0" stop-color="#a67c52"/><stop offset="0.04" stop-color="#b2885c"/><stop offset="0.11" stop-color="#bd9366"/><stop offset="0.21" stop-color="#c49a6b"/><stop offset="0.49" stop-color="#c69c6d"/><stop offset="0.67" stop-color="#c49a6b"/><stop offset="0.74" stop-color="#bd9366"/><stop offset="0.79" stop-color="#b2885c"/><stop offset="0.82" stop-color="#a67c52"/><stop offset="1" stop-color="#c69c6d"/></linearGradient><linearGradient id="Безымянный_градиент_12" x1="111.94" y1="94.97" x2="216.65" y2="94.97" gradientUnits="userSpaceOnUse"><stop offset="0" stop-color="#a67c52"/><stop offset="0.48" stop-color="#754c24"/><stop offset="0.98" stop-color="#a47a50"/><stop offset="1" stop-color="#a67c52"/></linearGradient><linearGradient id="Безымянный_градиент_90" x1="102.57" y1="97.23" x2="105.82" y2="97.23" gradientUnits="userSpaceOnUse"><stop offset="0" stop-color="#4d4d4d"/><stop offset="1" stop-color="#1a1a1a"/></linearGradient><linearGradient id="Безымянный_градиент_103" x1="101.77" y1="88.88" x2="106.62" y2="88.88" gradientUnits="userSpaceOnUse"><stop offset="0" stop-color="#4d4d4d"/><stop offset="1" stop-color="#333"/></linearGradient><linearGradient id="Безымянный_градиент_94" x1="4.24" y1="94.97" x2="108.94" y2="94.97" gradientUnits="userSpaceOnUse"><stop offset="0" stop-color="#a67c52"/><stop offset="0.01" stop-color="#a47a50"/><stop offset="0.09" stop-color="#8f663d"/><stop offset="0.19" stop-color="#80572f"/><stop offset="0.3" stop-color="#784f27"/><stop offset="0.48" stop-color="#754c24"/><stop offset="0.98" stop-color="#a47a50"/><stop offset="1" stop-color="#a67c52"/></linearGradient><linearGradient id="Безымянный_градиент_7" x1="0.93" y1="14.51" x2="4.24" y2="14.51" gradientUnits="userSpaceOnUse"><stop offset="0" stop-color="#4d4d4d"/><stop offset="1" stop-color="#736357"/></linearGradient><linearGradient id="Безымянный_градиент_7-2" x1="0.93" y1="171.92" x2="4.24" y2="171.92" xlink:href="#Безымянный_градиент_7"/></defs><g id="Слой_2" data-name="Слой 2"><g id="Слой_2-2" data-name="Слой 2"><path class="cls-1" d="M0,0V191H221.21V0ZM108.94,185.88H4.24V4.06h104.7Zm107.71,0H111.94V4.06H216.65Z"/></g><g id="Слой_3" data-name="Слой 3"><polygon class="cls-2" points="207.51 176.12 122.71 176.12 122.71 14.73 207.4 15.05 207.51 176.12"/><polygon class="cls-3" points="122.71 14.73 122.71 176.12 121.29 176.94 121.29 13.15 122.71 14.73"/><path class="cls-4" d="M111.94,4.06V185.88H216.65V4.06Zm96.47,172.88H121.29V13.15h87.12Z"/><polygon class="cls-2" points="207.51 176.12 122.71 176.12 122.71 14.73 207.4 15.05 207.51 176.12"/><path class="cls-2" d="M207.4,15.05l-84.69-.32V176.12h84.8Zm0,0-84.69-.32V176.12h84.8Zm0,0-84.69-.32V176.12h84.8Zm0,0-84.69-.32V176.12h84.8Zm0,0-84.69-.32V176.12h84.8Zm0,0-84.69-.32V176.12h84.8Zm0,0-84.69-.32V176.12h84.8Zm0,0-84.69-.32V176.12h84.8Zm0,0-84.69-.32V176.12h84.8Zm0,0-84.69-.32V176.12h84.8Zm0,0-84.69-.32V176.12h84.8Z"/><polygon class="cls-5" points="208.41 176.94 121.29 176.94 122.71 176.12 207.51 176.12 208.41 176.94"/><polygon class="cls-3" points="208.41 13.15 208.41 176.94 207.51 176.12 207.4 15.05 208.41 13.15"/><polygon class="cls-6" points="208.41 13.15 207.4 15.05 122.71 14.73 121.29 13.15 208.41 13.15"/><path class="cls-7" d="M105.82,89.59v15.24a1.69,1.69,0,0,1-1.63,1.76,1.54,1.54,0,0,1-1.14-.51,1.83,1.83,0,0,1-.48-1.25V89.59a1.55,1.55,0,0,1,0-.31,1.66,1.66,0,0,1,1.59-1.41,1.58,1.58,0,0,1,1.15.51,1.79,1.79,0,0,1,.45.9A1.55,1.55,0,0,1,105.82,89.59Z"/><path class="cls-8" d="M106.62,86.65v5.09a2.42,2.42,0,0,1-.8,1.8V89.63a1.55,1.55,0,0,0,0-.31,1.81,1.81,0,0,0-.45-.93,1.59,1.59,0,0,0-1.15-.52,1.67,1.67,0,0,0-1.59,1.45,1.55,1.55,0,0,0,0,.31v3.91l-.09-.09a2.42,2.42,0,0,1-.71-1.71V86.65a2.42,2.42,0,0,1,2.42-2.43,2.39,2.39,0,0,1,1.72.72A2.42,2.42,0,0,1,106.62,86.65Z"/><polygon class="cls-2" points="98.18 14.73 98.18 176.12 13.37 176.12 13.48 15.05 98.18 14.73"/><polygon class="cls-3" points="99.59 13.15 99.59 176.94 98.18 176.12 98.18 14.73 99.59 13.15"/><path class="cls-2" d="M105.91,84.94a2.39,2.39,0,0,0-1.72-.72,2.42,2.42,0,0,0-2.42,2.43v5.09a2.42,2.42,0,0,0,.71,1.71l.09.09v11.29a1.83,1.83,0,0,0,.48,1.25,1.54,1.54,0,0,0,1.14.51,1.69,1.69,0,0,0,1.63-1.76V93.54a2.42,2.42,0,0,0,.8-1.8V86.65A2.42,2.42,0,0,0,105.91,84.94Z"/><path class="cls-9" d="M4.24,4.06V185.88h104.7V4.06ZM99.59,176.94H12.47V13.15H99.59Zm7-85.2a2.42,2.42,0,0,1-.8,1.8v11.29a1.69,1.69,0,0,1-1.63,1.76,1.54,1.54,0,0,1-1.14-.51,1.83,1.83,0,0,1-.48-1.25V93.54l-.09-.09a2.42,2.42,0,0,1-.71-1.71V86.65a2.42,2.42,0,0,1,2.42-2.43,2.39,2.39,0,0,1,1.72.72,2.42,2.42,0,0,1,.71,1.71Z"/><polygon class="cls-2" points="98.18 14.73 98.18 176.12 13.37 176.12 13.48 15.05 98.18 14.73"/><polygon class="cls-2" points="98.18 14.73 98.18 176.12 13.37 176.12 13.48 15.05 98.18 14.73"/><path class="cls-10" d="M4.24,6.56v15.9a1,1,0,0,1-1,.95H1.93a1,1,0,0,1-1-.95V6.56a1,1,0,0,1,1-1H3.24A1,1,0,0,1,4.24,6.56Z"/><path class="cls-11" d="M4.24,166v12.82H.93V166a1,1,0,0,1,1-1H3.24A1,1,0,0,1,4.24,166Z"/><path class="cls-12" d="M4.24,178.81v3.07a1,1,0,0,1-1,1H1.93a1,1,0,0,1-1-1v-3.07Z"/><polygon class="cls-5" points="99.59 176.94 12.47 176.94 13.37 176.12 98.18 176.12 99.59 176.94"/><polygon class="cls-3" points="13.48 15.05 13.37 176.12 12.47 176.94 12.47 13.15 13.48 15.05"/><polygon class="cls-6" points="99.59 13.15 98.18 14.73 13.48 15.05 12.47 13.15 99.59 13.15"/></g></g></svg>