<svg width="22" height="20" viewBox="0 0 22 20" fill="none" xmlns="http://www.w3.org/2000/svg">
<path d="M8.97674 12.8744L3.61021 7.52284C2.88502 6.79966 1.71114 6.80048 0.986961 7.52467C0.262064 8.24956 0.262064 9.42485 0.986961 10.1497L9.42299 18.5858C10.204 19.3668 11.4704 19.3668 12.2514 18.5858L20.6875 10.1498C21.4124 9.42485 21.4124 8.24956 20.6875 7.52467C19.9633 6.80048 18.7894 6.79966 18.0642 7.52284L12.6977 12.8744L12.6977 1.86046C12.6977 0.832958 11.8647 -5.69265e-07 10.8372 -5.69265e-07C9.8097 -5.69265e-07 8.97674 0.832958 8.97674 1.86046L8.97674 12.8744Z" fill="white" fill-opacity="0.8"/>
</svg>
