<svg width="30" height="30" viewBox="0 0 30 30" fill="none" xmlns="http://www.w3.org/2000/svg">
<path d="M18.75 28.4375H11.25C4.4625 28.4375 1.5625 25.5375 1.5625 18.75V11.25C1.5625 4.4625 4.4625 1.5625 11.25 1.5625H18.75C25.5375 1.5625 28.4375 4.4625 28.4375 11.25V18.75C28.4375 25.5375 25.5375 28.4375 18.75 28.4375ZM11.25 3.4375C5.4875 3.4375 3.4375 5.4875 3.4375 11.25V18.75C3.4375 24.5125 5.4875 26.5625 11.25 26.5625H18.75C24.5125 26.5625 26.5625 24.5125 26.5625 18.75V11.25C26.5625 5.4875 24.5125 3.4375 18.75 3.4375H11.25Z" fill="#292D32"/>
<path d="M13.4246 20.35C13.1871 20.35 12.9496 20.2625 12.7621 20.075C12.3996 19.7125 12.3996 19.1125 12.7621 18.75L16.5121 15L12.7621 11.25C12.3996 10.8875 12.3996 10.2875 12.7621 9.925C13.1246 9.5625 13.7246 9.5625 14.0871 9.925L18.4996 14.3375C18.8621 14.7 18.8621 15.3 18.4996 15.6625L14.0871 20.075C13.8996 20.2625 13.6621 20.35 13.4246 20.35Z" fill="#292D32"/>
</svg>
