<svg width="38" height="39" viewBox="0 0 38 39" fill="none" xmlns="http://www.w3.org/2000/svg">
<path d="M30.9966 18.4766H24.7007C21.5683 18.4766 20.0566 16.9494 20.0566 13.8326V7.53662C20.0566 4.40423 21.5839 2.89258 24.7007 2.89258H30.9966C34.129 2.89258 35.6407 4.41981 35.6407 7.53662V13.8326C35.6407 16.9494 34.1134 18.4766 30.9966 18.4766ZM24.7007 5.23018C22.8618 5.23018 22.3942 5.6977 22.3942 7.53662V13.8326C22.3942 15.6715 22.8618 16.139 24.7007 16.139H30.9966C32.8356 16.139 33.3031 15.6715 33.3031 13.8326V7.53662C33.3031 5.6977 32.8356 5.23018 30.9966 5.23018H24.7007V5.23018Z" fill="white"/>
<path d="M13.0748 18.4766H6.77881C3.64642 18.4766 2.13477 17.0896 2.13477 14.2222V7.14702C2.13477 4.27956 3.662 2.89258 6.77881 2.89258H13.0748C16.2072 2.89258 17.7188 4.27956 17.7188 7.14702V14.2066C17.7188 17.0896 16.1916 18.4766 13.0748 18.4766ZM6.77881 5.23018C4.69055 5.23018 4.47237 5.82238 4.47237 7.14702V14.2066C4.47237 15.5468 4.69055 16.1234 6.77881 16.1234H13.0748C15.163 16.1234 15.3812 15.5312 15.3812 14.2066V7.14702C15.3812 5.80679 15.163 5.23018 13.0748 5.23018H6.77881Z" fill="white"/>
<path d="M13.0748 36.3985H6.77881C3.64642 36.3985 2.13477 34.8713 2.13477 31.7544V25.4585C2.13477 22.3261 3.662 20.8145 6.77881 20.8145H13.0748C16.2072 20.8145 17.7188 22.3417 17.7188 25.4585V31.7544C17.7188 34.8713 16.1916 36.3985 13.0748 36.3985ZM6.77881 23.1521C4.93989 23.1521 4.47237 23.6196 4.47237 25.4585V31.7544C4.47237 33.5934 4.93989 34.0609 6.77881 34.0609H13.0748C14.9137 34.0609 15.3812 33.5934 15.3812 31.7544V25.4585C15.3812 23.6196 14.9137 23.1521 13.0748 23.1521H6.77881Z" fill="white"/>
<path d="M32.9138 26.2692H23.5633C22.9244 26.2692 22.3945 25.7394 22.3945 25.1004C22.3945 24.4615 22.9244 23.9316 23.5633 23.9316H32.9138C33.5527 23.9316 34.0826 24.4615 34.0826 25.1004C34.0826 25.7394 33.5527 26.2692 32.9138 26.2692Z" fill="white"/>
<path d="M32.9138 32.5017H23.5633C22.9244 32.5017 22.3945 31.9718 22.3945 31.3329C22.3945 30.6939 22.9244 30.1641 23.5633 30.1641H32.9138C33.5527 30.1641 34.0826 30.6939 34.0826 31.3329C34.0826 31.9718 33.5527 32.5017 32.9138 32.5017Z" fill="white"/>
</svg>
