<svg width="33" height="33" viewBox="0 0 38 38" fill="none" xmlns="http://www.w3.org/2000/svg">
<path d="M27.3819 35.6414C25.6209 35.6414 23.7664 35.2207 21.8496 34.4103C19.9795 33.6155 18.0938 32.5246 16.2549 31.2C14.4315 29.8597 12.6706 28.3637 11.0031 26.7274C9.35115 25.0599 7.85508 23.2989 6.53044 21.4911C5.19021 19.621 4.11492 17.7509 3.3513 15.9432C2.54093 14.0108 2.13574 12.1407 2.13574 10.3797C2.13574 9.16414 2.35392 8.01092 2.77469 6.93563C3.21104 5.82916 3.91232 4.80061 4.86295 3.91232C6.06292 2.72794 7.43432 2.13574 8.89922 2.13574C9.50699 2.13574 10.1304 2.276 10.6602 2.52534C11.268 2.80586 11.7823 3.22662 12.1563 3.78765L15.7718 8.88363C16.099 9.33557 16.3484 9.77192 16.5198 10.2083C16.7224 10.6758 16.8315 11.1433 16.8315 11.5953C16.8315 12.1874 16.6601 12.7641 16.3328 13.3095C16.099 13.7303 15.7406 14.1822 15.2887 14.6341L14.229 15.7406C14.2445 15.7874 14.2601 15.8185 14.2757 15.8497C14.4627 16.177 14.8367 16.738 15.5536 17.5795C16.3172 18.4522 17.0341 19.247 17.7509 19.9795C18.6704 20.8833 19.434 21.6002 20.1509 22.1924C21.0392 22.9404 21.6158 23.3144 21.9586 23.4859L21.9275 23.5638L23.0651 22.4417C23.5482 21.9586 24.0157 21.6002 24.4677 21.3664C25.3248 20.8366 26.4157 20.7431 27.5066 21.195C27.9117 21.3664 28.3481 21.6002 28.8156 21.9275L33.9895 25.6053C34.5661 25.9949 34.9869 26.4936 35.2362 27.0858C35.47 27.678 35.5791 28.2234 35.5791 28.7689C35.5791 29.5169 35.4077 30.2649 35.0804 30.9662C34.7531 31.6675 34.3479 32.2753 33.8337 32.8363C32.9454 33.8181 31.9792 34.5194 30.8571 34.9713C29.7818 35.4077 28.613 35.6414 27.3819 35.6414ZM8.89922 4.47335C8.04209 4.47335 7.24731 4.84736 6.48369 5.5954C5.76682 6.26551 5.26813 6.99796 4.95645 7.79275C4.62919 8.60312 4.47335 9.46024 4.47335 10.3797C4.47335 11.829 4.8162 13.403 5.50189 15.0237C6.20318 16.6757 7.18497 18.3899 8.43169 20.1041C9.67842 21.8184 11.0966 23.4859 12.655 25.0599C14.2134 26.6027 15.8964 28.0364 17.6263 29.2987C19.3094 30.5299 21.0392 31.5272 22.7534 32.2441C25.4183 33.3817 27.9117 33.6467 29.9688 32.7895C30.7636 32.4623 31.4649 31.9636 32.1038 31.2467C32.4623 30.8571 32.7428 30.4364 32.9766 29.9377C33.1636 29.5481 33.2571 29.1429 33.2571 28.7377C33.2571 28.4883 33.2103 28.239 33.0856 27.9585C33.0389 27.865 32.9454 27.6936 32.6493 27.491L27.4754 23.8131C27.1637 23.595 26.8832 23.4391 26.6183 23.33C26.2754 23.1898 26.1352 23.0495 25.6053 23.3768C25.2936 23.5326 25.0131 23.7664 24.7014 24.0781L23.517 25.2469C22.9093 25.8391 21.9742 25.9793 21.2574 25.7144L20.8366 25.5274C20.1976 25.1845 19.4496 24.6547 18.6237 23.9534C17.8756 23.3145 17.0653 22.5664 16.0835 21.6002C15.3198 20.821 14.5562 19.9951 13.7614 19.0756C13.029 18.2185 12.4991 17.486 12.1719 16.8782L11.9849 16.4107C11.8914 16.0523 11.8602 15.8497 11.8602 15.6315C11.8602 15.0705 12.0628 14.5718 12.4524 14.1822L13.6212 12.9666C13.9329 12.655 14.1666 12.3589 14.3225 12.0939C14.4471 11.8913 14.4939 11.7199 14.4939 11.5641C14.4939 11.4394 14.4471 11.2524 14.3692 11.0654C14.2601 10.8161 14.0887 10.5355 13.8705 10.2394L10.255 5.12788C10.0992 4.9097 9.91218 4.75386 9.67842 4.64477C9.42907 4.53568 9.16414 4.47335 8.89922 4.47335ZM21.9275 23.5794L21.6781 24.6391L22.0989 23.5482C22.021 23.5326 21.9586 23.5482 21.9275 23.5794Z" fill="white"/>
<path d="M29.0185 15.3821C28.3795 15.3821 27.8497 14.8522 27.8497 14.2133C27.8497 13.6523 27.2887 12.4835 26.3536 11.4861C25.4342 10.5043 24.4212 9.92769 23.5641 9.92769C22.9251 9.92769 22.3953 9.39784 22.3953 8.75889C22.3953 8.11995 22.9251 7.59009 23.5641 7.59009C25.0757 7.59009 26.6653 8.40046 28.0523 9.88094C29.3457 11.2679 30.1873 12.9666 30.1873 14.2133C30.1873 14.8522 29.6574 15.3821 29.0185 15.3821Z" fill="white"/>
<path d="M34.4729 15.3822C33.8339 15.3822 33.3041 14.8523 33.3041 14.2134C33.3041 8.83688 28.9406 4.47335 23.5641 4.47335C22.9251 4.47335 22.3953 3.94349 22.3953 3.30455C22.3953 2.6656 22.9251 2.13574 23.5641 2.13574C30.2185 2.13574 35.6417 7.55899 35.6417 14.2134C35.6417 14.8523 35.1118 15.3822 34.4729 15.3822Z" fill="white"/>
</svg>
