<svg width="38" height="38" viewBox="0 0 38 38" fill="none" xmlns="http://www.w3.org/2000/svg">
<path d="M27.3809 35.6404C25.6199 35.6404 23.7654 35.2197 21.8486 34.4093C19.9785 33.6145 18.0928 32.5236 16.2539 31.199C14.4306 29.8588 12.6696 28.3627 11.0021 26.7264C9.35018 25.0589 7.85411 23.2979 6.52946 21.4901C5.18924 19.6201 4.11394 17.75 3.35032 15.9422C2.53995 14.0098 2.13477 12.1397 2.13477 10.3787C2.13477 9.16317 2.35294 8.00995 2.77371 6.93465C3.21006 5.82818 3.91135 4.79964 4.86197 3.91135C6.06194 2.72696 7.43334 2.13477 8.89824 2.13477C9.50602 2.13477 10.1294 2.27502 10.6592 2.52437C11.267 2.80488 11.7813 3.22565 12.1553 3.78667L15.7708 8.88265C16.0981 9.33459 16.3474 9.77094 16.5188 10.2073C16.7214 10.6748 16.8305 11.1423 16.8305 11.5943C16.8305 12.1865 16.6591 12.7631 16.3318 13.3085C16.0981 13.7293 15.7396 14.1812 15.2877 14.6332L14.228 15.7396C14.2436 15.7864 14.2591 15.8176 14.2747 15.8487C14.4617 16.176 14.8358 16.737 15.5526 17.5785C16.3162 18.4513 17.0331 19.246 17.75 19.9785C18.6694 20.8824 19.433 21.5992 20.1499 22.1914C21.0382 22.9395 21.6148 23.3135 21.9577 23.4849L21.9265 23.5628L23.0641 22.4408C23.5472 21.9577 24.0148 21.5992 24.4667 21.3655C25.3238 20.8356 26.4147 20.7421 27.5056 21.194C27.9108 21.3655 28.3471 21.5992 28.8146 21.9265L33.9885 25.6043C34.5652 25.9939 34.9859 26.4926 35.2353 27.0848C35.469 27.677 35.5781 28.2224 35.5781 28.7679C35.5781 29.5159 35.4067 30.264 35.0794 30.9652C34.7522 31.6665 34.347 32.2743 33.8327 32.8353C32.9444 33.8171 31.9782 34.5184 30.8561 34.9703C29.7809 35.4067 28.612 35.6404 27.3809 35.6404ZM8.89824 4.47237C8.04112 4.47237 7.24633 4.84639 6.48271 5.59442C5.76585 6.26454 5.26716 6.99699 4.95548 7.79177C4.62821 8.60214 4.47237 9.45926 4.47237 10.3787C4.47237 11.828 4.81522 13.402 5.50092 15.0228C6.2022 16.6747 7.18399 18.3889 8.43072 20.1032C9.67744 21.8174 11.0956 23.4849 12.654 25.0589C14.2124 26.6017 15.8955 28.0354 17.6253 29.2977C19.3084 30.5289 21.0382 31.5263 22.7524 32.2431C25.4173 33.3808 27.9108 33.6457 29.9679 32.7886C30.7626 32.4613 31.4639 31.9626 32.1029 31.2458C32.4613 30.8561 32.7418 30.4354 32.9756 29.9367C33.1626 29.5471 33.2561 29.1419 33.2561 28.7367C33.2561 28.4874 33.2093 28.238 33.0847 27.9575C33.0379 27.864 32.9444 27.6926 32.6483 27.49L27.4744 23.8122C27.1627 23.594 26.8822 23.4381 26.6173 23.3291C26.2744 23.1888 26.1342 23.0485 25.6043 23.3758C25.2926 23.5317 25.0121 23.7654 24.7005 24.0771L23.5161 25.2459C22.9083 25.8381 21.9732 25.9783 21.2564 25.7134L20.8356 25.5264C20.1967 25.1836 19.4486 24.6537 18.6227 23.9524C17.8746 23.3135 17.0643 22.5654 16.0825 21.5992C15.3189 20.82 14.5552 19.9941 13.7605 19.0746C13.028 18.2175 12.4982 17.485 12.1709 16.8773L11.9839 16.4097C11.8904 16.0513 11.8592 15.8487 11.8592 15.6305C11.8592 15.0695 12.0618 14.5708 12.4514 14.1812L13.6202 12.9657C13.9319 12.654 14.1656 12.3579 14.3215 12.093C14.4462 11.8904 14.4929 11.7189 14.4929 11.5631C14.4929 11.4384 14.4462 11.2514 14.3682 11.0644C14.2591 10.8151 14.0877 10.5346 13.8695 10.2385L10.254 5.1269C10.0982 4.90872 9.9112 4.75288 9.67744 4.6438C9.4281 4.53471 9.16317 4.47237 8.89824 4.47237ZM21.9265 23.5784L21.6771 24.6381L22.0979 23.5472C22.02 23.5317 21.9577 23.5472 21.9265 23.5784Z" fill="white"/>
<path d="M29.0177 15.3819C28.3788 15.3819 27.8489 14.852 27.8489 14.2131C27.8489 13.652 27.2879 12.4832 26.3529 11.4859C25.4334 10.5041 24.4205 9.92745 23.5633 9.92745C22.9244 9.92745 22.3945 9.39759 22.3945 8.75865C22.3945 8.1197 22.9244 7.58984 23.5633 7.58984C25.075 7.58984 26.6646 8.40021 28.0515 9.8807C29.345 11.2677 30.1865 12.9663 30.1865 14.2131C30.1865 14.852 29.6567 15.3819 29.0177 15.3819Z" fill="white"/>
<path d="M34.4722 15.3812C33.8332 15.3812 33.3034 14.8513 33.3034 14.2124C33.3034 8.8359 28.9398 4.47237 23.5633 4.47237C22.9244 4.47237 22.3945 3.94251 22.3945 3.30357C22.3945 2.66462 22.9244 2.13477 23.5633 2.13477C30.2177 2.13477 35.641 7.55801 35.641 14.2124C35.641 14.8513 35.1111 15.3812 34.4722 15.3812Z" fill="white"/>
</svg>
