<svg width="33" height="33" viewBox="0 0 42 40" fill="none" xmlns="http://www.w3.org/2000/svg">
<g filter="url(#filter0_d_37_843)">
<path d="M32.998 16.4776H26.702C23.5696 16.4776 22.058 14.9504 22.058 11.8335V5.5376C22.058 2.40521 23.5852 0.893555 26.702 0.893555H32.998C36.1304 0.893555 37.642 2.42079 37.642 5.5376V11.8335C37.642 14.9504 36.1148 16.4776 32.998 16.4776ZM26.702 3.23116C24.8631 3.23116 24.3956 3.69868 24.3956 5.5376V11.8335C24.3956 13.6725 24.8631 14.14 26.702 14.14H32.998C34.8369 14.14 35.3044 13.6725 35.3044 11.8335V5.5376C35.3044 3.69868 34.8369 3.23116 32.998 3.23116H26.702Z" fill="white"/>
<path d="M15.0757 16.4776H8.77979C5.64739 16.4776 4.13574 15.0906 4.13574 12.2232V5.148C4.13574 2.28053 5.66298 0.893555 8.77979 0.893555H15.0757C18.2081 0.893555 19.7198 2.28053 19.7198 5.148V12.2076C19.7198 15.0906 18.1925 16.4776 15.0757 16.4776ZM8.77979 3.23116C6.69152 3.23116 6.47335 3.82335 6.47335 5.148V12.2076C6.47335 13.5478 6.69152 14.1244 8.77979 14.1244H15.0757C17.164 14.1244 17.3822 13.5322 17.3822 12.2076V5.148C17.3822 3.80777 17.164 3.23116 15.0757 3.23116H8.77979Z" fill="white"/>
<path d="M15.0757 34.399H8.77979C5.64739 34.399 4.13574 32.8717 4.13574 29.7549V23.459C4.13574 20.3266 5.66298 18.8149 8.77979 18.8149H15.0757C18.2081 18.8149 19.7198 20.3422 19.7198 23.459V29.7549C19.7198 32.8717 18.1925 34.399 15.0757 34.399ZM8.77979 21.1525C6.94087 21.1525 6.47335 21.6201 6.47335 23.459V29.7549C6.47335 31.5939 6.94087 32.0614 8.77979 32.0614H15.0757C16.9147 32.0614 17.3822 31.5939 17.3822 29.7549V23.459C17.3822 21.6201 16.9147 21.1525 15.0757 21.1525H8.77979Z" fill="white"/>
<path d="M34.9145 24.269H25.5641C24.9251 24.269 24.3953 23.7391 24.3953 23.1002C24.3953 22.4613 24.9251 21.9314 25.5641 21.9314H34.9145C35.5534 21.9314 36.0833 22.4613 36.0833 23.1002C36.0833 23.7391 35.5534 24.269 34.9145 24.269Z" fill="white"/>
<path d="M34.9145 30.5017H25.5641C24.9251 30.5017 24.3953 29.9718 24.3953 29.3329C24.3953 28.6939 24.9251 28.1641 25.5641 28.1641H34.9145C35.5534 28.1641 36.0833 28.6939 36.0833 29.3329C36.0833 29.9718 35.5534 30.5017 34.9145 30.5017Z" fill="white"/>
</g>
<defs>
<filter id="filter0_d_37_843" x="0.135742" y="0.893555" width="41.5062" height="41.5054" filterUnits="userSpaceOnUse" color-interpolation-filters="sRGB">
<feFlood flood-opacity="0" result="BackgroundImageFix"/>
<feColorMatrix in="SourceAlpha" type="matrix" values="0 0 0 0 0 0 0 0 0 0 0 0 0 0 0 0 0 0 127 0" result="hardAlpha"/>
<feOffset dy="4"/>
<feGaussianBlur stdDeviation="2"/>
<feComposite in2="hardAlpha" operator="out"/>
<feColorMatrix type="matrix" values="0 0 0 0 0 0 0 0 0 0 0 0 0 0 0 0 0 0 0.25 0"/>
<feBlend mode="normal" in2="BackgroundImageFix" result="effect1_dropShadow_37_843"/>
<feBlend mode="normal" in="SourceGraphic" in2="effect1_dropShadow_37_843" result="shape"/>
</filter>
</defs>
</svg>
