<svg width="23" height="23" viewBox="0 0 23 23" fill="none" xmlns="http://www.w3.org/2000/svg">
<path fill-rule="evenodd" clip-rule="evenodd" d="M11.5 0C5.14873 0 0 5.14873 0 11.5C0 17.8513 5.14873 23 11.5 23C17.8513 23 23 17.8513 23 11.5C23 5.14873 17.8513 0 11.5 0ZM8.87574 5.30789C9.52997 5.27812 9.73901 5.27083 11.4047 5.27083H11.4028C13.0691 5.27083 13.2773 5.27812 13.9316 5.30789C14.5845 5.33779 15.0305 5.44116 15.4215 5.59284C15.8253 5.74937 16.1664 5.95892 16.5076 6.30009C16.8488 6.64101 17.0583 6.9832 17.2155 7.3866C17.3663 7.77658 17.4698 8.22227 17.5004 8.87523C17.5298 9.52946 17.5375 9.7385 17.5375 11.4042C17.5375 13.07 17.5298 13.2785 17.5004 13.9327C17.4698 14.5854 17.3663 15.0312 17.2155 15.4214C17.0583 15.8246 16.8488 16.1668 16.5076 16.5077C16.1668 16.8489 15.8251 17.059 15.4219 17.2156C15.0316 17.3673 14.5854 17.4707 13.9325 17.5006C13.2782 17.5303 13.0698 17.5376 11.404 17.5376C9.73837 17.5376 9.52946 17.5303 8.87523 17.5006C8.2224 17.4707 7.77658 17.3673 7.38634 17.2156C6.9832 17.059 6.64101 16.8489 6.30022 16.5077C5.95918 16.1668 5.74962 15.8246 5.59284 15.4212C5.44129 15.0312 5.33792 14.5855 5.30789 13.9326C5.27824 13.2784 5.27083 13.07 5.27083 11.4042C5.27083 9.7385 5.2785 9.52933 5.30776 8.8751C5.33715 8.2224 5.44065 7.77658 5.59271 7.38647C5.74988 6.9832 5.95943 6.64101 6.30061 6.30009C6.64152 5.95905 6.98371 5.74949 7.38711 5.59284C7.77709 5.44116 8.22279 5.33779 8.87574 5.30789Z" fill="#219653"/>
<path fill-rule="evenodd" clip-rule="evenodd" d="M10.9504 6.47193C11.0572 6.47176 11.1721 6.47182 11.2962 6.47187L11.5006 6.47193C13.1382 6.47193 13.3323 6.47781 13.979 6.5072C14.577 6.53454 14.9015 6.63447 15.1177 6.71842C15.404 6.82959 15.608 6.96248 15.8226 7.17714C16.0372 7.39181 16.1701 7.59626 16.2816 7.88248C16.3655 8.09843 16.4656 8.42299 16.4928 9.021C16.5222 9.66756 16.5286 9.86178 16.5286 11.4986C16.5286 13.1355 16.5222 13.3297 16.4928 13.9763C16.4654 14.5743 16.3655 14.8988 16.2816 15.1148C16.1704 15.401 16.0372 15.6048 15.8226 15.8194C15.6079 16.034 15.4041 16.1669 15.1177 16.2781C14.9018 16.3624 14.577 16.4621 13.979 16.4894C13.3324 16.5188 13.1382 16.5252 11.5006 16.5252C9.86283 16.5252 9.66873 16.5188 9.02217 16.4894C8.42417 16.4618 8.09961 16.3619 7.88328 16.278C7.59705 16.1668 7.3926 16.0339 7.17794 15.8192C6.96327 15.6046 6.83038 15.4006 6.71895 15.1143C6.635 14.8983 6.53495 14.5738 6.50773 13.9758C6.47835 13.3292 6.47247 13.135 6.47247 11.4971C6.47247 9.85923 6.47835 9.66603 6.50773 9.01946C6.53508 8.42146 6.635 8.0969 6.71895 7.8807C6.83012 7.59447 6.96327 7.39002 7.17794 7.17536C7.3926 6.96069 7.59705 6.8278 7.88328 6.71637C8.09948 6.63204 8.42417 6.53237 9.02217 6.5049C9.58798 6.47934 9.80725 6.47168 10.9504 6.4704V6.47193ZM14.7745 7.49033C14.3682 7.49033 14.0385 7.81962 14.0385 8.22608C14.0385 8.63242 14.3682 8.96209 14.7745 8.96209C15.1809 8.96209 15.5105 8.63242 15.5105 8.22608C15.5105 7.81975 15.1809 7.49008 14.7745 7.49008V7.49033ZM8.35082 11.5C8.35082 9.76062 9.76105 8.35035 11.5004 8.35028C13.2399 8.35028 14.6498 9.76058 14.6498 11.5C14.6498 13.2395 13.24 14.6492 11.5006 14.6492C9.76112 14.6492 8.35082 13.2395 8.35082 11.5Z" fill="#219653"/>
<path d="M11.5006 9.45557C12.6296 9.45557 13.545 10.3708 13.545 11.5C13.545 12.6291 12.6296 13.5445 11.5006 13.5445C10.3714 13.5445 9.45611 12.6291 9.45611 11.5C9.45611 10.3708 10.3714 9.45557 11.5006 9.45557V9.45557Z" fill="#219653"/>
</svg>
