<svg width="26" height="26" viewBox="0 0 26 26" fill="none" xmlns="http://www.w3.org/2000/svg">
<path d="M24.3709 26C10.507 26.0196 -0.0148161 15.3717 1.56608e-05 1.62908C1.56608e-05 0.731616 0.727553 0 1.62502 0H5.91397C6.71928 0 7.40339 0.59171 7.52164 1.38828C7.80506 3.29745 8.36091 5.15607 9.17229 6.90739L9.33928 7.26782C9.57146 7.76897 9.41408 8.36443 8.9646 8.68542C7.63636 9.63396 7.12875 11.5433 8.16351 13.0331C9.46201 14.9026 11.0988 16.5391 12.9679 17.837C14.4577 18.8715 16.3667 18.3639 17.3152 17.0359C17.6364 16.5862 18.2322 16.4287 18.7336 16.661L19.0924 16.8272C20.8439 17.6386 22.7026 18.1944 24.612 18.4778C25.4086 18.596 26 19.2801 26 20.0854V24.375C26 25.2724 25.2707 26 24.3732 26L24.3709 26Z" fill="white"/>
</svg>
