<svg width="52" height="41" viewBox="0 0 52 41" fill="none" xmlns="http://www.w3.org/2000/svg">
<path d="M18.5324 0.249996C6.98242 5.65 0.0824224 15.7 0.0824224 26.8C0.0824224 34.6 4.88242 40.3 11.4824 40.3C17.1824 40.3 21.6824 36.1 21.6824 30.55C21.6824 26.35 18.9824 22.9 14.9324 21.85C10.2824 20.8 10.1324 20.65 10.1324 18.25C10.1324 13 14.0324 8.04999 21.5324 3.84999L18.5324 0.249996ZM47.9324 0.249996C36.3824 5.65 29.4824 15.7 29.4824 26.8C29.4824 34.6 34.2824 40.3 40.8824 40.3C46.5824 40.3 51.0824 36.1 51.0824 30.55C51.0824 26.35 48.3824 22.9 44.3324 21.85C39.6824 20.8 39.5324 20.65 39.5324 18.25C39.5324 13 43.4324 8.04999 50.9324 3.84999L47.9324 0.249996Z" fill="#4EA64B"/>
</svg>
