<svg width="0" height="0" class="hidden">
  <symbol fill="none" xmlns="http://www.w3.org/2000/svg" viewBox="0 0 22 20" id="arrow-down">
    <path d="M8.97674 12.8744L3.61021 7.52284C2.88502 6.79966 1.71114 6.80048 0.986961 7.52467C0.262064 8.24956 0.262064 9.42485 0.986961 10.1497L9.42299 18.5858C10.204 19.3668 11.4704 19.3668 12.2514 18.5858L20.6875 10.1498C21.4124 9.42485 21.4124 8.24956 20.6875 7.52467C19.9633 6.80048 18.7894 6.79966 18.0642 7.52284L12.6977 12.8744L12.6977 1.86046C12.6977 0.832958 11.8647 -5.69265e-07 10.8372 -5.69265e-07C9.8097 -5.69265e-07 8.97674 0.832958 8.97674 1.86046L8.97674 12.8744Z" fill="currentColor"></path>
  </symbol>
  <symbol fill="none" xmlns="http://www.w3.org/2000/svg" viewBox="0 0 30 26" id="menu-btn">
    <line x1="2" y1="2" x2="28" y2="2" stroke="currentColor" stroke-width="4" stroke-linecap="round"></line>
    <line x1="2" y1="13" x2="28" y2="13" stroke="currentColor" stroke-width="4" stroke-linecap="round"></line>
    <line x1="2" y1="24" x2="28" y2="24" stroke="currentColor" stroke-width="4" stroke-linecap="round"></line>
  </symbol>
  <symbol fill="none" xmlns="http://www.w3.org/2000/svg" viewBox="0 0 48 48" id="modal-close">
    <path d="M29.17 16L24 21.17L18.83 16L16 18.83L21.17 24L16 29.17L18.83 32L24 26.83L29.17 32L32 29.17L26.83 24L32 18.83L29.17 16ZM24 4C12.95 4 4 12.95 4 24C4 35.05 12.95 44 24 44C35.05 44 44 35.05 44 24C44 12.95 35.05 4 24 4ZM24 40C15.18 40 8 32.82 8 24C8 15.18 15.18 8 24 8C32.82 8 40 15.18 40 24C40 32.82 32.82 40 24 40Z" fill="currentColor"></path>
  </symbol>
  <symbol fill="none" xmlns="http://www.w3.org/2000/svg" viewBox="0 0 26 26" id="phone">
    <path d="M24.3709 26C10.507 26.0196 -0.0148161 15.3717 1.56608e-05 1.62908C1.56608e-05 0.731616 0.727553 0 1.62502 0H5.91397C6.71928 0 7.40339 0.59171 7.52164 1.38828C7.80506 3.29745 8.36091 5.15607 9.17229 6.90739L9.33928 7.26782C9.57146 7.76897 9.41408 8.36443 8.9646 8.68542C7.63636 9.63396 7.12875 11.5433 8.16351 13.0331C9.46201 14.9026 11.0988 16.5391 12.9679 17.837C14.4577 18.8715 16.3667 18.3639 17.3152 17.0359C17.6364 16.5862 18.2322 16.4287 18.7336 16.661L19.0924 16.8272C20.8439 17.6386 22.7026 18.1944 24.612 18.4778C25.4086 18.596 26 19.2801 26 20.0854V24.375C26 25.2724 25.2707 26 24.3732 26L24.3709 26Z" fill="currentColor"></path>
  </symbol>
  <symbol fill="none" xmlns="http://www.w3.org/2000/svg" viewBox="0 0 23 23" id="whatsapp">
    <path fill-rule="evenodd" clip-rule="evenodd" d="M0 11.5C0 17.8513 5.14873 23 11.5 23C17.8513 23 23 17.8513 23 11.5C23 5.14873 17.8513 0 11.5 0C5.14873 0 0 5.14873 0 11.5ZM18.7173 11.0599C18.7158 14.8294 15.6493 17.8965 11.8791 17.8981H11.8762C10.7318 17.8977 9.60719 17.6105 8.60839 17.0657L4.98333 18.0167L5.95346 14.4731C5.35504 13.4361 5.04015 12.2597 5.04066 11.0545C5.04216 7.28414 8.10981 4.21666 11.879 4.21666C13.7083 4.21745 15.4252 4.9296 16.7163 6.22217C18.0074 7.51468 18.718 9.23274 18.7173 11.0599Z" fill="currentColor"></path>
    <path fill-rule="evenodd" clip-rule="evenodd" d="M6.62521 16.392L8.77637 15.8277L8.98392 15.9509C9.85657 16.4687 10.8569 16.7427 11.8768 16.7431H11.8791C15.0118 16.7431 17.5614 14.1934 17.5627 11.0594C17.5633 9.5407 16.9727 8.11273 15.8996 7.03839C14.8265 5.96405 13.3994 5.37211 11.8813 5.37158C8.74621 5.37158 6.1965 7.92107 6.19525 11.0548C6.19481 12.1288 6.4953 13.1747 7.06425 14.0796L7.19939 14.2946L6.62521 16.392ZM15.0901 12.5321C15.2093 12.5897 15.2898 12.6286 15.3242 12.6859C15.3669 12.7572 15.3669 13.0993 15.2245 13.4984C15.0821 13.8976 14.3995 14.2618 14.0712 14.3109C13.7768 14.3549 13.4043 14.3732 12.995 14.2432C12.7468 14.1644 12.4286 14.0593 12.0209 13.8832C10.4191 13.1916 9.33661 11.6391 9.13202 11.3456C9.11769 11.3251 9.10766 11.3107 9.10207 11.3032L9.10069 11.3014C9.01027 11.1808 8.40438 10.3724 8.40438 9.5357C8.40438 8.74866 8.79099 8.33612 8.96895 8.14623C8.98114 8.13322 8.99236 8.12126 9.0024 8.11029C9.15901 7.93923 9.34414 7.89646 9.45804 7.89646C9.57193 7.89646 9.68596 7.89752 9.78552 7.90252C9.7978 7.90313 9.81058 7.90306 9.82379 7.90298C9.92336 7.9024 10.0475 7.90167 10.17 8.19582C10.2171 8.30902 10.286 8.47685 10.3587 8.65385C10.5057 9.0118 10.6682 9.40728 10.6968 9.46451C10.7395 9.55005 10.768 9.64979 10.711 9.76387C10.7025 9.78098 10.6945 9.79712 10.687 9.81255C10.6442 9.89988 10.6127 9.96412 10.5401 10.0489C10.5116 10.0822 10.4821 10.1182 10.4526 10.1541C10.3938 10.2257 10.335 10.2973 10.2838 10.3482C10.1983 10.4335 10.1093 10.5259 10.2089 10.697C10.3086 10.868 10.6515 11.4275 11.1595 11.8806C11.7055 12.3676 12.1801 12.5735 12.4206 12.6778C12.4676 12.6982 12.5056 12.7147 12.5335 12.7287C12.7043 12.8142 12.804 12.7999 12.9037 12.6859C13.0034 12.5719 13.3308 12.187 13.4447 12.0159C13.5586 11.8449 13.6725 11.8734 13.8291 11.9304C13.9858 11.9875 14.8258 12.4008 14.9967 12.4863C15.0301 12.503 15.0612 12.5181 15.0901 12.5321Z" fill="currentColor"></path>
  </symbol>
  <symbol fill="none" xmlns="http://www.w3.org/2000/svg" viewBox="0 0 10 16" id="arrow">
    <path d="M1.93938 15.193C1.62202 15.193 1.30465 15.0761 1.0541 14.8255C0.569696 14.3411 0.569696 13.5394 1.0541 13.055L6.06515 8.04391L1.0541 3.03286C0.569696 2.54846 0.569696 1.74669 1.0541 1.26229C1.5385 0.777886 2.34027 0.777886 2.82467 1.26229L8.72101 7.15863C9.20541 7.64303 9.20541 8.44479 8.72101 8.9292L2.82467 14.8255C2.57412 15.0761 2.25675 15.193 1.93938 15.193Z" fill="currentColor"></path>
  </symbol>
  <symbol fill="none" xmlns="http://www.w3.org/2000/svg" viewBox="0 0 24 16" id="arrow-slider">
    <path d="M18.7267 9.33333L13.9533 14.12L15.8333 16L23.8333 8L15.8333 0L13.9533 1.88L18.7267 6.66667H0V9.33333H18.7267Z" fill="currentColor"></path>
  </symbol>
  <symbol fill="none" xmlns="http://www.w3.org/2000/svg" viewBox="0 0 23 23" id="instagram">
    <path fill-rule="evenodd" clip-rule="evenodd" d="M11.5 0C5.14873 0 0 5.14873 0 11.5C0 17.8513 5.14873 23 11.5 23C17.8513 23 23 17.8513 23 11.5C23 5.14873 17.8513 0 11.5 0ZM8.87574 5.30789C9.52997 5.27812 9.73901 5.27083 11.4047 5.27083H11.4028C13.0691 5.27083 13.2773 5.27812 13.9316 5.30789C14.5845 5.33779 15.0305 5.44116 15.4215 5.59284C15.8253 5.74937 16.1664 5.95892 16.5076 6.30009C16.8488 6.64101 17.0583 6.9832 17.2155 7.3866C17.3663 7.77658 17.4698 8.22227 17.5004 8.87523C17.5298 9.52946 17.5375 9.7385 17.5375 11.4042C17.5375 13.07 17.5298 13.2785 17.5004 13.9327C17.4698 14.5854 17.3663 15.0312 17.2155 15.4214C17.0583 15.8246 16.8488 16.1668 16.5076 16.5077C16.1668 16.8489 15.8251 17.059 15.4219 17.2156C15.0316 17.3673 14.5854 17.4707 13.9325 17.5006C13.2782 17.5303 13.0698 17.5376 11.404 17.5376C9.73837 17.5376 9.52946 17.5303 8.87523 17.5006C8.2224 17.4707 7.77658 17.3673 7.38634 17.2156C6.9832 17.059 6.64101 16.8489 6.30022 16.5077C5.95918 16.1668 5.74962 15.8246 5.59284 15.4212C5.44129 15.0312 5.33792 14.5855 5.30789 13.9326C5.27824 13.2784 5.27083 13.07 5.27083 11.4042C5.27083 9.7385 5.2785 9.52933 5.30776 8.8751C5.33715 8.2224 5.44065 7.77658 5.59271 7.38647C5.74988 6.9832 5.95943 6.64101 6.30061 6.30009C6.64152 5.95905 6.98371 5.74949 7.38711 5.59284C7.77709 5.44116 8.22279 5.33779 8.87574 5.30789Z" fill="currentColor"></path>
    <path fill-rule="evenodd" clip-rule="evenodd" d="M10.9504 6.47193C11.0572 6.47176 11.1721 6.47182 11.2962 6.47187L11.5006 6.47193C13.1382 6.47193 13.3323 6.47781 13.979 6.5072C14.577 6.53454 14.9015 6.63447 15.1177 6.71842C15.404 6.82959 15.608 6.96248 15.8226 7.17714C16.0372 7.39181 16.1701 7.59626 16.2816 7.88248C16.3655 8.09843 16.4656 8.42299 16.4928 9.021C16.5222 9.66756 16.5286 9.86178 16.5286 11.4986C16.5286 13.1355 16.5222 13.3297 16.4928 13.9763C16.4654 14.5743 16.3655 14.8988 16.2816 15.1148C16.1704 15.401 16.0372 15.6048 15.8226 15.8194C15.6079 16.034 15.4041 16.1669 15.1177 16.2781C14.9018 16.3624 14.577 16.4621 13.979 16.4894C13.3324 16.5188 13.1382 16.5252 11.5006 16.5252C9.86283 16.5252 9.66873 16.5188 9.02217 16.4894C8.42417 16.4618 8.09961 16.3619 7.88328 16.278C7.59705 16.1668 7.3926 16.0339 7.17794 15.8192C6.96327 15.6046 6.83038 15.4006 6.71895 15.1143C6.635 14.8983 6.53495 14.5738 6.50773 13.9758C6.47835 13.3292 6.47247 13.135 6.47247 11.4971C6.47247 9.85923 6.47835 9.66603 6.50773 9.01946C6.53508 8.42146 6.635 8.0969 6.71895 7.8807C6.83012 7.59447 6.96327 7.39002 7.17794 7.17536C7.3926 6.96069 7.59705 6.8278 7.88328 6.71637C8.09948 6.63204 8.42417 6.53237 9.02217 6.5049C9.58798 6.47934 9.80725 6.47168 10.9504 6.4704V6.47193ZM14.7745 7.49033C14.3682 7.49033 14.0385 7.81962 14.0385 8.22608C14.0385 8.63242 14.3682 8.96209 14.7745 8.96209C15.1809 8.96209 15.5105 8.63242 15.5105 8.22608C15.5105 7.81975 15.1809 7.49008 14.7745 7.49008V7.49033ZM8.35082 11.5C8.35082 9.76062 9.76105 8.35035 11.5004 8.35028C13.2399 8.35028 14.6498 9.76058 14.6498 11.5C14.6498 13.2395 13.24 14.6492 11.5006 14.6492C9.76112 14.6492 8.35082 13.2395 8.35082 11.5Z" fill="currentColor"></path>
    <path d="M11.5006 9.45557C12.6296 9.45557 13.545 10.3708 13.545 11.5C13.545 12.6291 12.6296 13.5445 11.5006 13.5445C10.3714 13.5445 9.45611 12.6291 9.45611 11.5C9.45611 10.3708 10.3714 9.45557 11.5006 9.45557V9.45557Z" fill="currentColor"></path>
  </symbol>
  <symbol fill="none" xmlns="http://www.w3.org/2000/svg" viewBox="0 0 23 23" id="telegram">
    <path fill-rule="evenodd" clip-rule="evenodd" d="M23 11.5C23 17.8513 17.8513 23 11.5 23C5.14873 23 0 17.8513 0 11.5C0 5.14873 5.14873 0 11.5 0C17.8513 0 23 5.14873 23 11.5ZM7.70095 10.4465C6.54895 10.9495 5.36527 11.4663 4.28291 12.0625L4.28284 12.0626C3.71767 12.4764 4.46889 12.7691 5.17359 13.0436C5.28562 13.0873 5.39648 13.1305 5.50069 13.1736C5.5874 13.2003 5.67558 13.2284 5.76494 13.2568C6.5487 13.5065 7.42265 13.785 8.18354 13.3661C9.43348 12.6481 10.6131 11.818 11.7917 10.9885C12.1779 10.7167 12.564 10.445 12.9524 10.1774C12.9706 10.1657 12.9911 10.1524 13.0136 10.1379C13.3445 9.92336 14.0886 9.44098 13.8134 10.1057C13.1624 10.8175 12.4652 11.4476 11.7642 12.0812C11.2918 12.5082 10.8176 12.9368 10.3548 13.3929C9.9516 13.7205 9.53299 14.3792 9.98441 14.8379C11.0241 15.5658 12.0801 16.276 13.1355 16.9859C13.479 17.2168 13.8223 17.4478 14.165 17.6793C14.7459 18.143 15.6537 17.7679 15.7814 17.0432C15.8382 16.7099 15.8952 16.3765 15.9522 16.0432C16.2673 14.2009 16.5825 12.358 16.8609 10.5098C16.8988 10.2199 16.9417 9.92997 16.9846 9.63992C17.0886 8.93693 17.1928 8.23308 17.2253 7.52631C17.1414 6.821 16.2863 6.97608 15.8103 7.13468C13.3641 8.06551 10.9423 9.06533 8.53005 10.0828C8.2568 10.2039 7.9798 10.3248 7.70095 10.4465Z" fill="currentColor"></path>
  </symbol>
  <symbol fill="none" xmlns="http://www.w3.org/2000/svg" viewBox="0 0 24 24" id="vk">
    <path fill-rule="evenodd" clip-rule="evenodd" d="M15.9824 0.952087H8.92169C2.47779 0.952087 0.952037 2.47785 0.952037 8.92174V15.9824C0.952037 22.4263 2.47779 23.9521 8.92169 23.9521H15.9824C22.4263 23.9521 23.952 22.4263 23.952 15.9824V8.92174C23.952 2.47785 22.4263 0.952087 15.9824 0.952087ZM19.2774 8.25625C19.7806 8.25625 19.8942 8.51595 19.7806 8.87304C19.6032 9.69143 18.1307 11.8623 17.6746 12.5347C17.588 12.6625 17.538 12.7361 17.5406 12.7361C17.3621 13.0283 17.2971 13.1582 17.5406 13.4828C17.6286 13.6028 17.8153 13.7859 18.0286 13.9952C18.2479 14.2105 18.4955 14.4535 18.6931 14.6839C19.4072 15.4955 19.9591 16.1772 20.1052 16.6479C20.235 17.1186 20.0078 17.3621 19.5209 17.3621H17.849C17.406 17.3621 17.1776 17.1077 16.6909 16.5654C16.4822 16.3329 16.226 16.0475 15.885 15.7065C14.8949 14.7488 14.4566 14.619 14.2132 14.619C13.8723 14.619 13.7749 14.7001 13.7749 15.1871V16.6966C13.7749 17.1024 13.6451 17.3459 12.5738 17.3459C10.8046 17.3459 8.84055 16.2746 7.46087 14.2781C5.38324 11.3565 4.81514 9.14898 4.81514 8.71073C4.81514 8.46726 4.8963 8.24002 5.38324 8.24002H7.07132C7.49334 8.24002 7.65565 8.41856 7.81796 8.88928C8.64577 11.2753 10.0254 13.3692 10.5935 13.3692C10.8046 13.3692 10.9019 13.2718 10.9019 12.7361V10.269C10.8619 9.56768 10.6178 9.26214 10.4367 9.03557C10.3245 8.89505 10.2365 8.78491 10.2365 8.62957C10.2365 8.43479 10.3988 8.24002 10.6585 8.24002H13.288C13.6451 8.24002 13.7749 8.4348 13.7749 8.85681V12.1843C13.7749 12.5414 13.921 12.6712 14.0346 12.6712C14.2456 12.6712 14.4242 12.5414 14.8137 12.1518C16.0149 10.8046 16.8751 8.72696 16.8751 8.72696C16.9887 8.48349 17.1835 8.25625 17.6055 8.25625H19.2774Z" fill="currentColor"></path>
  </symbol>
  <symbol fill="none" xmlns="http://www.w3.org/2000/svg" viewBox="0 0 23 23" id="whatsapp2">
    <path fill-rule="evenodd" clip-rule="evenodd" d="M0 11.5C0 17.8513 5.14873 23 11.5 23C17.8513 23 23 17.8513 23 11.5C23 5.14873 17.8513 0 11.5 0C5.14873 0 0 5.14873 0 11.5ZM18.7173 11.0599C18.7158 14.8294 15.6493 17.8965 11.8791 17.8981H11.8762C10.7318 17.8977 9.6072 17.6105 8.6084 17.0657L4.98333 18.0167L5.95346 14.4732C5.35504 13.4361 5.04015 12.2597 5.04067 11.0545C5.04217 7.28414 8.10981 4.21667 11.879 4.21667C13.7083 4.21746 15.4252 4.9296 16.7163 6.22218C18.0074 7.51468 18.718 9.23274 18.7173 11.0599Z" fill="currentColor"></path>
    <path fill-rule="evenodd" clip-rule="evenodd" d="M6.62519 16.392L8.77635 15.8278L8.9839 15.9509C9.85655 16.4688 10.8569 16.7428 11.8768 16.7432H11.8791C15.0117 16.7432 17.5614 14.1934 17.5627 11.0595C17.5633 9.54076 16.9726 8.11279 15.8996 7.03845C14.8265 5.96411 13.3994 5.37217 11.8813 5.37164C8.7462 5.37164 6.19648 7.92113 6.19523 11.0549C6.19479 12.1288 6.49528 13.1747 7.06423 14.0796L7.19937 14.2947L6.62519 16.392ZM15.0901 12.5321C15.2093 12.5897 15.2898 12.6286 15.3241 12.686C15.3668 12.7572 15.3668 13.0993 15.2245 13.4985C15.0821 13.8976 14.3995 14.2619 14.0712 14.3109C13.7768 14.3549 13.4043 14.3733 12.995 14.2432C12.7468 14.1645 12.4286 14.0594 12.0209 13.8833C10.4191 13.1916 9.33658 11.6391 9.13199 11.3457C9.11765 11.3251 9.10763 11.3108 9.10204 11.3033L9.10066 11.3015C9.01023 11.1808 8.40435 10.3724 8.40435 9.53576C8.40435 8.74872 8.79096 8.33618 8.96892 8.1463C8.98111 8.13329 8.99233 8.12132 9.00237 8.11035C9.15898 7.93929 9.3441 7.89652 9.45801 7.89652C9.5719 7.89652 9.68593 7.89758 9.78548 7.90258C9.79777 7.90319 9.81055 7.90312 9.82376 7.90304C9.92333 7.90246 10.0475 7.90173 10.1699 8.19588C10.217 8.30909 10.286 8.47692 10.3587 8.65393C10.5057 9.01187 10.6681 9.40734 10.6967 9.46457C10.7395 9.55011 10.7679 9.64985 10.711 9.76393C10.7024 9.78104 10.6945 9.79718 10.687 9.8126C10.6442 9.89994 10.6127 9.96418 10.5401 10.049C10.5116 10.0823 10.4821 10.1182 10.4526 10.1542C10.3938 10.2257 10.335 10.2973 10.2838 10.3483C10.1983 10.4335 10.1092 10.526 10.2089 10.697C10.3086 10.8681 10.6515 11.4276 11.1594 11.8807C11.7055 12.3677 12.18 12.5735 12.4206 12.6779C12.4675 12.6983 12.5056 12.7148 12.5335 12.7287C12.7043 12.8143 12.804 12.8 12.9037 12.686C13.0033 12.5719 13.3308 12.187 13.4447 12.016C13.5586 11.845 13.6725 11.8735 13.8291 11.9305C13.9858 11.9876 14.8258 12.4009 14.9967 12.4864C15.03 12.5031 15.0612 12.5182 15.0901 12.5321Z" fill="currentColor"></path>
  </symbol>
  <symbol fill="none" xmlns="http://www.w3.org/2000/svg" viewBox="0 0 24 24" id="arrow-down2">
    <path d="M11.9995 16.8C11.2995 16.8 10.5995 16.53 10.0695 16L3.54953 9.48001C3.25953 9.19001 3.25953 8.71001 3.54953 8.42001C3.83953 8.13001 4.31953 8.13001 4.60953 8.42001L11.1295 14.94C11.6095 15.42 12.3895 15.42 12.8695 14.94L19.3895 8.42001C19.6795 8.13001 20.1595 8.13001 20.4495 8.42001C20.7395 8.71001 20.7395 9.19001 20.4495 9.48001L13.9295 16C13.3995 16.53 12.6995 16.8 11.9995 16.8Z" fill="currentColor"></path>
  </symbol>
 <symbol fill="none" xmlns="http://www.w3.org/2000/svg" viewBox="0 0 30 30" id="arrow-slider2">
    <path d="M18.75 28.4375H11.25C4.4625 28.4375 1.5625 25.5375 1.5625 18.75V11.25C1.5625 4.4625 4.4625 1.5625 11.25 1.5625H18.75C25.5375 1.5625 28.4375 4.4625 28.4375 11.25V18.75C28.4375 25.5375 25.5375 28.4375 18.75 28.4375ZM11.25 3.4375C5.4875 3.4375 3.4375 5.4875 3.4375 11.25V18.75C3.4375 24.5125 5.4875 26.5625 11.25 26.5625H18.75C24.5125 26.5625 26.5625 24.5125 26.5625 18.75V11.25C26.5625 5.4875 24.5125 3.4375 18.75 3.4375H11.25Z" fill="currentColor"></path>
    <path d="M13.4246 20.35C13.1871 20.35 12.9496 20.2625 12.7621 20.075C12.3996 19.7125 12.3996 19.1125 12.7621 18.75L16.5121 15L12.7621 11.25C12.3996 10.8875 12.3996 10.2875 12.7621 9.925C13.1246 9.5625 13.7246 9.5625 14.0871 9.925L18.4996 14.3375C18.8621 14.7 18.8621 15.3 18.4996 15.6625L14.0871 20.075C13.8996 20.2625 13.6621 20.35 13.4246 20.35Z" fill="currentColor"></path>
  </symbol>
  <symbol fill="none" xmlns="http://www.w3.org/2000/svg" viewBox="0 0 7 11" id="arrow-slider3">
    <path d="M5.34688 10.6969C5.10938 10.6969 4.87187 10.6094 4.68437 10.4219L0.271875 6.00937C-0.090625 5.64687 -0.090625 5.04688 0.271875 4.68438L4.68437 0.271875C5.04687 -0.090625 5.64688 -0.090625 6.00938 0.271875C6.37188 0.634375 6.37188 1.23437 6.00938 1.59687L2.25938 5.34688L6.00938 9.09688C6.37188 9.45938 6.37188 10.0594 6.00938 10.4219C5.83438 10.6094 5.59688 10.6969 5.34688 10.6969Z" fill="currentColor"></path>
  </symbol>
  <symbol fill="none" xmlns="http://www.w3.org/2000/svg" viewBox="0 0 11 13" id="download">
    <path d="M11 4.58824H7.85714V0H3.14286V4.58824H0L5.5 9.94118L11 4.58824ZM0 11.4706V13H11V11.4706H0Z" fill="currentColor"></path>
  </symbol>
  <symbol fill="none" xmlns="http://www.w3.org/2000/svg" viewBox="0 0 40 40" id="wood-1">
    <path d="M20 0C16.0444 0 12.1776 1.17298 8.8886 3.37061C5.59962 5.56824 3.03617 8.69181 1.52242 12.3463C0.00866568 16.0009 -0.387401 20.0222 0.384303 23.9018C1.15601 27.7814 3.06082 31.3451 5.85787 34.1421C8.65492 36.9392 12.2186 38.844 16.0982 39.6157C19.9778 40.3874 23.9992 39.9913 27.6537 38.4776C31.3082 36.9638 34.4318 34.4004 36.6294 31.1114C38.827 27.8224 40 23.9556 40 20C39.9941 14.6975 37.8851 9.61383 34.1356 5.86438C30.3862 2.11493 25.3025 0.00589716 20 0ZM20 36C16.8355 36 13.7421 35.0616 11.1109 33.3035C8.4797 31.5454 6.42894 29.0466 5.21794 26.1229C4.00694 23.1993 3.69008 19.9823 4.30745 16.8786C4.92481 13.7749 6.44866 10.9239 8.6863 8.68629C10.9239 6.44865 13.7749 4.9248 16.8786 4.30744C19.9823 3.69007 23.1993 4.00693 26.1229 5.21793C29.0466 6.42893 31.5454 8.47969 33.3035 11.1109C35.0616 13.7421 36 16.8355 36 20C35.9952 24.242 34.3079 28.3088 31.3084 31.3083C28.3088 34.3079 24.242 35.9951 20 36ZM24.1963 15.2676L22 16.5361V10C22 9.46957 21.7893 8.96086 21.4142 8.58579C21.0392 8.21071 20.5304 8 20 8C19.4696 8 18.9609 8.21071 18.5858 8.58579C18.2107 8.96086 18 9.46957 18 10V20C18.0001 20.351 18.0926 20.6959 18.2681 20.9999C18.4437 21.3039 18.6961 21.5563 19.0001 21.7319C19.3041 21.9074 19.6489 21.9999 20 22C20.351 22.0001 20.6959 21.9078 21 21.7324L26.1963 18.7324C26.4239 18.6012 26.6235 18.4264 26.7836 18.218C26.9436 18.0096 27.0611 17.7717 27.1292 17.5179C27.1973 17.2641 27.2147 16.9994 27.1804 16.7388C27.1462 16.4783 27.061 16.2271 26.9296 15.9995C26.7982 15.7719 26.6233 15.5724 26.4148 15.4125C26.2064 15.2525 25.9684 15.1352 25.7146 15.0672C25.4608 14.9993 25.196 14.982 24.9355 15.0164C24.675 15.0507 24.4238 15.1361 24.1963 15.2676Z" fill="currentColor"></path>
  </symbol>
  <symbol fill="none" xmlns="http://www.w3.org/2000/svg" viewBox="0 0 36 40" id="wood-2">
    <path d="M30.7697 23.9856C34.2703 22.1831 35.3325 17.2864 35.3325 17.2864C35.3325 17.2864 30.7244 15.3062 27.2238 17.1152C25.7495 17.9594 24.5654 19.2301 23.8272 20.7601C23.9034 20.1028 23.9432 19.4417 23.9463 18.7799C26.1262 16.1251 27.2528 12.7609 27.1114 9.32874C26.4232 3.80262 20.4188 0 20.4188 0C20.4188 0 15.5355 5.16516 16.2302 10.6981C16.887 13.9027 18.6738 16.7645 21.2647 18.7615C21.2509 19.4367 21.2005 20.1106 21.1137 20.7803C20.3295 19.0303 18.9947 17.5847 17.3126 16.6638C13.7651 14.9589 9.21569 17.0699 9.21569 17.0699C9.21569 17.0699 10.4223 21.9332 13.9682 23.6382C16.0534 24.4605 18.3632 24.514 20.4844 23.7892C19.8547 25.877 18.8679 27.8398 17.5678 29.5905C16.6986 27.8636 15.2841 26.4716 13.5436 25.6301C9.91711 24.103 5.48681 26.4373 5.48681 26.4373C5.48681 26.4373 6.92835 31.2417 10.5599 32.7621C11.6615 33.1957 12.8503 33.3619 14.0286 33.2471C10.7014 35.8795 6.58295 37.3116 2.34033 37.3115C1.98382 37.3115 1.64191 37.4531 1.38981 37.7052C1.13772 37.9573 0.996094 38.2992 0.996094 38.6558C0.996094 39.0123 1.13772 39.3542 1.38981 39.6063C1.64191 39.8584 1.98382 40 2.34033 40C5.341 39.9973 8.30811 39.3686 11.052 38.1541C13.7959 36.9397 16.2563 35.1661 18.2759 32.9468C20.1297 34.5375 22.5059 35.3874 24.9481 35.3331C28.8683 34.9202 31.6288 30.7367 31.6288 30.7367C31.6288 30.7367 28.0428 27.231 24.1293 27.6505C23.1698 27.7654 22.2441 28.0755 21.4091 28.5618C22.1765 27.1183 22.7766 25.5919 23.1979 24.0123C25.6338 24.9644 28.3405 24.9549 30.7697 23.9856Z" fill="currentColor"></path>
  </symbol>
  <symbol fill="none" xmlns="http://www.w3.org/2000/svg" viewBox="0 0 38 41" id="wood-3">
    <path d="M13 12.5C13 6.99996 7.84 3.47996 7.62 3.33996C7.28927 3.11641 6.8992 2.99695 6.5 2.99695C6.1008 2.99695 5.71073 3.11641 5.38 3.33996C5.16 3.49996 0 6.99996 0 12.5C0 14.2239 0.684819 15.8772 1.90381 17.0962C3.12279 18.3151 4.77609 19 6.5 19C8.22391 19 9.87721 18.3151 11.0962 17.0962C12.3152 15.8772 13 14.2239 13 12.5ZM6.5 15C5.83696 15 5.20107 14.7366 4.73223 14.2677C4.26339 13.7989 4 13.163 4 12.5C4.16458 10.6037 5.0613 8.84615 6.5 7.59996C7.94728 8.83941 8.84591 10.6007 9 12.5C9 13.163 8.73661 13.7989 8.26777 14.2677C7.79893 14.7366 7.16304 15 6.5 15ZM18.62 17.34C18.2893 17.1164 17.8992 16.9969 17.5 16.9969C17.1008 16.9969 16.7107 17.1164 16.38 17.34C16.04 17.58 8 23.14 8 31.5C8 34.0195 9.00089 36.4359 10.7825 38.2175C12.5641 39.9991 14.9804 41 17.5 41C20.0196 41 22.4359 39.9991 24.2175 38.2175C25.9991 36.4359 27 34.0195 27 31.5C27 23 19 17.56 18.62 17.34ZM17.5 37C16.7777 37 16.0625 36.8577 15.3952 36.5813C14.728 36.3049 14.1216 35.8998 13.6109 35.389C13.1002 34.8783 12.6951 34.272 12.4187 33.6047C12.1423 32.9374 12 32.2222 12 31.5C12 26.88 15.62 23.16 17.52 21.5C19.4 23.08 23 26.76 23 31.5C23 32.2222 22.8577 32.9374 22.5813 33.6047C22.3049 34.272 21.8998 34.8783 21.3891 35.389C20.8784 35.8998 20.2721 36.3049 19.6048 36.5813C18.9375 36.8577 18.2223 37 17.5 37ZM31.12 1.33996C30.7893 1.11641 30.3992 0.996948 30 0.996948C29.6008 0.996948 29.2107 1.11641 28.88 1.33996C28.6 1.53996 22 6.09996 22 13C22 15.1217 22.8429 17.1565 24.3431 18.6568C25.8434 20.1571 27.8783 21 30 21C32.1217 21 34.1566 20.1571 35.6569 18.6568C37.1571 17.1565 38 15.1217 38 13C38 6.01996 31.4 1.51996 31.12 1.33996ZM30 17C28.9391 17 27.9217 16.5785 27.1716 15.8284C26.4214 15.0782 26 14.0608 26 13C26.1371 11.5558 26.5616 10.1536 27.2485 8.87593C27.9354 7.59823 28.8709 6.4708 30 5.55996C31.1333 6.46691 32.0717 7.59339 32.7591 8.87185C33.4464 10.1503 33.8685 11.5544 34 13C34 14.0608 33.5786 15.0782 32.8284 15.8284C32.0783 16.5785 31.0609 17 30 17Z" fill="currentColor"></path>
  </symbol>
  <symbol fill="none" xmlns="http://www.w3.org/2000/svg" viewBox="0 0 40 40" id="wood-4">
    <path d="M6 20C6 19.4696 5.78929 18.9609 5.41421 18.5858C5.03914 18.2107 4.53043 18 4 18H2C1.46957 18 0.960859 18.2107 0.585786 18.5858C0.210714 18.9609 0 19.4696 0 20C0 20.5304 0.210714 21.0391 0.585786 21.4142C0.960859 21.7893 1.46957 22 2 22H4C4.53043 22 5.03914 21.7893 5.41421 21.4142C5.78929 21.0391 6 20.5304 6 20ZM7.28 30L5.86 31.42C5.4875 31.7947 5.27841 32.3016 5.27841 32.83C5.27841 33.3584 5.4875 33.8653 5.86 34.24C6.23472 34.6125 6.74163 34.8216 7.27 34.8216C7.79837 34.8216 8.30527 34.6125 8.68 34.24L10.1 32.82C10.4277 32.4374 10.5989 31.9452 10.5794 31.4419C10.56 30.9385 10.3513 30.4611 9.99513 30.1049C9.63894 29.7487 9.16146 29.54 8.65811 29.5206C8.15475 29.5011 7.6626 29.6723 7.28 30ZM20 6C20.5304 6 21.0391 5.78929 21.4142 5.41421C21.7893 5.03914 22 4.53043 22 4V2C22 1.46957 21.7893 0.960859 21.4142 0.585786C21.0391 0.210714 20.5304 0 20 0C19.4696 0 18.9609 0.210714 18.5858 0.585786C18.2107 0.960859 18 1.46957 18 2V4C18 4.53043 18.2107 5.03914 18.5858 5.41421C18.9609 5.78929 19.4696 6 20 6ZM31.32 10.68C31.8447 10.6778 32.3475 10.4695 32.72 10.1L34.14 8.68C34.3494 8.50071 34.5194 8.28007 34.6395 8.03194C34.7595 7.78381 34.827 7.51355 34.8376 7.23811C34.8482 6.96267 34.8018 6.688 34.7013 6.43135C34.6007 6.1747 34.4482 5.94161 34.2533 5.7467C34.0584 5.55179 33.8253 5.39927 33.5686 5.29873C33.312 5.19818 33.0373 5.15176 32.7619 5.1624C32.4865 5.17304 32.2162 5.2405 31.9681 5.36055C31.7199 5.4806 31.4993 5.65064 31.32 5.86L30 7.28C29.6275 7.65472 29.4184 8.16163 29.4184 8.69C29.4184 9.21837 29.6275 9.72528 30 10.1C30.3526 10.4507 30.8232 10.6575 31.32 10.68ZM7.32 10.1C7.69252 10.4695 8.19532 10.6778 8.72 10.68C8.98321 10.6815 9.24414 10.6311 9.48781 10.5315C9.73149 10.432 9.95312 10.2854 10.14 10.1C10.5125 9.72528 10.7216 9.21837 10.7216 8.69C10.7216 8.16163 10.5125 7.65472 10.14 7.28L8.72 5.86C8.53484 5.67221 8.3145 5.52273 8.07156 5.42009C7.82863 5.31746 7.56786 5.26367 7.30414 5.26182C7.04042 5.25996 6.77892 5.31006 6.53457 5.40927C6.29021 5.50847 6.06779 5.65484 5.88 5.84C5.69221 6.02516 5.54273 6.2455 5.44009 6.48844C5.33746 6.73137 5.28367 6.99214 5.28182 7.25586C5.27807 7.78846 5.48604 8.30074 5.86 8.68L7.32 10.1ZM38 18H36C35.4696 18 34.9609 18.2107 34.5858 18.5858C34.2107 18.9609 34 19.4696 34 20C34 20.5304 34.2107 21.0391 34.5858 21.4142C34.9609 21.7893 35.4696 22 36 22H38C38.5304 22 39.0391 21.7893 39.4142 21.4142C39.7893 21.0391 40 20.5304 40 20C40 19.4696 39.7893 18.9609 39.4142 18.5858C39.0391 18.2107 38.5304 18 38 18ZM32.72 30C32.34 29.7886 31.9015 29.7069 31.4709 29.7671C31.0403 29.8273 30.641 30.0262 30.3336 30.3336C30.0262 30.641 29.8273 31.0403 29.7671 31.4709C29.7069 31.9015 29.7886 32.34 30 32.72L31.42 34.14C31.7947 34.5125 32.3016 34.7216 32.83 34.7216C33.3584 34.7216 33.8653 34.5125 34.24 34.14C34.6125 33.7653 34.8216 33.2584 34.8216 32.73C34.8216 32.2016 34.6125 31.6947 34.24 31.32L32.72 30ZM20 9C17.8244 9 15.6977 9.64514 13.8887 10.8538C12.0798 12.0625 10.6699 13.7805 9.83733 15.7905C9.00476 17.8005 8.78692 20.0122 9.21136 22.146C9.6358 24.2798 10.6834 26.2398 12.2218 27.7782C13.7602 29.3166 15.7202 30.3642 17.854 30.7886C19.9878 31.2131 22.1995 30.9952 24.2095 30.1627C26.2195 29.3301 27.9375 27.9202 29.1462 26.1113C30.3549 24.3023 31 22.1756 31 20C30.9947 17.0842 29.8341 14.2894 27.7723 12.2277C25.7106 10.1659 22.9158 9.00529 20 9ZM20 27C18.6155 27 17.2622 26.5895 16.111 25.8203C14.9599 25.0511 14.0627 23.9579 13.5328 22.6788C13.003 21.3997 12.8644 19.9922 13.1345 18.6344C13.4046 17.2765 14.0713 16.0292 15.0503 15.0503C16.0292 14.0713 17.2765 13.4046 18.6344 13.1345C19.9922 12.8644 21.3997 13.003 22.6788 13.5328C23.9579 14.0627 25.0511 14.9599 25.8203 16.111C26.5895 17.2622 27 18.6155 27 20C27 21.8565 26.2625 23.637 24.9497 24.9497C23.637 26.2625 21.8565 27 20 27ZM20 34C19.4696 34 18.9609 34.2107 18.5858 34.5858C18.2107 34.9609 18 35.4696 18 36V38C18 38.5304 18.2107 39.0391 18.5858 39.4142C18.9609 39.7893 19.4696 40 20 40C20.5304 40 21.0391 39.7893 21.4142 39.4142C21.7893 39.0391 22 38.5304 22 38V36C22 35.4696 21.7893 34.9609 21.4142 34.5858C21.0391 34.2107 20.5304 34 20 34Z" fill="currentColor"></path>
  </symbol>
  <symbol fill="none" xmlns="http://www.w3.org/2000/svg" viewBox="0 0 42 42" id="wood-5">
    <path d="M18.6804 7.76C19.449 7.21241 20.3865 6.95422 21.3271 7.03107C22.2677 7.10793 23.1508 7.51489 23.8204 8.18001C24.5715 8.92671 24.9959 9.94085 25.0004 11V17C25.0004 17.5304 25.2111 18.0391 25.5862 18.4142C25.9612 18.7893 26.4699 19 27.0004 19H29.0004C29.5308 19 30.0395 19.2107 30.4146 19.5858C30.7897 19.9609 31.0004 20.4696 31.0004 21V21.68C31.0004 22.2104 31.2111 22.7191 31.5862 23.0942C31.9612 23.4693 32.4699 23.68 33.0004 23.68C33.5308 23.68 34.0395 23.4693 34.4146 23.0942C34.7897 22.7191 35.0004 22.2104 35.0004 21.68V21C35.0004 19.4087 34.3682 17.8826 33.243 16.7574C32.1178 15.6321 30.5917 15 29.0004 15V11C29.0012 9.94912 28.795 8.90837 28.3935 7.93721C27.992 6.96605 27.403 6.08351 26.6604 5.34C25.2956 4.01464 23.5088 3.21054 21.6118 3.06798C19.7147 2.92543 17.8279 3.45348 16.2804 4.56C16.0703 4.71759 15.8932 4.91502 15.7594 5.14102C15.6256 5.36702 15.5376 5.61716 15.5005 5.87716C15.4633 6.13717 15.4778 6.40194 15.5429 6.65637C15.6081 6.91079 15.7228 7.14989 15.8804 7.36C16.038 7.57012 16.2354 7.74714 16.4614 7.88095C16.6874 8.01477 16.9375 8.10276 17.1975 8.1399C17.4575 8.17705 17.7223 8.16262 17.9767 8.09743C18.2312 8.03225 18.4703 7.91759 18.6804 7.76ZM40.4204 37.58L4.42037 1.58C4.04376 1.2034 3.53297 0.991821 3.00037 0.991821C2.46777 0.991821 1.95698 1.2034 1.58037 1.58C1.20376 1.95661 0.992188 2.4674 0.992188 3C0.992187 3.53261 1.20376 4.0434 1.58037 4.42L12.2404 15C10.7842 15.1859 9.44664 15.8992 8.48099 17.0049C7.51533 18.1107 6.98855 19.532 7.00037 21V33C7.00037 34.5913 7.63251 36.1174 8.75773 37.2426C9.88295 38.3679 11.4091 39 13.0004 39H29.0004C29.9285 38.9969 30.8432 38.7785 31.6726 38.3621C32.502 37.9457 33.2235 37.3425 33.7804 36.6L37.5804 40.42C37.7663 40.6075 37.9875 40.7563 38.2312 40.8578C38.4749 40.9593 38.7363 41.0116 39.0004 41.0116C39.2644 41.0116 39.5258 40.9593 39.7695 40.8578C40.0132 40.7563 40.2344 40.6075 40.4204 40.42C40.6078 40.2341 40.7566 40.0129 40.8582 39.7692C40.9597 39.5254 41.012 39.264 41.012 39C41.012 38.736 40.9597 38.4746 40.8582 38.2309C40.7566 37.9871 40.6078 37.7659 40.4204 37.58ZM29.0004 35H13.0004C12.4699 35 11.9612 34.7893 11.5862 34.4142C11.2111 34.0391 11.0004 33.5304 11.0004 33V21C11.0004 20.4696 11.2111 19.9609 11.5862 19.5858C11.9612 19.2107 12.4699 19 13.0004 19H16.1804L20.3204 23.14C19.937 23.2786 19.6052 23.531 19.3692 23.8634C19.1333 24.1958 19.0046 24.5924 19.0004 25V29C19.0004 29.5304 19.2111 30.0391 19.5862 30.4142C19.9612 30.7893 20.4699 31 21.0004 31C21.5308 31 22.0395 30.7893 22.4146 30.4142C22.7897 30.0391 23.0004 29.5304 23.0004 29V25.82L30.8604 33.68C30.7218 34.0634 30.4694 34.3952 30.137 34.6311C29.8046 34.867 29.408 34.9957 29.0004 35Z" fill="currentColor"></path>
  </symbol>
  <symbol fill="none" xmlns="http://www.w3.org/2000/svg" viewBox="0 0 44 44" id="wood-6">
    <path d="M20 16H28C28.5304 16 29.0392 15.7893 29.4142 15.4142C29.7893 15.0391 30 14.5304 30 14C30 13.4696 29.7893 12.9609 29.4142 12.5858C29.0392 12.2107 28.5304 12 28 12H24V10C24 9.46957 23.7893 8.96086 23.4142 8.58579C23.0392 8.21071 22.5304 8 22 8C21.4696 8 20.9609 8.21071 20.5858 8.58579C20.2107 8.96086 20 9.46957 20 10V12C18.4087 12 16.8826 12.6321 15.7574 13.7574C14.6321 14.8826 14 16.4087 14 18C14 19.5913 14.6321 21.1174 15.7574 22.2426C16.8826 23.3679 18.4087 24 20 24H24C24.5304 24 25.0392 24.2107 25.4142 24.5858C25.7893 24.9609 26 25.4696 26 26C26 26.5304 25.7893 27.0391 25.4142 27.4142C25.0392 27.7893 24.5304 28 24 28H16C15.4696 28 14.9609 28.2107 14.5858 28.5858C14.2107 28.9609 14 29.4696 14 30C14 30.5304 14.2107 31.0391 14.5858 31.4142C14.9609 31.7893 15.4696 32 16 32H20V34C20 34.5304 20.2107 35.0391 20.5858 35.4142C20.9609 35.7893 21.4696 36 22 36C22.5304 36 23.0392 35.7893 23.4142 35.4142C23.7893 35.0391 24 34.5304 24 34V32C25.5913 32 27.1174 31.3679 28.2427 30.2426C29.3679 29.1174 30 27.5913 30 26C30 24.4087 29.3679 22.8826 28.2427 21.7574C27.1174 20.6321 25.5913 20 24 20H20C19.4696 20 18.9609 19.7893 18.5858 19.4142C18.2107 19.0391 18 18.5304 18 18C18 17.4696 18.2107 16.9609 18.5858 16.5858C18.9609 16.2107 19.4696 16 20 16ZM22 0C17.6488 0 13.3953 1.29028 9.77746 3.70767C6.15958 6.12506 3.33979 9.56099 1.67466 13.581C0.00953233 17.6009 -0.426141 22.0244 0.422734 26.292C1.27161 30.5596 3.36691 34.4796 6.44366 37.5564C9.52042 40.6331 13.4404 42.7284 17.708 43.5773C21.9756 44.4261 26.3991 43.9905 30.419 42.3253C34.439 40.6602 37.875 37.8404 40.2923 34.2225C42.7097 30.6047 44 26.3512 44 22C44 16.1652 41.6822 10.5695 37.5564 6.44365C33.4306 2.31785 27.8348 0 22 0ZM22 40C18.4399 40 14.9598 38.9443 11.9997 36.9665C9.03966 34.9886 6.73256 32.1774 5.37018 28.8883C4.0078 25.5992 3.65134 21.98 4.34587 18.4884C5.04041 14.9967 6.75474 11.7894 9.27209 9.27208C11.7894 6.75473 14.9967 5.0404 18.4884 4.34586C21.98 3.65133 25.5992 4.00779 28.8883 5.37017C32.1774 6.73255 34.9886 9.03965 36.9665 11.9997C38.9443 14.9598 40 18.4399 40 22C40 26.7739 38.1036 31.3523 34.7279 34.7279C31.3523 38.1036 26.7739 40 22 40Z" fill="currentColor"></path>
  </symbol>
  <symbol fill="none" xmlns="http://www.w3.org/2000/svg" viewBox="0 0 41 41" id="wood-7">
    <path d="M10.9824 25.0041C10.7198 25.004 10.4597 25.0557 10.217 25.1562C9.9743 25.2566 9.7538 25.404 9.56807 25.5897C9.38234 25.7754 9.23502 25.9959 9.13453 26.2386C9.03405 26.4813 8.98237 26.7414 8.98243 27.0041V30.5686C6.40453 27.6532 4.98184 23.8957 4.98243 20.0041C4.98206 19.4159 5.01728 18.8282 5.08789 18.2443C5.12027 17.9832 5.1008 17.7182 5.03061 17.4646C4.96041 17.2111 4.84086 16.9738 4.67881 16.7665C4.51675 16.5592 4.31539 16.386 4.08625 16.2566C3.85711 16.1273 3.6047 16.0444 3.34348 16.0128C3.08227 15.9812 2.81739 16.0015 2.56401 16.0724C2.31064 16.1434 2.07375 16.2636 1.86694 16.4263C1.66012 16.589 1.48744 16.7908 1.35878 17.0204C1.23013 17.2499 1.14803 17.5025 1.11719 17.7638C1.0266 18.5071 0.981596 19.2553 0.982433 20.0041C0.985151 24.7764 2.70035 29.3893 5.81617 33.0041H2.98243C2.452 33.0041 1.94329 33.2148 1.56822 33.5898C1.19315 33.9649 0.982433 34.4736 0.982433 35.0041C0.982433 35.5345 1.19315 36.0432 1.56822 36.4183C1.94329 36.7933 2.452 37.0041 2.98243 37.0041H10.9824C11.2952 37.0001 11.6026 36.9215 11.8788 36.7748C12.1551 36.628 12.3923 36.4174 12.5707 36.1604C12.594 36.1297 12.6238 36.1068 12.6455 36.0744C12.6588 36.0545 12.6592 36.031 12.6716 36.0107C12.7669 35.8497 12.8384 35.6757 12.8836 35.4941C12.9132 35.3921 12.9343 35.2878 12.9465 35.1823C12.9522 35.1206 12.9825 35.0674 12.9825 35.0041V27.0041C12.9826 26.7414 12.9309 26.4813 12.8304 26.2386C12.7299 25.9959 12.5826 25.7754 12.3969 25.5897C12.2111 25.4039 11.9906 25.2566 11.7479 25.1561C11.5052 25.0557 11.2451 25.004 10.9824 25.0041ZM13.9824 8.00405H10.4175C13.3331 5.42627 17.0907 4.00361 20.9824 4.00405C21.5703 4.00264 22.1577 4.03787 22.7412 4.10953C23.0021 4.14121 23.2666 4.1212 23.5197 4.05064C23.7728 3.98008 24.0096 3.86036 24.2164 3.69831C24.4233 3.53626 24.5962 3.33506 24.7252 3.10619C24.8543 2.87732 24.9371 2.62526 24.9688 2.36441C25.0004 2.10357 24.9804 1.83903 24.9099 1.58592C24.8393 1.3328 24.7196 1.09606 24.5575 0.889218C24.3955 0.682372 24.1943 0.509469 23.9654 0.380381C23.7365 0.251294 23.4845 0.16855 23.2236 0.136874C22.48 0.0471558 21.7315 0.00280074 20.9824 0.00405416C16.2102 0.00664839 11.5973 1.72172 7.98243 4.83743V2.00405C7.98243 1.47362 7.77172 0.964913 7.39665 0.58984C7.02157 0.214768 6.51287 0.00405416 5.98243 0.00405416C5.452 0.00405416 4.94329 0.214768 4.56822 0.58984C4.19315 0.964913 3.98243 1.47362 3.98243 2.00405V10.0041C3.99501 10.1362 4.02136 10.2668 4.06105 10.3935L4.06153 10.3959C4.1101 10.642 4.20599 10.8764 4.34387 11.0859L4.36671 11.1197C4.49887 11.3119 4.6645 11.4788 4.85571 11.6124C4.87757 11.6284 4.88843 11.6529 4.91113 11.6682C4.93971 11.6871 4.97205 11.6931 5.00123 11.7104C5.11466 11.7786 5.23485 11.835 5.35987 11.8784C5.52884 11.9372 5.70501 11.9728 5.88355 11.9841C5.91821 11.986 5.94739 12.0041 5.98243 12.0041H13.9824C14.5129 12.0041 15.0216 11.7934 15.3966 11.4183C15.7717 11.0433 15.9824 10.5345 15.9824 10.0041C15.9824 9.47368 15.7717 8.96497 15.3966 8.5899C15.0216 8.21483 14.5129 8.00411 13.9824 8.00411V8.00405ZM37.9033 29.6122C37.8548 29.366 37.7589 29.1316 37.6209 28.9221L37.5983 28.8885C37.466 28.6962 37.3003 28.5292 37.1089 28.3956C37.0871 28.3797 37.0763 28.355 37.0537 28.3399C37.0321 28.3256 37.0065 28.3251 36.9845 28.3117C36.7308 28.1707 36.4528 28.0788 36.1651 28.0408C36.1018 28.0348 36.0473 28.004 35.9824 28.004H27.9824C27.452 28.004 26.9433 28.2147 26.5682 28.5897C26.1931 28.9648 25.9824 29.4735 25.9824 30.004C25.9824 30.5344 26.1931 31.0431 26.5682 31.4182C26.9433 31.7932 27.452 32.004 27.9824 32.004H31.5473C28.6317 34.5818 24.8742 36.0044 20.9824 36.004C20.3945 36.0047 19.8071 35.9688 19.2236 35.8965C18.6968 35.8326 18.1662 35.9805 17.7484 36.3078C17.3307 36.635 17.0601 37.1148 16.9961 37.6417C16.9321 38.1685 17.08 38.6991 17.4073 39.1168C17.7346 39.5346 18.2144 39.8052 18.7412 39.8692C19.4849 39.9589 20.2333 40.0039 20.9824 40.004C25.7547 40.0014 30.3676 38.2863 33.9824 35.1706V38.0041C33.9824 38.5345 34.1931 39.0432 34.5682 39.4183C34.9433 39.7933 35.452 40.0041 35.9824 40.0041C36.5129 40.0041 37.0216 39.7933 37.3966 39.4183C37.7717 39.0432 37.9824 38.5345 37.9824 38.0041V30.0041C37.9699 29.8719 37.9435 29.7414 37.9038 29.6147L37.9033 29.6122ZM38.9824 7.00405C39.5129 7.00405 40.0216 6.79334 40.3966 6.41827C40.7717 6.04319 40.9824 5.53449 40.9824 5.00405C40.9824 4.47362 40.7717 3.96491 40.3966 3.58984C40.0216 3.21477 39.5129 3.00405 38.9824 3.00405H30.9824C30.8522 3.0166 30.7237 3.04254 30.5988 3.08145L30.5855 3.08413C30.3426 3.13272 30.1113 3.22746 29.9041 3.36319L29.8649 3.38967C29.6736 3.52163 29.5074 3.68675 29.3743 3.87723C29.3585 3.89883 29.3343 3.90945 29.3194 3.93179C29.3051 3.95327 29.3046 3.97867 29.2912 4.00051C29.1484 4.2557 29.0558 4.53585 29.0184 4.82583C29.0127 4.88761 28.9824 4.94083 28.9824 5.00405V13.0041C28.9824 13.5345 29.1931 14.0432 29.5682 14.4183C29.9433 14.7933 30.452 15.0041 30.9824 15.0041C31.5129 15.0041 32.0216 14.7933 32.3966 14.4183C32.7717 14.0432 32.9824 13.5345 32.9824 13.0041V9.43829C35.5601 12.3542 36.9828 16.112 36.9824 20.004C36.9828 20.5921 36.9476 21.1798 36.877 21.7637C36.8136 22.2902 36.9616 22.8203 37.2886 23.2377C37.6156 23.6551 38.0948 23.9258 38.6211 23.9903C38.7022 23.9997 38.7837 24.0042 38.8653 24.004C39.3536 24.0033 39.8248 23.824 40.19 23.4998C40.5552 23.1756 40.7891 22.729 40.8477 22.2442C40.9383 21.5009 40.9833 20.7528 40.9824 20.0041C40.9797 15.2317 39.2644 10.6188 36.1484 7.00405H38.9824Z" fill="currentColor"></path>
  </symbol>
  <symbol fill="none" xmlns="http://www.w3.org/2000/svg" viewBox="0 0 41 40" id="wood-8">
    <path d="M14.0003 34C13.4698 34 12.9611 34.2107 12.586 34.5858C12.211 34.9609 12.0003 35.4696 12.0003 36V38C12.0003 38.5304 12.211 39.0391 12.586 39.4142C12.9611 39.7893 13.4698 40 14.0003 40C14.5307 40 15.0394 39.7893 15.4145 39.4142C15.7895 39.0391 16.0003 38.5304 16.0003 38V36C16.0003 35.4696 15.7895 34.9609 15.4145 34.5858C15.0394 34.2107 14.5307 34 14.0003 34ZM14.0003 24C13.4698 24 12.9611 24.2107 12.586 24.5858C12.211 24.9609 12.0003 25.4696 12.0003 26V28C12.0003 28.5304 12.211 29.0391 12.586 29.4142C12.9611 29.7893 13.4698 30 14.0003 30C14.5307 30 15.0394 29.7893 15.4145 29.4142C15.7895 29.0391 16.0003 28.5304 16.0003 28V26C16.0003 25.4696 15.7895 24.9609 15.4145 24.5858C15.0394 24.2107 14.5307 24 14.0003 24ZM39.0003 10H37.4003C37.1935 9.10258 36.8422 8.24474 36.3603 7.46L37.4803 6.34C37.8079 5.9574 37.9791 5.46525 37.9597 4.96189C37.9402 4.45854 37.7316 3.98106 37.3754 3.62487C37.0192 3.26868 36.5417 3.06002 36.0384 3.04058C35.535 3.02114 35.0429 3.19235 34.6603 3.52L33.5403 4.64C32.7555 4.15802 31.8977 3.80678 31.0003 3.6V2C31.0003 1.46957 30.7895 0.960859 30.4145 0.585786C30.0394 0.210714 29.5307 0 29.0003 0C28.4698 0 27.9611 0.210714 27.586 0.585786C27.211 0.960859 27.0003 1.46957 27.0003 2V3.6C26.1081 3.80363 25.2563 4.15515 24.4803 4.64L23.3403 3.52C22.9577 3.19235 22.4655 3.02114 21.9621 3.04058C21.4588 3.06002 20.9813 3.26868 20.6251 3.62487C20.2689 3.98106 20.0603 4.45854 20.0408 4.96189C20.0214 5.46525 20.1926 5.9574 20.5203 6.34L21.6403 7.48C21.4603 7.78 21.3203 8.12 21.1603 8.44C20.132 8.14973 19.0687 8.00169 18.0003 8C15.118 7.99836 12.3314 9.0342 10.15 10.9181C7.96862 12.802 6.53819 15.4082 6.12026 18.26C4.72752 18.6478 3.48904 19.4574 2.57492 20.5774C1.66081 21.6975 1.11592 23.0731 1.01509 24.5153C0.914272 25.9575 1.26247 27.3955 2.01185 28.6318C2.76123 29.8682 3.87503 30.8422 5.20026 31.42C5.45513 31.521 5.72614 31.5752 6.00026 31.58C6.46265 31.5838 6.91206 31.4272 7.27201 31.1369C7.63197 30.8467 7.88023 30.4407 7.97454 29.988C8.06885 29.5353 8.00338 29.0639 7.78928 28.6541C7.57519 28.2442 7.22569 27.9212 6.80026 27.74C6.26365 27.5114 5.80652 27.1294 5.48628 26.642C5.16604 26.1545 4.99696 25.5832 5.00026 25C5.00026 24.2044 5.31633 23.4413 5.87893 22.8787C6.44154 22.3161 7.20461 22 8.00026 22C8.53069 22 9.0394 21.7893 9.41447 21.4142C9.78954 21.0391 10.0003 20.5304 10.0003 20C10.0088 18.1114 10.6853 16.2867 11.9099 14.8489C13.1346 13.4112 14.8284 12.453 16.6916 12.1441C18.5548 11.8351 20.4672 12.1953 22.0903 13.1609C23.7134 14.1265 24.9426 15.6352 25.5603 17.42C25.6746 17.7637 25.8801 18.0699 26.1548 18.3059C26.4296 18.5419 26.7633 18.6988 27.1203 18.76C28.0492 18.8976 28.9145 19.3138 29.6019 19.9536C30.2893 20.5934 30.7663 21.4267 30.97 22.3434C31.1737 23.2601 31.0945 24.217 30.7428 25.0877C30.3911 25.9584 29.7835 26.702 29.0003 27.22C28.7796 27.3645 28.5896 27.5509 28.4411 27.7688C28.2925 27.9867 28.1884 28.2317 28.1345 28.4899C28.0806 28.748 28.0782 29.0143 28.1272 29.2734C28.1762 29.5325 28.2758 29.7794 28.4203 30C28.5647 30.2206 28.7512 30.4106 28.9691 30.5592C29.187 30.7077 29.432 30.8119 29.6901 30.8658C29.9483 30.9196 30.2145 30.9221 30.4736 30.8731C30.7327 30.824 30.9796 30.7245 31.2003 30.58C32.3797 29.7782 33.3434 28.6982 34.0062 27.4355C34.6689 26.1727 35.0104 24.7661 35.0003 23.34C34.9985 22.278 34.7949 21.226 34.4003 20.24L34.6603 20.48C35.0328 20.8495 35.5356 21.0578 36.0603 21.06C36.3235 21.0615 36.5844 21.0111 36.8281 20.9115C37.0717 20.812 37.2934 20.6654 37.4803 20.48C37.8528 20.1053 38.0618 19.5984 38.0618 19.07C38.0618 18.5416 37.8528 18.0347 37.4803 17.66L36.3603 16.54C36.8422 15.7553 37.1935 14.8974 37.4003 14H39.0003C39.5307 14 40.0394 13.7893 40.4145 13.4142C40.7895 13.0391 41.0003 12.5304 41.0003 12C41.0003 11.4696 40.7895 10.9609 40.4145 10.5858C40.0394 10.2107 39.5307 10 39.0003 10ZM32.3203 15.3C31.9728 15.6484 31.5666 15.9328 31.1203 16.14C30.4677 15.6875 29.7538 15.3306 29.0003 15.08C28.0814 13.0735 26.6371 11.3528 24.8203 10.1C25.0432 9.58341 25.3545 9.10964 25.7403 8.7C26.6384 7.86928 27.8168 7.40786 29.0403 7.40786C30.2637 7.40786 31.4421 7.86928 32.3403 8.7C33.198 9.58439 33.6777 10.768 33.6777 12C33.6777 13.232 33.198 14.4156 32.3403 15.3H32.3203ZM22.0003 32C21.4698 32 20.9611 32.2107 20.586 32.5858C20.211 32.9609 20.0003 33.4696 20.0003 34V36C20.0003 36.5304 20.211 37.0391 20.586 37.4142C20.9611 37.7893 21.4698 38 22.0003 38C22.5307 38 23.0394 37.7893 23.4145 37.4142C23.7895 37.0391 24.0003 36.5304 24.0003 36V34C24.0003 33.4696 23.7895 32.9609 23.4145 32.5858C23.0394 32.2107 22.5307 32 22.0003 32ZM22.0003 22C21.4698 22 20.9611 22.2107 20.586 22.5858C20.211 22.9609 20.0003 23.4696 20.0003 24V26C20.0003 26.5304 20.211 27.0391 20.586 27.4142C20.9611 27.7893 21.4698 28 22.0003 28C22.5307 28 23.0394 27.7893 23.4145 27.4142C23.7895 27.0391 24.0003 26.5304 24.0003 26V24C24.0003 23.4696 23.7895 22.9609 23.4145 22.5858C23.0394 22.2107 22.5307 22 22.0003 22Z" fill="currentColor"></path>
  </symbol>
  <symbol fill="none" xmlns="http://www.w3.org/2000/svg" viewBox="0 0 49 49" id="youtube">
<path fill-rule="evenodd" clip-rule="evenodd" d="M24 0C10.7452 0 0 10.7452 0 24C0 37.2548 10.7452 48 24 48C37.2548 48 48 37.2548 48 24C48 10.7452 37.2548 0 24 0ZM34.0016 15.7493C35.1031 16.0516 35.9706 16.9422 36.265 18.0732C36.8 20.123 36.8 24.4 36.8 24.4C36.8 24.4 36.8 28.6768 36.265 30.7268C35.9706 31.8578 35.1031 32.7484 34.0016 33.0508C32.0054 33.6 24 33.6 24 33.6C24 33.6 15.9946 33.6 13.9983 33.0508C12.8967 32.7484 12.0292 31.8578 11.7348 30.7268C11.2 28.6768 11.2 24.4 11.2 24.4C11.2 24.4 11.2 20.123 11.7348 18.0732C12.0292 16.9422 12.8967 16.0516 13.9983 15.7493C15.9946 15.2 24 15.2 24 15.2C24 15.2 32.0054 15.2 34.0016 15.7493Z" fill="#49945A"/>
<path d="M21.6 28.8V20.8L28 24.8002L21.6 28.8Z" fill="#49945A"/>  </symbol>
</svg>