<svg xmlns="http://www.w3.org/2000/svg" width="235" height="235" viewBox="0 0 235 235" fill="none">
<circle cx="117.5" cy="117.5" r="116.5" stroke="url(#paint0_linear)" stroke-width="2"/>
<path d="M111.692 137.708C111.145 137.709 110.603 137.602 110.098 137.393C109.592 137.184 109.133 136.878 108.746 136.491L91.071 118.812C90.6728 118.428 90.355 117.968 90.1363 117.46C89.9176 116.952 89.8023 116.405 89.7971 115.852C89.7919 115.299 89.8969 114.75 90.106 114.238C90.3152 113.726 90.6242 113.26 91.0152 112.869C91.4061 112.477 91.8711 112.168 92.383 111.958C92.8949 111.748 93.4435 111.642 93.9968 111.646C94.55 111.651 95.0968 111.765 95.6053 111.983C96.1138 112.201 96.5738 112.518 96.9585 112.916L111.688 127.645L138.208 101.133C138.99 100.351 140.05 99.9115 141.155 99.9111C142.26 99.9107 143.32 100.349 144.102 101.131C144.884 101.912 145.324 102.972 145.324 104.077C145.324 105.182 144.886 106.243 144.104 107.024L114.638 136.491C114.251 136.878 113.792 137.184 113.286 137.393C112.781 137.602 112.239 137.709 111.692 137.708Z" fill="url(#paint1_linear)"/>
<defs>
<linearGradient id="paint0_linear" x1="-96.589" y1="5.69888e-05" x2="337.046" y2="25.7546" gradientUnits="userSpaceOnUse">
<stop stop-color="#4EA64B"/>
<stop offset="1" stop-color="#4EA64B"/>
</linearGradient>
<linearGradient id="paint1_linear" x1="66.9743" y1="99.9111" x2="169.02" y2="108.815" gradientUnits="userSpaceOnUse">
<stop stop-color="#4EA64B"/>
<stop offset="1" stop-color="#4EA64B"/>
</linearGradient>
</defs>
</svg>