<svg width="23" height="23" viewBox="0 0 23 23" fill="none" xmlns="http://www.w3.org/2000/svg">
<path fill-rule="evenodd" clip-rule="evenodd" d="M23 11.5C23 17.8513 17.8513 23 11.5 23C5.14873 23 0 17.8513 0 11.5C0 5.14873 5.14873 0 11.5 0C17.8513 0 23 5.14873 23 11.5ZM7.70095 10.4465C6.54895 10.9495 5.36527 11.4663 4.28291 12.0625L4.28284 12.0626C3.71767 12.4764 4.46889 12.7691 5.17359 13.0436C5.28562 13.0873 5.39648 13.1305 5.50069 13.1736C5.5874 13.2003 5.67558 13.2284 5.76494 13.2568C6.5487 13.5065 7.42265 13.785 8.18354 13.3661C9.43348 12.6481 10.6131 11.818 11.7917 10.9885C12.1779 10.7167 12.564 10.445 12.9524 10.1774C12.9706 10.1657 12.9911 10.1524 13.0136 10.1379C13.3445 9.92336 14.0886 9.44098 13.8134 10.1057C13.1624 10.8175 12.4652 11.4476 11.7642 12.0812C11.2918 12.5082 10.8176 12.9368 10.3548 13.3929C9.9516 13.7205 9.53299 14.3792 9.98441 14.8379C11.0241 15.5658 12.0801 16.276 13.1355 16.9859C13.479 17.2168 13.8223 17.4478 14.165 17.6793C14.7459 18.143 15.6537 17.7679 15.7814 17.0432C15.8382 16.7099 15.8952 16.3765 15.9522 16.0432C16.2673 14.2009 16.5825 12.358 16.8609 10.5098C16.8988 10.2199 16.9417 9.92997 16.9846 9.63992C17.0886 8.93693 17.1928 8.23308 17.2253 7.52631C17.1414 6.821 16.2863 6.97608 15.8103 7.13468C13.3641 8.06551 10.9423 9.06533 8.53005 10.0828C8.2568 10.2039 7.9798 10.3248 7.70095 10.4465Z" fill="#219653"/>
</svg>
