<svg width="24" height="24" viewBox="0 0 24 24" fill="none" xmlns="http://www.w3.org/2000/svg">
<path fill-rule="evenodd" clip-rule="evenodd" d="M15.9824 0.952087H8.92169C2.47779 0.952087 0.952037 2.47785 0.952037 8.92174V15.9824C0.952037 22.4263 2.47779 23.9521 8.92169 23.9521H15.9824C22.4263 23.9521 23.952 22.4263 23.952 15.9824V8.92174C23.952 2.47785 22.4263 0.952087 15.9824 0.952087ZM19.2774 8.25625C19.7806 8.25625 19.8942 8.51595 19.7806 8.87304C19.6032 9.69143 18.1307 11.8623 17.6746 12.5347C17.588 12.6625 17.538 12.7361 17.5406 12.7361C17.3621 13.0283 17.2971 13.1582 17.5406 13.4828C17.6286 13.6028 17.8153 13.7859 18.0286 13.9952C18.2479 14.2105 18.4955 14.4535 18.6931 14.6839C19.4072 15.4955 19.9591 16.1772 20.1052 16.6479C20.235 17.1186 20.0078 17.3621 19.5209 17.3621H17.849C17.406 17.3621 17.1776 17.1077 16.6909 16.5654C16.4822 16.3329 16.226 16.0475 15.885 15.7065C14.8949 14.7488 14.4566 14.619 14.2132 14.619C13.8723 14.619 13.7749 14.7001 13.7749 15.1871V16.6966C13.7749 17.1024 13.6451 17.3459 12.5738 17.3459C10.8046 17.3459 8.84055 16.2746 7.46087 14.2781C5.38324 11.3565 4.81514 9.14898 4.81514 8.71073C4.81514 8.46726 4.8963 8.24002 5.38324 8.24002H7.07132C7.49334 8.24002 7.65565 8.41856 7.81796 8.88928C8.64577 11.2753 10.0254 13.3692 10.5935 13.3692C10.8046 13.3692 10.9019 13.2718 10.9019 12.7361V10.269C10.8619 9.56768 10.6178 9.26214 10.4367 9.03557C10.3245 8.89505 10.2365 8.78491 10.2365 8.62957C10.2365 8.43479 10.3988 8.24002 10.6585 8.24002H13.288C13.6451 8.24002 13.7749 8.4348 13.7749 8.85681V12.1843C13.7749 12.5414 13.921 12.6712 14.0346 12.6712C14.2456 12.6712 14.4242 12.5414 14.8137 12.1518C16.0149 10.8046 16.8751 8.72696 16.8751 8.72696C16.9887 8.48349 17.1835 8.25625 17.6055 8.25625H19.2774Z" fill="#219653"/>
</svg>
