<svg width="23" height="23" viewBox="0 0 23 23" fill="none" xmlns="http://www.w3.org/2000/svg">
<path fill-rule="evenodd" clip-rule="evenodd" d="M0 11.5C0 17.8513 5.14873 23 11.5 23C17.8513 23 23 17.8513 23 11.5C23 5.14873 17.8513 0 11.5 0C5.14873 0 0 5.14873 0 11.5ZM18.7173 11.0599C18.7158 14.8294 15.6493 17.8965 11.8791 17.8981H11.8762C10.7318 17.8977 9.60719 17.6105 8.60839 17.0657L4.98333 18.0167L5.95346 14.4731C5.35504 13.4361 5.04015 12.2597 5.04066 11.0545C5.04216 7.28414 8.10981 4.21666 11.879 4.21666C13.7083 4.21745 15.4252 4.9296 16.7163 6.22217C18.0074 7.51468 18.718 9.23274 18.7173 11.0599Z" fill="#F2F2F2"/>
<path fill-rule="evenodd" clip-rule="evenodd" d="M6.62521 16.392L8.77637 15.8277L8.98392 15.9509C9.85657 16.4687 10.8569 16.7427 11.8768 16.7431H11.8791C15.0118 16.7431 17.5614 14.1934 17.5627 11.0594C17.5633 9.5407 16.9727 8.11273 15.8996 7.03839C14.8265 5.96405 13.3994 5.37211 11.8813 5.37158C8.74621 5.37158 6.1965 7.92107 6.19525 11.0548C6.19481 12.1288 6.4953 13.1747 7.06425 14.0796L7.19939 14.2946L6.62521 16.392ZM15.0901 12.5321C15.2093 12.5897 15.2898 12.6286 15.3242 12.6859C15.3669 12.7572 15.3669 13.0993 15.2245 13.4984C15.0821 13.8976 14.3995 14.2618 14.0712 14.3109C13.7768 14.3549 13.4043 14.3732 12.995 14.2432C12.7468 14.1644 12.4286 14.0593 12.0209 13.8832C10.4191 13.1916 9.33661 11.6391 9.13202 11.3456C9.11769 11.3251 9.10766 11.3107 9.10207 11.3032L9.10069 11.3014C9.01027 11.1808 8.40438 10.3724 8.40438 9.5357C8.40438 8.74866 8.79099 8.33612 8.96895 8.14623C8.98114 8.13322 8.99236 8.12126 9.0024 8.11029C9.15901 7.93923 9.34414 7.89646 9.45804 7.89646C9.57193 7.89646 9.68596 7.89752 9.78552 7.90252C9.7978 7.90313 9.81058 7.90306 9.82379 7.90298C9.92336 7.9024 10.0475 7.90167 10.17 8.19582C10.2171 8.30902 10.286 8.47685 10.3587 8.65385C10.5057 9.0118 10.6682 9.40728 10.6968 9.46451C10.7395 9.55005 10.768 9.64979 10.711 9.76387C10.7025 9.78098 10.6945 9.79712 10.687 9.81255C10.6442 9.89988 10.6127 9.96412 10.5401 10.0489C10.5116 10.0822 10.4821 10.1182 10.4526 10.1541C10.3938 10.2257 10.335 10.2973 10.2838 10.3482C10.1983 10.4335 10.1093 10.5259 10.2089 10.697C10.3086 10.868 10.6515 11.4275 11.1595 11.8806C11.7055 12.3676 12.1801 12.5735 12.4206 12.6778C12.4676 12.6982 12.5056 12.7147 12.5335 12.7287C12.7043 12.8142 12.804 12.7999 12.9037 12.6859C13.0034 12.5719 13.3308 12.187 13.4447 12.0159C13.5586 11.8449 13.6725 11.8734 13.8291 11.9304C13.9858 11.9875 14.8258 12.4008 14.9967 12.4863C15.0301 12.503 15.0612 12.5181 15.0901 12.5321Z" fill="#F2F2F2"/>
</svg>
