<svg width="23" height="23" viewBox="0 0 23 23" fill="none" xmlns="http://www.w3.org/2000/svg">
<path fill-rule="evenodd" clip-rule="evenodd" d="M0 11.5C0 17.8513 5.14873 23 11.5 23C17.8513 23 23 17.8513 23 11.5C23 5.14873 17.8513 0 11.5 0C5.14873 0 0 5.14873 0 11.5ZM18.7173 11.0599C18.7158 14.8294 15.6493 17.8965 11.8791 17.8981H11.8762C10.7318 17.8977 9.6072 17.6105 8.6084 17.0657L4.98333 18.0167L5.95346 14.4732C5.35504 13.4361 5.04015 12.2597 5.04067 11.0545C5.04217 7.28414 8.10981 4.21667 11.879 4.21667C13.7083 4.21746 15.4252 4.9296 16.7163 6.22218C18.0074 7.51468 18.718 9.23274 18.7173 11.0599Z" fill="#219653"/>
<path fill-rule="evenodd" clip-rule="evenodd" d="M6.62519 16.392L8.77635 15.8278L8.9839 15.9509C9.85655 16.4688 10.8569 16.7428 11.8768 16.7432H11.8791C15.0117 16.7432 17.5614 14.1934 17.5627 11.0595C17.5633 9.54076 16.9726 8.11279 15.8996 7.03845C14.8265 5.96411 13.3994 5.37217 11.8813 5.37164C8.7462 5.37164 6.19648 7.92113 6.19523 11.0549C6.19479 12.1288 6.49528 13.1747 7.06423 14.0796L7.19937 14.2947L6.62519 16.392ZM15.0901 12.5321C15.2093 12.5897 15.2898 12.6286 15.3241 12.686C15.3668 12.7572 15.3668 13.0993 15.2245 13.4985C15.0821 13.8976 14.3995 14.2619 14.0712 14.3109C13.7768 14.3549 13.4043 14.3733 12.995 14.2432C12.7468 14.1645 12.4286 14.0594 12.0209 13.8833C10.4191 13.1916 9.33658 11.6391 9.13199 11.3457C9.11765 11.3251 9.10763 11.3108 9.10204 11.3033L9.10066 11.3015C9.01023 11.1808 8.40435 10.3724 8.40435 9.53576C8.40435 8.74872 8.79096 8.33618 8.96892 8.1463C8.98111 8.13329 8.99233 8.12132 9.00237 8.11035C9.15898 7.93929 9.3441 7.89652 9.45801 7.89652C9.5719 7.89652 9.68593 7.89758 9.78548 7.90258C9.79777 7.90319 9.81055 7.90312 9.82376 7.90304C9.92333 7.90246 10.0475 7.90173 10.1699 8.19588C10.217 8.30909 10.286 8.47692 10.3587 8.65393C10.5057 9.01187 10.6681 9.40734 10.6967 9.46457C10.7395 9.55011 10.7679 9.64985 10.711 9.76393C10.7024 9.78104 10.6945 9.79718 10.687 9.8126C10.6442 9.89994 10.6127 9.96418 10.5401 10.049C10.5116 10.0823 10.4821 10.1182 10.4526 10.1542C10.3938 10.2257 10.335 10.2973 10.2838 10.3483C10.1983 10.4335 10.1092 10.526 10.2089 10.697C10.3086 10.8681 10.6515 11.4276 11.1594 11.8807C11.7055 12.3677 12.18 12.5735 12.4206 12.6779C12.4675 12.6983 12.5056 12.7148 12.5335 12.7287C12.7043 12.8143 12.804 12.8 12.9037 12.686C13.0033 12.5719 13.3308 12.187 13.4447 12.016C13.5586 11.845 13.6725 11.8735 13.8291 11.9305C13.9858 11.9876 14.8258 12.4009 14.9967 12.4864C15.03 12.5031 15.0612 12.5182 15.0901 12.5321Z" fill="#219653"/>
</svg>
