<svg width="42" height="42" viewBox="0 0 42 42" fill="none" xmlns="http://www.w3.org/2000/svg">
<path d="M18.6804 7.76C19.449 7.21241 20.3865 6.95422 21.3271 7.03107C22.2677 7.10793 23.1508 7.51489 23.8204 8.18001C24.5715 8.92671 24.9959 9.94085 25.0004 11V17C25.0004 17.5304 25.2111 18.0391 25.5862 18.4142C25.9612 18.7893 26.4699 19 27.0004 19H29.0004C29.5308 19 30.0395 19.2107 30.4146 19.5858C30.7897 19.9609 31.0004 20.4696 31.0004 21V21.68C31.0004 22.2104 31.2111 22.7191 31.5862 23.0942C31.9612 23.4693 32.4699 23.68 33.0004 23.68C33.5308 23.68 34.0395 23.4693 34.4146 23.0942C34.7897 22.7191 35.0004 22.2104 35.0004 21.68V21C35.0004 19.4087 34.3682 17.8826 33.243 16.7574C32.1178 15.6321 30.5917 15 29.0004 15V11C29.0012 9.94912 28.795 8.90837 28.3935 7.93721C27.992 6.96605 27.403 6.08351 26.6604 5.34C25.2956 4.01464 23.5088 3.21054 21.6118 3.06798C19.7147 2.92543 17.8279 3.45348 16.2804 4.56C16.0703 4.71759 15.8932 4.91502 15.7594 5.14102C15.6256 5.36702 15.5376 5.61716 15.5005 5.87716C15.4633 6.13717 15.4778 6.40194 15.5429 6.65637C15.6081 6.91079 15.7228 7.14989 15.8804 7.36C16.038 7.57012 16.2354 7.74714 16.4614 7.88095C16.6874 8.01477 16.9375 8.10276 17.1975 8.1399C17.4575 8.17705 17.7223 8.16262 17.9767 8.09743C18.2312 8.03225 18.4703 7.91759 18.6804 7.76ZM40.4204 37.58L4.42037 1.58C4.04376 1.2034 3.53297 0.991821 3.00037 0.991821C2.46777 0.991821 1.95698 1.2034 1.58037 1.58C1.20376 1.95661 0.992188 2.4674 0.992188 3C0.992187 3.53261 1.20376 4.0434 1.58037 4.42L12.2404 15C10.7842 15.1859 9.44664 15.8992 8.48099 17.0049C7.51533 18.1107 6.98855 19.532 7.00037 21V33C7.00037 34.5913 7.63251 36.1174 8.75773 37.2426C9.88295 38.3679 11.4091 39 13.0004 39H29.0004C29.9285 38.9969 30.8432 38.7785 31.6726 38.3621C32.502 37.9457 33.2235 37.3425 33.7804 36.6L37.5804 40.42C37.7663 40.6075 37.9875 40.7563 38.2312 40.8578C38.4749 40.9593 38.7363 41.0116 39.0004 41.0116C39.2644 41.0116 39.5258 40.9593 39.7695 40.8578C40.0132 40.7563 40.2344 40.6075 40.4204 40.42C40.6078 40.2341 40.7566 40.0129 40.8582 39.7692C40.9597 39.5254 41.012 39.264 41.012 39C41.012 38.736 40.9597 38.4746 40.8582 38.2309C40.7566 37.9871 40.6078 37.7659 40.4204 37.58ZM29.0004 35H13.0004C12.4699 35 11.9612 34.7893 11.5862 34.4142C11.2111 34.0391 11.0004 33.5304 11.0004 33V21C11.0004 20.4696 11.2111 19.9609 11.5862 19.5858C11.9612 19.2107 12.4699 19 13.0004 19H16.1804L20.3204 23.14C19.937 23.2786 19.6052 23.531 19.3692 23.8634C19.1333 24.1958 19.0046 24.5924 19.0004 25V29C19.0004 29.5304 19.2111 30.0391 19.5862 30.4142C19.9612 30.7893 20.4699 31 21.0004 31C21.5308 31 22.0395 30.7893 22.4146 30.4142C22.7897 30.0391 23.0004 29.5304 23.0004 29V25.82L30.8604 33.68C30.7218 34.0634 30.4694 34.3952 30.137 34.6311C29.8046 34.867 29.408 34.9957 29.0004 35Z" fill="white"/>
</svg>
