<svg width="40" height="40" viewBox="0 0 40 40" fill="none" xmlns="http://www.w3.org/2000/svg">
<path d="M20 0C16.0444 0 12.1776 1.17298 8.8886 3.37061C5.59962 5.56824 3.03617 8.69181 1.52242 12.3463C0.00866568 16.0009 -0.387401 20.0222 0.384303 23.9018C1.15601 27.7814 3.06082 31.3451 5.85787 34.1421C8.65492 36.9392 12.2186 38.844 16.0982 39.6157C19.9778 40.3874 23.9992 39.9913 27.6537 38.4776C31.3082 36.9638 34.4318 34.4004 36.6294 31.1114C38.827 27.8224 40 23.9556 40 20C39.9941 14.6975 37.8851 9.61383 34.1356 5.86438C30.3862 2.11493 25.3025 0.00589716 20 0ZM20 36C16.8355 36 13.7421 35.0616 11.1109 33.3035C8.4797 31.5454 6.42894 29.0466 5.21794 26.1229C4.00694 23.1993 3.69008 19.9823 4.30745 16.8786C4.92481 13.7749 6.44866 10.9239 8.6863 8.68629C10.9239 6.44865 13.7749 4.9248 16.8786 4.30744C19.9823 3.69007 23.1993 4.00693 26.1229 5.21793C29.0466 6.42893 31.5454 8.47969 33.3035 11.1109C35.0616 13.7421 36 16.8355 36 20C35.9952 24.242 34.3079 28.3088 31.3084 31.3083C28.3088 34.3079 24.242 35.9951 20 36ZM24.1963 15.2676L22 16.5361V10C22 9.46957 21.7893 8.96086 21.4142 8.58579C21.0392 8.21071 20.5304 8 20 8C19.4696 8 18.9609 8.21071 18.5858 8.58579C18.2107 8.96086 18 9.46957 18 10V20C18.0001 20.351 18.0926 20.6959 18.2681 20.9999C18.4437 21.3039 18.6961 21.5563 19.0001 21.7319C19.3041 21.9074 19.6489 21.9999 20 22C20.351 22.0001 20.6959 21.9078 21 21.7324L26.1963 18.7324C26.4239 18.6012 26.6235 18.4264 26.7836 18.218C26.9436 18.0096 27.0611 17.7717 27.1292 17.5179C27.1973 17.2641 27.2147 16.9994 27.1804 16.7388C27.1462 16.4783 27.061 16.2271 26.9296 15.9995C26.7982 15.7719 26.6233 15.5724 26.4148 15.4125C26.2064 15.2525 25.9684 15.1352 25.7146 15.0672C25.4608 14.9993 25.196 14.982 24.9355 15.0164C24.675 15.0507 24.4238 15.1361 24.1963 15.2676Z" fill="#4EA64B"/>
</svg>
