<svg width="38" height="41" viewBox="0 0 38 41" fill="none" xmlns="http://www.w3.org/2000/svg">
<path d="M13 12.5C13 6.99996 7.84 3.47996 7.62 3.33996C7.28927 3.11641 6.8992 2.99695 6.5 2.99695C6.1008 2.99695 5.71073 3.11641 5.38 3.33996C5.16 3.49996 0 6.99996 0 12.5C0 14.2239 0.684819 15.8772 1.90381 17.0962C3.12279 18.3151 4.77609 19 6.5 19C8.22391 19 9.87721 18.3151 11.0962 17.0962C12.3152 15.8772 13 14.2239 13 12.5ZM6.5 15C5.83696 15 5.20107 14.7366 4.73223 14.2677C4.26339 13.7989 4 13.163 4 12.5C4.16458 10.6037 5.0613 8.84615 6.5 7.59996C7.94728 8.83941 8.84591 10.6007 9 12.5C9 13.163 8.73661 13.7989 8.26777 14.2677C7.79893 14.7366 7.16304 15 6.5 15ZM18.62 17.34C18.2893 17.1164 17.8992 16.9969 17.5 16.9969C17.1008 16.9969 16.7107 17.1164 16.38 17.34C16.04 17.58 8 23.14 8 31.5C8 34.0195 9.00089 36.4359 10.7825 38.2175C12.5641 39.9991 14.9804 41 17.5 41C20.0196 41 22.4359 39.9991 24.2175 38.2175C25.9991 36.4359 27 34.0195 27 31.5C27 23 19 17.56 18.62 17.34ZM17.5 37C16.7777 37 16.0625 36.8577 15.3952 36.5813C14.728 36.3049 14.1216 35.8998 13.6109 35.389C13.1002 34.8783 12.6951 34.272 12.4187 33.6047C12.1423 32.9374 12 32.2222 12 31.5C12 26.88 15.62 23.16 17.52 21.5C19.4 23.08 23 26.76 23 31.5C23 32.2222 22.8577 32.9374 22.5813 33.6047C22.3049 34.272 21.8998 34.8783 21.3891 35.389C20.8784 35.8998 20.2721 36.3049 19.6048 36.5813C18.9375 36.8577 18.2223 37 17.5 37ZM31.12 1.33996C30.7893 1.11641 30.3992 0.996948 30 0.996948C29.6008 0.996948 29.2107 1.11641 28.88 1.33996C28.6 1.53996 22 6.09996 22 13C22 15.1217 22.8429 17.1565 24.3431 18.6568C25.8434 20.1571 27.8783 21 30 21C32.1217 21 34.1566 20.1571 35.6569 18.6568C37.1571 17.1565 38 15.1217 38 13C38 6.01996 31.4 1.51996 31.12 1.33996ZM30 17C28.9391 17 27.9217 16.5785 27.1716 15.8284C26.4214 15.0782 26 14.0608 26 13C26.1371 11.5558 26.5616 10.1536 27.2485 8.87593C27.9354 7.59823 28.8709 6.4708 30 5.55996C31.1333 6.46691 32.0717 7.59339 32.7591 8.87185C33.4464 10.1503 33.8685 11.5544 34 13C34 14.0608 33.5786 15.0782 32.8284 15.8284C32.0783 16.5785 31.0609 17 30 17Z" fill="#4EA64B"/>
</svg>
