<svg width="40" height="40" viewBox="0 0 40 40" fill="none" xmlns="http://www.w3.org/2000/svg">
<path d="M6 20C6 19.4696 5.78929 18.9609 5.41421 18.5858C5.03914 18.2107 4.53043 18 4 18H2C1.46957 18 0.960859 18.2107 0.585786 18.5858C0.210714 18.9609 0 19.4696 0 20C0 20.5304 0.210714 21.0391 0.585786 21.4142C0.960859 21.7893 1.46957 22 2 22H4C4.53043 22 5.03914 21.7893 5.41421 21.4142C5.78929 21.0391 6 20.5304 6 20ZM7.28 30L5.86 31.42C5.4875 31.7947 5.27841 32.3016 5.27841 32.83C5.27841 33.3584 5.4875 33.8653 5.86 34.24C6.23472 34.6125 6.74163 34.8216 7.27 34.8216C7.79837 34.8216 8.30527 34.6125 8.68 34.24L10.1 32.82C10.4277 32.4374 10.5989 31.9452 10.5794 31.4419C10.56 30.9385 10.3513 30.4611 9.99513 30.1049C9.63894 29.7487 9.16146 29.54 8.65811 29.5206C8.15475 29.5011 7.6626 29.6723 7.28 30ZM20 6C20.5304 6 21.0391 5.78929 21.4142 5.41421C21.7893 5.03914 22 4.53043 22 4V2C22 1.46957 21.7893 0.960859 21.4142 0.585786C21.0391 0.210714 20.5304 0 20 0C19.4696 0 18.9609 0.210714 18.5858 0.585786C18.2107 0.960859 18 1.46957 18 2V4C18 4.53043 18.2107 5.03914 18.5858 5.41421C18.9609 5.78929 19.4696 6 20 6ZM31.32 10.68C31.8447 10.6778 32.3475 10.4695 32.72 10.1L34.14 8.68C34.3494 8.50071 34.5194 8.28007 34.6395 8.03194C34.7595 7.78381 34.827 7.51355 34.8376 7.23811C34.8482 6.96267 34.8018 6.688 34.7013 6.43135C34.6007 6.1747 34.4482 5.94161 34.2533 5.7467C34.0584 5.55179 33.8253 5.39927 33.5686 5.29873C33.312 5.19818 33.0373 5.15176 32.7619 5.1624C32.4865 5.17304 32.2162 5.2405 31.9681 5.36055C31.7199 5.4806 31.4993 5.65064 31.32 5.86L30 7.28C29.6275 7.65472 29.4184 8.16163 29.4184 8.69C29.4184 9.21837 29.6275 9.72528 30 10.1C30.3526 10.4507 30.8232 10.6575 31.32 10.68ZM7.32 10.1C7.69252 10.4695 8.19532 10.6778 8.72 10.68C8.98321 10.6815 9.24414 10.6311 9.48781 10.5315C9.73149 10.432 9.95312 10.2854 10.14 10.1C10.5125 9.72528 10.7216 9.21837 10.7216 8.69C10.7216 8.16163 10.5125 7.65472 10.14 7.28L8.72 5.86C8.53484 5.67221 8.3145 5.52273 8.07156 5.42009C7.82863 5.31746 7.56786 5.26367 7.30414 5.26182C7.04042 5.25996 6.77892 5.31006 6.53457 5.40927C6.29021 5.50847 6.06779 5.65484 5.88 5.84C5.69221 6.02516 5.54273 6.2455 5.44009 6.48844C5.33746 6.73137 5.28367 6.99214 5.28182 7.25586C5.27807 7.78846 5.48604 8.30074 5.86 8.68L7.32 10.1ZM38 18H36C35.4696 18 34.9609 18.2107 34.5858 18.5858C34.2107 18.9609 34 19.4696 34 20C34 20.5304 34.2107 21.0391 34.5858 21.4142C34.9609 21.7893 35.4696 22 36 22H38C38.5304 22 39.0391 21.7893 39.4142 21.4142C39.7893 21.0391 40 20.5304 40 20C40 19.4696 39.7893 18.9609 39.4142 18.5858C39.0391 18.2107 38.5304 18 38 18ZM32.72 30C32.34 29.7886 31.9015 29.7069 31.4709 29.7671C31.0403 29.8273 30.641 30.0262 30.3336 30.3336C30.0262 30.641 29.8273 31.0403 29.7671 31.4709C29.7069 31.9015 29.7886 32.34 30 32.72L31.42 34.14C31.7947 34.5125 32.3016 34.7216 32.83 34.7216C33.3584 34.7216 33.8653 34.5125 34.24 34.14C34.6125 33.7653 34.8216 33.2584 34.8216 32.73C34.8216 32.2016 34.6125 31.6947 34.24 31.32L32.72 30ZM20 9C17.8244 9 15.6977 9.64514 13.8887 10.8538C12.0798 12.0625 10.6699 13.7805 9.83733 15.7905C9.00476 17.8005 8.78692 20.0122 9.21136 22.146C9.6358 24.2798 10.6834 26.2398 12.2218 27.7782C13.7602 29.3166 15.7202 30.3642 17.854 30.7886C19.9878 31.2131 22.1995 30.9952 24.2095 30.1627C26.2195 29.3301 27.9375 27.9202 29.1462 26.1113C30.3549 24.3023 31 22.1756 31 20C30.9947 17.0842 29.8341 14.2894 27.7723 12.2277C25.7106 10.1659 22.9158 9.00529 20 9ZM20 27C18.6155 27 17.2622 26.5895 16.111 25.8203C14.9599 25.0511 14.0627 23.9579 13.5328 22.6788C13.003 21.3997 12.8644 19.9922 13.1345 18.6344C13.4046 17.2765 14.0713 16.0292 15.0503 15.0503C16.0292 14.0713 17.2765 13.4046 18.6344 13.1345C19.9922 12.8644 21.3997 13.003 22.6788 13.5328C23.9579 14.0627 25.0511 14.9599 25.8203 16.111C26.5895 17.2622 27 18.6155 27 20C27 21.8565 26.2625 23.637 24.9497 24.9497C23.637 26.2625 21.8565 27 20 27ZM20 34C19.4696 34 18.9609 34.2107 18.5858 34.5858C18.2107 34.9609 18 35.4696 18 36V38C18 38.5304 18.2107 39.0391 18.5858 39.4142C18.9609 39.7893 19.4696 40 20 40C20.5304 40 21.0391 39.7893 21.4142 39.4142C21.7893 39.0391 22 38.5304 22 38V36C22 35.4696 21.7893 34.9609 21.4142 34.5858C21.0391 34.2107 20.5304 34 20 34Z" fill="#4EA64B"/>
</svg>
