<svg width="36" height="40" viewBox="0 0 36 40" fill="none" xmlns="http://www.w3.org/2000/svg">
<path d="M30.7697 23.9856C34.2703 22.1831 35.3325 17.2864 35.3325 17.2864C35.3325 17.2864 30.7244 15.3062 27.2238 17.1152C25.7495 17.9594 24.5654 19.2301 23.8272 20.7601C23.9034 20.1028 23.9432 19.4417 23.9463 18.7799C26.1262 16.1251 27.2528 12.7609 27.1114 9.32874C26.4232 3.80262 20.4188 0 20.4188 0C20.4188 0 15.5355 5.16516 16.2302 10.6981C16.887 13.9027 18.6738 16.7645 21.2647 18.7615C21.2509 19.4367 21.2005 20.1106 21.1137 20.7803C20.3295 19.0303 18.9947 17.5847 17.3126 16.6638C13.7651 14.9589 9.21569 17.0699 9.21569 17.0699C9.21569 17.0699 10.4223 21.9332 13.9682 23.6382C16.0534 24.4605 18.3632 24.514 20.4844 23.7892C19.8547 25.877 18.8679 27.8398 17.5678 29.5905C16.6986 27.8636 15.2841 26.4716 13.5436 25.6301C9.91711 24.103 5.48681 26.4373 5.48681 26.4373C5.48681 26.4373 6.92835 31.2417 10.5599 32.7621C11.6615 33.1957 12.8503 33.3619 14.0286 33.2471C10.7014 35.8795 6.58295 37.3116 2.34033 37.3115C1.98382 37.3115 1.64191 37.4531 1.38981 37.7052C1.13772 37.9573 0.996094 38.2992 0.996094 38.6558C0.996094 39.0123 1.13772 39.3542 1.38981 39.6063C1.64191 39.8584 1.98382 40 2.34033 40C5.341 39.9973 8.30811 39.3686 11.052 38.1541C13.7959 36.9397 16.2563 35.1661 18.2759 32.9468C20.1297 34.5375 22.5059 35.3874 24.9481 35.3331C28.8683 34.9202 31.6288 30.7367 31.6288 30.7367C31.6288 30.7367 28.0428 27.231 24.1293 27.6505C23.1698 27.7654 22.2441 28.0755 21.4091 28.5618C22.1765 27.1183 22.7766 25.5919 23.1979 24.0123C25.6338 24.9644 28.3405 24.9549 30.7697 23.9856Z" fill="#4EA64B"/>
</svg>
