<svg width="41" height="40" viewBox="0 0 41 40" fill="none" xmlns="http://www.w3.org/2000/svg">
<path d="M14.0003 34C13.4698 34 12.9611 34.2107 12.586 34.5858C12.211 34.9609 12.0003 35.4696 12.0003 36V38C12.0003 38.5304 12.211 39.0391 12.586 39.4142C12.9611 39.7893 13.4698 40 14.0003 40C14.5307 40 15.0394 39.7893 15.4145 39.4142C15.7895 39.0391 16.0003 38.5304 16.0003 38V36C16.0003 35.4696 15.7895 34.9609 15.4145 34.5858C15.0394 34.2107 14.5307 34 14.0003 34ZM14.0003 24C13.4698 24 12.9611 24.2107 12.586 24.5858C12.211 24.9609 12.0003 25.4696 12.0003 26V28C12.0003 28.5304 12.211 29.0391 12.586 29.4142C12.9611 29.7893 13.4698 30 14.0003 30C14.5307 30 15.0394 29.7893 15.4145 29.4142C15.7895 29.0391 16.0003 28.5304 16.0003 28V26C16.0003 25.4696 15.7895 24.9609 15.4145 24.5858C15.0394 24.2107 14.5307 24 14.0003 24ZM39.0003 10H37.4003C37.1935 9.10258 36.8422 8.24474 36.3603 7.46L37.4803 6.34C37.8079 5.9574 37.9791 5.46525 37.9597 4.96189C37.9402 4.45854 37.7316 3.98106 37.3754 3.62487C37.0192 3.26868 36.5417 3.06002 36.0384 3.04058C35.535 3.02114 35.0429 3.19235 34.6603 3.52L33.5403 4.64C32.7555 4.15802 31.8977 3.80678 31.0003 3.6V2C31.0003 1.46957 30.7895 0.960859 30.4145 0.585786C30.0394 0.210714 29.5307 0 29.0003 0C28.4698 0 27.9611 0.210714 27.586 0.585786C27.211 0.960859 27.0003 1.46957 27.0003 2V3.6C26.1081 3.80363 25.2563 4.15515 24.4803 4.64L23.3403 3.52C22.9577 3.19235 22.4655 3.02114 21.9621 3.04058C21.4588 3.06002 20.9813 3.26868 20.6251 3.62487C20.2689 3.98106 20.0603 4.45854 20.0408 4.96189C20.0214 5.46525 20.1926 5.9574 20.5203 6.34L21.6403 7.48C21.4603 7.78 21.3203 8.12 21.1603 8.44C20.132 8.14973 19.0687 8.00169 18.0003 8C15.118 7.99836 12.3314 9.0342 10.15 10.9181C7.96862 12.802 6.53819 15.4082 6.12026 18.26C4.72752 18.6478 3.48904 19.4574 2.57492 20.5774C1.66081 21.6975 1.11592 23.0731 1.01509 24.5153C0.914272 25.9575 1.26247 27.3955 2.01185 28.6318C2.76123 29.8682 3.87503 30.8422 5.20026 31.42C5.45513 31.521 5.72614 31.5752 6.00026 31.58C6.46265 31.5838 6.91206 31.4272 7.27201 31.1369C7.63197 30.8467 7.88023 30.4407 7.97454 29.988C8.06885 29.5353 8.00338 29.0639 7.78928 28.6541C7.57519 28.2442 7.22569 27.9212 6.80026 27.74C6.26365 27.5114 5.80652 27.1294 5.48628 26.642C5.16604 26.1545 4.99696 25.5832 5.00026 25C5.00026 24.2044 5.31633 23.4413 5.87893 22.8787C6.44154 22.3161 7.20461 22 8.00026 22C8.53069 22 9.0394 21.7893 9.41447 21.4142C9.78954 21.0391 10.0003 20.5304 10.0003 20C10.0088 18.1114 10.6853 16.2867 11.9099 14.8489C13.1346 13.4112 14.8284 12.453 16.6916 12.1441C18.5548 11.8351 20.4672 12.1953 22.0903 13.1609C23.7134 14.1265 24.9426 15.6352 25.5603 17.42C25.6746 17.7637 25.8801 18.0699 26.1548 18.3059C26.4296 18.5419 26.7633 18.6988 27.1203 18.76C28.0492 18.8976 28.9145 19.3138 29.6019 19.9536C30.2893 20.5934 30.7663 21.4267 30.97 22.3434C31.1737 23.2601 31.0945 24.217 30.7428 25.0877C30.3911 25.9584 29.7835 26.702 29.0003 27.22C28.7796 27.3645 28.5896 27.5509 28.4411 27.7688C28.2925 27.9867 28.1884 28.2317 28.1345 28.4899C28.0806 28.748 28.0782 29.0143 28.1272 29.2734C28.1762 29.5325 28.2758 29.7794 28.4203 30C28.5647 30.2206 28.7512 30.4106 28.9691 30.5592C29.187 30.7077 29.432 30.8119 29.6901 30.8658C29.9483 30.9196 30.2145 30.9221 30.4736 30.8731C30.7327 30.824 30.9796 30.7245 31.2003 30.58C32.3797 29.7782 33.3434 28.6982 34.0062 27.4355C34.6689 26.1727 35.0104 24.7661 35.0003 23.34C34.9985 22.278 34.7949 21.226 34.4003 20.24L34.6603 20.48C35.0328 20.8495 35.5356 21.0578 36.0603 21.06C36.3235 21.0615 36.5844 21.0111 36.8281 20.9115C37.0717 20.812 37.2934 20.6654 37.4803 20.48C37.8528 20.1053 38.0618 19.5984 38.0618 19.07C38.0618 18.5416 37.8528 18.0347 37.4803 17.66L36.3603 16.54C36.8422 15.7553 37.1935 14.8974 37.4003 14H39.0003C39.5307 14 40.0394 13.7893 40.4145 13.4142C40.7895 13.0391 41.0003 12.5304 41.0003 12C41.0003 11.4696 40.7895 10.9609 40.4145 10.5858C40.0394 10.2107 39.5307 10 39.0003 10ZM32.3203 15.3C31.9728 15.6484 31.5666 15.9328 31.1203 16.14C30.4677 15.6875 29.7538 15.3306 29.0003 15.08C28.0814 13.0735 26.6371 11.3528 24.8203 10.1C25.0432 9.58341 25.3545 9.10964 25.7403 8.7C26.6384 7.86928 27.8168 7.40786 29.0403 7.40786C30.2637 7.40786 31.4421 7.86928 32.3403 8.7C33.198 9.58439 33.6777 10.768 33.6777 12C33.6777 13.232 33.198 14.4156 32.3403 15.3H32.3203ZM22.0003 32C21.4698 32 20.9611 32.2107 20.586 32.5858C20.211 32.9609 20.0003 33.4696 20.0003 34V36C20.0003 36.5304 20.211 37.0391 20.586 37.4142C20.9611 37.7893 21.4698 38 22.0003 38C22.5307 38 23.0394 37.7893 23.4145 37.4142C23.7895 37.0391 24.0003 36.5304 24.0003 36V34C24.0003 33.4696 23.7895 32.9609 23.4145 32.5858C23.0394 32.2107 22.5307 32 22.0003 32ZM22.0003 22C21.4698 22 20.9611 22.2107 20.586 22.5858C20.211 22.9609 20.0003 23.4696 20.0003 24V26C20.0003 26.5304 20.211 27.0391 20.586 27.4142C20.9611 27.7893 21.4698 28 22.0003 28C22.5307 28 23.0394 27.7893 23.4145 27.4142C23.7895 27.0391 24.0003 26.5304 24.0003 26V24C24.0003 23.4696 23.7895 22.9609 23.4145 22.5858C23.0394 22.2107 22.5307 22 22.0003 22Z" fill="white"/>
</svg>
