<svg width="41" height="41" viewBox="0 0 41 41" fill="none" xmlns="http://www.w3.org/2000/svg">
<path d="M10.9824 25.0041C10.7198 25.004 10.4597 25.0557 10.217 25.1562C9.9743 25.2566 9.7538 25.404 9.56807 25.5897C9.38234 25.7754 9.23502 25.9959 9.13453 26.2386C9.03405 26.4813 8.98237 26.7414 8.98243 27.0041V30.5686C6.40453 27.6532 4.98184 23.8957 4.98243 20.0041C4.98206 19.4159 5.01728 18.8282 5.08789 18.2443C5.12027 17.9832 5.1008 17.7182 5.03061 17.4646C4.96041 17.2111 4.84086 16.9738 4.67881 16.7665C4.51675 16.5592 4.31539 16.386 4.08625 16.2566C3.85711 16.1273 3.6047 16.0444 3.34348 16.0128C3.08227 15.9812 2.81739 16.0015 2.56401 16.0724C2.31064 16.1434 2.07375 16.2636 1.86694 16.4263C1.66012 16.589 1.48744 16.7908 1.35878 17.0204C1.23013 17.2499 1.14803 17.5025 1.11719 17.7638C1.0266 18.5071 0.981596 19.2553 0.982433 20.0041C0.985151 24.7764 2.70035 29.3893 5.81617 33.0041H2.98243C2.452 33.0041 1.94329 33.2148 1.56822 33.5898C1.19315 33.9649 0.982433 34.4736 0.982433 35.0041C0.982433 35.5345 1.19315 36.0432 1.56822 36.4183C1.94329 36.7933 2.452 37.0041 2.98243 37.0041H10.9824C11.2952 37.0001 11.6026 36.9215 11.8788 36.7748C12.1551 36.628 12.3923 36.4174 12.5707 36.1604C12.594 36.1297 12.6238 36.1068 12.6455 36.0744C12.6588 36.0545 12.6592 36.031 12.6716 36.0107C12.7669 35.8497 12.8384 35.6757 12.8836 35.4941C12.9132 35.3921 12.9343 35.2878 12.9465 35.1823C12.9522 35.1206 12.9825 35.0674 12.9825 35.0041V27.0041C12.9826 26.7414 12.9309 26.4813 12.8304 26.2386C12.7299 25.9959 12.5826 25.7754 12.3969 25.5897C12.2111 25.4039 11.9906 25.2566 11.7479 25.1561C11.5052 25.0557 11.2451 25.004 10.9824 25.0041ZM13.9824 8.00405H10.4175C13.3331 5.42627 17.0907 4.00361 20.9824 4.00405C21.5703 4.00264 22.1577 4.03787 22.7412 4.10953C23.0021 4.14121 23.2666 4.1212 23.5197 4.05064C23.7728 3.98008 24.0096 3.86036 24.2164 3.69831C24.4233 3.53626 24.5962 3.33506 24.7252 3.10619C24.8543 2.87732 24.9371 2.62526 24.9688 2.36441C25.0004 2.10357 24.9804 1.83903 24.9099 1.58592C24.8393 1.3328 24.7196 1.09606 24.5575 0.889218C24.3955 0.682372 24.1943 0.509469 23.9654 0.380381C23.7365 0.251294 23.4845 0.16855 23.2236 0.136874C22.48 0.0471558 21.7315 0.00280074 20.9824 0.00405416C16.2102 0.00664839 11.5973 1.72172 7.98243 4.83743V2.00405C7.98243 1.47362 7.77172 0.964913 7.39665 0.58984C7.02157 0.214768 6.51287 0.00405416 5.98243 0.00405416C5.452 0.00405416 4.94329 0.214768 4.56822 0.58984C4.19315 0.964913 3.98243 1.47362 3.98243 2.00405V10.0041C3.99501 10.1362 4.02136 10.2668 4.06105 10.3935L4.06153 10.3959C4.1101 10.642 4.20599 10.8764 4.34387 11.0859L4.36671 11.1197C4.49887 11.3119 4.6645 11.4788 4.85571 11.6124C4.87757 11.6284 4.88843 11.6529 4.91113 11.6682C4.93971 11.6871 4.97205 11.6931 5.00123 11.7104C5.11466 11.7786 5.23485 11.835 5.35987 11.8784C5.52884 11.9372 5.70501 11.9728 5.88355 11.9841C5.91821 11.986 5.94739 12.0041 5.98243 12.0041H13.9824C14.5129 12.0041 15.0216 11.7934 15.3966 11.4183C15.7717 11.0433 15.9824 10.5345 15.9824 10.0041C15.9824 9.47368 15.7717 8.96497 15.3966 8.5899C15.0216 8.21483 14.5129 8.00411 13.9824 8.00411V8.00405ZM37.9033 29.6122C37.8548 29.366 37.7589 29.1316 37.6209 28.9221L37.5983 28.8885C37.466 28.6962 37.3003 28.5292 37.1089 28.3956C37.0871 28.3797 37.0763 28.355 37.0537 28.3399C37.0321 28.3256 37.0065 28.3251 36.9845 28.3117C36.7308 28.1707 36.4528 28.0788 36.1651 28.0408C36.1018 28.0348 36.0473 28.004 35.9824 28.004H27.9824C27.452 28.004 26.9433 28.2147 26.5682 28.5897C26.1931 28.9648 25.9824 29.4735 25.9824 30.004C25.9824 30.5344 26.1931 31.0431 26.5682 31.4182C26.9433 31.7932 27.452 32.004 27.9824 32.004H31.5473C28.6317 34.5818 24.8742 36.0044 20.9824 36.004C20.3945 36.0047 19.8071 35.9688 19.2236 35.8965C18.6968 35.8326 18.1662 35.9805 17.7484 36.3078C17.3307 36.635 17.0601 37.1148 16.9961 37.6417C16.9321 38.1685 17.08 38.6991 17.4073 39.1168C17.7346 39.5346 18.2144 39.8052 18.7412 39.8692C19.4849 39.9589 20.2333 40.0039 20.9824 40.004C25.7547 40.0014 30.3676 38.2863 33.9824 35.1706V38.0041C33.9824 38.5345 34.1931 39.0432 34.5682 39.4183C34.9433 39.7933 35.452 40.0041 35.9824 40.0041C36.5129 40.0041 37.0216 39.7933 37.3966 39.4183C37.7717 39.0432 37.9824 38.5345 37.9824 38.0041V30.0041C37.9699 29.8719 37.9435 29.7414 37.9038 29.6147L37.9033 29.6122ZM38.9824 7.00405C39.5129 7.00405 40.0216 6.79334 40.3966 6.41827C40.7717 6.04319 40.9824 5.53449 40.9824 5.00405C40.9824 4.47362 40.7717 3.96491 40.3966 3.58984C40.0216 3.21477 39.5129 3.00405 38.9824 3.00405H30.9824C30.8522 3.0166 30.7237 3.04254 30.5988 3.08145L30.5855 3.08413C30.3426 3.13272 30.1113 3.22746 29.9041 3.36319L29.8649 3.38967C29.6736 3.52163 29.5074 3.68675 29.3743 3.87723C29.3585 3.89883 29.3343 3.90945 29.3194 3.93179C29.3051 3.95327 29.3046 3.97867 29.2912 4.00051C29.1484 4.2557 29.0558 4.53585 29.0184 4.82583C29.0127 4.88761 28.9824 4.94083 28.9824 5.00405V13.0041C28.9824 13.5345 29.1931 14.0432 29.5682 14.4183C29.9433 14.7933 30.452 15.0041 30.9824 15.0041C31.5129 15.0041 32.0216 14.7933 32.3966 14.4183C32.7717 14.0432 32.9824 13.5345 32.9824 13.0041V9.43829C35.5601 12.3542 36.9828 16.112 36.9824 20.004C36.9828 20.5921 36.9476 21.1798 36.877 21.7637C36.8136 22.2902 36.9616 22.8203 37.2886 23.2377C37.6156 23.6551 38.0948 23.9258 38.6211 23.9903C38.7022 23.9997 38.7837 24.0042 38.8653 24.004C39.3536 24.0033 39.8248 23.824 40.19 23.4998C40.5552 23.1756 40.7891 22.729 40.8477 22.2442C40.9383 21.5009 40.9833 20.7528 40.9824 20.0041C40.9797 15.2317 39.2644 10.6188 36.1484 7.00405H38.9824Z" fill="white"/>
</svg>
