<svg width="44" height="44" viewBox="0 0 44 44" fill="none" xmlns="http://www.w3.org/2000/svg">
<path d="M20 16H28C28.5304 16 29.0392 15.7893 29.4142 15.4142C29.7893 15.0391 30 14.5304 30 14C30 13.4696 29.7893 12.9609 29.4142 12.5858C29.0392 12.2107 28.5304 12 28 12H24V10C24 9.46957 23.7893 8.96086 23.4142 8.58579C23.0392 8.21071 22.5304 8 22 8C21.4696 8 20.9609 8.21071 20.5858 8.58579C20.2107 8.96086 20 9.46957 20 10V12C18.4087 12 16.8826 12.6321 15.7574 13.7574C14.6321 14.8826 14 16.4087 14 18C14 19.5913 14.6321 21.1174 15.7574 22.2426C16.8826 23.3679 18.4087 24 20 24H24C24.5304 24 25.0392 24.2107 25.4142 24.5858C25.7893 24.9609 26 25.4696 26 26C26 26.5304 25.7893 27.0391 25.4142 27.4142C25.0392 27.7893 24.5304 28 24 28H16C15.4696 28 14.9609 28.2107 14.5858 28.5858C14.2107 28.9609 14 29.4696 14 30C14 30.5304 14.2107 31.0391 14.5858 31.4142C14.9609 31.7893 15.4696 32 16 32H20V34C20 34.5304 20.2107 35.0391 20.5858 35.4142C20.9609 35.7893 21.4696 36 22 36C22.5304 36 23.0392 35.7893 23.4142 35.4142C23.7893 35.0391 24 34.5304 24 34V32C25.5913 32 27.1174 31.3679 28.2427 30.2426C29.3679 29.1174 30 27.5913 30 26C30 24.4087 29.3679 22.8826 28.2427 21.7574C27.1174 20.6321 25.5913 20 24 20H20C19.4696 20 18.9609 19.7893 18.5858 19.4142C18.2107 19.0391 18 18.5304 18 18C18 17.4696 18.2107 16.9609 18.5858 16.5858C18.9609 16.2107 19.4696 16 20 16ZM22 0C17.6488 0 13.3953 1.29028 9.77746 3.70767C6.15958 6.12506 3.33979 9.56099 1.67466 13.581C0.00953233 17.6009 -0.426141 22.0244 0.422734 26.292C1.27161 30.5596 3.36691 34.4796 6.44366 37.5564C9.52042 40.6331 13.4404 42.7284 17.708 43.5773C21.9756 44.4261 26.3991 43.9905 30.419 42.3253C34.439 40.6602 37.875 37.8404 40.2923 34.2225C42.7097 30.6047 44 26.3512 44 22C44 16.1652 41.6822 10.5695 37.5564 6.44365C33.4306 2.31785 27.8348 0 22 0ZM22 40C18.4399 40 14.9598 38.9443 11.9997 36.9665C9.03966 34.9886 6.73256 32.1774 5.37018 28.8883C4.0078 25.5992 3.65134 21.98 4.34587 18.4884C5.04041 14.9967 6.75474 11.7894 9.27209 9.27208C11.7894 6.75473 14.9967 5.0404 18.4884 4.34586C21.98 3.65133 25.5992 4.00779 28.8883 5.37017C32.1774 6.73255 34.9886 9.03965 36.9665 11.9997C38.9443 14.9598 40 18.4399 40 22C40 26.7739 38.1036 31.3523 34.7279 34.7279C31.3523 38.1036 26.7739 40 22 40Z" fill="white"/>
</svg>
