<svg width="49" height="49" viewBox="0 0 49 49" fill="none" xmlns="http://www.w3.org/2000/svg">
<path d="M44.8249 49L27.962 32.1352C20.4605 37.468 10.1238 36.1636 4.18252 29.1344C-1.75876 22.1052 -1.32251 11.6962 5.18611 5.18875C11.693 -1.32158 22.1036 -1.75969 29.1346 4.18092C36.1655 10.1215 37.4708 20.4587 32.1372 27.9603L49 44.8251L44.8278 48.9971L44.8249 49ZM17.7027 5.90272C12.1074 5.90146 7.28014 9.82885 6.14351 15.3071C5.00688 20.7854 7.87328 26.3089 13.0073 28.5334C18.1413 30.758 24.1318 29.0722 27.3519 24.4967C30.5721 19.9212 30.1368 13.7135 26.3097 9.63213L28.0948 11.4024L26.0825 9.3961L26.0471 9.36069C23.8394 7.13952 20.8345 5.89428 17.7027 5.90272Z" fill="white"/>
</svg>
