<svg xmlns="http://www.w3.org/2000/svg" xmlns:xlink="http://www.w3.org/1999/xlink" viewBox="0 0 221.21 190.99"><defs><style>.cls-1{fill:url(#Безымянный_градиент_105);}.cls-2{fill:url(#Безымянный_градиент_90);}.cls-3{fill:none;}.cls-4{fill:#cecece;}.cls-5{fill:url(#Безымянный_градиент_12);}.cls-6{fill:url(#Безымянный_градиент_7);}.cls-7{fill:url(#Безымянный_градиент_7-2);}.cls-8{fill:#494949;}.cls-9{fill:#b5b5b5;}.cls-10{fill:#b2b2b2;}.cls-11{fill:url(#Безымянный_градиент_103);}.cls-12{fill:url(#Безымянный_градиент_94);}</style><linearGradient id="Безымянный_градиент_105" x1="7.56" y1="198.54" x2="213.66" y2="-7.56" gradientUnits="userSpaceOnUse"><stop offset="0" stop-color="#a67c52"/><stop offset="0.04" stop-color="#b2885c"/><stop offset="0.11" stop-color="#bd9366"/><stop offset="0.21" stop-color="#c49a6b"/><stop offset="0.49" stop-color="#c69c6d"/><stop offset="0.67" stop-color="#c49a6b"/><stop offset="0.74" stop-color="#bd9366"/><stop offset="0.79" stop-color="#b2885c"/><stop offset="0.82" stop-color="#a67c52"/><stop offset="1" stop-color="#c69c6d"/></linearGradient><linearGradient id="Безымянный_градиент_90" x1="114.92" y1="97.23" x2="118.17" y2="97.23" gradientUnits="userSpaceOnUse"><stop offset="0" stop-color="#4d4d4d"/><stop offset="1" stop-color="#1a1a1a"/></linearGradient><linearGradient id="Безымянный_градиент_12" x1="111.94" y1="94.97" x2="216.65" y2="94.97" gradientUnits="userSpaceOnUse"><stop offset="0" stop-color="#a67c52"/><stop offset="0.48" stop-color="#754c24"/><stop offset="0.98" stop-color="#a47a50"/><stop offset="1" stop-color="#a67c52"/></linearGradient><linearGradient id="Безымянный_градиент_7" x1="216.65" y1="14.51" x2="219.96" y2="14.51" gradientUnits="userSpaceOnUse"><stop offset="0" stop-color="#4d4d4d"/><stop offset="1" stop-color="#736357"/></linearGradient><linearGradient id="Безымянный_градиент_7-2" x1="216.65" y1="171.92" x2="219.96" y2="171.92" xlink:href="#Безымянный_градиент_7"/><linearGradient id="Безымянный_градиент_103" x1="114.12" y1="88.88" x2="118.97" y2="88.88" gradientUnits="userSpaceOnUse"><stop offset="0" stop-color="#4d4d4d"/><stop offset="1" stop-color="#333"/></linearGradient><linearGradient id="Безымянный_градиент_94" x1="4.24" y1="94.97" x2="108.94" y2="94.97" gradientUnits="userSpaceOnUse"><stop offset="0" stop-color="#a67c52"/><stop offset="0.01" stop-color="#a47a50"/><stop offset="0.09" stop-color="#8f663d"/><stop offset="0.19" stop-color="#80572f"/><stop offset="0.3" stop-color="#784f27"/><stop offset="0.48" stop-color="#754c24"/><stop offset="0.98" stop-color="#a47a50"/><stop offset="1" stop-color="#a67c52"/></linearGradient></defs><g id="Слой_2" data-name="Слой 2"><g id="Слой_2-2" data-name="Слой 2"><path class="cls-1" d="M0,0V191H221.21V0ZM108.94,185.88H4.24V4.06h104.7Zm107.71,0H111.94V4.06H216.65Z"/></g><g id="Слой_3" data-name="Слой 3"><path class="cls-2" d="M118.17,89.59v15.24a1.69,1.69,0,0,1-1.63,1.76,1.54,1.54,0,0,1-1.14-.51,1.83,1.83,0,0,1-.48-1.25V89.59a1.55,1.55,0,0,1,0-.31,1.66,1.66,0,0,1,1.59-1.41,1.58,1.58,0,0,1,1.15.51,1.79,1.79,0,0,1,.45.9A1.55,1.55,0,0,1,118.17,89.59Z"/><polygon class="cls-3" points="207.51 176.12 122.71 176.12 122.71 14.73 207.4 15.05 207.51 176.12"/><polygon class="cls-4" points="122.71 14.73 122.71 176.12 121.29 176.94 121.29 13.15 122.71 14.73"/><path class="cls-5" d="M111.94,4.06V185.88H216.65V4.06Zm7,87.68a2.42,2.42,0,0,1-.8,1.8v11.29a1.69,1.69,0,0,1-1.63,1.76,1.54,1.54,0,0,1-1.14-.51,1.83,1.83,0,0,1-.48-1.25V93.54l-.09-.09a2.42,2.42,0,0,1-.71-1.71V86.65a2.42,2.42,0,0,1,2.42-2.43,2.39,2.39,0,0,1,1.72.72,2.42,2.42,0,0,1,.71,1.71Zm89.44,85.2H121.29V13.15h87.12Z"/><polygon class="cls-3" points="207.51 176.12 122.71 176.12 122.71 14.73 207.4 15.05 207.51 176.12"/><path class="cls-3" d="M207.4,15.05l-84.69-.32V176.12h84.8Zm0,0-84.69-.32V176.12h84.8Zm0,0-84.69-.32V176.12h84.8Zm0,0-84.69-.32V176.12h84.8Zm0,0-84.69-.32V176.12h84.8Zm0,0-84.69-.32V176.12h84.8Zm0,0-84.69-.32V176.12h84.8Zm0,0-84.69-.32V176.12h84.8Zm0,0-84.69-.32V176.12h84.8Zm0,0-84.69-.32V176.12h84.8Zm0,0-84.69-.32V176.12h84.8Z"/><path class="cls-6" d="M220,6.56v15.9a1,1,0,0,1-1,.95h-1.31a1,1,0,0,1-1-.95V6.56a1,1,0,0,1,1-1H219A1,1,0,0,1,220,6.56Z"/><path class="cls-7" d="M220,166v12.82h-3.31V166a1,1,0,0,1,1-1H219A1,1,0,0,1,220,166Z"/><path class="cls-8" d="M220,178.81v3.07a1,1,0,0,1-1,1h-1.31a1,1,0,0,1-1-1v-3.07Z"/><polygon class="cls-9" points="208.41 176.94 121.29 176.94 122.71 176.12 207.51 176.12 208.41 176.94"/><polygon class="cls-4" points="208.41 13.15 208.41 176.94 207.51 176.12 207.4 15.05 208.41 13.15"/><polygon class="cls-10" points="208.41 13.15 207.4 15.05 122.71 14.73 121.29 13.15 208.41 13.15"/><path class="cls-11" d="M119,86.65v5.09a2.42,2.42,0,0,1-.8,1.8V89.63a1.55,1.55,0,0,0,0-.31,1.81,1.81,0,0,0-.45-.93,1.59,1.59,0,0,0-1.15-.52A1.67,1.67,0,0,0,115,89.32a1.55,1.55,0,0,0,0,.31v3.91l-.09-.09a2.42,2.42,0,0,1-.71-1.71V86.65a2.42,2.42,0,0,1,2.42-2.43,2.39,2.39,0,0,1,1.72.72A2.42,2.42,0,0,1,119,86.65Z"/><polygon class="cls-3" points="98.18 14.73 98.18 176.12 13.37 176.12 13.48 15.05 98.18 14.73"/><polygon class="cls-4" points="99.59 13.15 99.59 176.94 98.18 176.12 98.18 14.73 99.59 13.15"/><path class="cls-12" d="M4.24,4.06V185.88h104.7V4.06ZM99.59,176.94H12.47V13.15H99.59Z"/><polygon class="cls-3" points="98.18 14.73 98.18 176.12 13.37 176.12 13.48 15.05 98.18 14.73"/><polygon class="cls-3" points="98.18 14.73 98.18 176.12 13.37 176.12 13.48 15.05 98.18 14.73"/><polygon class="cls-9" points="99.59 176.94 12.47 176.94 13.37 176.12 98.18 176.12 99.59 176.94"/><polygon class="cls-4" points="13.48 15.05 13.37 176.12 12.47 176.94 12.47 13.15 13.48 15.05"/><polygon class="cls-10" points="99.59 13.15 98.18 14.73 13.48 15.05 12.47 13.15 99.59 13.15"/></g></g></svg>