<svg width="255" height="155" viewBox="0 0 255 155" fill="none" xmlns="http://www.w3.org/2000/svg">
<g clip-path="url(#clip0_229_3443)">
<path d="M254.222 0L0.0117188 0.149994L0.591719 152.26H7.75172L247.932 151.39H254.452L254.222 0ZM247.742 7.28L247.132 147.28L194.192 147.47L127.952 147.73H127.382L60.8517 147.99L7.28172 147.63L6.73172 6.93L60.8917 7.00999L127.162 7.09H127.732L194.222 7.18L247.732 7.25999L247.742 7.28Z" fill="url(#paint0_linear_229_3443)"/>
<path d="M11.2005 141.11L7.26047 147.66L6.73047 6.92993L6.74047 6.93993L10.6605 10.7599L11.2005 141.11Z" fill="url(#paint1_linear_229_3443)"/>
<path d="M247.733 7.28003L247.123 147.31L242.773 140.76L243.333 11.1H243.343L247.733 7.28003Z" fill="url(#paint2_linear_229_3443)"/>
<path d="M247.732 7.27002V7.28002L243.342 11.1H243.332V11.09L247.722 7.27002H247.732Z" fill="url(#paint3_linear_229_3443)"/>
<path d="M60.8822 7.00994V10.8399L10.6722 10.7699L10.6622 10.7599L6.74219 6.93994L60.8822 7.00994Z" fill="url(#paint4_linear_229_3443)"/>
<path d="M247.723 7.26995L243.333 11.09V11.1L194.223 11.03V7.19995L247.723 7.26995Z" fill="url(#paint5_linear_229_3443)"/>
<path d="M194.223 7.20001V11.03L187.343 11.02H186.383V9.08001H134.783V10.95L127.733 10.94H127.163L120.243 10.92V9.08001H68.6128V10.85H67.6528L60.8828 10.84V7.01001L127.153 7.10001L127.723 7.11001L194.223 7.20001Z" fill="url(#paint6_linear_229_3443)"/>
<path d="M247.732 7.27002V7.28002L243.342 11.1H243.332V11.09L247.722 7.27002H247.732Z" fill="url(#paint7_linear_229_3443)"/>
<path d="M60.8417 141.47V148.01L7.26172 147.66L11.2017 141.11L60.8417 141.47Z" fill="url(#paint8_linear_229_3443)"/>
<path d="M247.122 147.31L194.172 147.5V140.95L242.772 140.76L247.122 147.31Z" fill="url(#paint9_linear_229_3443)"/>
<path d="M194.17 140.95V147.5L127.94 147.75L127.37 147.76L60.8398 148.01V141.47L67.6098 141.45L68.5598 141.44V145.28H120.19V141.24L127.35 141.21H127.92L134.73 141.18V145.28H186.34V140.98L187.29 140.97L194.17 140.95Z" fill="url(#paint10_linear_229_3443)"/>
<path d="M127.948 151.77L127.368 151.78L127.148 0.649902H127.718L127.948 151.77Z" fill="#42210B"/>
<path d="M127.719 0.649902V6.81991V10.6399L127.909 138.99V145.54V151.76L194.219 151.56V0.659904L127.719 0.649902ZM187.299 144.61H134.739V7.60991H187.299V144.61Z" fill="url(#paint11_linear_229_3443)"/>
<path d="M127.371 145.56V139.01L127.221 10.6499V6.81991V0.649902H60.8906V151.99L127.431 151.78L127.371 145.56ZM67.6606 7.63991H120.221V144.64H67.6106L67.6606 7.63991Z" fill="url(#paint12_linear_229_3443)"/>
<path d="M187.29 144.61H134.73V143.07H186.34L187.29 144.61Z" fill="#B5B5B5"/>
<path d="M187.34 7.63989L187.29 144.61L186.34 143.07L186.38 8.78989L187.34 7.63989Z" fill="#CECECE"/>
<path d="M187.341 7.63989L186.381 8.78989H134.781V7.63989H187.341Z" fill="#B2B2B2"/>
<path d="M186.372 8.78979H134.762V143.06H186.372V8.78979Z" fill="white"/>
<path d="M120.189 143.07V144.61H67.6094L68.5594 143.07H120.189Z" fill="#B5B5B5"/>
<path d="M68.6094 8.78989L68.5594 143.07L67.6094 144.61L67.6494 7.63989L68.6094 8.78989Z" fill="#CECECE"/>
<path d="M120.238 7.63989V8.78989H68.6084L67.6484 7.63989H120.238Z" fill="#B2B2B2"/>
<path d="M120.208 8.78979H68.5781V143.06H120.208V8.78979Z" fill="white"/>
<path d="M125.95 78.1484V72.9684C125.961 72.8852 125.954 72.8006 125.929 72.7203C125.905 72.6399 125.864 72.5657 125.808 72.5026C125.753 72.4395 125.685 72.389 125.608 72.3543C125.532 72.3197 125.449 72.3018 125.365 72.3018C125.281 72.3018 125.198 72.3197 125.121 72.3543C125.045 72.389 124.977 72.4395 124.921 72.5026C124.866 72.5657 124.825 72.6399 124.8 72.7203C124.776 72.8006 124.769 72.8852 124.78 72.9684V78.1384C124.643 78.0458 124.531 77.9205 124.454 77.7739C124.377 77.6273 124.338 77.4639 124.34 77.2984V69.1884C124.34 68.9153 124.448 68.6533 124.642 68.4601C124.835 68.267 125.097 68.1584 125.37 68.1584C125.643 68.1584 125.905 68.267 126.098 68.4601C126.291 68.6533 126.4 68.9153 126.4 69.1884V77.2984C126.402 77.4665 126.362 77.6325 126.284 77.7811C126.205 77.9297 126.09 78.056 125.95 78.1484ZM125.37 70.2384C125.239 70.2384 125.113 70.2897 125.02 70.3813C124.926 70.4729 124.873 70.5976 124.87 70.7284C124.87 70.7936 124.883 70.8582 124.908 70.9183C124.933 70.9784 124.97 71.0329 125.017 71.0785C125.064 71.1241 125.119 71.16 125.179 71.1841C125.24 71.2081 125.305 71.2198 125.37 71.2184C125.435 71.2198 125.499 71.2081 125.559 71.1839C125.619 71.1598 125.674 71.1237 125.719 71.078C125.765 71.0322 125.801 70.9776 125.825 70.9176C125.85 70.8575 125.861 70.7932 125.86 70.7284C125.861 70.6637 125.85 70.5994 125.825 70.5393C125.801 70.4793 125.765 70.4247 125.719 70.3789C125.674 70.3331 125.619 70.2971 125.559 70.273C125.499 70.2488 125.435 70.2371 125.37 70.2384V70.2384Z" fill="url(#paint13_linear_229_3443)"/>
<path d="M125.948 90.6083V72.9683C125.959 72.885 125.952 72.8004 125.928 72.7201C125.904 72.6398 125.862 72.5656 125.807 72.5025C125.752 72.4394 125.683 72.3888 125.607 72.3542C125.53 72.3195 125.447 72.3016 125.363 72.3016C125.279 72.3016 125.196 72.3195 125.12 72.3542C125.044 72.3888 124.975 72.4394 124.92 72.5025C124.865 72.5656 124.823 72.6398 124.799 72.7201C124.775 72.8004 124.768 72.885 124.778 72.9683V90.6083C124.768 90.6915 124.775 90.7761 124.799 90.8564C124.823 90.9368 124.865 91.0109 124.92 91.0741C124.975 91.1372 125.044 91.1877 125.12 91.2224C125.196 91.257 125.279 91.2749 125.363 91.2749C125.447 91.2749 125.53 91.257 125.607 91.2224C125.683 91.1877 125.752 91.1372 125.807 91.0741C125.862 91.0109 125.904 90.9368 125.928 90.8564C125.952 90.7761 125.959 90.6915 125.948 90.6083V90.6083Z" fill="url(#paint14_linear_229_3443)"/>
<path d="M131.379 77.2984V69.1884C131.379 68.9139 131.27 68.6507 131.075 68.4566C130.881 68.2625 130.618 68.1534 130.344 68.1534C130.069 68.1534 129.806 68.2625 129.612 68.4566C129.418 68.6507 129.309 68.9139 129.309 69.1884V77.2984C129.308 77.4648 129.349 77.6288 129.427 77.7755C129.506 77.9221 129.62 78.0469 129.759 78.1384V72.9684C129.748 72.8852 129.755 72.8006 129.779 72.7202C129.804 72.6399 129.845 72.5657 129.9 72.5026C129.956 72.4395 130.024 72.389 130.1 72.3543C130.177 72.3197 130.26 72.3018 130.344 72.3018C130.428 72.3018 130.511 72.3197 130.587 72.3543C130.663 72.389 130.732 72.4395 130.787 72.5026C130.842 72.5657 130.884 72.6399 130.908 72.7202C130.933 72.8006 130.94 72.8852 130.929 72.9684V78.1384C131.068 78.0469 131.182 77.9221 131.26 77.7755C131.339 77.6288 131.379 77.4648 131.379 77.2984V77.2984Z" fill="url(#paint15_linear_229_3443)"/>
<path d="M130.929 90.6083V72.9683C130.94 72.885 130.933 72.8004 130.908 72.7201C130.884 72.6398 130.843 72.5656 130.787 72.5025C130.732 72.4394 130.664 72.3888 130.587 72.3542C130.511 72.3195 130.428 72.3016 130.344 72.3016C130.26 72.3016 130.177 72.3195 130.101 72.3542C130.024 72.3888 129.956 72.4394 129.9 72.5025C129.845 72.5656 129.804 72.6398 129.779 72.7201C129.755 72.8004 129.748 72.885 129.759 72.9683V90.6083C129.748 90.6915 129.755 90.7761 129.779 90.8564C129.804 90.9368 129.845 91.0109 129.9 91.0741C129.956 91.1372 130.024 91.1877 130.101 91.2224C130.177 91.257 130.26 91.2749 130.344 91.2749C130.428 91.2749 130.511 91.257 130.587 91.2224C130.664 91.1877 130.732 91.1372 130.787 91.0741C130.843 91.0109 130.884 90.9368 130.908 90.8564C130.933 90.7761 130.94 90.6915 130.929 90.6083Z" fill="url(#paint16_linear_229_3443)"/>
<path d="M125.861 70.7284C125.862 70.6637 125.851 70.5993 125.827 70.5393C125.802 70.4792 125.766 70.4247 125.721 70.3789C125.675 70.3331 125.62 70.2971 125.56 70.2729C125.5 70.2488 125.436 70.237 125.371 70.2384C125.24 70.2384 125.115 70.2897 125.021 70.3813C124.928 70.4729 124.874 70.5975 124.871 70.7284C124.871 70.7936 124.884 70.8581 124.909 70.9182C124.935 70.9784 124.972 71.0328 125.018 71.0785C125.065 71.1241 125.12 71.16 125.181 71.184C125.241 71.208 125.306 71.2197 125.371 71.2184C125.436 71.2198 125.5 71.208 125.56 71.1839C125.62 71.1597 125.675 71.1237 125.721 71.0779C125.766 71.0321 125.802 70.9776 125.827 70.9175C125.851 70.8574 125.862 70.7931 125.861 70.7284V70.7284Z" fill="url(#paint17_radial_229_3443)"/>
<path d="M130.84 70.7283C130.84 70.5957 130.787 70.4685 130.693 70.3747C130.6 70.2809 130.472 70.2283 130.34 70.2283C130.207 70.2283 130.08 70.2809 129.986 70.3747C129.893 70.4685 129.84 70.5957 129.84 70.7283C129.84 70.8609 129.893 70.988 129.986 71.0818C130.08 71.1756 130.207 71.2283 130.34 71.2283C130.472 71.2283 130.6 71.1756 130.693 71.0818C130.787 70.988 130.84 70.8609 130.84 70.7283Z" fill="url(#paint18_radial_229_3443)"/>
<path d="M254.43 152.62H251.64L251.48 3.11H3.06V154.05H0L0.18 0.21L254.26 0L254.43 152.62Z" fill="url(#paint19_linear_229_3443)"/>
<path d="M4.74859 4.75011V152.26L3.69859 153.38L3.05859 154.05V3.11011L4.74859 4.75011Z" fill="url(#paint20_linear_229_3443)"/>
<path d="M251.642 152.62L250.812 152.09L249.782 151.38V150.74L249.602 4.75011L251.482 3.11011L251.642 152.62Z" fill="url(#paint21_linear_229_3443)"/>
<path d="M251.479 3.11011L249.599 4.75011H4.74859L3.05859 3.11011H251.479Z" fill="url(#paint22_linear_229_3443)"/>
</g>
<defs>
<linearGradient id="paint0_linear_229_3443" x1="-1.04828" y1="1.97" x2="255.262" y2="149.95" gradientUnits="userSpaceOnUse">
<stop stop-color="#8C6239"/>
<stop offset="0.21" stop-color="#A67C50"/>
<stop offset="0.45" stop-color="#BD9365"/>
<stop offset="0.61" stop-color="#C69C6D"/>
<stop offset="0.71" stop-color="#BC9264"/>
<stop offset="0.88" stop-color="#A2784D"/>
<stop offset="1" stop-color="#8C6239"/>
</linearGradient>
<linearGradient id="paint1_linear_229_3443" x1="6.73047" y1="77.2999" x2="11.2005" y2="77.2999" gradientUnits="userSpaceOnUse">
<stop stop-color="#754C24"/>
<stop offset="1" stop-color="#42210B"/>
</linearGradient>
<linearGradient id="paint2_linear_229_3443" x1="242.773" y1="77.29" x2="247.733" y2="77.29" gradientUnits="userSpaceOnUse">
<stop stop-color="#754C24"/>
<stop offset="1" stop-color="#42210B"/>
</linearGradient>
<linearGradient id="paint3_linear_229_3443" x1="245.672" y1="9.33002" x2="245.382" y2="9.04002" gradientUnits="userSpaceOnUse">
<stop stop-color="#754C24"/>
<stop offset="1" stop-color="#42210B"/>
</linearGradient>
<linearGradient id="paint4_linear_229_3443" x1="6.73219" y1="8.88994" x2="60.8822" y2="8.88994" gradientUnits="userSpaceOnUse">
<stop stop-color="#754C24"/>
<stop offset="1" stop-color="#42210B"/>
</linearGradient>
<linearGradient id="paint5_linear_229_3443" x1="194.223" y1="9.14995" x2="247.723" y2="9.14995" gradientUnits="userSpaceOnUse">
<stop stop-color="#754C24"/>
<stop offset="1" stop-color="#42210B"/>
</linearGradient>
<linearGradient id="paint6_linear_229_3443" x1="161.893" y1="43.36" x2="93.2128" y2="-25.32" gradientUnits="userSpaceOnUse">
<stop stop-color="#754C24"/>
<stop offset="1" stop-color="#42210B"/>
</linearGradient>
<linearGradient id="paint7_linear_229_3443" x1="245.672" y1="9.33002" x2="245.382" y2="9.04002" gradientUnits="userSpaceOnUse">
<stop stop-color="#754C24"/>
<stop offset="1" stop-color="#42210B"/>
</linearGradient>
<linearGradient id="paint8_linear_229_3443" x1="7.26172" y1="144.56" x2="60.8417" y2="144.56" gradientUnits="userSpaceOnUse">
<stop stop-color="#754C24"/>
<stop offset="1" stop-color="#42210B"/>
</linearGradient>
<linearGradient id="paint9_linear_229_3443" x1="194.172" y1="144.13" x2="247.122" y2="144.13" gradientUnits="userSpaceOnUse">
<stop stop-color="#754C24"/>
<stop offset="1" stop-color="#42210B"/>
</linearGradient>
<linearGradient id="paint10_linear_229_3443" x1="127.5" y1="140.95" x2="127.5" y2="148.02" gradientUnits="userSpaceOnUse">
<stop stop-color="#754C24"/>
<stop offset="1" stop-color="#42210B"/>
</linearGradient>
<linearGradient id="paint11_linear_229_3443" x1="215.299" y1="130.43" x2="106.619" y2="21.7399" gradientUnits="userSpaceOnUse">
<stop stop-color="#C69C6D"/>
<stop offset="0.61" stop-color="#A67C52"/>
<stop offset="0.7" stop-color="#9C7349"/>
<stop offset="0.84" stop-color="#825932"/>
<stop offset="1" stop-color="#603813"/>
</linearGradient>
<linearGradient id="paint12_linear_229_3443" x1="154.291" y1="136.62" x2="45.4806" y2="27.7999" gradientUnits="userSpaceOnUse">
<stop stop-color="#C69C6D"/>
<stop offset="0.61" stop-color="#A67C52"/>
<stop offset="0.7" stop-color="#9C7349"/>
<stop offset="0.84" stop-color="#825932"/>
<stop offset="1" stop-color="#603813"/>
</linearGradient>
<linearGradient id="paint13_linear_229_3443" x1="124.34" y1="73.1484" x2="126.4" y2="73.1484" gradientUnits="userSpaceOnUse">
<stop stop-color="#CCCCCC"/>
<stop offset="1" stop-color="#E6E6E6"/>
</linearGradient>
<linearGradient id="paint14_linear_229_3443" x1="124.778" y1="81.7883" x2="125.948" y2="81.7883" gradientUnits="userSpaceOnUse">
<stop stop-color="#999999"/>
<stop offset="1" stop-color="#CCCCCC"/>
</linearGradient>
<linearGradient id="paint15_linear_229_3443" x1="129.309" y1="73.1484" x2="131.379" y2="73.1484" gradientUnits="userSpaceOnUse">
<stop stop-color="#CCCCCC"/>
<stop offset="1" stop-color="#E6E6E6"/>
</linearGradient>
<linearGradient id="paint16_linear_229_3443" x1="129.759" y1="81.7883" x2="130.929" y2="81.7883" gradientUnits="userSpaceOnUse">
<stop stop-color="#999999"/>
<stop offset="1" stop-color="#CCCCCC"/>
</linearGradient>
<radialGradient id="paint17_radial_229_3443" cx="0" cy="0" r="1" gradientUnits="userSpaceOnUse" gradientTransform="translate(125.371 70.7284) scale(0.490003 0.490005)">
<stop stop-color="#4D4D4D"/>
<stop offset="0.5" stop-color="#4D4D4D"/>
<stop offset="1" stop-color="#333333"/>
</radialGradient>
<radialGradient id="paint18_radial_229_3443" cx="0" cy="0" r="1" gradientUnits="userSpaceOnUse" gradientTransform="translate(130.34 70.7283) scale(0.49)">
<stop stop-color="#4D4D4D"/>
<stop offset="0.5" stop-color="#4D4D4D"/>
<stop offset="1" stop-color="#333333"/>
</radialGradient>
<linearGradient id="paint19_linear_229_3443" x1="-1.34" y1="2.85" x2="255.34" y2="151.05" gradientUnits="userSpaceOnUse">
<stop stop-color="#A67C52"/>
<stop offset="0.61" stop-color="#C69C6D"/>
<stop offset="0.77" stop-color="#BC9265"/>
<stop offset="1" stop-color="#A67C52"/>
</linearGradient>
<linearGradient id="paint20_linear_229_3443" x1="40.8086" y1="116.3" x2="-34.6614" y2="40.8301" gradientUnits="userSpaceOnUse">
<stop stop-color="#754C24"/>
<stop offset="1" stop-color="#42210B"/>
</linearGradient>
<linearGradient id="paint21_linear_229_3443" x1="288.821" y1="115.44" x2="213.871" y2="40.4803" gradientUnits="userSpaceOnUse">
<stop stop-color="#754C24"/>
<stop offset="1" stop-color="#42210B"/>
</linearGradient>
<linearGradient id="paint22_linear_229_3443" x1="189.379" y1="65.2201" x2="65.1686" y2="-58.9899" gradientUnits="userSpaceOnUse">
<stop stop-color="#754C24"/>
<stop offset="1" stop-color="#42210B"/>
</linearGradient>
<clipPath id="clip0_229_3443">
<rect width="254.43" height="154.05" fill="white"/>
</clipPath>
</defs>
</svg>
