<svg width="177" height="196" viewBox="0 0 177 196" fill="none" xmlns="http://www.w3.org/2000/svg">
<g clip-path="url(#clip0_229_3523)">
<path d="M175.482 7.31006L0.381718 7.06006L0.0117188 189.71H8.01172L168.802 190.91H176.012L175.482 7.31006ZM8.01172 181.94L7.87172 14.6101L168.262 15.4001L168.732 181.94H8.01172Z" fill="url(#paint0_linear_229_3523)"/>
<path d="M12.3411 174.65L7.96109 181.94L7.87109 14.6101L12.2511 18.8701L12.3411 174.65Z" fill="url(#paint1_linear_229_3523)"/>
<path d="M168.733 181.94L163.883 174.65L163.363 19.6601L168.263 15.4001L168.733 181.94Z" fill="url(#paint2_linear_229_3523)"/>
<path d="M168.261 15.4101L163.361 19.6701L12.2511 18.8701L7.87109 14.6101L168.261 15.4101Z" fill="url(#paint3_linear_229_3523)"/>
<path d="M168.731 181.94H7.96094L12.3409 174.65H163.881L168.731 181.94Z" fill="url(#paint4_linear_229_3523)"/>
<path d="M176.022 192.16H173.232L172.702 10.4201L3.26172 9.96006L3.07172 191.5H0.0117188L0.381719 7.06006L175.482 7.31006L176.022 192.16Z" fill="url(#paint5_linear_229_3523)"/>
<path d="M4.95031 11.6L4.75031 189.71L3.71031 190.83L3.07031 191.5L3.26031 9.95996L4.95031 11.6Z" fill="url(#paint6_linear_229_3523)"/>
<path d="M173.23 192.16L172.4 191.63L171.37 190.91V190.27L170.82 12.0602L172.7 10.4202L173.23 192.16Z" fill="url(#paint7_linear_229_3523)"/>
<path d="M172.702 10.42L170.822 12.06L4.95172 11.6L3.26172 9.95996L172.702 10.42Z" fill="url(#paint8_linear_229_3523)"/>
<path d="M44.7214 22.2301V22.9701H42.4814L42.4714 22.2301H43.1514V16.6401H42.4414V15.8501H44.6814L44.6914 16.6401H43.9714V22.2301H44.7214Z" fill="url(#paint9_linear_229_3523)"/>
<path d="M94.1508 19.5301V15.1201L92.0108 14.5601L92.1008 11.7201L90.1008 11.2201L82.7108 9.35007L71.3308 6.49007L51.8008 1.57007V6.46007L52.5808 178.22V180.53V185.06V192.31L73.5808 185.2L86.7508 180.75L91.9608 179V175.69L94.0808 174.78V170.25L95.0108 170.01V19.7601L94.1508 19.5301ZM90.4908 170.82L67.6508 178.3L60.6508 180.58L58.2808 181.36V178.25L57.6708 13.8401V12.7801L90.4908 19.7801V170.82Z" fill="url(#paint10_linear_229_3523)"/>
<path d="M95.7495 12.64V19.9L95.1495 19.77L94.1495 19.53V15.14L92.0195 14.56L92.1095 11.72L95.7495 12.64Z" fill="url(#paint11_linear_229_3523)"/>
<path d="M95.7516 169.85V177.76L95.1516 177.97L94.8516 178.07L93.7716 178.43H93.7616L92.1016 179V175.69L94.2216 174.78V170.25L95.1516 170.01L95.7516 169.85Z" fill="url(#paint12_linear_229_3523)"/>
<path d="M52.6613 192.31L48.8913 190.77L47.0613 191.54L47.0312 185.02L47.0213 180.49L47.0112 178.19L46.2913 6.45008L46.2812 4.77008V2.59008L51.7913 1.58008L51.8113 6.46008L52.5913 178.22L52.6113 180.53L52.6313 185.06L52.6613 192.31Z" fill="url(#paint13_linear_229_3523)"/>
<path d="M90.4908 19.78V170.82L89.3008 170.13L89.3308 20.5L90.4908 19.78Z" fill="#CECECE"/>
<path d="M90.4912 170.82L67.6513 178.3H67.6413L60.6712 180.58H60.6613L58.2913 181.36V180.57L58.2812 180.05L63.8113 178.27H63.8213L89.3013 170.13L90.4912 170.82Z" fill="#B5B5B5"/>
<path d="M90.4919 19.78L89.3319 20.5L57.6719 13.84V12.79L90.4919 19.78Z" fill="#B2B2B2"/>
<path d="M165.48 12.47L152.78 7.76L132.54 0.25V7.73L131.48 179.81V182.24V186.78V195.24L148.89 186.9L158.22 182.41L163.3 179.98L165.58 178.88L167.12 13.12L165.48 12.47ZM160.21 172.41L144.06 179.88L138.85 182.28L137.22 183.05V181.74V179.84L137.84 101.49H137.38V102.65C137.382 102.768 137.36 102.885 137.316 102.994C137.271 103.103 137.206 103.202 137.123 103.286C137.041 103.37 136.942 103.436 136.833 103.481C136.725 103.527 136.608 103.55 136.49 103.55H135.77C135.532 103.55 135.303 103.455 135.134 103.286C134.965 103.118 134.87 102.889 134.87 102.65V97.99C134.87 97.7513 134.965 97.5224 135.134 97.3536C135.303 97.1848 135.532 97.09 135.77 97.09H136.49C136.608 97.09 136.725 97.1133 136.833 97.1587C136.942 97.204 137.041 97.2705 137.123 97.3542C137.206 97.4379 137.271 97.5372 137.316 97.6463C137.36 97.7555 137.382 97.8723 137.38 97.99V99.22H137.87L138.54 13.81V12.6L161.62 20.05L160.21 172.41Z" fill="url(#paint14_linear_229_3523)"/>
<path d="M136.491 103.56H135.771C135.532 103.56 135.303 103.465 135.135 103.296C134.966 103.128 134.871 102.899 134.871 102.66V98.0001C134.871 97.8819 134.894 97.7649 134.94 97.6557C134.985 97.5465 135.051 97.4473 135.135 97.3637C135.218 97.2801 135.317 97.2138 135.427 97.1686C135.536 97.1234 135.653 97.1001 135.771 97.1001H136.491C136.373 97.1001 136.256 97.1234 136.147 97.1686C136.037 97.2138 135.938 97.2801 135.855 97.3637C135.771 97.4473 135.705 97.5465 135.66 97.6557C135.614 97.7649 135.591 97.8819 135.591 98.0001V102.66C135.591 102.899 135.686 103.128 135.855 103.296C136.023 103.465 136.252 103.56 136.491 103.56V103.56Z" fill="url(#paint15_linear_229_3523)"/>
<path d="M161.63 20.05L160.21 172.41L159 171.8L160.56 20.92L161.63 20.05Z" fill="#CECECE"/>
<path d="M160.209 172.41L144.059 179.88L138.849 182.28H138.829L137.199 183.05V182.28V181.74L141.319 179.87H141.329L158.999 171.8L160.209 172.41Z" fill="#B5B5B5"/>
<path d="M161.629 20.0501L160.559 20.9201L138.539 13.8301L138.549 12.6001L161.629 20.0501Z" fill="#B2B2B2"/>
<path d="M132.54 0.25L132.5 7.73L131.44 179.81L131.43 182.24L131.4 186.78L131.35 195.24L126.41 192.15L126.45 186.75L126.48 182.2L126.5 179.78L126.52 176.89L127.68 18.26L127.73 12.33V10.47L127.76 7.72L127.77 5.42L132.54 0.25Z" fill="url(#paint16_linear_229_3523)"/>
<path d="M38.6714 184.97V180.44V178.14L37.7814 6.44V0L20.0114 6.41L6.9314 11.12L4.44141 12.02L6.15141 169.22L6.22141 176.13V177.26L7.58141 177.94L12.1714 180.22L21.3914 184.81L38.7214 193.42L38.6714 184.97ZM36.7614 102.12C36.7614 102.238 36.7381 102.355 36.6929 102.464C36.6477 102.574 36.5814 102.673 36.4978 102.756C36.4142 102.84 36.315 102.906 36.2058 102.951C36.0966 102.997 35.9796 103.02 35.8614 103.02H35.1414C35.0237 103.02 34.9071 102.997 34.7985 102.951C34.6899 102.906 34.5913 102.84 34.5085 102.756C34.4257 102.672 34.3604 102.573 34.3163 102.464C34.2721 102.355 34.2501 102.238 34.2514 102.12V100.96C33.6914 100.96 33.1714 100.96 32.6614 100.96L33.2414 178.12V179.59V180.78L32.3914 180.39L27.3914 178.08L11.6114 170.85L9.3614 19.51L32.0114 12.78V14.06L32.6414 98.75H34.2514V97.52C34.2514 97.2839 34.3452 97.0576 34.5121 96.8907C34.679 96.7238 34.9054 96.63 35.1414 96.63H35.8614C35.9791 96.6287 36.0959 96.6507 36.2051 96.6949C36.3142 96.739 36.4135 96.8043 36.4972 96.8871C36.5809 96.9699 36.6474 97.0684 36.6927 97.1771C36.7381 97.2857 36.7614 97.4023 36.7614 97.52V102.12Z" fill="url(#paint17_linear_229_3523)"/>
<path d="M36.7616 97.47V102.12C36.7616 102.238 36.7383 102.355 36.6931 102.464C36.6478 102.574 36.5815 102.673 36.498 102.756C36.4144 102.84 36.3152 102.906 36.206 102.952C36.0968 102.997 35.9798 103.02 35.8616 103.02H35.1416C35.375 103.012 35.5963 102.914 35.7587 102.746C35.921 102.578 36.0117 102.354 36.0116 102.12V97.46C36.0103 97.3418 35.9857 97.225 35.9392 97.1164C35.8928 97.0077 35.8254 96.9092 35.7409 96.8265C35.6564 96.7439 35.5565 96.6787 35.4468 96.6347C35.3371 96.5907 35.2198 96.5687 35.1016 96.57H35.8216C35.9434 96.5631 36.0654 96.5814 36.1799 96.6237C36.2944 96.666 36.399 96.7313 36.4871 96.8158C36.5753 96.9002 36.6452 97.0018 36.6924 97.1144C36.7396 97.2269 36.7631 97.348 36.7616 97.47V97.47Z" fill="url(#paint18_linear_229_3523)"/>
<path d="M47.0589 191.54L45.5689 190.69L45.5289 185.01L45.5089 180.48L45.4989 178.18V177.32L45.1089 101.48V100.32L45.0889 95.85L45.0789 94.72L44.7189 22.97V22.23L44.6889 16.64L44.6789 15.85L44.6589 11.15L44.6389 6.45002L44.6289 5.34002L46.2789 4.77002L46.2889 6.45002L46.9989 178.19L47.0089 180.49L47.0289 185.02L47.0589 191.54Z" fill="url(#paint19_linear_229_3523)"/>
<path d="M43.5009 190.4L38.7109 193.46L38.6709 184.97L38.6509 180.44L38.6309 178.15L37.7409 6.44L37.7109 0L42.3709 5.1L42.3809 6.45L42.4109 11.15L42.4409 15.85V16.64L42.4709 22.23L42.4809 22.97L42.9109 94.72L42.9209 95.85L42.9509 100.32L42.9609 101.48L43.4209 177.32V178.17L43.4409 180.47L43.4709 185L43.5009 190.4Z" fill="url(#paint20_linear_229_3523)"/>
<path d="M12.6394 170.19L11.5894 170.85L9.35938 19.51L10.8894 20.26L12.6394 170.19Z" fill="#CECECE"/>
<path d="M33.2598 180.4L32.4098 180.39L27.3698 178.09L11.5898 170.85L12.6398 170.19L29.9798 178.1H29.9898L33.2498 179.59L33.2598 180.4Z" fill="#B5B5B5"/>
<path d="M32.0094 14.06L10.8894 20.26L9.35938 19.51L31.9994 12.79L32.0094 14.06Z" fill="#B2B2B2"/>
<path d="M45.1202 100.32V101.48H42.9602L42.9502 100.32H43.7202V95.85H42.9202L42.9102 94.72H45.0902V95.85H44.4502V100.32H45.1202Z" fill="url(#paint21_linear_229_3523)"/>
<path d="M136.181 99.9701V100.75C136.181 100.952 136.261 101.145 136.404 101.288C136.546 101.43 136.739 101.51 136.941 101.51H137.381V102.67C137.394 102.796 137.381 102.922 137.342 103.042C137.303 103.163 137.239 103.273 137.155 103.367C137.071 103.461 136.967 103.536 136.852 103.587C136.737 103.638 136.612 103.665 136.486 103.665C136.36 103.665 136.235 103.638 136.12 103.587C136.004 103.536 135.901 103.461 135.817 103.367C135.732 103.273 135.669 103.163 135.63 103.042C135.591 102.922 135.578 102.796 135.591 102.67V98.0101C135.578 97.8846 135.591 97.7578 135.63 97.6377C135.669 97.5177 135.732 97.4072 135.817 97.3134C135.901 97.2196 136.004 97.1446 136.12 97.0933C136.235 97.0419 136.36 97.0154 136.486 97.0154C136.612 97.0154 136.737 97.0419 136.852 97.0933C136.967 97.1446 137.071 97.2196 137.155 97.3134C137.239 97.4072 137.303 97.5177 137.342 97.6377C137.381 97.7578 137.394 97.8846 137.381 98.0101V99.2401H136.961C136.761 99.2347 136.567 99.3083 136.421 99.4449C136.275 99.5816 136.189 99.7703 136.181 99.9701Z" fill="url(#paint22_linear_229_3523)"/>
<path d="M145.84 100.12C145.842 100.345 145.761 100.562 145.614 100.732C145.467 100.901 145.262 101.011 145.04 101.04C143.8 101.18 141.18 101.45 137.84 101.51H136.94C136.738 101.51 136.545 101.43 136.402 101.288C136.26 101.145 136.18 100.952 136.18 100.75V99.9701C136.18 99.8686 136.2 99.7681 136.239 99.6746C136.279 99.581 136.337 99.4964 136.409 99.4255C136.482 99.3547 136.568 99.2991 136.663 99.2621C136.757 99.2251 136.858 99.2074 136.96 99.2101H137.38H137.87C140.202 99.3181 142.539 99.3014 144.87 99.1601C144.998 99.153 145.127 99.1729 145.247 99.2185C145.367 99.264 145.476 99.3343 145.568 99.4248C145.659 99.5153 145.731 99.6239 145.777 99.7436C145.824 99.8634 145.845 99.9916 145.84 100.12V100.12Z" fill="url(#paint23_linear_229_3523)"/>
<path d="M36.011 97.4701V102.12C36.011 102.239 35.9874 102.357 35.9415 102.467C35.8957 102.577 35.8285 102.676 35.7439 102.76C35.6592 102.844 35.5588 102.91 35.4485 102.954C35.3381 102.999 35.22 103.021 35.101 103.02C34.9833 103.02 34.8667 102.997 34.7581 102.951C34.6494 102.906 34.5509 102.84 34.4681 102.756C34.3853 102.672 34.32 102.573 34.2759 102.464C34.2317 102.355 34.2097 102.238 34.211 102.12V100.96H34.661C34.8618 100.958 35.0536 100.877 35.1955 100.735C35.3375 100.593 35.4184 100.401 35.421 100.2V99.4201C35.4211 99.3182 35.4005 99.2173 35.3603 99.1235C35.3202 99.0298 35.2613 98.9453 35.1874 98.8751C35.1134 98.8049 35.026 98.7505 34.9303 98.7153C34.8346 98.68 34.7328 98.6647 34.631 98.6701H34.211V97.4401C34.211 97.2041 34.3048 96.9777 34.4717 96.8108C34.6386 96.6439 34.865 96.5501 35.101 96.5501C35.2217 96.5487 35.3415 96.5717 35.4532 96.6176C35.5649 96.6634 35.6662 96.7313 35.7511 96.8172C35.836 96.903 35.9028 97.005 35.9474 97.1172C35.9921 97.2294 36.0137 97.3494 36.011 97.4701V97.4701Z" fill="url(#paint24_linear_229_3523)"/>
<path d="M35.4591 99.4399V100.22C35.4565 100.421 35.3756 100.612 35.2336 100.754C35.0916 100.896 34.8998 100.977 34.6991 100.98H34.2491C33.6891 100.98 33.1691 100.98 32.6591 100.98C29.8691 100.88 27.6591 100.66 26.5891 100.52C26.3681 100.495 26.1641 100.39 26.0164 100.223C25.8687 100.057 25.7877 99.8422 25.7891 99.6199C25.7901 99.4925 25.8173 99.3667 25.8689 99.2502C25.9206 99.1337 25.9956 99.0291 26.0894 98.9428C26.1832 98.8566 26.2936 98.7905 26.414 98.7487C26.5344 98.7069 26.662 98.6903 26.7891 98.6999C28.7396 98.83 30.6955 98.8601 32.6491 98.7899H34.2591H34.6791C34.8669 98.7807 35.0513 98.8425 35.1958 98.9628C35.3403 99.0832 35.4342 99.2535 35.4591 99.4399Z" fill="url(#paint25_linear_229_3523)"/>
<path d="M45.5119 178.18L43.4319 178.17L43.4219 177.32H43.9519V171.2H44.8819V177.32H45.5019L45.5119 178.18Z" fill="url(#paint26_linear_229_3523)"/>
</g>
<defs>
<linearGradient id="paint0_linear_229_3523" x1="-17.3783" y1="37.8201" x2="193.962" y2="159.84" gradientUnits="userSpaceOnUse">
<stop stop-color="#8C6239"/>
<stop offset="0.21" stop-color="#A67C50"/>
<stop offset="0.45" stop-color="#BD9365"/>
<stop offset="0.61" stop-color="#C69C6D"/>
<stop offset="0.71" stop-color="#BC9264"/>
<stop offset="0.88" stop-color="#A2784D"/>
<stop offset="1" stop-color="#8C6239"/>
</linearGradient>
<linearGradient id="paint1_linear_229_3523" x1="49.8011" y1="140.1" x2="-33.9089" y2="56.3901" gradientUnits="userSpaceOnUse">
<stop stop-color="#754C24"/>
<stop offset="1" stop-color="#42210B"/>
</linearGradient>
<linearGradient id="paint2_linear_229_3523" x1="210.253" y1="140.42" x2="126.423" y2="56.6002" gradientUnits="userSpaceOnUse">
<stop stop-color="#754C24"/>
<stop offset="1" stop-color="#42210B"/>
</linearGradient>
<linearGradient id="paint3_linear_229_3523" x1="128.361" y1="55.3001" x2="47.7711" y2="-25.2899" gradientUnits="userSpaceOnUse">
<stop stop-color="#754C24"/>
<stop offset="1" stop-color="#42210B"/>
</linearGradient>
<linearGradient id="paint4_linear_229_3523" x1="88.3509" y1="174.65" x2="88.3509" y2="181.94" gradientUnits="userSpaceOnUse">
<stop stop-color="#754C24"/>
<stop offset="1" stop-color="#42210B"/>
</linearGradient>
<linearGradient id="paint5_linear_229_3523" x1="-17.7583" y1="38.4901" x2="194.122" y2="160.82" gradientUnits="userSpaceOnUse">
<stop stop-color="#A67C52"/>
<stop offset="0.61" stop-color="#C69C6D"/>
<stop offset="0.77" stop-color="#BC9265"/>
<stop offset="1" stop-color="#A67C52"/>
</linearGradient>
<linearGradient id="paint6_linear_229_3523" x1="48.5103" y1="146.05" x2="-42.1597" y2="55.38" gradientUnits="userSpaceOnUse">
<stop stop-color="#754C24"/>
<stop offset="1" stop-color="#42210B"/>
</linearGradient>
<linearGradient id="paint7_linear_229_3523" x1="218.38" y1="147.01" x2="127.13" y2="55.7506" gradientUnits="userSpaceOnUse">
<stop stop-color="#754C24"/>
<stop offset="1" stop-color="#42210B"/>
</linearGradient>
<linearGradient id="paint8_linear_229_3523" x1="130.462" y1="52.67" x2="45.5117" y2="-32.28" gradientUnits="userSpaceOnUse">
<stop stop-color="#754C24"/>
<stop offset="1" stop-color="#42210B"/>
</linearGradient>
<linearGradient id="paint9_linear_229_3523" x1="41.2314" y1="17.0601" x2="45.9314" y2="21.7601" gradientUnits="userSpaceOnUse">
<stop stop-color="#736357"/>
<stop offset="1" stop-color="#534741"/>
</linearGradient>
<linearGradient id="paint10_linear_229_3523" x1="11.8708" y1="41.4901" x2="120.731" y2="150.36" gradientUnits="userSpaceOnUse">
<stop stop-color="#C69C6D"/>
<stop offset="0.61" stop-color="#A67C52"/>
<stop offset="0.7" stop-color="#9C7349"/>
<stop offset="0.84" stop-color="#825932"/>
<stop offset="1" stop-color="#603813"/>
</linearGradient>
<linearGradient id="paint11_linear_229_3523" x1="92.0195" y1="15.81" x2="95.7595" y2="15.81" gradientUnits="userSpaceOnUse">
<stop stop-color="#333333"/>
<stop offset="0.12" stop-color="#3A3A3A"/>
<stop offset="1" stop-color="#666666"/>
</linearGradient>
<linearGradient id="paint12_linear_229_3523" x1="92.1016" y1="174.43" x2="95.7616" y2="174.43" gradientUnits="userSpaceOnUse">
<stop stop-color="#333333"/>
<stop offset="0.36" stop-color="#424242"/>
<stop offset="1" stop-color="#666666"/>
</linearGradient>
<linearGradient id="paint13_linear_229_3523" x1="46.2812" y1="96.9401" x2="52.6613" y2="96.9401" gradientUnits="userSpaceOnUse">
<stop stop-color="#603813"/>
<stop offset="0.05" stop-color="#5C3512"/>
<stop offset="0.28" stop-color="#4D2A0E"/>
<stop offset="0.56" stop-color="#45230C"/>
<stop offset="1" stop-color="#42210B"/>
</linearGradient>
<linearGradient id="paint14_linear_229_3523" x1="88.9305" y1="43.86" x2="194.71" y2="149.64" gradientUnits="userSpaceOnUse">
<stop stop-color="#603813"/>
<stop offset="0.47" stop-color="#C69C6D"/>
<stop offset="1" stop-color="#A67C52"/>
</linearGradient>
<linearGradient id="paint15_linear_229_3523" x1="134.871" y1="100.33" x2="136.491" y2="100.33" gradientUnits="userSpaceOnUse">
<stop stop-color="#999999"/>
<stop offset="1" stop-color="#F2F2F2"/>
</linearGradient>
<linearGradient id="paint16_linear_229_3523" x1="126.41" y1="97.75" x2="132.54" y2="97.75" gradientUnits="userSpaceOnUse">
<stop stop-color="#603813"/>
<stop offset="0.05" stop-color="#5C3512"/>
<stop offset="0.28" stop-color="#4D2A0E"/>
<stop offset="0.56" stop-color="#45230C"/>
<stop offset="1" stop-color="#42210B"/>
</linearGradient>
<linearGradient id="paint17_linear_229_3523" x1="-23.3786" y1="147.7" x2="81.0214" y2="43.31" gradientUnits="userSpaceOnUse">
<stop stop-color="#603813"/>
<stop offset="0.47" stop-color="#C69C6D"/>
<stop offset="1" stop-color="#A67C52"/>
</linearGradient>
<linearGradient id="paint18_linear_229_3523" x1="35.1416" y1="99.8" x2="36.7616" y2="99.8" gradientUnits="userSpaceOnUse">
<stop stop-color="#999999"/>
<stop offset="1" stop-color="#F2F2F2"/>
</linearGradient>
<linearGradient id="paint19_linear_229_3523" x1="44.6289" y1="98.16" x2="47.0589" y2="98.16" gradientUnits="userSpaceOnUse">
<stop stop-color="#754C24"/>
<stop offset="0.03" stop-color="#704822"/>
<stop offset="0.2" stop-color="#5C3718"/>
<stop offset="0.4" stop-color="#4D2A11"/>
<stop offset="0.63" stop-color="#45230C"/>
<stop offset="1" stop-color="#42210B"/>
</linearGradient>
<linearGradient id="paint20_linear_229_3523" x1="37.7109" y1="96.73" x2="43.5009" y2="96.73" gradientUnits="userSpaceOnUse">
<stop stop-color="#603813"/>
<stop offset="0.05" stop-color="#5C3512"/>
<stop offset="0.28" stop-color="#4D2A0E"/>
<stop offset="0.56" stop-color="#45230C"/>
<stop offset="1" stop-color="#42210B"/>
</linearGradient>
<linearGradient id="paint21_linear_229_3523" x1="42.9102" y1="98.1" x2="45.1102" y2="98.1" gradientUnits="userSpaceOnUse">
<stop stop-color="#736357"/>
<stop offset="1" stop-color="#534741"/>
</linearGradient>
<linearGradient id="paint22_linear_229_3523" x1="135.591" y1="100.33" x2="137.381" y2="100.33" gradientUnits="userSpaceOnUse">
<stop stop-color="#CCCCCC"/>
<stop offset="1" stop-color="#E6E6E6"/>
</linearGradient>
<linearGradient id="paint23_linear_229_3523" x1="136.18" y1="100.35" x2="145.84" y2="100.35" gradientUnits="userSpaceOnUse">
<stop stop-color="#999999"/>
<stop offset="1" stop-color="#CCCCCC"/>
</linearGradient>
<linearGradient id="paint24_linear_229_3523" x1="34.251" y1="99.8001" x2="36.051" y2="99.8001" gradientUnits="userSpaceOnUse">
<stop stop-color="#CCCCCC"/>
<stop offset="1" stop-color="#E6E6E6"/>
</linearGradient>
<linearGradient id="paint25_linear_229_3523" x1="25.7891" y1="99.8199" x2="35.4591" y2="99.8199" gradientUnits="userSpaceOnUse">
<stop stop-color="#999999"/>
<stop offset="1" stop-color="#CCCCCC"/>
</linearGradient>
<linearGradient id="paint26_linear_229_3523" x1="43.4219" y1="174.69" x2="45.5119" y2="174.69" gradientUnits="userSpaceOnUse">
<stop stop-color="#736357"/>
<stop offset="1" stop-color="#534741"/>
</linearGradient>
<clipPath id="clip0_229_3523">
<rect width="176.02" height="195.24" fill="white"/>
</clipPath>
</defs>
</svg>
