<svg width="228" height="245" viewBox="0 0 228 245" fill="none" xmlns="http://www.w3.org/2000/svg">
<path d="M227.902 243.6H220.702L220.202 8.6H8.00156V243.1H0.101562L0.501564 1.1L227.502 0.5L227.902 243.6Z" fill="url(#paint0_linear_229_4345)"/>
<path d="M12.4 12.9V238.5L9.7 241.4L8 243.1V8.59998L12.4 12.9Z" fill="url(#paint1_linear_229_4345)"/>
<path d="M220.701 243.6L218.501 242.2L215.801 240.3V238.6L215.301 12.9L220.201 8.59998L220.701 243.6Z" fill="url(#paint2_linear_229_4345)"/>
<path d="M218.503 242.2L9.70312 241.4L12.4031 238.5L215.803 238.6V240.3L218.503 242.2Z" fill="#E0CFBD"/>
<path d="M215.802 238.6L12.4023 238.5V12.9H107.902V21.6H20.7023V224.3H107.902V238.5L215.802 238.6Z" fill="url(#paint3_linear_229_4345)"/>
<path d="M107.903 21.6V23.3H24.8031L20.7031 21.6H107.903Z" fill="#B2B2B2"/>
<path d="M24.8031 23.3V222.2L20.7031 224.3V21.6L24.8031 23.3Z" fill="#CECECE"/>
<path d="M107.903 222.1V224.3H20.7031L24.8031 222.2L107.903 222.1Z" fill="#B5B5B5"/>
<path d="M220.2 8.59998L215.3 12.9H12.4L8 8.59998H220.2Z" fill="url(#paint4_linear_229_4345)"/>
<path d="M207.098 20.2001V223.6L205.398 222.1V21.6001L207.098 20.2001Z" fill="#CECECE"/>
<path d="M207.1 20.2001L205.4 21.6001L118.5 21.8001L116.5 20.2001H207.1Z" fill="#B2B2B2"/>
<path d="M118.5 21.8001L118.2 222.9L116.7 224.4L116.5 20.2001L118.5 21.8001Z" fill="#CECECE"/>
<path d="M215.298 12.9H107.898V238.5L215.798 238.6L215.298 12.9ZM207.098 223.6L116.698 224.4L116.498 20.2H207.098V223.6Z" fill="url(#paint5_linear_229_4345)"/>
<path d="M207.099 223.6L116.699 224.4L118.199 222.9L205.399 222.1L207.099 223.6Z" fill="#B5B5B5"/>
<path d="M17.6984 124.1V115.1C17.6984 114.5 17.1984 114 16.5984 114C15.9984 114 15.3984 114.5 15.3984 115.1V124.1C15.3984 124.5 15.5984 124.8 15.8984 125V119.2C15.8984 118.8 16.1984 118.5 16.5984 118.5C16.9984 118.5 17.1984 118.8 17.1984 119.2V125C17.4984 124.9 17.6984 124.5 17.6984 124.1Z" fill="url(#paint6_linear_229_4345)"/>
<path d="M17.1984 139V119.3C17.1984 118.9 16.8984 118.6 16.5984 118.6C16.2984 118.6 15.8984 118.9 15.8984 119.3V139C15.8984 139.4 16.1984 139.6 16.5984 139.6C16.9984 139.6 17.1984 139.3 17.1984 139Z" fill="url(#paint7_linear_229_4345)"/>
<path d="M17.1 116.9C17.1 116.6 16.9 116.4 16.5 116.4C16.2 116.4 16 116.6 16 116.9C16 117.2 16.2 117.4 16.5 117.4C16.9 117.4 17.1 117.2 17.1 116.9Z" fill="url(#paint8_radial_229_4345)"/>
<path d="M227.9 244.8H225.1V3.6L3.7 4L3.1 244.9H0L0.799999 1.1L227.9 0.5V244.8Z" fill="url(#paint9_linear_229_4345)"/>
<path d="M5.40157 5.7L4.70156 243.1L3.70156 244.3L3.10156 244.9L3.70156 4L5.40157 5.7Z" fill="url(#paint10_linear_229_4345)"/>
<path d="M225.099 244.8L224.299 244.3L223.199 243.6V242.9V5.29998L225.099 3.59998V244.8Z" fill="url(#paint11_linear_229_4345)"/>
<path d="M225.099 3.59998L223.199 5.29998L5.39922 5.69998L3.69922 3.99998L225.099 3.59998Z" fill="url(#paint12_linear_229_4345)"/>
<defs>
<linearGradient id="paint0_linear_229_4345" x1="-23.4471" y1="42.6196" x2="252.082" y2="201.696" gradientUnits="userSpaceOnUse">
<stop stop-color="#A67C52"/>
<stop offset="0.6068" stop-color="#C69C6D"/>
<stop offset="0.7665" stop-color="#BC9265"/>
<stop offset="1" stop-color="#A67C52"/>
</linearGradient>
<linearGradient id="paint1_linear_229_4345" x1="66.6925" y1="184.487" x2="-50.5725" y2="67.2224" gradientUnits="userSpaceOnUse">
<stop stop-color="#754C24"/>
<stop offset="1" stop-color="#42210B"/>
</linearGradient>
<linearGradient id="paint2_linear_229_4345" x1="278.888" y1="185.322" x2="160.898" y2="67.3323" gradientUnits="userSpaceOnUse">
<stop stop-color="#754C24"/>
<stop offset="1" stop-color="#42210B"/>
</linearGradient>
<linearGradient id="paint3_linear_229_4345" x1="-24.4946" y1="76.8046" x2="225.824" y2="221.326" gradientUnits="userSpaceOnUse">
<stop stop-color="#A67C52"/>
<stop offset="0.6068" stop-color="#C69C6D"/>
<stop offset="1" stop-color="#C69C6D"/>
</linearGradient>
<linearGradient id="paint4_linear_229_4345" x1="167.195" y1="61.675" x2="61.0849" y2="-44.435" gradientUnits="userSpaceOnUse">
<stop stop-color="#754C24"/>
<stop offset="1" stop-color="#42210B"/>
</linearGradient>
<linearGradient id="paint5_linear_229_4345" x1="245.211" y1="209.258" x2="78.3859" y2="42.4325" gradientUnits="userSpaceOnUse">
<stop stop-color="#A67C52"/>
<stop offset="0.5495" stop-color="#C69C6D"/>
<stop offset="0.7324" stop-color="#BC9265"/>
<stop offset="1" stop-color="#A67C52"/>
</linearGradient>
<linearGradient id="paint6_linear_229_4345" x1="15.4084" y1="119.501" x2="17.7084" y2="119.501" gradientUnits="userSpaceOnUse">
<stop stop-color="#CCCCCC"/>
<stop offset="1" stop-color="#E6E6E6"/>
</linearGradient>
<linearGradient id="paint7_linear_229_4345" x1="15.9084" y1="129.125" x2="17.2084" y2="129.125" gradientUnits="userSpaceOnUse">
<stop stop-color="#999999"/>
<stop offset="1" stop-color="#CCCCCC"/>
</linearGradient>
<radialGradient id="paint8_radial_229_4345" cx="0" cy="0" r="1" gradientUnits="userSpaceOnUse" gradientTransform="translate(16.56 116.866) scale(0.549999)">
<stop stop-color="#4D4D4D"/>
<stop offset="0.5026" stop-color="#4D4D4D"/>
<stop offset="1" stop-color="#333333"/>
</radialGradient>
<linearGradient id="paint9_linear_229_4345" x1="-23.5509" y1="43.3463" x2="252.277" y2="202.596" gradientUnits="userSpaceOnUse">
<stop stop-color="#A67C52"/>
<stop offset="0.6068" stop-color="#C69C6D"/>
<stop offset="0.7665" stop-color="#BC9265"/>
<stop offset="1" stop-color="#A67C52"/>
</linearGradient>
<linearGradient id="paint10_linear_229_4345" x1="63.4671" y1="184.535" x2="-56.6676" y2="64.3999" gradientUnits="userSpaceOnUse">
<stop stop-color="#754C24"/>
<stop offset="1" stop-color="#42210B"/>
</linearGradient>
<linearGradient id="paint11_linear_229_4345" x1="285.253" y1="184.674" x2="164.552" y2="63.9737" gradientUnits="userSpaceOnUse">
<stop stop-color="#754C24"/>
<stop offset="1" stop-color="#42210B"/>
</linearGradient>
<linearGradient id="paint12_linear_229_4345" x1="169.681" y1="59.091" x2="59.16" y2="-51.4301" gradientUnits="userSpaceOnUse">
<stop stop-color="#754C24"/>
<stop offset="1" stop-color="#42210B"/>
</linearGradient>
</defs>
</svg>
