<svg width="207" height="185" viewBox="0 0 207 185" fill="none" xmlns="http://www.w3.org/2000/svg">
<path d="M206.201 9.09998L1.10078 9.69997L0.300781 170.4H8.30078L199.001 167.3H206.301L206.201 9.09998ZM8.30078 162.7L8.60078 17.3H199.001L198.901 158.5L8.30078 162.7Z" fill="url(#paint0_linear_229_4343)"/>
<path d="M12.7008 155.4L8.30078 162.7L8.60078 17.2999L13.0008 21.4999L12.7008 155.4Z" fill="url(#paint1_linear_229_4343)"/>
<path d="M198.902 158.4L194.102 151.1V21.5L199.002 17.2L198.902 158.4Z" fill="url(#paint2_linear_229_4343)"/>
<path d="M199.002 17.2L194.102 21.5H13.0016L8.60156 17.3L199.002 17.2Z" fill="url(#paint3_linear_229_4343)"/>
<path d="M198.901 158.4L8.30078 162.7L12.7008 155.4L194.101 151.1L198.901 158.4Z" fill="url(#paint4_linear_229_4343)"/>
<path d="M206.201 168.6H203.401L203.501 12.2L4.00078 12.6L3.40078 172.2H0.300781L1.20078 9.69997L206.201 9.09998V168.6Z" fill="url(#paint5_linear_229_4343)"/>
<path d="M5.70234 14.3L5.10234 170.4L4.00234 171.5L3.40234 172.2L4.00234 12.6L5.70234 14.3Z" fill="url(#paint6_linear_229_4343)"/>
<path d="M203.402 168.6L202.602 168.1L201.602 167.4V166.7V13.9L203.502 12.2L203.402 168.6Z" fill="url(#paint7_linear_229_4343)"/>
<path d="M203.5 12.2L201.6 13.9L5.7 14.3L4 12.6L203.5 12.2Z" fill="url(#paint8_linear_229_4343)"/>
<path d="M153.301 170L156.001 170.1V164.8L153.401 164.7L153.301 170Z" fill="url(#paint9_linear_229_4343)"/>
<path d="M34.8008 167.7V182.4L77.0008 168.6L91.9008 163.7V154.3H91.3008L89.6008 155.1V149.5L91.5008 148.8H91.9008V91.7H91.6008L89.9008 92.1V86.5L91.8008 86.2H91.9008V29.6L90.5008 29.8V24.2L91.9008 24.1V14.3L71.2008 9.5L34.9008 1V14.8V17.7V157.5V162.3L34.8008 167.7ZM36.5008 91.8C36.5008 91.3 36.9008 90.9 37.4008 90.9H38.5008C39.0008 90.9 39.4008 91.3 39.4008 91.8V93H42.0008V11.2L58.8008 14.7L59.8008 14.9L73.7008 17.8L86.4008 20.4L85.5008 157.9L82.6008 158.8L68.9008 163.1L53.0008 168.1L42.0008 171.6V94.4H39.4008V95.6C39.4008 96.1 39.0008 96.5 38.5008 96.5H37.4008C36.9008 96.5 36.5008 96.1 36.5008 95.6V91.8V91.8Z" fill="url(#paint10_linear_229_4343)"/>
<path d="M36.5 91.8V95.5C36.5 96 36.9 96.4 37.4 96.4H38.5C38 96.4 37.6 96 37.6 95.5V91.8C37.6 91.3 38 90.9 38.5 90.9H37.4C36.9 91 36.5 91.4 36.5 91.8Z" fill="url(#paint11_linear_229_4343)"/>
<path d="M94.3008 163.9L109.301 169.2L146.901 182.4V1L114.501 9.5L96.5008 14.3V14.6V14.8V17.7L96.4008 24.1H96.6008V29.6H96.4008L95.6008 86.2H96.0008V91.7H95.5008L94.7008 148.8H95.7008V154.3H94.6008L94.5008 159L94.4008 163.5L94.3008 163.9ZM99.1008 21.1L114.901 17.7L128.201 14.8L129.201 14.6L142.901 11.6V14V14.7V17.6L142.501 160.1V164.4V168.6V169.8V171.5L137.201 169.7L120.501 164L106.401 159.2L99.3008 156.8V21.1H99.1008Z" fill="url(#paint12_linear_229_4343)"/>
<path d="M146.898 1V182.3L149.198 179.9L153.298 178V170L153.398 164.7V160.5V156.9V149.5L153.698 95.9V88.5L153.998 26.9V19.5V17.7V14.8V14.6V9.7V6.3L150.098 5L146.898 1Z" fill="url(#paint13_linear_229_4343)"/>
<path d="M99.0977 21.1V156.9L101.798 155.7V22.5L99.0977 21.1Z" fill="#CECECE"/>
<path d="M99.0977 21.1L101.798 22.5L125.298 17.7L139.198 14.8L140.298 14.6L142.798 14.1V11.7L129.198 14.6L128.198 14.8L114.898 17.7L99.0977 21.1Z" fill="#B2B2B2"/>
<path d="M99.0977 156.9L106.298 159.3L120.398 164.1L137.098 169.7L142.398 171.5V169.8V168.7L128.498 164.2L113.598 159.5L101.798 155.7L99.0977 156.9Z" fill="#B5B5B5"/>
<path d="M82.5977 156.9L85.4977 157.8L86.3976 20.2999L83.2977 21.7999L82.5977 156.9Z" fill="#CECECE"/>
<path d="M42 11.2V13.6L47 14.6L48.1 14.8L62.5 17.7L83.3 21.8L86.4 20.3L73.7 17.7L59.8 14.8L58.8 14.6L42 11.2Z" fill="#B2B2B2"/>
<path d="M42 169.2V171.5L53 168L68.9 163L82.6 158.7L85.5 157.8L82.6 156.9L77 158.6L62.8 162.9L46.4 167.9L42 169.2Z" fill="#B5B5B5"/>
<path d="M161 184.4L188 170.8L192.8 168.4L196.2 166.7L198.4 165.6L200.8 164.4V14.6L187 9.69997L161.5 0.599976V9.59998V14.6V17.7L161 160.6V164.8V170.1V184.4ZM162.3 92.5C162.3 92 162.7 91.6 163.2 91.6H164.3C164.8 91.6 165.2 92 165.2 92.5V93.7H166.6L167 17.7V14.8V14.6V12.9V11L178.3 14.6L179 14.8L188 17.7L192.2 19L194.2 19.6L193.5 158.7L192.2 159.3L188.2 161.2L179.7 165.2L168.7 170.3L166.2 171.5V170.3V169.3V165V160.8L166.5 95H165.1V96.2C165.1 96.7 164.7 97.1 164.2 97.1H163.1C162.6 97.1 162.2 96.7 162.2 96.2V92.5H162.3Z" fill="url(#paint14_linear_229_4343)"/>
<path d="M162.301 92.5V96.2C162.301 96.7 162.701 97.1 163.201 97.1H164.301C163.801 97.1 163.401 96.7 163.401 96.2V92.5C163.401 92 163.801 91.6 164.301 91.6H163.201C162.701 91.6 162.301 92 162.301 92.5Z" fill="url(#paint15_linear_229_4343)"/>
<path d="M155.898 178L158.698 179.8L160.998 184.4V170.2V164.9V160.6L161.398 17.7V14.6V9.69997L161.498 0.599976L158.998 5.09998L156.598 6.39998V9.69997V14.6V14.8V17.7V19.5L156.498 26.9L156.298 88.5V95.9L155.998 149.5V156.9V160.5V164.8V170.1L155.898 178Z" fill="url(#paint16_linear_229_4343)"/>
<path d="M191.598 157.9L192.198 158.2L193.598 158.8L194.198 19.7L192.398 20.8L192.198 53.5L191.598 157.9Z" fill="#CECECE"/>
<path d="M167 12.9L172.5 14.6L173.2 14.8L182.4 17.7L192.2 20.8H192.4L194.2 19.7L192.2 19.1L188 17.7L179 14.8L178.3 14.6L167 11V12.9Z" fill="#B2B2B2"/>
<path d="M166.199 171.5L168.699 170.3L179.699 165.3L188.199 161.3L192.199 159.4L193.599 158.8L192.199 158.2L191.599 157.9L184.299 161.2L175.399 165.2L166.199 169.3V170.3V171.5Z" fill="#B5B5B5"/>
<path d="M33.1992 1.7V181.3L34.7992 182.3V167.7V162.3V157.5L34.8992 17.7V14.8V1L33.1992 1.7Z" fill="url(#paint17_linear_229_4343)"/>
<path d="M163.5 92.5V96.2C163.5 96.7 163.9 97.1 164.4 97.1C164.9 97.1 165.3 96.7 165.3 96.2V95H164.5C164.4 95 164.3 94.9 164.3 94.8V94C164.3 93.9 164.4 93.8 164.5 93.8H165.3V92.6C165.3 92.1 164.9 91.7 164.4 91.7C163.8 91.6 163.5 92 163.5 92.5Z" fill="url(#paint18_linear_229_4343)"/>
<path d="M164.098 93.8999V94.7C164.098 94.8 164.198 94.8999 164.298 94.8999H169.598C169.898 94.8999 170.198 94.6 170.198 94.3C170.198 94 169.898 93.7 169.598 93.7H164.298C164.198 93.7 164.098 93.7999 164.098 93.8999Z" fill="url(#paint19_linear_229_4343)"/>
<path d="M37.5977 91.8V95.5C37.5977 96 37.9977 96.4 38.4977 96.4C38.9977 96.4 39.3977 96 39.3977 95.5V94.3H38.5977C38.4977 94.3 38.3977 94.2 38.3977 94.1V93.3C38.3977 93.2 38.4977 93.1 38.5977 93.1H39.3977V91.9C39.3977 91.4 38.9977 91 38.4977 91C37.9977 91 37.5977 91.4 37.5977 91.8Z" fill="url(#paint20_linear_229_4343)"/>
<path d="M38.3008 93.3V94.1C38.3008 94.2 38.4008 94.3 38.5008 94.3H45.8008C46.1008 94.3 46.4008 94 46.4008 93.7C46.4008 93.4 46.1008 93.1 45.8008 93.1H38.5008C38.4008 93.1 38.3008 93.2 38.3008 93.3Z" fill="url(#paint21_linear_229_4343)"/>
<path d="M91.8984 148.8V154.3H95.4984V148.8H91.8984Z" fill="url(#paint22_linear_229_4343)"/>
<path d="M89.5977 149.5V155.1L91.2977 154.3H91.8976V148.8H91.4977L89.5977 149.5Z" fill="url(#paint23_linear_229_4343)"/>
<path d="M91.8984 86.2V91.7H95.7984V86.2H91.8984Z" fill="url(#paint24_linear_229_4343)"/>
<path d="M89.8984 86.5V92.1L91.5984 91.7H91.8984V86.2H91.7984L89.8984 86.5Z" fill="url(#paint25_linear_229_4343)"/>
<path d="M91.8984 24.1V29.6H92.1984H96.3984V24.1H92.3984H91.8984Z" fill="url(#paint26_linear_229_4343)"/>
<path d="M90.5 24.3V29.9L91.9 29.6V24.1L90.5 24.3Z" fill="url(#paint27_linear_229_4343)"/>
<path d="M153.699 95.9H156.299V88.5H153.699V95.9Z" fill="url(#paint28_linear_229_4343)"/>
<path d="M154 26.9H156.5L156.6 19.5H154V26.9Z" fill="url(#paint29_linear_229_4343)"/>
<path d="M153.398 156.9H155.998V149.5H153.398V156.9Z" fill="url(#paint30_linear_229_4343)"/>
<defs>
<linearGradient id="paint0_linear_229_4343" x1="-7.98822" y1="25.5297" x2="214.096" y2="153.75" gradientUnits="userSpaceOnUse">
<stop stop-color="#8C6239"/>
<stop offset="0.2098" stop-color="#A67C50"/>
<stop offset="0.4547" stop-color="#BD9365"/>
<stop offset="0.6068" stop-color="#C69C6D"/>
<stop offset="0.7088" stop-color="#BC9264"/>
<stop offset="0.8797" stop-color="#A2784D"/>
<stop offset="1" stop-color="#8C6239"/>
</linearGradient>
<linearGradient id="paint1_linear_229_4343" x1="44.7568" y1="126.188" x2="-27.7678" y2="53.663" gradientUnits="userSpaceOnUse">
<stop stop-color="#754C24"/>
<stop offset="1" stop-color="#42210B"/>
</linearGradient>
<linearGradient id="paint2_linear_229_4343" x1="234.258" y1="123.084" x2="163.382" y2="52.208" gradientUnits="userSpaceOnUse">
<stop stop-color="#754C24"/>
<stop offset="1" stop-color="#42210B"/>
</linearGradient>
<linearGradient id="paint3_linear_229_4343" x1="151.411" y1="64.8242" x2="56.2429" y2="-30.3439" gradientUnits="userSpaceOnUse">
<stop stop-color="#754C24"/>
<stop offset="1" stop-color="#42210B"/>
</linearGradient>
<linearGradient id="paint4_linear_229_4343" x1="103.619" y1="151.106" x2="103.619" y2="162.651" gradientUnits="userSpaceOnUse">
<stop stop-color="#754C24"/>
<stop offset="1" stop-color="#42210B"/>
</linearGradient>
<linearGradient id="paint5_linear_229_4343" x1="-8.35812" y1="26.2102" x2="214.249" y2="154.733" gradientUnits="userSpaceOnUse">
<stop stop-color="#A67C52"/>
<stop offset="0.6068" stop-color="#C69C6D"/>
<stop offset="0.7665" stop-color="#BC9265"/>
<stop offset="1" stop-color="#A67C52"/>
</linearGradient>
<linearGradient id="paint6_linear_229_4343" x1="43.4718" y1="132.136" x2="-35.9997" y2="52.6643" gradientUnits="userSpaceOnUse">
<stop stop-color="#754C24"/>
<stop offset="1" stop-color="#42210B"/>
</linearGradient>
<linearGradient id="paint7_linear_229_4343" x1="242.389" y1="129.669" x2="164.084" y2="51.3645" gradientUnits="userSpaceOnUse">
<stop stop-color="#754C24"/>
<stop offset="1" stop-color="#42210B"/>
</linearGradient>
<linearGradient id="paint8_linear_229_4343" x1="153.509" y1="62.1842" x2="53.9934" y2="-37.3313" gradientUnits="userSpaceOnUse">
<stop stop-color="#754C24"/>
<stop offset="1" stop-color="#42210B"/>
</linearGradient>
<linearGradient id="paint9_linear_229_4343" x1="152.682" y1="169.385" x2="156.632" y2="165.435" gradientUnits="userSpaceOnUse">
<stop stop-color="#808080"/>
<stop offset="1" stop-color="#4D4D4D"/>
</linearGradient>
<linearGradient id="paint10_linear_229_4343" x1="113.041" y1="127.025" x2="-0.142525" y2="61.6784" gradientUnits="userSpaceOnUse">
<stop stop-color="#A67C52"/>
<stop offset="0.6068" stop-color="#A67C52"/>
<stop offset="0.6953" stop-color="#9C7349"/>
<stop offset="0.8442" stop-color="#825932"/>
<stop offset="1" stop-color="#603813"/>
</linearGradient>
<linearGradient id="paint11_linear_229_4343" x1="38.4863" y1="93.695" x2="36.5063" y2="93.695" gradientUnits="userSpaceOnUse">
<stop stop-color="#B3B3B3"/>
<stop offset="1" stop-color="#CCCCCC"/>
</linearGradient>
<linearGradient id="paint12_linear_229_4343" x1="183.538" y1="118.823" x2="72.9397" y2="54.9694" gradientUnits="userSpaceOnUse">
<stop stop-color="#C69C6D"/>
<stop offset="0.6068" stop-color="#A67C52"/>
<stop offset="0.6953" stop-color="#9C7349"/>
<stop offset="0.8442" stop-color="#825932"/>
<stop offset="1" stop-color="#603813"/>
</linearGradient>
<linearGradient id="paint13_linear_229_4343" x1="154.045" y1="91.69" x2="146.865" y2="91.69" gradientUnits="userSpaceOnUse">
<stop stop-color="#754C24"/>
<stop offset="1" stop-color="#8C6239"/>
</linearGradient>
<linearGradient id="paint14_linear_229_4343" x1="123.51" y1="66.3555" x2="223.917" y2="124.325" gradientUnits="userSpaceOnUse">
<stop stop-color="#C69C6D"/>
<stop offset="0.5182" stop-color="#C69C6D"/>
<stop offset="0.5999" stop-color="#BC9264"/>
<stop offset="0.7373" stop-color="#A2794D"/>
<stop offset="0.9125" stop-color="#784F28"/>
<stop offset="1" stop-color="#603813"/>
</linearGradient>
<linearGradient id="paint15_linear_229_4343" x1="164.317" y1="94.305" x2="162.327" y2="94.305" gradientUnits="userSpaceOnUse">
<stop stop-color="#B3B3B3"/>
<stop offset="1" stop-color="#CCCCCC"/>
</linearGradient>
<linearGradient id="paint16_linear_229_4343" x1="161.455" y1="92.5" x2="155.925" y2="92.5" gradientUnits="userSpaceOnUse">
<stop stop-color="#754C24"/>
<stop offset="1" stop-color="#8C6239"/>
</linearGradient>
<linearGradient id="paint17_linear_229_4343" x1="34.8655" y1="91.69" x2="33.1555" y2="91.69" gradientUnits="userSpaceOnUse">
<stop stop-color="#754C24"/>
<stop offset="1" stop-color="#8C6239"/>
</linearGradient>
<linearGradient id="paint18_linear_229_4343" x1="165.176" y1="94.305" x2="163.456" y2="94.305" gradientUnits="userSpaceOnUse">
<stop stop-color="#CCCCCC"/>
<stop offset="1" stop-color="#E6E6E6"/>
</linearGradient>
<linearGradient id="paint19_linear_229_4343" x1="170.214" y1="94.3099" x2="164.114" y2="94.3099" gradientUnits="userSpaceOnUse">
<stop stop-color="#999999"/>
<stop offset="1" stop-color="#CCCCCC"/>
</linearGradient>
<linearGradient id="paint20_linear_229_4343" x1="39.354" y1="93.695" x2="37.624" y2="93.695" gradientUnits="userSpaceOnUse">
<stop stop-color="#CCCCCC"/>
<stop offset="1" stop-color="#E6E6E6"/>
</linearGradient>
<linearGradient id="paint21_linear_229_4343" x1="46.4071" y1="93.69" x2="38.2971" y2="93.69" gradientUnits="userSpaceOnUse">
<stop stop-color="#999999"/>
<stop offset="1" stop-color="#CCCCCC"/>
</linearGradient>
<linearGradient id="paint22_linear_229_4343" x1="95.4947" y1="151.53" x2="91.9047" y2="151.53" gradientUnits="userSpaceOnUse">
<stop stop-color="#736357"/>
<stop offset="1" stop-color="#534741"/>
</linearGradient>
<linearGradient id="paint23_linear_229_4343" x1="92.0434" y1="154.199" x2="89.3954" y2="149.613" gradientUnits="userSpaceOnUse">
<stop stop-color="#736357"/>
<stop offset="1" stop-color="#998675"/>
</linearGradient>
<linearGradient id="paint24_linear_229_4343" x1="95.8247" y1="88.97" x2="91.9047" y2="88.97" gradientUnits="userSpaceOnUse">
<stop stop-color="#736357"/>
<stop offset="1" stop-color="#534741"/>
</linearGradient>
<linearGradient id="paint25_linear_229_4343" x1="92.2567" y1="91.5167" x2="89.5137" y2="86.7657" gradientUnits="userSpaceOnUse">
<stop stop-color="#736357"/>
<stop offset="1" stop-color="#998675"/>
</linearGradient>
<linearGradient id="paint26_linear_229_4343" x1="96.4147" y1="26.875" x2="91.9047" y2="26.875" gradientUnits="userSpaceOnUse">
<stop stop-color="#736357"/>
<stop offset="1" stop-color="#534741"/>
</linearGradient>
<linearGradient id="paint27_linear_229_4343" x1="92.5207" y1="29.2952" x2="89.8429" y2="24.6572" gradientUnits="userSpaceOnUse">
<stop stop-color="#736357"/>
<stop offset="1" stop-color="#998675"/>
</linearGradient>
<linearGradient id="paint28_linear_229_4343" x1="156.286" y1="92.18" x2="153.656" y2="92.18" gradientUnits="userSpaceOnUse">
<stop stop-color="#736357"/>
<stop offset="1" stop-color="#534741"/>
</linearGradient>
<linearGradient id="paint29_linear_229_4343" x1="156.566" y1="23.17" x2="153.956" y2="23.17" gradientUnits="userSpaceOnUse">
<stop stop-color="#736357"/>
<stop offset="1" stop-color="#534741"/>
</linearGradient>
<linearGradient id="paint30_linear_229_4343" x1="156.035" y1="153.19" x2="153.395" y2="153.19" gradientUnits="userSpaceOnUse">
<stop stop-color="#736357"/>
<stop offset="1" stop-color="#534741"/>
</linearGradient>
</defs>
</svg>
