<svg width="228" height="245" viewBox="0 0 228 245" fill="none" xmlns="http://www.w3.org/2000/svg">
<g clip-path="url(#clip0_229_3655)">
<path d="M227.909 243.03H220.649L220.249 8.09H8.02859V242.62H0.0585938L0.538594 0.54L227.469 0L227.909 243.03Z" fill="url(#paint0_linear_229_3655)"/>
<path d="M12.4073 12.3501V237.97L9.67734 240.88L8.02734 242.62V8.09009L12.4073 12.3501Z" fill="url(#paint1_linear_229_3655)"/>
<path d="M220.648 243.03L218.488 241.65L215.818 239.79V238.12L215.348 12.3501L220.248 8.09009L220.648 243.03Z" fill="url(#paint2_linear_229_3655)"/>
<path d="M218.49 241.65L9.67969 240.88L12.4097 237.97L215.82 238.12V239.79L218.49 241.65Z" fill="#E0CFBD"/>
<path d="M215.82 238.12L12.4102 237.97V12.3501H107.94V21.1001H20.7102V223.78H107.94V237.97L215.82 238.12Z" fill="url(#paint3_linear_229_3655)"/>
<path d="M107.937 21.1001V22.8201H24.757L20.707 21.1001H107.937Z" fill="#B2B2B2"/>
<path d="M24.757 22.8201V221.69L20.707 223.78V21.1001L24.757 22.8201Z" fill="#CECECE"/>
<path d="M107.937 221.59V223.78H20.707L24.757 221.69L107.937 221.59Z" fill="#B5B5B5"/>
<path d="M220.247 8.09009L215.347 12.3501H12.4073L8.02734 8.09009H220.247Z" fill="url(#paint4_linear_229_3655)"/>
<path d="M207.06 19.6501V223.12L205.43 221.59V21.1001L207.06 19.6501Z" fill="#CECECE"/>
<path d="M207.063 19.6501L205.433 21.1001L118.533 21.2501L116.473 19.6501H207.063Z" fill="#B2B2B2"/>
<path d="M118.533 21.2501L118.243 222.35L116.663 223.88L116.473 19.6501L118.533 21.2501Z" fill="#CECECE"/>
<path d="M215.351 12.3501H107.941V237.97L215.821 238.12L215.351 12.3501ZM207.061 223.12L116.651 223.88L116.471 19.6501H207.061V223.12Z" fill="url(#paint5_linear_229_3655)"/>
<path d="M207.06 223.12L116.66 223.88L118.24 222.35L205.43 221.59L207.06 223.12Z" fill="#B5B5B5"/>
<path d="M212.351 123.62V114.62C212.352 114.47 212.324 114.32 212.267 114.181C212.21 114.042 212.126 113.915 212.02 113.808C211.914 113.701 211.788 113.616 211.649 113.558C211.51 113.5 211.361 113.47 211.211 113.47C210.905 113.47 210.611 113.591 210.394 113.807C210.177 114.022 210.053 114.314 210.051 114.62V123.62C210.054 123.805 210.101 123.987 210.188 124.15C210.275 124.314 210.399 124.454 210.551 124.56V118.8C210.553 118.627 210.624 118.462 210.748 118.34C210.871 118.218 211.037 118.15 211.211 118.15C211.296 118.15 211.38 118.167 211.458 118.2C211.536 118.233 211.607 118.281 211.667 118.341C211.726 118.402 211.773 118.474 211.805 118.552C211.837 118.631 211.852 118.715 211.851 118.8V124.56C212.006 124.457 212.132 124.318 212.22 124.154C212.307 123.989 212.352 123.806 212.351 123.62V123.62Z" fill="url(#paint6_linear_229_3655)"/>
<path d="M211.863 138.45V118.8C211.863 118.628 211.794 118.462 211.672 118.34C211.55 118.219 211.385 118.15 211.213 118.15C211.04 118.15 210.875 118.219 210.753 118.34C210.631 118.462 210.562 118.628 210.562 118.8V138.45C210.562 138.622 210.631 138.788 210.753 138.91C210.875 139.032 211.04 139.1 211.213 139.1C211.385 139.1 211.55 139.032 211.672 138.91C211.794 138.788 211.863 138.622 211.863 138.45V138.45Z" fill="url(#paint7_linear_229_3655)"/>
<path d="M211.762 116.37C211.744 116.236 211.678 116.112 211.576 116.023C211.474 115.934 211.343 115.885 211.207 115.885C211.072 115.885 210.941 115.934 210.839 116.023C210.737 116.112 210.67 116.236 210.652 116.37C210.67 116.505 210.737 116.628 210.839 116.717C210.941 116.806 211.072 116.855 211.207 116.855C211.343 116.855 211.474 116.806 211.576 116.717C211.678 116.628 211.744 116.505 211.762 116.37Z" fill="url(#paint8_radial_229_3655)"/>
<path d="M227.9 244.29H225.11L225.13 3.11L3.71 3.49L3.06 244.41H0L0.83 0.59L227.91 0L227.9 244.29Z" fill="url(#paint9_linear_229_3655)"/>
<path d="M5.39859 5.12999L4.74859 242.62L3.69859 243.74L3.05859 244.41L3.70859 3.48999L5.39859 5.12999Z" fill="url(#paint10_linear_229_3655)"/>
<path d="M225.11 244.29L224.28 243.76L223.25 243.05V242.41V4.75011L225.13 3.11011L225.11 244.29Z" fill="url(#paint11_linear_229_3655)"/>
<path d="M225.131 3.11011L223.251 4.75011L5.40094 5.13011L3.71094 3.49011L225.131 3.11011Z" fill="url(#paint12_linear_229_3655)"/>
</g>
<defs>
<linearGradient id="paint0_linear_229_3655" x1="-23.4514" y1="42.09" x2="252.079" y2="201.17" gradientUnits="userSpaceOnUse">
<stop stop-color="#A67C52"/>
<stop offset="0.61" stop-color="#C69C6D"/>
<stop offset="0.77" stop-color="#BC9265"/>
<stop offset="1" stop-color="#A67C52"/>
</linearGradient>
<linearGradient id="paint1_linear_229_3655" x1="66.6973" y1="183.96" x2="-50.5727" y2="66.6901" gradientUnits="userSpaceOnUse">
<stop stop-color="#754C24"/>
<stop offset="1" stop-color="#42210B"/>
</linearGradient>
<linearGradient id="paint2_linear_229_3655" x1="278.888" y1="184.79" x2="160.897" y2="66.8004" gradientUnits="userSpaceOnUse">
<stop stop-color="#754C24"/>
<stop offset="1" stop-color="#42210B"/>
</linearGradient>
<linearGradient id="paint3_linear_229_3655" x1="-24.4898" y1="76.2701" x2="225.82" y2="220.8" gradientUnits="userSpaceOnUse">
<stop stop-color="#A67C52"/>
<stop offset="0.61" stop-color="#C69C6D"/>
<stop offset="1" stop-color="#C69C6D"/>
</linearGradient>
<linearGradient id="paint4_linear_229_3655" x1="167.197" y1="61.1501" x2="61.0873" y2="-44.9599" gradientUnits="userSpaceOnUse">
<stop stop-color="#754C24"/>
<stop offset="1" stop-color="#42210B"/>
</linearGradient>
<linearGradient id="paint5_linear_229_3655" x1="245.211" y1="208.73" x2="78.3914" y2="41.9001" gradientUnits="userSpaceOnUse">
<stop stop-color="#A67C52"/>
<stop offset="0.55" stop-color="#C69C6D"/>
<stop offset="0.73" stop-color="#BC9265"/>
<stop offset="1" stop-color="#A67C52"/>
</linearGradient>
<linearGradient id="paint6_linear_229_3655" x1="210.051" y1="119" x2="212.351" y2="119" gradientUnits="userSpaceOnUse">
<stop stop-color="#CCCCCC"/>
<stop offset="1" stop-color="#E6E6E6"/>
</linearGradient>
<linearGradient id="paint7_linear_229_3655" x1="210.563" y1="128.62" x2="211.863" y2="128.62" gradientUnits="userSpaceOnUse">
<stop stop-color="#999999"/>
<stop offset="1" stop-color="#CCCCCC"/>
</linearGradient>
<radialGradient id="paint8_radial_229_3655" cx="0" cy="0" r="1" gradientUnits="userSpaceOnUse" gradientTransform="translate(211.202 116.37) scale(0.55 0.550003)">
<stop stop-color="#4D4D4D"/>
<stop offset="0.5" stop-color="#4D4D4D"/>
<stop offset="1" stop-color="#333333"/>
</radialGradient>
<linearGradient id="paint9_linear_229_3655" x1="-23.55" y1="42.82" x2="252.28" y2="202.07" gradientUnits="userSpaceOnUse">
<stop stop-color="#A67C52"/>
<stop offset="0.61" stop-color="#C69C6D"/>
<stop offset="0.77" stop-color="#BC9265"/>
<stop offset="1" stop-color="#A67C52"/>
</linearGradient>
<linearGradient id="paint10_linear_229_3655" x1="63.4686" y1="184" x2="-56.6714" y2="63.87" gradientUnits="userSpaceOnUse">
<stop stop-color="#754C24"/>
<stop offset="1" stop-color="#42210B"/>
</linearGradient>
<linearGradient id="paint11_linear_229_3655" x1="285.26" y1="184.14" x2="164.56" y2="63.4398" gradientUnits="userSpaceOnUse">
<stop stop-color="#754C24"/>
<stop offset="1" stop-color="#42210B"/>
</linearGradient>
<linearGradient id="paint12_linear_229_3655" x1="169.681" y1="58.5601" x2="59.1609" y2="-51.9599" gradientUnits="userSpaceOnUse">
<stop stop-color="#754C24"/>
<stop offset="1" stop-color="#42210B"/>
</linearGradient>
<clipPath id="clip0_229_3655">
<rect width="227.91" height="244.41" fill="white"/>
</clipPath>
</defs>
</svg>
