<svg width="272" height="134" viewBox="0 0 272 134" fill="none" xmlns="http://www.w3.org/2000/svg">
<path d="M271.2 3.20007V5.40008L270.7 129.2H177.7V121.5H261.3V13.0001L261.2 11.8001V11.4001L261.3 9.90008V8.90008L177.7 8.70007V4.40008H84.9L83.5 3.30008H171V3.20007H271.2Z" fill="url(#paint0_linear_229_4341)"/>
<path d="M271.201 0.800049V3.20004H171.001V3.30005H83.5008L83.3008 3.20004V8.50005L11.0008 8.40005V11.4L10.3008 121.5H83.3008V129.2H0.800781L2.10078 5.00005L2.20078 3.30005V0.800049H271.201Z" fill="url(#paint1_linear_229_4341)"/>
<path d="M177.701 4.40008V8.70007L84.9008 8.50008H83.3008V3.20007L83.5008 3.30008L84.9008 4.40008H177.701Z" fill="url(#paint2_linear_229_4341)"/>
<path d="M16.2008 12.6L15.5008 117.1L10.3008 121.5L11.0008 11.4V8.40002L14.7008 11.4L16.2008 12.6Z" fill="url(#paint3_linear_229_4341)"/>
<path d="M83.3008 117.1V121.5H10.3008L15.5008 117.1H83.3008Z" fill="url(#paint4_linear_229_4341)"/>
<path d="M261.202 11.4V11.8L261.302 13V121.5L256.402 117.1L256.802 13.2L261.302 8.90002V9.90002L261.202 11.4Z" fill="url(#paint5_linear_229_4341)"/>
<path d="M261.299 121.5H177.699V117.1H256.399L261.299 121.5Z" fill="url(#paint6_linear_229_4341)"/>
<path d="M177.7 13H170.7H168.5V10.7H90.7V12.8H89.8H84.9H81.7L16.2 12.6L14.7 11.4L11 8.40002L83.3 8.50002H84.9L177.7 8.70002L261.3 8.90002L256.8 13.2L177.7 13Z" fill="url(#paint7_linear_229_4341)"/>
<path d="M84.9008 4.39996V133.3L83.3008 132.1V3.19995L83.5008 3.29996L84.9008 4.39996Z" fill="url(#paint8_linear_229_4341)"/>
<path d="M170.799 127.2L90.6992 127.8V127.7L170.699 127.2H170.799Z" fill="#B5B5B5"/>
<path d="M170.801 117.1V127.2L168.401 126.1V126H168.301V121.5V117.1L168.501 13V10.7L170.701 9.09998V13L170.801 117.1Z" fill="#CECECE"/>
<path d="M170.699 9.09998L168.499 10.7H90.6992V9.09998H170.699Z" fill="#B2B2B2"/>
<path d="M170.699 127.2L90.6992 127.8V127.9L170.799 127.3L170.699 127.2ZM170.699 13L170.799 117.1V121.5V127.2V117.2L170.699 13Z" fill="url(#paint9_linear_229_4341)"/>
<path d="M177.702 48V47.2V13.1V4.5H84.9023V133.4L177.702 133V117.2V48ZM176.202 83.6L176.102 83.5C176.202 83.6 176.202 83.6 176.202 83.6ZM90.7023 9.1H170.702V13L170.802 117.1V127.1H170.702L170.802 127.2L90.7023 127.8V9.1V9.1Z" fill="url(#paint10_linear_229_4341)"/>
<path d="M170.699 127.2L90.6992 127.7V126.5L168.299 126.1L170.699 127.2Z" fill="#B5B5B5"/>
<path d="M170.801 127.2H170.701L168.301 126.1V126H168.401V126.1L170.801 127.2Z" fill="#B5B5B5"/>
<path d="M84.9008 4.39996L83.5008 3.29996L83.3008 3.19995H175.301L177.701 4.39996H84.9008Z" fill="url(#paint11_linear_229_4341)"/>
<path d="M88.9992 75.1V66.1C88.9992 65.5 88.4992 65 87.8992 65C87.2992 65 86.6992 65.5 86.6992 66.1V75.1C86.6992 75.5 86.8992 75.8 87.1992 76V70.2C87.1992 69.8 87.4992 69.5 87.8992 69.5C88.2992 69.5 88.4992 69.8 88.4992 70.2V76C88.7992 75.8 88.9992 75.5 88.9992 75.1Z" fill="url(#paint12_linear_229_4341)"/>
<path d="M88.4992 89.9V70.2C88.4992 69.8 88.1992 69.5 87.8992 69.5C87.5992 69.5 87.1992 69.8 87.1992 70.2V89.9C87.1992 90.3 87.4992 90.5 87.8992 90.5C88.2992 90.5 88.4992 90.3 88.4992 89.9Z" fill="url(#paint13_linear_229_4341)"/>
<path d="M88.4008 67.9001C88.4008 67.6001 88.2008 67.4001 87.8008 67.4001C87.5008 67.4001 87.3008 67.6001 87.3008 67.9001C87.3008 68.2001 87.5008 68.4001 87.8008 68.4001C88.1008 68.5001 88.4008 68.2001 88.4008 67.9001Z" fill="url(#paint14_radial_229_4341)"/>
<path d="M271.201 133.8H268.401V3.90005L5.10078 3.70004L3.90078 131H0.800781L2.20078 0.800049H271.201V133.8Z" fill="url(#paint15_linear_229_4341)"/>
<path d="M6.70234 5.40008L5.50234 129.2L4.50234 130.4L3.90234 131L5.10234 3.70007L6.70234 5.40008Z" fill="url(#paint16_linear_229_4341)"/>
<path d="M268.4 133.8L267.6 133.2L266.5 132.5V131.8V5.60002L268.4 3.90002V133.8Z" fill="url(#paint17_linear_229_4341)"/>
<path d="M268.402 3.90008L266.502 5.60007L6.70156 5.40008L5.10156 3.70007L268.402 3.90008Z" fill="url(#paint18_linear_229_4341)"/>
<defs>
<linearGradient id="paint0_linear_229_4341" x1="91.4561" y1="-10.5822" x2="286.409" y2="101.974" gradientUnits="userSpaceOnUse">
<stop stop-color="#A67C52"/>
<stop offset="0.6068" stop-color="#C69C6D"/>
<stop offset="0.7665" stop-color="#BC9265"/>
<stop offset="1" stop-color="#A67C52"/>
</linearGradient>
<linearGradient id="paint1_linear_229_4341" x1="7.84048" y1="-8.97815" x2="210.623" y2="108.098" gradientUnits="userSpaceOnUse">
<stop stop-color="#A67C52"/>
<stop offset="0.6068" stop-color="#C69C6D"/>
<stop offset="0.7665" stop-color="#BC9265"/>
<stop offset="1" stop-color="#A67C52"/>
</linearGradient>
<linearGradient id="paint2_linear_229_4341" x1="93.7304" y1="-14.7733" x2="166.872" y2="27.4553" gradientUnits="userSpaceOnUse">
<stop stop-color="#A67C52"/>
<stop offset="0.6068" stop-color="#C69C6D"/>
<stop offset="0.7665" stop-color="#BC9265"/>
<stop offset="1" stop-color="#A67C52"/>
</linearGradient>
<linearGradient id="paint3_linear_229_4341" x1="10.3108" y1="64.9246" x2="16.2408" y2="64.9246" gradientUnits="userSpaceOnUse">
<stop stop-color="#754C24"/>
<stop offset="1" stop-color="#42210B"/>
</linearGradient>
<linearGradient id="paint4_linear_229_4341" x1="10.3108" y1="119.295" x2="83.3508" y2="119.295" gradientUnits="userSpaceOnUse">
<stop stop-color="#754C24"/>
<stop offset="1" stop-color="#42210B"/>
</linearGradient>
<linearGradient id="paint5_linear_229_4341" x1="256.392" y1="65.1946" x2="261.262" y2="65.1946" gradientUnits="userSpaceOnUse">
<stop stop-color="#754C24"/>
<stop offset="1" stop-color="#42210B"/>
</linearGradient>
<linearGradient id="paint6_linear_229_4341" x1="177.709" y1="119.295" x2="261.259" y2="119.295" gradientUnits="userSpaceOnUse">
<stop stop-color="#754C24"/>
<stop offset="1" stop-color="#42210B"/>
</linearGradient>
<linearGradient id="paint7_linear_229_4341" x1="11.05" y1="10.7746" x2="261.26" y2="10.7746" gradientUnits="userSpaceOnUse">
<stop stop-color="#754C24"/>
<stop offset="1" stop-color="#42210B"/>
</linearGradient>
<linearGradient id="paint8_linear_229_4341" x1="83.3508" y1="68.2397" x2="84.9108" y2="68.2397" gradientUnits="userSpaceOnUse">
<stop stop-color="#754C24"/>
<stop offset="1" stop-color="#8C6239"/>
</linearGradient>
<linearGradient id="paint9_linear_229_4341" x1="90.6992" y1="70.3896" x2="176.739" y2="70.3896" gradientUnits="userSpaceOnUse">
<stop stop-color="#C69C6D"/>
<stop offset="0.6068" stop-color="#A67C52"/>
<stop offset="0.6953" stop-color="#9C7349"/>
<stop offset="0.8442" stop-color="#825932"/>
<stop offset="1" stop-color="#603813"/>
</linearGradient>
<linearGradient id="paint10_linear_229_4341" x1="84.9123" y1="68.8347" x2="177.712" y2="68.8347" gradientUnits="userSpaceOnUse">
<stop stop-color="#C69C6D"/>
<stop offset="0.6068" stop-color="#A67C52"/>
<stop offset="0.6953" stop-color="#9C7349"/>
<stop offset="0.8442" stop-color="#825932"/>
<stop offset="1" stop-color="#603813"/>
</linearGradient>
<linearGradient id="paint11_linear_229_4341" x1="83.3508" y1="3.79665" x2="177.681" y2="3.79665" gradientUnits="userSpaceOnUse">
<stop stop-color="#754C24"/>
<stop offset="1" stop-color="#754C24"/>
</linearGradient>
<linearGradient id="paint12_linear_229_4341" x1="86.6542" y1="70.471" x2="88.9542" y2="70.471" gradientUnits="userSpaceOnUse">
<stop stop-color="#CCCCCC"/>
<stop offset="1" stop-color="#E6E6E6"/>
</linearGradient>
<linearGradient id="paint13_linear_229_4341" x1="87.1542" y1="80.0957" x2="88.4542" y2="80.0957" gradientUnits="userSpaceOnUse">
<stop stop-color="#999999"/>
<stop offset="1" stop-color="#CCCCCC"/>
</linearGradient>
<radialGradient id="paint14_radial_229_4341" cx="0" cy="0" r="1" gradientUnits="userSpaceOnUse" gradientTransform="translate(87.8058 67.9002) scale(0.549999)">
<stop stop-color="#4D4D4D"/>
<stop offset="0.5026" stop-color="#4D4D4D"/>
<stop offset="1" stop-color="#333333"/>
</radialGradient>
<linearGradient id="paint15_linear_229_4341" x1="7.44708" y1="-8.29675" x2="266.78" y2="141.429" gradientUnits="userSpaceOnUse">
<stop stop-color="#A67C52"/>
<stop offset="0.6068" stop-color="#C69C6D"/>
<stop offset="0.7665" stop-color="#BC9265"/>
<stop offset="1" stop-color="#A67C52"/>
</linearGradient>
<linearGradient id="paint16_linear_229_4341" x1="35.994" y1="98.8864" x2="-27.0507" y2="35.8417" gradientUnits="userSpaceOnUse">
<stop stop-color="#754C24"/>
<stop offset="1" stop-color="#42210B"/>
</linearGradient>
<linearGradient id="paint17_linear_229_4341" x1="300.72" y1="101.462" x2="235.691" y2="36.4324" gradientUnits="userSpaceOnUse">
<stop stop-color="#754C24"/>
<stop offset="1" stop-color="#42210B"/>
</linearGradient>
<linearGradient id="paint18_linear_229_4341" x1="202.644" y1="69.7272" x2="70.8533" y2="-62.0631" gradientUnits="userSpaceOnUse">
<stop stop-color="#754C24"/>
<stop offset="1" stop-color="#42210B"/>
</linearGradient>
</defs>
</svg>
