<svg width="276" height="235" viewBox="0 0 276 235" fill="none" xmlns="http://www.w3.org/2000/svg">
<g clip-path="url(#clip0_229_3683)">
<path d="M275.84 16.73L3.84016 17.48L2.91016 222.2H10.9102L268.34 221.82H275.6L275.84 16.73ZM10.8402 214.43L11.3002 25.03L268.59 24.82L268.25 212.82L10.8402 214.43Z" fill="url(#paint0_linear_229_3683)"/>
<path d="M15.2589 207.14L10.8789 214.43L11.3389 25.03L15.7189 29.29L15.2589 207.14Z" fill="url(#paint1_linear_229_3683)"/>
<path d="M268.281 212.85L263.281 205.56L263.721 29.0801L268.621 24.8201L268.281 212.85Z" fill="url(#paint2_linear_229_3683)"/>
<path d="M268.62 24.8301L263.72 29.0901L15.7198 29.2901L11.3398 25.0301L268.62 24.8301Z" fill="url(#paint3_linear_229_3683)"/>
<path d="M268.279 212.85L10.8789 214.43L15.2589 207.14L263.279 205.56L268.279 212.85Z" fill="url(#paint4_linear_229_3683)"/>
<path d="M275.562 223.06H272.772L273.062 19.84L6.73187 20.38L5.98187 223.96H2.92188L3.85187 17.48L275.842 16.73L275.562 223.06Z" fill="url(#paint5_linear_229_3683)"/>
<path d="M8.41047 22.0199L7.67047 222.17L6.62047 223.29L5.98047 223.96L6.73047 20.3799L8.41047 22.0199Z" fill="url(#paint6_linear_229_3683)"/>
<path d="M272.77 223.06L271.94 222.53L270.91 221.82V221.17L271.18 21.4801L273.06 19.8401L272.77 223.06Z" fill="url(#paint7_linear_229_3683)"/>
<path d="M273.06 19.8401L271.18 21.4801L8.41047 22.0201L6.73047 20.3801L273.06 19.8401Z" fill="url(#paint8_linear_229_3683)"/>
<path d="M78.6716 16.67L78.7216 22.05L75.6116 22.07L75.6016 16.56L78.7816 16.55L78.6716 16.67Z" fill="#534741"/>
<path d="M153.23 215.86L154.63 215.28L154.61 212.94" fill="#E0CFBD"/>
<path d="M153.47 16.2201V16.1601L138.91 11.0701" fill="#E0CFBD"/>
<path d="M18.6217 108.01H14.8517L14.7617 100.19H18.5417L18.6217 108.01Z" fill="url(#paint9_linear_229_3683)"/>
<path d="M79.5402 118.37H75.9302L75.9102 111.65H79.4802L79.5402 118.37Z" fill="#534741"/>
<path d="M154.61 212.94L153.5 21.6301V16.2201L138.95 11.1201L108.07 0.320068L108.09 11.1401V16.4001V21.8701L109.4 212.6V215.84L109.52 233.94L153.12 215.84L154.51 215.26L154.61 212.94ZM125.61 212.73L117.14 215.86L114.2 216.94V212.65L113.76 118.14H113.09V120.08C113.09 120.345 112.985 120.6 112.797 120.787C112.61 120.975 112.356 121.08 112.09 121.08C111.825 121.08 111.571 120.975 111.383 120.787C111.196 120.6 111.09 120.345 111.09 120.08V114.81C111.091 114.548 111.196 114.296 111.38 114.11C111.567 113.925 111.818 113.821 112.08 113.82C112.346 113.82 112.6 113.925 112.787 114.113C112.975 114.301 113.08 114.555 113.08 114.82V116.49H113.74L113.31 21.8701V16.4101V13.1401V11.9701L127.21 16.3401L144.21 21.6801L147.62 22.7501L149.55 203.89L125.61 212.73Z" fill="url(#paint10_linear_229_3683)"/>
<path d="M149.54 203.89L146.57 203.2L144.34 22.9L147.6 22.75L149.54 203.89Z" fill="#CECECE"/>
<path d="M147.601 22.75L144.341 22.9L140.551 21.7L123.551 16.35L113.291 13.12L113.281 11.96L127.191 16.34L144.201 21.68L147.601 22.75Z" fill="#B2B2B2"/>
<path d="M149.539 203.89L125.609 212.73L117.149 215.86L114.209 216.94L114.199 215.86V214.82L120.139 212.69L146.569 203.2L149.539 203.89Z" fill="#B5B5B5"/>
<path d="M140.551 21.7001L113.331 21.8601L113.301 16.4001L123.551 16.3501L140.551 21.7001Z" fill="url(#paint11_linear_229_3683)"/>
<path d="M109.64 233.96L105.68 232.29L105.63 224.13L105.58 216.94V215.86L105.55 212.59L104.89 107.97V107.95L104.84 100.65L104.36 24.65L104.34 21.91L104.31 17.27L104.3 16.44L104.27 11.17L104.23 5.30002L108.03 0.27002L108.11 11.16L108.14 16.42L108.18 21.89L109.49 212.62L109.51 215.86L109.64 233.96Z" fill="url(#paint12_linear_229_3683)"/>
<path d="M93.8119 232.36L80.3819 216.25L80.3719 215.86L80.3419 212.41L79.5419 118.37L79.4819 111.65L78.7219 22.0499L78.6719 16.6699L78.7819 16.5499L83.6619 11.2299L92.2119 1.8999L92.2719 9.9399L91.0819 11.2099L86.1319 16.5199L81.9319 21.0099V203.89L90.7819 212.48L93.6919 215.31V215.86L93.8119 232.36Z" fill="url(#paint13_linear_229_3683)"/>
<path d="M85.3297 203.4L81.9297 203.89V21.01L84.5197 21.79V22.02L85.3297 203.4Z" fill="#CECECE"/>
<path d="M92.2997 14.0899L89.8597 16.4999L84.5197 21.7899L81.9297 21.0099L86.1297 16.5199L91.0797 11.2099L92.2697 9.93994L92.2797 11.1999L92.2997 14.0899Z" fill="#B2B2B2"/>
<path d="M93.6897 215.31L90.7797 212.48L81.9297 203.89L85.3297 203.4L93.6597 211.22L93.6697 212.5L93.6897 215.31Z" fill="#B5B5B5"/>
<path d="M92.3495 21.97L84.5195 22.02V21.79L89.8595 16.5L92.3095 16.49L92.3495 21.97Z" fill="url(#paint14_linear_229_3683)"/>
<path d="M98.8709 232.06L93.8109 232.36L93.6909 215.86V215.31L93.6709 212.5L93.6609 211.22L92.3509 21.9699L92.3109 16.4899L92.3009 14.0899L92.2809 11.1999L92.2709 9.9399L92.2109 1.8999L97.3709 4.6699L97.4209 11.1899L97.4509 16.4699L97.4909 21.9499L98.7409 212.54L98.7609 215.86L98.8709 232.06Z" fill="url(#paint15_linear_229_3683)"/>
<path d="M102.071 232.36L98.8711 232.06L98.7611 215.86L98.7411 212.54L97.4911 21.9499L97.4511 16.4699L97.4211 11.1899L97.3711 4.66992L100.581 5.04992L100.621 11.1799L100.651 16.4499L100.691 21.9299L100.711 24.6499L101.201 100.65L101.251 107.95L101.941 212.56L101.961 215.86L101.971 217.08L102.021 224.39L102.071 232.36Z" fill="url(#paint16_linear_229_3683)"/>
<path d="M76.2287 212.38L75.9287 118.38V111.66L75.6388 22.0799V16.5699V16.1399L58.6388 11.2799L25.7188 1.87988L25.8088 11.3699V16.7599V22.3299L27.4487 212.04V215.86L27.5887 232.55L75.4287 215.86L76.2088 215.58L76.2287 212.38ZM45.2787 212.14L33.2787 215.84L31.3988 216.42V213.95V212.04L29.4087 22.3299L29.3487 16.7699V12.6899V10.6899L31.7987 11.3599L51.0087 16.6599L70.6087 22.1399L72.7287 22.7199L73.7287 203.44L45.2787 212.14Z" fill="url(#paint17_linear_229_3683)"/>
<path d="M27.6283 232.55L24.4383 232.33L19.9883 232.76L19.9083 225.09L19.8183 217.35L19.7983 215.86L19.7583 211.98L18.6183 108.01L18.5383 100.19L17.7083 24.6799L17.6883 22.3899L17.6283 17.4799V16.8199L17.5683 11.4099L17.4883 4.6899L21.8383 3.9999L25.6383 1.8999L25.7183 11.3899L25.7683 16.7799L25.8183 22.3499L27.4483 212.03L27.4783 215.86L27.6283 232.55Z" fill="url(#paint18_linear_229_3683)"/>
<path d="M73.7491 203.4L69.3691 202.72L68.5391 23.3999L72.7391 22.6799L73.7491 203.4Z" fill="#CECECE"/>
<path d="M72.7391 22.68L68.5391 23.4L63.8891 22.13L44.0091 16.7H43.9991L29.3191 12.69L29.2991 11.38L29.2891 10.7L31.7391 11.37L50.9491 16.67L70.6191 22.1L72.7391 22.68Z" fill="#B2B2B2"/>
<path d="M73.7511 203.4L45.2811 212.16L33.2711 215.86L31.3911 216.44V215.86L31.3711 213.97L37.6711 212.11L69.3711 202.72L73.7511 203.4Z" fill="#B5B5B5"/>
<path d="M104.338 21.9099L100.688 21.9299L100.648 16.4499L104.298 16.4399L104.308 17.2699L104.338 21.9099Z" fill="#534741"/>
<path d="M12.6614 233.07L8.26141 234.65L8.04141 215.86L5.64141 16.87L5.57141 11.45L5.44141 0L9.74141 3.35L9.85141 11.43L9.91141 16.85L12.4414 215.86L12.6614 233.07Z" fill="url(#paint19_linear_229_3683)"/>
<path d="M16.2983 232.76L12.6583 233.07L12.4383 215.86L9.90828 16.8501L9.84828 11.4301L9.73828 3.3501L13.6483 4.6701L13.7283 11.4201L13.7983 16.8401V17.4801L13.8583 22.4101L14.7583 100.19L14.8483 108.01L16.0483 211.95L16.0983 215.86L16.1183 217.35L16.2083 225.09L16.2983 232.76Z" fill="url(#paint20_linear_229_3683)"/>
<path d="M19.9111 225.09H16.2111L16.1211 217.35H19.8211L19.9111 225.09Z" fill="url(#paint21_linear_229_3683)"/>
<path d="M104.889 107.95V107.97L101.249 107.95L101.199 100.65H104.839L104.889 107.95Z" fill="#534741"/>
<path d="M105.622 224.14C105.622 224.19 104.362 225.38 102.012 224.4V217.09C104.392 218.09 105.572 217 105.622 216.96V224.14Z" fill="url(#paint22_linear_229_3683)"/>
<path d="M111.79 116.79V117.79C111.788 117.83 111.795 117.87 111.81 117.908C111.824 117.945 111.846 117.98 111.874 118.009C111.902 118.038 111.936 118.061 111.973 118.076C112.01 118.092 112.05 118.1 112.09 118.1H113.09V120.04C113.09 120.305 112.984 120.56 112.797 120.747C112.609 120.935 112.355 121.04 112.09 121.04C111.825 121.04 111.57 120.935 111.383 120.747C111.195 120.56 111.09 120.305 111.09 120.04V114.77C111.091 114.508 111.195 114.256 111.38 114.07C111.566 113.885 111.818 113.781 112.08 113.78C112.345 113.78 112.599 113.885 112.787 114.073C112.974 114.26 113.08 114.515 113.08 114.78V116.45H112.08C112.038 116.451 111.996 116.461 111.958 116.479C111.92 116.497 111.886 116.523 111.859 116.555C111.832 116.587 111.811 116.625 111.799 116.665C111.787 116.706 111.784 116.748 111.79 116.79V116.79Z" fill="url(#paint23_linear_229_3683)"/>
<path d="M123.379 117.31C123.379 117.53 123.292 117.741 123.136 117.897C122.98 118.053 122.769 118.14 122.549 118.14H112.089C112.049 118.14 112.009 118.132 111.972 118.116C111.935 118.101 111.901 118.078 111.873 118.049C111.845 118.02 111.824 117.986 111.809 117.948C111.795 117.91 111.788 117.87 111.789 117.83V116.83C111.788 116.79 111.795 116.75 111.809 116.712C111.824 116.675 111.845 116.64 111.873 116.611C111.901 116.583 111.935 116.56 111.972 116.544C112.009 116.528 112.049 116.52 112.089 116.52H122.549C122.66 116.519 122.769 116.54 122.87 116.583C122.972 116.626 123.063 116.69 123.139 116.77C123.286 116.912 123.372 117.106 123.379 117.31V117.31Z" fill="url(#paint24_linear_229_3683)"/>
<path d="M6.19969 113.87H5.23969C5.06848 113.87 4.92969 114.009 4.92969 114.18V120.6C4.92969 120.771 5.06848 120.91 5.23969 120.91H6.19969C6.3709 120.91 6.50969 120.771 6.50969 120.6V114.18C6.50969 114.009 6.3709 113.87 6.19969 113.87Z" fill="url(#paint25_linear_229_3683)"/>
<path d="M4.93194 116.26V118.53H1.09194C0.809302 118.503 0.546742 118.372 0.355627 118.162C0.164512 117.953 0.0585938 117.679 0.0585938 117.395C0.0585938 117.111 0.164512 116.837 0.355627 116.628C0.546742 116.418 0.809302 116.287 1.09194 116.26H4.93194Z" fill="url(#paint26_linear_229_3683)"/>
</g>
<defs>
<linearGradient id="paint0_linear_229_3683" x1="-6.42985" y1="35.28" x2="285.84" y2="204.03" gradientUnits="userSpaceOnUse">
<stop stop-color="#8C6239"/>
<stop offset="0.21" stop-color="#A67C50"/>
<stop offset="0.45" stop-color="#BD9365"/>
<stop offset="0.61" stop-color="#C69C6D"/>
<stop offset="0.71" stop-color="#BC9264"/>
<stop offset="0.88" stop-color="#A2784D"/>
<stop offset="1" stop-color="#8C6239"/>
</linearGradient>
<linearGradient id="paint1_linear_229_3683" x1="58.3689" y1="166.93" x2="-36.1011" y2="72.47" gradientUnits="userSpaceOnUse">
<stop stop-color="#754C24"/>
<stop offset="1" stop-color="#42210B"/>
</linearGradient>
<linearGradient id="paint2_linear_229_3683" x1="315.371" y1="165.76" x2="221.211" y2="71.5901" gradientUnits="userSpaceOnUse">
<stop stop-color="#754C24"/>
<stop offset="1" stop-color="#42210B"/>
</linearGradient>
<linearGradient id="paint3_linear_229_3683" x1="204.25" y1="89.2001" x2="75.7098" y2="-39.3399" gradientUnits="userSpaceOnUse">
<stop stop-color="#754C24"/>
<stop offset="1" stop-color="#42210B"/>
</linearGradient>
<linearGradient id="paint4_linear_229_3683" x1="139.579" y1="205.56" x2="139.579" y2="214.43" gradientUnits="userSpaceOnUse">
<stop stop-color="#754C24"/>
<stop offset="1" stop-color="#42210B"/>
</linearGradient>
<linearGradient id="paint5_linear_229_3683" x1="-6.80812" y1="35.94" x2="285.992" y2="204.99" gradientUnits="userSpaceOnUse">
<stop stop-color="#A67C52"/>
<stop offset="0.61" stop-color="#C69C6D"/>
<stop offset="0.77" stop-color="#BC9265"/>
<stop offset="1" stop-color="#A67C52"/>
</linearGradient>
<linearGradient id="paint6_linear_229_3683" x1="57.0705" y1="172.86" x2="-44.3395" y2="71.4499" gradientUnits="userSpaceOnUse">
<stop stop-color="#754C24"/>
<stop offset="1" stop-color="#42210B"/>
</linearGradient>
<linearGradient id="paint7_linear_229_3683" x1="323.49" y1="172.34" x2="221.91" y2="70.7504" gradientUnits="userSpaceOnUse">
<stop stop-color="#754C24"/>
<stop offset="1" stop-color="#42210B"/>
</linearGradient>
<linearGradient id="paint8_linear_229_3683" x1="206.35" y1="86.5601" x2="73.4504" y2="-46.3399" gradientUnits="userSpaceOnUse">
<stop stop-color="#754C24"/>
<stop offset="1" stop-color="#42210B"/>
</linearGradient>
<linearGradient id="paint9_linear_229_3683" x1="13.7817" y1="101.18" x2="19.6217" y2="107.02" gradientUnits="userSpaceOnUse">
<stop stop-color="#736357"/>
<stop offset="1" stop-color="#534741"/>
</linearGradient>
<linearGradient id="paint10_linear_229_3683" x1="108.03" y1="117.12" x2="154.62" y2="117.12" gradientUnits="userSpaceOnUse">
<stop stop-color="#C69C6D"/>
<stop offset="0.61" stop-color="#A67C52"/>
<stop offset="0.7" stop-color="#9C7349"/>
<stop offset="0.84" stop-color="#825932"/>
<stop offset="1" stop-color="#603813"/>
</linearGradient>
<linearGradient id="paint11_linear_229_3683" x1="113.311" y1="19.1101" x2="140.551" y2="19.1101" gradientUnits="userSpaceOnUse">
<stop stop-color="#C69C6D"/>
<stop offset="0.19" stop-color="#C29869"/>
<stop offset="0.39" stop-color="#B58C5E"/>
<stop offset="0.6" stop-color="#A0774C"/>
<stop offset="0.8" stop-color="#835B32"/>
<stop offset="1" stop-color="#603813"/>
</linearGradient>
<linearGradient id="paint12_linear_229_3683" x1="104.24" y1="117.12" x2="109.64" y2="117.12" gradientUnits="userSpaceOnUse">
<stop stop-color="#603813"/>
<stop offset="0.05" stop-color="#5C3512"/>
<stop offset="0.28" stop-color="#4D2A0E"/>
<stop offset="0.56" stop-color="#45230C"/>
<stop offset="1" stop-color="#42210B"/>
</linearGradient>
<linearGradient id="paint13_linear_229_3683" x1="78.6819" y1="117.13" x2="93.8119" y2="117.13" gradientUnits="userSpaceOnUse">
<stop stop-color="#C69C6D"/>
<stop offset="0.61" stop-color="#A67C52"/>
<stop offset="0.7" stop-color="#9C7349"/>
<stop offset="0.84" stop-color="#825932"/>
<stop offset="1" stop-color="#603813"/>
</linearGradient>
<linearGradient id="paint14_linear_229_3683" x1="84.5195" y1="19.25" x2="92.3495" y2="19.25" gradientUnits="userSpaceOnUse">
<stop stop-color="#C69C6D"/>
<stop offset="0.19" stop-color="#C29869"/>
<stop offset="0.39" stop-color="#B58C5E"/>
<stop offset="0.6" stop-color="#A0774C"/>
<stop offset="0.8" stop-color="#835B32"/>
<stop offset="1" stop-color="#603813"/>
</linearGradient>
<linearGradient id="paint15_linear_229_3683" x1="92.2209" y1="117.13" x2="98.8709" y2="117.13" gradientUnits="userSpaceOnUse">
<stop stop-color="#603813"/>
<stop offset="0.05" stop-color="#5C3512"/>
<stop offset="0.28" stop-color="#4D2A0E"/>
<stop offset="0.56" stop-color="#45230C"/>
<stop offset="1" stop-color="#42210B"/>
</linearGradient>
<linearGradient id="paint16_linear_229_3683" x1="97.3711" y1="118.52" x2="102.071" y2="118.52" gradientUnits="userSpaceOnUse">
<stop stop-color="#754C24"/>
<stop offset="0.19" stop-color="#6B431C"/>
<stop offset="0.5" stop-color="#633A15"/>
<stop offset="1" stop-color="#603813"/>
</linearGradient>
<linearGradient id="paint17_linear_229_3683" x1="25.6288" y1="117.22" x2="76.2387" y2="117.22" gradientUnits="userSpaceOnUse">
<stop stop-color="#C69C6D"/>
<stop offset="0.61" stop-color="#A67C52"/>
<stop offset="0.7" stop-color="#9C7349"/>
<stop offset="0.84" stop-color="#825932"/>
<stop offset="1" stop-color="#603813"/>
</linearGradient>
<linearGradient id="paint18_linear_229_3683" x1="17.4983" y1="117.33" x2="27.6283" y2="117.33" gradientUnits="userSpaceOnUse">
<stop stop-color="#603813"/>
<stop offset="0.05" stop-color="#5C3512"/>
<stop offset="0.28" stop-color="#4D2A0E"/>
<stop offset="0.56" stop-color="#45230C"/>
<stop offset="1" stop-color="#42210B"/>
</linearGradient>
<linearGradient id="paint19_linear_229_3683" x1="5.44141" y1="117.32" x2="12.6614" y2="117.32" gradientUnits="userSpaceOnUse">
<stop stop-color="#603813"/>
<stop offset="0.05" stop-color="#5C3512"/>
<stop offset="0.28" stop-color="#4D2A0E"/>
<stop offset="0.56" stop-color="#45230C"/>
<stop offset="1" stop-color="#42210B"/>
</linearGradient>
<linearGradient id="paint20_linear_229_3683" x1="-37.7217" y1="30.7501" x2="63.2583" y2="205.65" gradientUnits="userSpaceOnUse">
<stop stop-color="#754C24"/>
<stop offset="0.19" stop-color="#6B431C"/>
<stop offset="0.5" stop-color="#633A15"/>
<stop offset="1" stop-color="#603813"/>
</linearGradient>
<linearGradient id="paint21_linear_229_3683" x1="15.1311" y1="218.34" x2="20.9011" y2="224.1" gradientUnits="userSpaceOnUse">
<stop stop-color="#736357"/>
<stop offset="1" stop-color="#534741"/>
</linearGradient>
<linearGradient id="paint22_linear_229_3683" x1="101.082" y1="217.96" x2="106.432" y2="223.31" gradientUnits="userSpaceOnUse">
<stop stop-color="#736357"/>
<stop offset="1" stop-color="#534741"/>
</linearGradient>
<linearGradient id="paint23_linear_229_3683" x1="111.1" y1="117.45" x2="113.09" y2="117.45" gradientUnits="userSpaceOnUse">
<stop stop-color="#CCCCCC"/>
<stop offset="1" stop-color="#E6E6E6"/>
</linearGradient>
<linearGradient id="paint24_linear_229_3683" x1="111.779" y1="117.31" x2="123.379" y2="117.31" gradientUnits="userSpaceOnUse">
<stop stop-color="#999999"/>
<stop offset="1" stop-color="#CCCCCC"/>
</linearGradient>
<linearGradient id="paint25_linear_229_3683" x1="4.92969" y1="117.4" x2="6.50969" y2="117.4" gradientUnits="userSpaceOnUse">
<stop stop-color="#CCCCCC"/>
<stop offset="1" stop-color="#E6E6E6"/>
</linearGradient>
<linearGradient id="paint26_linear_229_3683" x1="-0.00805989" y1="117.4" x2="4.92194" y2="117.4" gradientUnits="userSpaceOnUse">
<stop stop-color="#999999"/>
<stop offset="1" stop-color="#CCCCCC"/>
</linearGradient>
<clipPath id="clip0_229_3683">
<rect width="275.84" height="234.65" fill="white"/>
</clipPath>
</defs>
</svg>
