<svg xmlns="http://www.w3.org/2000/svg" xmlns:xlink="http://www.w3.org/1999/xlink" viewBox="0 0 95.74 267.29"><defs><style>.cls-1{fill:none;}.cls-2{fill:url(#Безымянный_градиент_17);}.cls-3{fill:url(#Безымянный_градиент_143);}.cls-4{fill:url(#Безымянный_градиент_7);}.cls-5{fill:#cecece;}.cls-6{fill:#b2b2b2;}.cls-7{fill:#b5b5b5;}.cls-8{fill:url(#Безымянный_градиент_7-2);}.cls-9{fill:#494949;}.cls-10{fill:url(#Безымянный_градиент_103);}.cls-11{fill:url(#Безымянный_градиент_90);}</style><linearGradient id="Безымянный_градиент_17" x1="-21.97" y1="12.68" x2="117.71" y2="254.61" gradientTransform="matrix(-1, 0, 0, 1, 95.74, 0)" gradientUnits="userSpaceOnUse"><stop offset="0" stop-color="#c69c6d"/><stop offset="0.5" stop-color="#c69c6d"/><stop offset="0.78" stop-color="#c69c6d"/><stop offset="0.92" stop-color="#946b40"/><stop offset="1" stop-color="#754c24"/></linearGradient><linearGradient id="Безымянный_градиент_143" x1="4.33" y1="134.93" x2="91.43" y2="134.93" gradientTransform="matrix(-1, 0, 0, 1, 95.74, 0)" gradientUnits="userSpaceOnUse"><stop offset="0" stop-color="#a67c52"/><stop offset="0.48" stop-color="#754c24"/><stop offset="0.98" stop-color="#a47a50"/><stop offset="1" stop-color="#a67c52"/></linearGradient><linearGradient id="Безымянный_градиент_7" x1="91.43" y1="13.26" x2="94.09" y2="13.26" gradientTransform="matrix(-1, 0, 0, 1, 95.74, 0)" gradientUnits="userSpaceOnUse"><stop offset="0" stop-color="#4d4d4d"/><stop offset="1" stop-color="#736357"/></linearGradient><linearGradient id="Безымянный_градиент_7-2" x1="91.43" y1="255.29" x2="93.94" y2="255.29" xlink:href="#Безымянный_градиент_7"/><linearGradient id="Безымянный_градиент_103" x1="6.68" y1="133.51" x2="11" y2="133.51" gradientTransform="matrix(-1, 0, 0, 1, 95.74, 0)" gradientUnits="userSpaceOnUse"><stop offset="0" stop-color="#4d4d4d"/><stop offset="1" stop-color="#333"/></linearGradient><linearGradient id="Безымянный_градиент_90" x1="7.69" y1="141.16" x2="9.99" y2="141.16" gradientTransform="matrix(-1, 0, 0, 1, 95.74, 0)" gradientUnits="userSpaceOnUse"><stop offset="0" stop-color="#4d4d4d"/><stop offset="1" stop-color="#1a1a1a"/></linearGradient></defs><g id="Слой_2" data-name="Слой 2"><g id="Слой_2-2" data-name="Слой 2"><polygon class="cls-1" points="14.36 14.69 14.36 255.58 81.33 255.58 81.36 14.69 14.36 14.69"/><path class="cls-2" d="M0,0V267.29H95.74V0ZM1.65,6.89a1,1,0,0,1,1-1h.66a1,1,0,0,1,1,1V4.42h87.1v261H4.31V263a1,1,0,0,1-1,1H2.8a1,1,0,0,1-1-1V250.13a1,1,0,0,1,1-1h.51a1,1,0,0,1,1,1V19.63a1,1,0,0,1-1,1H2.65a1,1,0,0,1-1-1Z"/><path class="cls-3" d="M4.31,4.42v261h87.1V4.42ZM84.74,130.64a2.16,2.16,0,0,1,2.16-2.16,2.15,2.15,0,0,1,2.16,2.16v6.06a2.18,2.18,0,0,1-1,1.84V148.8a1.15,1.15,0,0,1-2.3,0V138.54a2.72,2.72,0,0,1-.38-.31,2.15,2.15,0,0,1-.63-1.53ZM13.36,13.37h69V256.46h-69Z"/><polygon class="cls-1" points="14.36 14.69 14.36 255.58 81.33 255.58 81.36 14.69 14.36 14.69"/><rect class="cls-4" x="1.65" y="5.89" width="2.66" height="14.74" rx="1"/><polygon class="cls-5" points="81.33 255.58 82.34 256.46 82.34 13.37 81.36 14.69 81.33 255.58"/><polygon class="cls-5" points="13.36 13.37 13.36 256.46 14.36 255.58 14.36 14.69 13.36 13.37"/><polygon class="cls-6" points="13.36 13.37 14.36 14.69 81.36 14.69 82.34 13.37 13.36 13.37"/><polygon class="cls-1" points="14.36 14.69 14.36 255.58 81.33 255.58 81.36 14.69 14.36 14.69"/><polygon class="cls-7" points="13.36 256.46 82.34 256.46 81.33 255.58 14.36 255.58 13.36 256.46"/><path class="cls-8" d="M1.8,250.13v11.33H4.31V250.13a1,1,0,0,0-1-1H2.8A1,1,0,0,0,1.8,250.13Z"/><path class="cls-9" d="M1.8,261.46V263a1,1,0,0,0,1,1h.51a1,1,0,0,0,1-1v-1.54Z"/><path class="cls-10" d="M84.74,130.64v6.06a2.15,2.15,0,0,0,.63,1.53,2.72,2.72,0,0,0,.38.31v-5a1.15,1.15,0,1,1,2.3,0v5a2.18,2.18,0,0,0,1-1.84v-6.06a2.15,2.15,0,0,0-2.16-2.16A2.16,2.16,0,0,0,84.74,130.64Z"/><path class="cls-11" d="M85.75,133.52V148.8a1.15,1.15,0,0,0,2.3,0V133.52a1.15,1.15,0,1,0-2.3,0Z"/></g></g></svg>