<svg xmlns="http://www.w3.org/2000/svg" xmlns:xlink="http://www.w3.org/1999/xlink" viewBox="0 0 222.86 200.55"><defs><style>.cls-1{fill:url(#Безымянный_градиент_118);}.cls-2{fill:url(#Безымянный_градиент_118-2);}.cls-3{fill:#cecece;}.cls-4{fill:#b2b2b2;}.cls-5{fill:none;}.cls-6{fill:url(#Безымянный_градиент_143);}.cls-7{fill:url(#Безымянный_градиент_143-2);}.cls-8{fill:#b5b5b5;}.cls-9{fill:url(#Безымянный_градиент_71);}.cls-10{fill:url(#Безымянный_градиент_7);}.cls-11{fill:url(#Безымянный_градиент_7-2);}.cls-12{fill:#494949;}.cls-13{fill:url(#Безымянный_градиент_103);}.cls-14{fill:url(#Безымянный_градиент_90);}.cls-15{fill:url(#Безымянный_градиент_143-3);}.cls-16{fill:url(#Безымянный_градиент_143-4);}</style><linearGradient id="Безымянный_градиент_118" x1="-1345.73" y1="186.76" x2="-1245.26" y2="12.75" gradientTransform="matrix(-1, 0, 0, 1, -1257.39, 0)" gradientUnits="userSpaceOnUse"><stop offset="0" stop-color="#c69c6d"/><stop offset="0.74" stop-color="#c69c6d"/><stop offset="0.86" stop-color="#c49a6b"/><stop offset="0.91" stop-color="#bd9365"/><stop offset="0.95" stop-color="#b08659"/><stop offset="0.98" stop-color="#9e7449"/><stop offset="1" stop-color="#8c6239"/></linearGradient><linearGradient id="Безымянный_градиент_118-2" x1="40.15" y1="223.73" x2="182.71" y2="-23.18" gradientTransform="matrix(1, 0, 0, 1, 0, 0)" xlink:href="#Безымянный_градиент_118"/><linearGradient id="Безымянный_градиент_143" x1="-1450.96" y1="147.99" x2="-1355.04" y2="52.07" gradientTransform="matrix(-1, 0, 0, 1, -1257.39, 0)" gradientUnits="userSpaceOnUse"><stop offset="0" stop-color="#a67c52"/><stop offset="0.48" stop-color="#754c24"/><stop offset="0.98" stop-color="#a47a50"/><stop offset="1" stop-color="#a67c52"/></linearGradient><linearGradient id="Безымянный_градиент_143-2" x1="-1433.66" y1="165.28" x2="-1303.16" y2="34.78" xlink:href="#Безымянный_градиент_143"/><linearGradient id="Безымянный_градиент_71" x1="616.38" y1="165.28" x2="746.88" y2="34.78" gradientTransform="translate(-644.2)" gradientUnits="userSpaceOnUse"><stop offset="0" stop-color="#a67c52"/><stop offset="0.55" stop-color="#754c24"/><stop offset="0.82" stop-color="#a47a4e"/><stop offset="1" stop-color="#c69c6d"/></linearGradient><linearGradient id="Безымянный_градиент_7" x1="72.02" y1="13.51" x2="75" y2="13.51" gradientUnits="userSpaceOnUse"><stop offset="0" stop-color="#4d4d4d"/><stop offset="1" stop-color="#736357"/></linearGradient><linearGradient id="Безымянный_градиент_7-2" x1="72.02" y1="185.36" y2="185.36" xlink:href="#Безымянный_градиент_7"/><linearGradient id="Безымянный_градиент_103" x1="650.61" y1="99.54" x2="655.15" y2="99.54" gradientTransform="translate(-644.2)" gradientUnits="userSpaceOnUse"><stop offset="0" stop-color="#4d4d4d"/><stop offset="1" stop-color="#333"/></linearGradient><linearGradient id="Безымянный_градиент_90" x1="651.45" y1="106.25" x2="654.31" y2="106.25" gradientTransform="translate(-644.2)" gradientUnits="userSpaceOnUse"><stop offset="0" stop-color="#4d4d4d"/><stop offset="1" stop-color="#1a1a1a"/></linearGradient><linearGradient id="Безымянный_градиент_143-3" x1="-1524.37" y1="147.99" x2="-1428.45" y2="52.07" xlink:href="#Безымянный_градиент_143"/><linearGradient id="Безымянный_градиент_143-4" x1="-1507.07" y1="165.28" x2="-1376.57" y2="34.78" xlink:href="#Безымянный_градиент_143"/></defs><g id="Слой_2" data-name="Слой 2"><g id="Слой_2-2" data-name="Слой 2"><path class="cls-1" d="M74,179.21H73l-.21,0v15.64l.21,0h1a1,1,0,0,0,1-1V180.21A1,1,0,0,0,74,179.21ZM74,5.67H73l-.21,0V21.33l.21,0h1a1,1,0,0,0,1-1V6.67A1,1,0,0,0,74,5.67ZM2.85,4.11V195.94h.79V4.17H72V4.11Z"/><path class="cls-2" d="M0,0V200.55H222.86V0ZM75,20.35a1,1,0,0,1-1,1H73l-.21,0a1,1,0,0,1-.79-1V180.21a1,1,0,0,1,.79-1l.21,0h1a1,1,0,0,1,1,1v13.68a1,1,0,0,1-1,1H73l-.21,0a1,1,0,0,1-.79-1v2.05H2.85V4.11H72V6.67a1,1,0,0,1,.79-1l.21,0h1a1,1,0,0,1,1,1Zm70.61,175.59H76.44V4.12h69.17Zm73.41,0H149.84V4.12H219Z"/></g><g id="Слой_3" data-name="Слой 3"><polygon class="cls-3" points="161.56 15.77 161.56 184.23 162.29 183.54 162.29 16.55 161.56 15.77"/><polygon class="cls-4" points="161.56 15.77 162.29 16.55 206.56 16.55 207.42 15.77 161.56 15.77"/><rect class="cls-5" x="162.28" y="16.56" width="44.27" height="166.98"/><rect class="cls-5" x="162.28" y="16.56" width="44.27" height="166.98"/><path class="cls-6" d="M145.61,4.12V195.94h0V4.12Z"/><path class="cls-7" d="M76.44,4.12V195.94h69.17V4.12Zm57.47,180.11H88V15.77h45.87Z"/><rect class="cls-5" x="88.9" y="16.56" width="44.26" height="166.98"/><polygon class="cls-8" points="88.03 184.22 133.9 184.22 133.16 183.53 88.9 183.53 88.03 184.22"/><polygon class="cls-3" points="88.04 15.77 88.04 184.23 88.91 183.54 88.91 16.55 88.04 15.77"/><polygon class="cls-3" points="133.17 16.55 133.17 183.54 133.91 184.23 133.91 15.77 133.17 16.55"/><polygon class="cls-4" points="88.04 15.77 88.91 16.55 133.17 16.55 133.91 15.77 88.04 15.77"/><rect class="cls-5" x="88.9" y="16.56" width="44.26" height="166.98"/><rect class="cls-5" x="88.9" y="16.56" width="44.26" height="166.98"/><path class="cls-9" d="M2.85,4.11V195.94H72V4.11ZM11,102.84a2.3,2.3,0,0,1-.84,1.77v8a1.43,1.43,0,0,1-2.86,0v-8l-.18-.16a2.27,2.27,0,0,1-.66-1.61V96.73a2.26,2.26,0,0,1,3.87-1.6,2.21,2.21,0,0,1,.67,1.6Zm49.47,81.38H14.55V15.75H60.42Z"/><rect class="cls-5" x="15.29" y="16.54" width="44.26" height="166.99"/><polygon class="cls-8" points="60.42 184.22 14.55 184.22 15.29 183.53 59.55 183.53 60.42 184.22"/><polygon class="cls-3" points="15.29 16.54 15.29 183.53 14.55 184.22 14.55 15.75 15.29 16.54"/><polygon class="cls-3" points="60.42 15.75 60.42 184.22 59.55 183.53 59.55 16.54 60.42 15.75"/><polygon class="cls-4" points="60.42 15.75 59.55 16.54 15.29 16.54 14.55 15.75 60.42 15.75"/><rect class="cls-5" x="15.29" y="16.54" width="44.26" height="166.99"/><rect class="cls-5" x="15.29" y="16.54" width="44.26" height="166.99"/><path class="cls-10" d="M75,6.67V20.35a1,1,0,0,1-1,1H73l-.21,0a1,1,0,0,1-.79-1V6.67a1,1,0,0,1,.79-1l.21,0h1A1,1,0,0,1,75,6.67Z"/><path class="cls-11" d="M75,180.21V191.5H72V180.21a1,1,0,0,1,.79-1l.21,0h1A1,1,0,0,1,75,180.21Z"/><path class="cls-12" d="M75,191.5v2.39a1,1,0,0,1-1,1H73l-.21,0a1,1,0,0,1-.79-1V191.5Z"/><path class="cls-13" d="M11,96.73v6.11a2.3,2.3,0,0,1-.84,1.77V99.83a1.43,1.43,0,0,0-2.86,0v4.78l-.18-.16a2.27,2.27,0,0,1-.66-1.61V96.73a2.26,2.26,0,0,1,3.87-1.6A2.21,2.21,0,0,1,11,96.73Z"/><path class="cls-14" d="M10.11,99.83v12.83a1.43,1.43,0,0,1-2.86,0V99.83a1.43,1.43,0,0,1,2.86,0Z"/><path class="cls-15" d="M219,4.12V195.94h0V4.12Z"/><path class="cls-16" d="M149.85,4.12V195.94H219V4.12Zm11.71,11.65h45.86V184.23H161.56Z"/><rect class="cls-5" x="162.28" y="16.56" width="44.27" height="166.98"/><polygon class="cls-8" points="161.55 184.22 207.41 184.22 206.55 183.53 162.28 183.53 161.55 184.22"/><polygon class="cls-3" points="206.56 16.55 206.56 183.54 207.42 184.23 207.42 15.77 206.56 16.55"/></g></g></svg>