<svg xmlns="http://www.w3.org/2000/svg" xmlns:xlink="http://www.w3.org/1999/xlink" viewBox="0 0 222.86 200.55"><defs><style>.cls-1{fill:url(#Безымянный_градиент_118);}.cls-2{fill:url(#Безымянный_градиент_118-2);}.cls-3{fill:url(#Безымянный_градиент_118-3);}.cls-4{fill:#cecece;}.cls-5{fill:#b2b2b2;}.cls-6{fill:none;}.cls-7{fill:url(#Безымянный_градиент_7);}.cls-8{fill:url(#Безымянный_градиент_7-2);}.cls-9{fill:#494949;}.cls-10{fill:url(#Безымянный_градиент_103);}.cls-11{fill:url(#Безымянный_градиент_90);}.cls-12{fill:url(#Безымянный_градиент_143);}.cls-13{fill:#b5b5b5;}.cls-14{fill:url(#Безымянный_градиент_7-3);}.cls-15{fill:url(#Безымянный_градиент_7-4);}.cls-16{fill:url(#Безымянный_градиент_103-2);}.cls-17{fill:url(#Безымянный_градиент_90-2);}.cls-18{fill:url(#Безымянный_градиент_71);}.cls-19{fill:url(#Безымянный_градиент_7-5);}.cls-20{fill:url(#Безымянный_градиент_7-6);}.cls-21{fill:url(#Безымянный_градиент_103-3);}.cls-22{fill:url(#Безымянный_градиент_90-3);}.cls-23{fill:url(#Безымянный_градиент_143-2);}</style><linearGradient id="Безымянный_градиент_118" x1="43.7" y1="203.09" x2="162.69" y2="-2.99" gradientTransform="translate(45.92)" gradientUnits="userSpaceOnUse"><stop offset="0" stop-color="#c69c6d"/><stop offset="0.74" stop-color="#c69c6d"/><stop offset="0.86" stop-color="#c49a6b"/><stop offset="0.91" stop-color="#bd9365"/><stop offset="0.95" stop-color="#b08659"/><stop offset="0.98" stop-color="#9e7449"/><stop offset="1" stop-color="#8c6239"/></linearGradient><linearGradient id="Безымянный_градиент_118-2" x1="-28.89" y1="204.68" x2="108.94" y2="-34.04" xlink:href="#Безымянный_градиент_118"/><linearGradient id="Безымянный_градиент_118-3" x1="204.32" y1="223.73" x2="61.77" y2="-23.18" gradientTransform="matrix(-1, 0, 0, 1, 244.48, 0)" xlink:href="#Безымянный_градиент_118"/><linearGradient id="Безымянный_градиент_7" x1="170.46" y1="13.51" x2="173.43" y2="13.51" gradientTransform="matrix(-1, 0, 0, 1, 244.48, 0)" gradientUnits="userSpaceOnUse"><stop offset="0" stop-color="#4d4d4d"/><stop offset="1" stop-color="#736357"/></linearGradient><linearGradient id="Безымянный_градиент_7-2" x1="170.46" y1="185.35" x2="173.43" y2="185.35" xlink:href="#Безымянный_градиент_7"/><linearGradient id="Безымянный_градиент_103" x1="85.53" y1="99.53" x2="90.07" y2="99.53" gradientTransform="matrix(-1, 0, 0, 1, 95.49, 0)" gradientUnits="userSpaceOnUse"><stop offset="0" stop-color="#4d4d4d"/><stop offset="1" stop-color="#333"/></linearGradient><linearGradient id="Безымянный_градиент_90" x1="86.37" y1="106.24" x2="89.22" y2="106.24" gradientTransform="matrix(-1, 0, 0, 1, 95.49, 0)" gradientUnits="userSpaceOnUse"><stop offset="0" stop-color="#4d4d4d"/><stop offset="1" stop-color="#1a1a1a"/></linearGradient><linearGradient id="Безымянный_градиент_143" x1="-0.54" y1="165.26" x2="129.96" y2="34.76" gradientTransform="translate(45.92)" gradientUnits="userSpaceOnUse"><stop offset="0" stop-color="#a67c52"/><stop offset="0.48" stop-color="#754c24"/><stop offset="0.98" stop-color="#a47a50"/><stop offset="1" stop-color="#a67c52"/></linearGradient><linearGradient id="Безымянный_градиент_7-3" x1="96.29" y1="13.5" x2="99.26" y2="13.5" xlink:href="#Безымянный_градиент_7"/><linearGradient id="Безымянный_градиент_7-4" x1="96.29" y1="185.34" x2="99.26" y2="185.34" xlink:href="#Безымянный_градиент_7"/><linearGradient id="Безымянный_градиент_103-2" x1="33.69" y1="99.53" x2="38.24" y2="99.53" gradientTransform="translate(45.92)" xlink:href="#Безымянный_градиент_103"/><linearGradient id="Безымянный_градиент_90-2" x1="34.54" y1="106.24" x2="37.39" y2="106.24" gradientTransform="translate(45.92)" xlink:href="#Безымянный_градиент_90"/><linearGradient id="Безымянный_градиент_71" x1="143.53" y1="165.31" x2="274.03" y2="34.81" gradientTransform="matrix(-1, 0, 0, 1, 395.18, 0)" gradientUnits="userSpaceOnUse"><stop offset="0" stop-color="#a67c52"/><stop offset="0.55" stop-color="#754c24"/><stop offset="0.82" stop-color="#a47a4e"/><stop offset="1" stop-color="#c69c6d"/></linearGradient><linearGradient id="Безымянный_градиент_7-5" x1="92.66" y1="13.54" x2="95.64" y2="13.54" xlink:href="#Безымянный_градиент_7"/><linearGradient id="Безымянный_градиент_7-6" x1="92.66" y1="185.39" x2="95.64" y2="185.39" xlink:href="#Безымянный_градиент_7"/><linearGradient id="Безымянный_градиент_103-3" x1="177.75" y1="99.57" x2="182.29" y2="99.57" gradientTransform="matrix(-1, 0, 0, 1, 395.18, 0)" xlink:href="#Безымянный_градиент_103"/><linearGradient id="Безымянный_градиент_90-3" x1="178.59" y1="106.28" x2="181.45" y2="106.28" gradientTransform="matrix(-1, 0, 0, 1, 395.18, 0)" xlink:href="#Безымянный_градиент_90"/><linearGradient id="Безымянный_градиент_143-2" x1="-6.22" y1="165.27" x2="124.28" y2="34.77" gradientTransform="matrix(-1, 0, 0, 1, 95.49, 0)" xlink:href="#Безымянный_градиент_143"/></defs><g id="Слой_2" data-name="Слой 2"><g id="Слой_2-2" data-name="Слой 2"><path class="cls-1" d="M219.22,4.16V196H221V4.16ZM150,180.26v13.68a.34.34,0,0,0,0,.1V180.16A.34.34,0,0,0,150,180.26ZM150,6.72V20.4a.34.34,0,0,0,0,.1V6.62A.34.34,0,0,0,150,6.72Zm-3.62,173.5v13.67a1,1,0,0,0,.77,1h0a1,1,0,0,0,1-1V180.2a1,1,0,0,0-.77-1h0A1,1,0,0,0,146.42,180.22Zm2.42,0v13.68a.34.34,0,0,0,0,.1.92.92,0,0,0,.26.57,1,1,0,0,0,.28-.7V180.22a1,1,0,0,0-.26-.67.94.94,0,0,0-.28.59A.34.34,0,0,0,148.84,180.24Zm0-173.54V20.38a.34.34,0,0,0,0,.1.92.92,0,0,0,.26.57,1,1,0,0,0,.28-.7V6.68a1,1,0,0,0-.26-.67.94.94,0,0,0-.28.59A.34.34,0,0,0,148.84,6.7Zm-2.42,0V20.35a1,1,0,0,0,.77,1h0a1,1,0,0,0,1-1V6.66a1,1,0,0,0-.77-1h0A1,1,0,0,0,146.42,6.68ZM77.24,4.12V195.94h0V4.12Z"/><path class="cls-2" d="M151.82,4.14V5.72h.2a1,1,0,0,1,1,1V4.16h68v0Zm0,190.8v1H153v-2a1,1,0,0,1-1,1ZM146.42,5.66v1a1,1,0,0,1,1-1l-.2,0Zm0,173.54v1a1,1,0,0,1,1-1l-.2,0Zm0-158.85v1h.77A1,1,0,0,1,146.42,20.35Zm2.69.7a1,1,0,0,0,.73.33h1a1,1,0,0,1-.77-.88.34.34,0,0,1,0-.1V6.72a.34.34,0,0,1,0-.1,1,1,0,0,1,1-.9l-.2,0h-1a1,1,0,0,0-.71.31,1,1,0,0,1,.26.67V20.35A1,1,0,0,1,149.11,21.05Zm0,173.54a1,1,0,0,0,.73.33h1a1,1,0,0,1-.77-.88.34.34,0,0,1,0-.1V180.26a.34.34,0,0,1,0-.1,1,1,0,0,1,1-.9l-.2,0h-1a1,1,0,0,0-.71.31,1,1,0,0,1,.26.67v13.67A1,1,0,0,1,149.11,194.59ZM151.82,21.4V179.26h.2a1,1,0,0,1,1,1V20.4a1,1,0,0,1-1,1Zm-5.4,172.49v1h.77A1,1,0,0,1,146.42,193.89ZM76,4.1V195.92h1.2V4.12h68v0ZM73,5.67V21.34a1,1,0,0,0,1-1V6.67A1,1,0,0,0,73,5.67Zm0,173.54v15.67a1,1,0,0,0,1-1V180.21A1,1,0,0,0,73,179.21ZM1.87,4.11V195.93h2V4.12h-2ZM146.42,20.35v1h.77A1,1,0,0,1,146.42,20.35Z"/><path class="cls-3" d="M0,0V200.55H222.86V0ZM148.84,6.7a.34.34,0,0,1,0-.1.94.94,0,0,1,.28-.59,1,1,0,0,1,.71-.31h1l.2,0h0a1,1,0,0,1,.78,1V4.14H221V196h-1.77v0H153v0h-1.2v-2.05a1,1,0,0,1-1,1h-1a1,1,0,0,1-.73-.33.92.92,0,0,1-.26-.57.34.34,0,0,1,0-.1V180.24a.34.34,0,0,1,0-.1.94.94,0,0,1,.28-.59,1,1,0,0,1,.71-.31h1l.2,0h0a1,1,0,0,1,.78,1V20.38a1,1,0,0,1-1,1h-1a1,1,0,0,1-.73-.33.92.92,0,0,1-.26-.57.34.34,0,0,1,0-.1ZM76,4.1h69.18V6.66a1,1,0,0,1,1-1h1l.2,0h0a1,1,0,0,1,.77,1V20.33a1,1,0,0,1-1,1h-1a1,1,0,0,1-1-1V180.2a1,1,0,0,1,1-1h1l.2,0h0a1,1,0,0,1,.77,1v13.67a1,1,0,0,1-1,1h-1a1,1,0,0,1-1-1v2h-68v0h0v0H76Zm-74.17,0H71.05V6.67a1,1,0,0,1,1-1h1a1,1,0,0,1,1,1V20.34a1,1,0,0,1-1,1h-1a1,1,0,0,1-1-1V180.21a1,1,0,0,1,1-1h1a1,1,0,0,1,1,1v13.67a1,1,0,0,1-1,1h-1a1,1,0,0,1-1-1v2.05H1.87Z"/></g><g id="Слой_3" data-name="Слой 3"><polygon class="cls-4" points="13.57 15.74 13.57 184.21 14.3 183.51 14.3 16.54 13.57 15.74"/><polygon class="cls-5" points="13.57 15.74 14.3 16.54 58.58 16.54 59.44 15.74 13.57 15.74"/><rect class="cls-6" x="14.31" y="16.54" width="44.27" height="166.98"/><rect class="cls-6" x="14.31" y="16.54" width="44.27" height="166.98"/><path class="cls-7" d="M71.05,6.67V20.34a1,1,0,0,0,1,1h1a1,1,0,0,0,1-1V6.67a1,1,0,0,0-1-1h-1A1,1,0,0,0,71.05,6.67Z"/><path class="cls-8" d="M71.05,180.21v11.28h3V180.21a1,1,0,0,0-1-1h-1A1,1,0,0,0,71.05,180.21Z"/><path class="cls-9" d="M71.05,191.49v2.39a1,1,0,0,0,1,1h1a1,1,0,0,0,1-1v-2.39Z"/><path class="cls-10" d="M5.43,96.73v6.11a2.27,2.27,0,0,0,.67,1.6l.18.17V99.83a1.43,1.43,0,1,1,2.85,0v4.77a2.26,2.26,0,0,0,.84-1.76V96.73a2.27,2.27,0,0,0-.66-1.61,2.23,2.23,0,0,0-1.61-.67A2.28,2.28,0,0,0,5.43,96.73Z"/><path class="cls-11" d="M6.28,99.83v12.83a1.43,1.43,0,0,0,2.85,0V99.83a1.43,1.43,0,1,0-2.85,0Z"/><path class="cls-12" d="M76,4.1V195.92h69.18V4.1ZM87.75,15.74h45.87V184.2H87.75Zm-8.15,81a.82.82,0,0,1,0-.22,1.71,1.71,0,0,1,.09-.45.9.9,0,0,1,.08-.21l.09-.2s0,0,0,0a2.2,2.2,0,0,1,1.33-1.08l.22,0a.57.57,0,0,1,.22,0,.82.82,0,0,1,.22,0h0a1.84,1.84,0,0,1,.47.06.54.54,0,0,1,.21,0l.21.08a1.11,1.11,0,0,1,.19.09l.16.1.26.2a2.06,2.06,0,0,1,.54.7s0,.1.07.16a.52.52,0,0,1,.06.16,2.54,2.54,0,0,1,.1.68v6.11a2.28,2.28,0,0,1-.84,1.76h0v8.05a1.43,1.43,0,0,1-1.42,1.42h0a1.46,1.46,0,0,1-.55-.11,1.23,1.23,0,0,1-.44-.3,2,2,0,0,1-.18-.21,1.36,1.36,0,0,1-.13-.24,1.31,1.31,0,0,1-.12-.56v-8.06a1.51,1.51,0,0,1-.23-.21.69.69,0,0,1-.11-.13,1.33,1.33,0,0,1-.14-.19,1.88,1.88,0,0,1-.22-.45,1.83,1.83,0,0,1-.08-.25,2.34,2.34,0,0,1,0-.26,1.24,1.24,0,0,1,0-.27Z"/><rect class="cls-6" x="88.5" y="16.54" width="44.26" height="166.98"/><polygon class="cls-13" points="133.63 184.21 87.76 184.21 88.5 183.51 132.76 183.51 133.63 184.21"/><polygon class="cls-4" points="133.63 15.74 133.63 184.21 132.76 183.51 132.76 16.54 133.63 15.74"/><polygon class="cls-4" points="88.5 16.54 88.5 183.51 87.76 184.21 87.76 15.74 88.5 16.54"/><polygon class="cls-5" points="133.63 15.74 132.76 16.54 88.5 16.54 87.76 15.74 133.63 15.74"/><rect class="cls-6" x="88.5" y="16.54" width="44.26" height="166.98"/><rect class="cls-6" x="88.5" y="16.54" width="44.26" height="166.98"/><path class="cls-14" d="M145.22,6.66V20.33a1,1,0,0,0,1,1h1a1,1,0,0,0,1-1V6.66a1,1,0,0,0-.77-1h0l-.2,0h-1A1,1,0,0,0,145.22,6.66Z"/><path class="cls-15" d="M145.22,180.2v11.28h3V180.2a1,1,0,0,0-.77-1h0l-.2,0h-1A1,1,0,0,0,145.22,180.2Z"/><path class="cls-9" d="M145.22,191.48v2.39a1,1,0,0,0,1,1h1a1,1,0,0,0,1-1v-2.39Z"/><path class="cls-16" d="M84.16,96.73v6.11a2.27,2.27,0,0,1-.85,1.77V99.83a1.43,1.43,0,0,0-1.42-1.43h0a1.43,1.43,0,0,0-1.42,1.43v4.77a2.24,2.24,0,0,1-.85-1.76V96.73a2.28,2.28,0,0,1,2.27-2.28h0A2.28,2.28,0,0,1,84.16,96.73Z"/><path class="cls-17" d="M83.31,99.83v12.83a1.43,1.43,0,0,1-1.42,1.42h0a1.43,1.43,0,0,1-1.42-1.42V99.83a1.43,1.43,0,0,1,1.42-1.43h0A1.43,1.43,0,0,1,83.31,99.83Z"/><path class="cls-18" d="M151.82,4.14V196H221V4.14Zm61.07,92.62a2.21,2.21,0,0,1,.67-1.6,2.27,2.27,0,0,1,1.6-.67h.25a.78.78,0,0,1,.22,0,2.13,2.13,0,0,1,.43.13,2.25,2.25,0,0,1,.51.31,1.68,1.68,0,0,1,.21.18,1.37,1.37,0,0,1,.19.22l.14.21a1,1,0,0,1,.12.23,2,2,0,0,1,.1.26,1.6,1.6,0,0,1,0,.21,2.31,2.31,0,0,1,.05.46v6.11a2.27,2.27,0,0,1-.66,1.61l-.17.15h0v8a1.43,1.43,0,0,1-1.43,1.43,1.47,1.47,0,0,1-.56-.11,1.45,1.45,0,0,1-.75-.75,1.39,1.39,0,0,1-.12-.57v-8a1.67,1.67,0,0,1-.23-.23,1.24,1.24,0,0,1-.18-.22,2.14,2.14,0,0,1-.4-1,1.24,1.24,0,0,1,0-.27Zm-49.47-81h45.87V184.25H163.42Z"/><rect class="cls-6" x="164.3" y="16.58" width="44.26" height="166.99"/><polygon class="cls-13" points="163.43 184.25 209.3 184.25 208.56 183.56 164.3 183.56 163.43 184.25"/><polygon class="cls-4" points="208.56 16.57 208.56 183.56 209.3 184.25 209.3 15.79 208.56 16.57"/><polygon class="cls-4" points="163.43 15.79 163.43 184.25 164.3 183.56 164.3 16.57 163.43 15.79"/><polygon class="cls-5" points="163.43 15.79 164.3 16.57 208.56 16.57 209.3 15.79 163.43 15.79"/><rect class="cls-6" x="164.3" y="16.58" width="44.26" height="166.99"/><rect class="cls-6" x="164.3" y="16.58" width="44.26" height="166.99"/><path class="cls-19" d="M148.84,6.7V20.38a.34.34,0,0,0,0,.1.92.92,0,0,0,.26.57,1,1,0,0,0,.73.33h1a1,1,0,0,0,1-1V6.7a1,1,0,0,0-.78-1h0l-.2,0h-1a1,1,0,0,0-.71.31.94.94,0,0,0-.28.59A.34.34,0,0,0,148.84,6.7Z"/><path class="cls-20" d="M148.84,180.24v11.29h3V180.24a1,1,0,0,0-.78-1h0l-.2,0h-1a1,1,0,0,0-.71.31.94.94,0,0,0-.28.59A.34.34,0,0,0,148.84,180.24Z"/><path class="cls-9" d="M148.84,191.53v2.39a.34.34,0,0,0,0,.1.92.92,0,0,0,.26.57,1,1,0,0,0,.73.33h1a1,1,0,0,0,1-1v-2.39Z"/><path class="cls-21" d="M212.9,96.77v6.11a2.3,2.3,0,0,0,.84,1.77V99.87a1.43,1.43,0,0,1,2.86,0v4.78l.18-.16a2.27,2.27,0,0,0,.66-1.61V96.77a2.26,2.26,0,0,0-3.87-1.6A2.21,2.21,0,0,0,212.9,96.77Z"/><path class="cls-22" d="M213.74,99.87V112.7a1.43,1.43,0,0,0,2.86,0V99.87a1.43,1.43,0,0,0-2.86,0Z"/><path class="cls-23" d="M1.87,4.11V195.93H71.05V4.11ZM13.58,15.75H59.44V184.21H13.58Zm-8.15,81A2.28,2.28,0,0,1,7.7,94.45a2.23,2.23,0,0,1,1.61.67A2.27,2.27,0,0,1,10,96.73v6.11a2.26,2.26,0,0,1-.84,1.76v8.06a1.43,1.43,0,0,1-2.85,0v-8l-.18-.17a2.27,2.27,0,0,1-.67-1.6Z"/><rect class="cls-6" x="14.31" y="16.54" width="44.27" height="166.98"/><polygon class="cls-13" points="13.57 184.21 59.44 184.21 58.58 183.51 14.3 183.51 13.57 184.21"/><polygon class="cls-4" points="58.58 16.54 58.58 183.51 59.44 184.21 59.44 15.74 58.58 16.54"/></g></g></svg>