<svg xmlns="http://www.w3.org/2000/svg" xmlns:xlink="http://www.w3.org/1999/xlink" viewBox="0 0 222.86 200.55"><defs><style>.cls-1{fill:url(#Безымянный_градиент_118);}.cls-2{fill:#cecece;}.cls-3{fill:#b2b2b2;}.cls-4{fill:none;}.cls-5{fill:url(#Безымянный_градиент_143);}.cls-6{fill:url(#Безымянный_градиент_143-2);}.cls-7{fill:#b5b5b5;}.cls-8{fill:url(#Безымянный_градиент_71);}.cls-9{fill:url(#Безымянный_градиент_7);}.cls-10{fill:url(#Безымянный_градиент_7-2);}.cls-11{fill:#494949;}.cls-12{fill:url(#Безымянный_градиент_103);}.cls-13{fill:url(#Безымянный_градиент_90);}.cls-14{fill:url(#Безымянный_градиент_143-3);}.cls-15{fill:url(#Безымянный_градиент_143-4);}</style><linearGradient id="Безымянный_градиент_118" x1="37.19" y1="223.73" x2="179.74" y2="-23.18" gradientTransform="matrix(-1, 0, 0, 1, 219.9, 0)" gradientUnits="userSpaceOnUse"><stop offset="0" stop-color="#c69c6d"/><stop offset="0.74" stop-color="#c69c6d"/><stop offset="0.86" stop-color="#c49a6b"/><stop offset="0.91" stop-color="#bd9365"/><stop offset="0.95" stop-color="#b08659"/><stop offset="0.98" stop-color="#9e7449"/><stop offset="1" stop-color="#8c6239"/></linearGradient><linearGradient id="Безымянный_градиент_143" x1="26.32" y1="147.99" x2="122.24" y2="52.07" gradientTransform="matrix(-1, 0, 0, 1, 219.9, 0)" gradientUnits="userSpaceOnUse"><stop offset="0" stop-color="#a67c52"/><stop offset="0.48" stop-color="#754c24"/><stop offset="0.98" stop-color="#a47a50"/><stop offset="1" stop-color="#a67c52"/></linearGradient><linearGradient id="Безымянный_градиент_143-2" x1="43.62" y1="165.28" x2="174.12" y2="34.78" xlink:href="#Безымянный_градиент_143"/><linearGradient id="Безымянный_градиент_71" x1="116.42" y1="165.33" x2="246.92" y2="34.83" gradientTransform="matrix(-1, 0, 0, 1, 219.9, 0)" gradientUnits="userSpaceOnUse"><stop offset="0" stop-color="#a67c52"/><stop offset="0.55" stop-color="#754c24"/><stop offset="0.82" stop-color="#a47a4e"/><stop offset="1" stop-color="#c69c6d"/></linearGradient><linearGradient id="Безымянный_градиент_7" x1="216.25" y1="13.57" x2="219.23" y2="13.57" gradientTransform="matrix(-1, 0, 0, 1, 219.9, 0)" gradientUnits="userSpaceOnUse"><stop offset="0" stop-color="#4d4d4d"/><stop offset="1" stop-color="#736357"/></linearGradient><linearGradient id="Безымянный_градиент_7-2" x1="216.25" y1="185.41" x2="219.23" y2="185.41" xlink:href="#Безымянный_градиент_7"/><linearGradient id="Безымянный_градиент_103" x1="150.64" y1="99.59" x2="155.18" y2="99.59" gradientTransform="matrix(-1, 0, 0, 1, 219.9, 0)" gradientUnits="userSpaceOnUse"><stop offset="0" stop-color="#4d4d4d"/><stop offset="1" stop-color="#333"/></linearGradient><linearGradient id="Безымянный_градиент_90" x1="151.48" y1="106.3" x2="154.34" y2="106.3" gradientTransform="matrix(-1, 0, 0, 1, 219.9, 0)" gradientUnits="userSpaceOnUse"><stop offset="0" stop-color="#4d4d4d"/><stop offset="1" stop-color="#1a1a1a"/></linearGradient><linearGradient id="Безымянный_градиент_143-3" x1="-47.09" y1="147.99" x2="48.83" y2="52.07" xlink:href="#Безымянный_градиент_143"/><linearGradient id="Безымянный_градиент_143-4" x1="-29.79" y1="165.28" x2="100.71" y2="34.78" xlink:href="#Безымянный_градиент_143"/></defs><g id="Слой_2" data-name="Слой 2"><g id="Слой_2-2" data-name="Слой 2"><path class="cls-1" d="M0,0V200.55H222.86V0ZM149.84,4.12H219V195.94H149.84Zm-73.4,0h69.17V195.94H76.44Zm-72.8,0H72.81V196H3.64Z"/></g><g id="Слой_3" data-name="Слой 3"><polygon class="cls-2" points="161.56 15.77 161.56 184.23 162.29 183.54 162.29 16.55 161.56 15.77"/><polygon class="cls-3" points="161.56 15.77 162.29 16.55 206.56 16.55 207.42 15.77 161.56 15.77"/><rect class="cls-4" x="162.29" y="16.56" width="44.27" height="166.98"/><rect class="cls-4" x="162.29" y="16.56" width="44.27" height="166.98"/><path class="cls-5" d="M145.61,4.12V195.94h0V4.12Z"/><path class="cls-6" d="M76.44,4.12V195.94h69.17V4.12ZM88,15.77h45.87V184.23H88Z"/><rect class="cls-4" x="88.91" y="16.56" width="44.26" height="166.98"/><polygon class="cls-7" points="88.04 184.22 133.91 184.22 133.17 183.53 88.91 183.53 88.04 184.22"/><polygon class="cls-2" points="88.04 15.77 88.04 184.23 88.91 183.54 88.91 16.55 88.04 15.77"/><polygon class="cls-2" points="133.17 16.55 133.17 183.54 133.91 184.23 133.91 15.77 133.17 16.55"/><polygon class="cls-3" points="88.04 15.77 88.91 16.55 133.17 16.55 133.91 15.77 88.04 15.77"/><rect class="cls-4" x="88.91" y="16.56" width="44.26" height="166.98"/><rect class="cls-4" x="88.91" y="16.56" width="44.26" height="166.98"/><path class="cls-8" d="M3.65,4.17V196H72.82V4.17ZM64.72,96.79a2.21,2.21,0,0,1,.67-1.6,2.26,2.26,0,0,1,3.87,1.6v6.11a2.27,2.27,0,0,1-.66,1.61l-.18.16v8a1.43,1.43,0,0,1-2.86,0v-8a2.3,2.3,0,0,1-.84-1.77Zm-49.47-81H61.12V184.28H15.25Z"/><rect class="cls-4" x="16.12" y="16.6" width="44.26" height="166.99"/><polygon class="cls-7" points="15.25 184.28 61.12 184.28 60.38 183.59 16.12 183.59 15.25 184.28"/><polygon class="cls-2" points="60.38 16.59 60.38 183.59 61.12 184.28 61.12 15.8 60.38 16.59"/><polygon class="cls-2" points="15.25 15.8 15.25 184.28 16.12 183.59 16.12 16.59 15.25 15.8"/><polygon class="cls-3" points="15.25 15.8 16.12 16.59 60.38 16.59 61.12 15.8 15.25 15.8"/><rect class="cls-4" x="16.12" y="16.6" width="44.26" height="166.99"/><rect class="cls-4" x="16.12" y="16.6" width="44.26" height="166.99"/><rect class="cls-9" x="0.67" y="5.73" width="2.98" height="15.68" rx="1"/><path class="cls-10" d="M.67,180.27v11.29h3V180.27a1,1,0,0,0-1-1h-1A1,1,0,0,0,.67,180.27Z"/><path class="cls-11" d="M.67,191.56V194a1,1,0,0,0,1,1h1a1,1,0,0,0,1-1v-2.39Z"/><path class="cls-12" d="M64.72,96.79v6.11a2.3,2.3,0,0,0,.84,1.77V99.89a1.43,1.43,0,0,1,2.86,0v4.78l.18-.16a2.27,2.27,0,0,0,.66-1.61V96.79a2.26,2.26,0,0,0-3.87-1.6A2.21,2.21,0,0,0,64.72,96.79Z"/><path class="cls-13" d="M65.56,99.89v12.83a1.43,1.43,0,0,0,2.86,0V99.89a1.43,1.43,0,0,0-2.86,0Z"/><path class="cls-14" d="M219,4.12V195.94h0V4.12Z"/><path class="cls-15" d="M149.85,4.12V195.94H219V4.12Zm11.71,11.65h45.86V184.23H161.56Z"/><rect class="cls-4" x="162.29" y="16.56" width="44.27" height="166.98"/><polygon class="cls-7" points="161.56 184.22 207.42 184.22 206.56 183.53 162.29 183.53 161.56 184.22"/><polygon class="cls-2" points="206.56 16.55 206.56 183.54 207.42 184.23 207.42 15.77 206.56 16.55"/></g></g></svg>