<svg xmlns="http://www.w3.org/2000/svg" xmlns:xlink="http://www.w3.org/1999/xlink" viewBox="0 0 222.86 200.55"><defs><style>.cls-1{fill:url(#Безымянный_градиент_118);}.cls-2{fill:url(#Безымянный_градиент_118-2);}.cls-3{fill:url(#Безымянный_градиент_118-3);}.cls-4{fill:url(#Безымянный_градиент_118-4);}.cls-5{fill:url(#Безымянный_градиент_118-5);}.cls-6{fill:#cecece;}.cls-7{fill:#b2b2b2;}.cls-8{fill:none;}.cls-9{fill:url(#Безымянный_градиент_143);}.cls-10{fill:#b5b5b5;}.cls-11{fill:url(#Безымянный_градиент_7);}.cls-12{fill:url(#Безымянный_градиент_7-2);}.cls-13{fill:#494949;}.cls-14{fill:url(#Безымянный_градиент_103);}.cls-15{fill:url(#Безымянный_градиент_90);}.cls-16{fill:url(#Безымянный_градиент_71);}.cls-17{fill:url(#Безымянный_градиент_7-3);}.cls-18{fill:url(#Безымянный_градиент_7-4);}.cls-19{fill:url(#Безымянный_градиент_103-2);}.cls-20{fill:url(#Безымянный_градиент_90-2);}.cls-21{fill:url(#Безымянный_градиент_143-2);}.cls-22{fill:url(#Безымянный_градиент_143-3);}</style><linearGradient id="Безымянный_градиент_118" x1="-645.87" y1="171.68" x2="-563.65" y2="29.27" gradientTransform="matrix(-1, 0, 0, 1, -458.9, 0)" gradientUnits="userSpaceOnUse"><stop offset="0" stop-color="#c69c6d"/><stop offset="0.74" stop-color="#c69c6d"/><stop offset="0.86" stop-color="#c49a6b"/><stop offset="0.91" stop-color="#bd9365"/><stop offset="0.95" stop-color="#b08659"/><stop offset="0.98" stop-color="#9e7449"/><stop offset="1" stop-color="#8c6239"/></linearGradient><linearGradient id="Безымянный_градиент_118-2" x1="-591.9" y1="202.91" x2="-473.12" y2="-2.81" xlink:href="#Безымянный_градиент_118"/><linearGradient id="Безымянный_градиент_118-3" x1="-664.58" y1="204.13" x2="-544.4" y2="-4.03" xlink:href="#Безымянный_градиент_118"/><linearGradient id="Безымянный_градиент_118-4" x1="-622.15" y1="187.4" x2="-520.89" y2="12.01" xlink:href="#Безымянный_градиент_118"/><linearGradient id="Безымянный_градиент_118-5" x1="182.71" y1="223.73" x2="40.15" y2="-23.18" gradientTransform="matrix(1, 0, 0, 1, 0, 0)" xlink:href="#Безымянный_градиент_118"/><linearGradient id="Безымянный_градиент_143" x1="129.71" y1="165.32" x2="260.21" y2="34.82" gradientTransform="matrix(-1, 0, 0, 1, 308.76, 0)" gradientUnits="userSpaceOnUse"><stop offset="0" stop-color="#a67c52"/><stop offset="0.48" stop-color="#754c24"/><stop offset="0.98" stop-color="#a47a50"/><stop offset="1" stop-color="#a67c52"/></linearGradient><linearGradient id="Безымянный_градиент_7" x1="76.24" y1="13.55" x2="79.21" y2="13.55" gradientUnits="userSpaceOnUse"><stop offset="0" stop-color="#4d4d4d"/><stop offset="1" stop-color="#736357"/></linearGradient><linearGradient id="Безымянный_градиент_7-2" x1="76.24" y1="185.4" x2="79.21" y2="185.4" xlink:href="#Безымянный_градиент_7"/><linearGradient id="Безымянный_градиент_103" x1="163.93" y1="99.58" x2="168.48" y2="99.58" gradientTransform="matrix(-1, 0, 0, 1, 308.76, 0)" gradientUnits="userSpaceOnUse"><stop offset="0" stop-color="#4d4d4d"/><stop offset="1" stop-color="#333"/></linearGradient><linearGradient id="Безымянный_градиент_90" x1="164.78" y1="106.29" x2="167.63" y2="106.29" gradientTransform="matrix(-1, 0, 0, 1, 308.76, 0)" gradientUnits="userSpaceOnUse"><stop offset="0" stop-color="#4d4d4d"/><stop offset="1" stop-color="#1a1a1a"/></linearGradient><linearGradient id="Безымянный_градиент_71" x1="727.18" y1="165.32" x2="857.68" y2="34.82" gradientTransform="translate(-754.87)" gradientUnits="userSpaceOnUse"><stop offset="0" stop-color="#a67c52"/><stop offset="0.55" stop-color="#754c24"/><stop offset="0.82" stop-color="#a47a4e"/><stop offset="1" stop-color="#c69c6d"/></linearGradient><linearGradient id="Безымянный_градиент_7-3" x1="72.15" y1="13.56" x2="75.13" y2="13.56" xlink:href="#Безымянный_градиент_7"/><linearGradient id="Безымянный_градиент_7-4" x1="72.15" y1="185.4" x2="75.13" y2="185.4" xlink:href="#Безымянный_градиент_7"/><linearGradient id="Безымянный_градиент_103-2" x1="761.42" y1="99.58" x2="765.96" y2="99.58" gradientTransform="translate(-754.87)" xlink:href="#Безымянный_градиент_103"/><linearGradient id="Безымянный_градиент_90-2" x1="762.26" y1="106.29" x2="765.11" y2="106.29" gradientTransform="translate(-754.87)" xlink:href="#Безымянный_градиент_90"/><linearGradient id="Безымянный_градиент_143-2" x1="-726.72" y1="147.99" x2="-630.8" y2="52.07" gradientTransform="matrix(-1, 0, 0, 1, -458.9, 0)" xlink:href="#Безымянный_градиент_143"/><linearGradient id="Безымянный_градиент_143-3" x1="-709.42" y1="165.28" x2="-578.92" y2="34.78" gradientTransform="matrix(-1, 0, 0, 1, -458.9, 0)" xlink:href="#Безымянный_градиент_143"/></defs><g id="Слой_2" data-name="Слой 2"><g id="Слой_2-2" data-name="Слой 2"><path class="cls-1" d="M145.61,179.22v15.67h.89l.2,0h0a1,1,0,0,0,.79-1V180.22a1,1,0,0,0-.79-1h0l-.2,0Zm0-173.54V21.35h.3V5.68Z"/><path class="cls-2" d="M2.15,4.16V196H3.64V4.16ZM73.3,179.26h-.49v15.68h.49a1,1,0,0,0,1-1V180.26A1,1,0,0,0,73.3,179.26Zm71.23,14.63v2.05h.55v-1.16A1,1,0,0,1,144.53,193.89Zm0-173.54V104h0v76.21a1,1,0,0,1,.55-.89V21.24A1,1,0,0,1,144.53,20.35Zm0-16.23V6.68a1,1,0,0,1,.55-.89V4.12Z"/><path class="cls-3" d="M219,4.12V195.94h.85V4.12ZM148.39,179.36a1,1,0,0,0-.51-.14h-1l-.2,0a1,1,0,0,1,.79,1v13.67a1,1,0,0,1-.79,1l.2,0h1a1,1,0,0,0,.51-.14,1,1,0,0,0,.49-.86V180.22A1,1,0,0,0,148.39,179.36Zm0-173.54a1,1,0,0,0-.51-.14h-1l-.2,0a1,1,0,0,1,.79,1V20.35a1,1,0,0,1-.79,1l.2,0h1a1,1,0,0,0,.51-.14,1,1,0,0,0,.49-.86V6.68A1,1,0,0,0,148.39,5.82Zm-3.31-1.7V5.79a1,1,0,0,1,.45-.11h.38V4.12Zm.45,17.23a1,1,0,0,1-.45-.11V179.33a1,1,0,0,1,.45-.11h.38V21.35Zm0,173.54a1,1,0,0,1-.45-.11v1.16h.83v-1.05Zm-71.4-15.63H73.3a1,1,0,0,1,1,1v13.68a1,1,0,0,1-1,1h.83a1,1,0,0,0,1-1V180.26A1,1,0,0,0,74.13,179.26Zm0-173.54H73.3a1,1,0,0,1,1,1V20.4a1,1,0,0,1-1,1h.83a1,1,0,0,0,1-1V6.72A1,1,0,0,0,74.13,5.72ZM71.32,4.16V6.72a1,1,0,0,1,.83-1V4.16Zm0,16.24V180.26a1,1,0,0,1,.83-1V21.38A1,1,0,0,1,71.32,20.4Zm0,173.54V196h.83v-1.07A1,1,0,0,1,71.32,193.94Z"/><path class="cls-4" d="M73.3,5.72h-.15a1,1,0,0,0-.34.06,1,1,0,0,0-.66.94V20.4a1,1,0,0,0,.66.94,1,1,0,0,0,.34.06h.15a1,1,0,0,0,1-1V6.72A1,1,0,0,0,73.3,5.72Zm2.94,1V20.39a1,1,0,0,0,.49.86V5.86A1,1,0,0,0,76.24,6.72Zm0,173.54v13.67a1,1,0,0,0,.49.86V179.4A1,1,0,0,0,76.24,180.26ZM147.88,5.68a1,1,0,0,1,.51.14V4.16h-2.48V179.22h.59l.2,0h0l.2,0h1a1,1,0,0,1,.51.14V21.21a1,1,0,0,1-.51.14h-1l-.2,0a1,1,0,0,0,.79-1V6.68a1,1,0,0,0-.79-1l.2,0Zm0,189.21h-1l-.2,0h0l-.2,0h-.59v1.05H79.21v0h69.18v-1.23A1,1,0,0,1,147.88,194.89Z"/><path class="cls-5" d="M0,0V200.55H222.86V0ZM75.13,20.4a1,1,0,0,1-1,1h-1a1,1,0,0,1-.34-.06,1,1,0,0,1-.66-.94V180.26a1,1,0,0,1,.66-.94v-.06h1.32a1,1,0,0,1,1,1v13.68a1,1,0,0,1-1,1H72.81v-.06a1,1,0,0,1-.66-.94V196h-70V4.16h70V6.72a1,1,0,0,1,.66-.94,1,1,0,0,1,.34-.06h1a1,1,0,0,1,1,1Zm73.75,0a1,1,0,0,1-.49.86V179.36a1,1,0,0,1,.49.86v13.67a1,1,0,0,1-.49.86V196H79.21v-2a1,1,0,0,1-.79,1h0l-.2,0h-1a1,1,0,0,1-.51-.14,1,1,0,0,1-.49-.86V180.26a1,1,0,0,1,.49-.86,1,1,0,0,1,.51-.14h1l.2,0h0a1,1,0,0,1,.79,1V20.39a1,1,0,0,1-.79,1h0l-.2,0h-1a1,1,0,0,1-.51-.14,1,1,0,0,1-.49-.86V6.72a1,1,0,0,1,.49-.86,1,1,0,0,1,.51-.14h1l.2,0h0a1,1,0,0,1,.79,1V4.16h65.32v0h1.38v0h2.48V5.82a1,1,0,0,1,.49.86Zm71,175.59H150.69V4.12h69.18Z"/></g><g id="Слой_3" data-name="Слой 3"><polygon class="cls-6" points="162.4 15.76 162.4 184.22 163.13 183.53 163.13 16.55 162.4 15.76"/><polygon class="cls-7" points="162.39 15.76 163.12 16.55 207.39 16.55 208.25 15.76 162.39 15.76"/><rect class="cls-8" x="163.12" y="16.55" width="44.27" height="166.98"/><rect class="cls-8" x="163.12" y="16.55" width="44.27" height="166.98"/><path class="cls-9" d="M79.21,4.16V196h69.18V4.16Zm61.07,92.62a2.25,2.25,0,0,1,.18-.89,2.82,2.82,0,0,1,.21-.38,1.84,1.84,0,0,1,.17-.22,1.72,1.72,0,0,1,.27-.27,3.27,3.27,0,0,1,.36-.25,2.27,2.27,0,0,1,.39-.16h0a2.7,2.7,0,0,1,.39-.08l.28,0h0a2.21,2.21,0,0,1,1.59.67.54.54,0,0,1,.15.15,1.85,1.85,0,0,1,.23.34,1.59,1.59,0,0,1,.18.4.79.79,0,0,1,.06.22,1.43,1.43,0,0,1,0,.22,2.46,2.46,0,0,1,0,.28v6.11a2.11,2.11,0,0,1,0,.26,1.65,1.65,0,0,1-.06.32,2.41,2.41,0,0,1-.08.25,1.47,1.47,0,0,1-.14.28h0a1,1,0,0,1-.11.17,1.88,1.88,0,0,1-.43.46v8.06a1,1,0,0,1,0,.3.9.9,0,0,1-.06.22,1.5,1.5,0,0,1-.09.18.57.57,0,0,1-.08.13h0a.7.7,0,0,1-.14.16,1.29,1.29,0,0,1-.17.15l-.08,0a.53.53,0,0,1-.15.08L143,114a1.19,1.19,0,0,1-.47.09h0a1.43,1.43,0,0,1-1.42-1.42v-8a2.23,2.23,0,0,1-.27-.26,1.64,1.64,0,0,1-.19-.25,1.48,1.48,0,0,1-.16-.27,1.34,1.34,0,0,1-.12-.3l0-.1a1.91,1.91,0,0,1-.06-.33,2.11,2.11,0,0,1,0-.26Zm-49.47-81h45.87V184.26H90.81Z"/><rect class="cls-8" x="91.68" y="16.59" width="44.26" height="166.98"/><polygon class="cls-10" points="90.81 184.26 136.68 184.26 135.94 183.57 91.68 183.57 90.81 184.26"/><polygon class="cls-6" points="90.81 15.8 90.81 184.26 91.68 183.57 91.68 16.59 90.81 15.8"/><polygon class="cls-6" points="135.94 16.59 135.94 183.57 136.68 184.26 136.68 15.8 135.94 16.59"/><polygon class="cls-7" points="90.81 15.8 91.68 16.59 135.94 16.59 136.68 15.8 90.81 15.8"/><rect class="cls-8" x="91.68" y="16.59" width="44.26" height="166.98"/><rect class="cls-8" x="91.68" y="16.59" width="44.26" height="166.98"/><path class="cls-11" d="M79.21,6.72V20.39a1,1,0,0,1-.79,1h0l-.2,0h-1a1,1,0,0,1-.51-.14,1,1,0,0,1-.49-.86V6.72a1,1,0,0,1,.49-.86,1,1,0,0,1,.51-.14h1l.2,0h0A1,1,0,0,1,79.21,6.72Z"/><path class="cls-12" d="M79.21,180.26v11.28h-3V180.26a1,1,0,0,1,.49-.86,1,1,0,0,1,.51-.14h1l.2,0h0A1,1,0,0,1,79.21,180.26Z"/><path class="cls-13" d="M79.21,191.54v2.39a1,1,0,0,1-.79,1h0l-.2,0h-1a1,1,0,0,1-.51-.14,1,1,0,0,1-.49-.86v-2.39Z"/><path class="cls-14" d="M140.28,96.78v6.11a2.27,2.27,0,0,0,.85,1.77V99.88a1.43,1.43,0,0,1,1.42-1.43h0A1.43,1.43,0,0,1,144,99.88v4.77a2.24,2.24,0,0,0,.85-1.76V96.78a2.28,2.28,0,0,0-2.27-2.28h0A2.28,2.28,0,0,0,140.28,96.78Z"/><path class="cls-15" d="M141.13,99.88v12.83a1.43,1.43,0,0,0,1.42,1.42h0a1.43,1.43,0,0,0,1.42-1.42V99.88a1.43,1.43,0,0,0-1.42-1.43h0A1.43,1.43,0,0,0,141.13,99.88Z"/><path class="cls-16" d="M3,4.16V196H72.15V4.16Zm8.09,99a2.71,2.71,0,0,1-.09.41s0,.11-.05.16a1.15,1.15,0,0,1-.12.25l-.11.18a3.17,3.17,0,0,1-.28.34,1.29,1.29,0,0,1-.17.16h0v8a1.43,1.43,0,0,1-.42,1,1.41,1.41,0,0,1-1,.42,1.15,1.15,0,0,1-.26,0A.77.77,0,0,1,8.3,114L8.19,114l-.2-.12a.65.65,0,0,1-.18-.15,2,2,0,0,1-.18-.21.92.92,0,0,1-.13-.24.77.77,0,0,1-.08-.27.92.92,0,0,1,0-.29v-8l-.17-.16h0a2.27,2.27,0,0,1-.66-1.61V96.78a.37.37,0,0,1,0-.11s0-.08,0-.12a1.64,1.64,0,0,1,.09-.44.9.9,0,0,1,.08-.21,2.1,2.1,0,0,1,.15-.3,2.18,2.18,0,0,1,.33-.42,1.81,1.81,0,0,1,.34-.28,2.82,2.82,0,0,1,.38-.21l.21-.08a3.58,3.58,0,0,1,.45-.09h.23a2.25,2.25,0,0,1,1.59.67,2.21,2.21,0,0,1,.67,1.6v6.11a1.77,1.77,0,0,1,0,.23A0,0,0,0,1,11.07,103.15Zm3.61,81.12V15.8H60.55V184.27Z"/><rect class="cls-8" x="15.43" y="16.59" width="44.26" height="166.99"/><polygon class="cls-10" points="60.56 184.27 14.69 184.27 15.43 183.58 59.69 183.58 60.56 184.27"/><polygon class="cls-6" points="15.43 16.59 15.43 183.58 14.69 184.27 14.69 15.8 15.43 16.59"/><polygon class="cls-6" points="60.56 15.8 60.56 184.27 59.69 183.58 59.69 16.59 60.56 15.8"/><polygon class="cls-7" points="60.56 15.8 59.69 16.59 15.43 16.59 14.69 15.8 60.56 15.8"/><rect class="cls-8" x="15.43" y="16.59" width="44.26" height="166.99"/><rect class="cls-8" x="15.43" y="16.59" width="44.26" height="166.99"/><path class="cls-17" d="M75.13,6.72V20.4a1,1,0,0,1-1,1h-1a1,1,0,0,1-.34-.06,1,1,0,0,1-.66-.94V6.72a1,1,0,0,1,.66-.94,1,1,0,0,1,.34-.06h1A1,1,0,0,1,75.13,6.72Z"/><path class="cls-18" d="M75.13,180.26v11.29h-3V180.26a1,1,0,0,1,.66-.94,1,1,0,0,1,.34-.06h1A1,1,0,0,1,75.13,180.26Z"/><path class="cls-13" d="M75.13,191.55v2.39a1,1,0,0,1-1,1h-1a1,1,0,0,1-.34-.06,1,1,0,0,1-.66-.94v-2.39Z"/><path class="cls-19" d="M11.09,96.78v6.11a2.3,2.3,0,0,1-.84,1.77V99.88a1.43,1.43,0,0,0-2.86,0v4.78l-.18-.16a2.27,2.27,0,0,1-.66-1.61V96.78a2.26,2.26,0,0,1,3.87-1.6A2.21,2.21,0,0,1,11.09,96.78Z"/><path class="cls-20" d="M10.25,99.88v12.83a1.43,1.43,0,1,1-2.86,0V99.88a1.43,1.43,0,0,1,2.86,0Z"/><path class="cls-21" d="M219.86,4.12V195.94h0V4.12Z"/><path class="cls-22" d="M150.69,4.12V195.94h69.17V4.12ZM162.4,15.76h45.86V184.22H162.4Z"/><rect class="cls-8" x="163.12" y="16.55" width="44.27" height="166.98"/><polygon class="cls-10" points="162.39 184.22 208.25 184.22 207.39 183.53 163.12 183.53 162.39 184.22"/><polygon class="cls-6" points="207.4 16.55 207.4 183.53 208.26 184.22 208.26 15.76 207.4 16.55"/></g></g></svg>