<svg xmlns="http://www.w3.org/2000/svg" xmlns:xlink="http://www.w3.org/1999/xlink" viewBox="0 0 222.86 200.55"><defs><style>.cls-1{fill:url(#Безымянный_градиент_118);}.cls-2{fill:url(#Безымянный_градиент_118-2);}.cls-3{fill:url(#Безымянный_градиент_118-3);}.cls-4{fill:#cecece;}.cls-5{fill:#b2b2b2;}.cls-6{fill:none;}.cls-7{fill:url(#Безымянный_градиент_7);}.cls-8{fill:url(#Безымянный_градиент_7-2);}.cls-9{fill:#494949;}.cls-10{fill:url(#Безымянный_градиент_103);}.cls-11{fill:url(#Безымянный_градиент_90);}.cls-12{fill:url(#Безымянный_градиент_143);}.cls-13{fill:#b5b5b5;}.cls-14{fill:url(#Безымянный_градиент_7-3);}.cls-15{fill:url(#Безымянный_градиент_7-4);}.cls-16{fill:url(#Безымянный_градиент_103-2);}.cls-17{fill:url(#Безымянный_градиент_90-2);}.cls-18{fill:url(#Безымянный_градиент_71);}.cls-19{fill:url(#Безымянный_градиент_7-5);}.cls-20{fill:url(#Безымянный_градиент_7-6);}.cls-21{fill:url(#Безымянный_градиент_103-3);}.cls-22{fill:url(#Безымянный_градиент_90-3);}.cls-23{fill:url(#Безымянный_градиент_143-2);}</style><linearGradient id="Безымянный_градиент_118" x1="-500.65" y1="203.09" x2="-381.67" y2="-2.99" gradientTransform="matrix(-1, 0, 0, 1, -367.41, 0)" gradientUnits="userSpaceOnUse"><stop offset="0" stop-color="#c69c6d"/><stop offset="0.74" stop-color="#c69c6d"/><stop offset="0.86" stop-color="#c49a6b"/><stop offset="0.91" stop-color="#bd9365"/><stop offset="0.95" stop-color="#b08659"/><stop offset="0.98" stop-color="#9e7449"/><stop offset="1" stop-color="#8c6239"/></linearGradient><linearGradient id="Безымянный_градиент_118-2" x1="-573.24" y1="204.68" x2="-435.42" y2="-34.04" xlink:href="#Безымянный_градиент_118"/><linearGradient id="Безымянный_градиент_118-3" x1="182.71" y1="223.73" x2="40.15" y2="-23.18" gradientTransform="matrix(1, 0, 0, 1, 0, 0)" xlink:href="#Безымянный_градиент_118"/><linearGradient id="Безымянный_градиент_7" x1="148.84" y1="13.51" x2="151.81" y2="13.51" gradientUnits="userSpaceOnUse"><stop offset="0" stop-color="#4d4d4d"/><stop offset="1" stop-color="#736357"/></linearGradient><linearGradient id="Безымянный_градиент_7-2" x1="148.84" y1="185.35" x2="151.81" y2="185.35" xlink:href="#Безымянный_градиент_7"/><linearGradient id="Безымянный_градиент_103" x1="63.91" y1="99.53" x2="68.45" y2="99.53" gradientTransform="translate(148.98)" gradientUnits="userSpaceOnUse"><stop offset="0" stop-color="#4d4d4d"/><stop offset="1" stop-color="#333"/></linearGradient><linearGradient id="Безымянный_градиент_90" x1="64.75" y1="106.24" x2="67.6" y2="106.24" gradientTransform="translate(148.98)" gradientUnits="userSpaceOnUse"><stop offset="0" stop-color="#4d4d4d"/><stop offset="1" stop-color="#1a1a1a"/></linearGradient><linearGradient id="Безымянный_градиент_143" x1="-544.89" y1="165.26" x2="-414.39" y2="34.76" gradientTransform="matrix(-1, 0, 0, 1, -367.41, 0)" gradientUnits="userSpaceOnUse"><stop offset="0" stop-color="#a67c52"/><stop offset="0.48" stop-color="#754c24"/><stop offset="0.98" stop-color="#a47a50"/><stop offset="1" stop-color="#a67c52"/></linearGradient><linearGradient id="Безымянный_градиент_7-3" x1="74.67" y1="13.5" x2="77.64" y2="13.5" xlink:href="#Безымянный_градиент_7"/><linearGradient id="Безымянный_градиент_7-4" x1="74.67" y1="185.34" x2="77.64" y2="185.34" xlink:href="#Безымянный_градиент_7"/><linearGradient id="Безымянный_градиент_103-2" x1="-510.66" y1="99.53" x2="-506.11" y2="99.53" gradientTransform="matrix(-1, 0, 0, 1, -367.41, 0)" xlink:href="#Безымянный_градиент_103"/><linearGradient id="Безымянный_градиент_90-2" x1="-509.81" y1="106.24" x2="-506.96" y2="106.24" gradientTransform="matrix(-1, 0, 0, 1, -367.41, 0)" xlink:href="#Безымянный_градиент_90"/><linearGradient id="Безымянный_градиент_71" x1="121.91" y1="165.31" x2="252.41" y2="34.81" gradientTransform="translate(-150.71)" gradientUnits="userSpaceOnUse"><stop offset="0" stop-color="#a67c52"/><stop offset="0.55" stop-color="#754c24"/><stop offset="0.82" stop-color="#a47a4e"/><stop offset="1" stop-color="#c69c6d"/></linearGradient><linearGradient id="Безымянный_градиент_7-5" x1="71.04" y1="13.54" x2="74.02" y2="13.54" xlink:href="#Безымянный_градиент_7"/><linearGradient id="Безымянный_градиент_7-6" x1="71.04" y1="185.39" x2="74.02" y2="185.39" xlink:href="#Безымянный_градиент_7"/><linearGradient id="Безымянный_градиент_103-3" x1="156.13" y1="99.57" x2="160.67" y2="99.57" gradientTransform="translate(-150.71)" xlink:href="#Безымянный_градиент_103"/><linearGradient id="Безымянный_градиент_90-3" x1="156.97" y1="106.28" x2="159.83" y2="106.28" gradientTransform="translate(-150.71)" xlink:href="#Безымянный_градиент_90"/><linearGradient id="Безымянный_градиент_143-2" x1="-27.83" y1="165.27" x2="102.67" y2="34.77" gradientTransform="translate(148.98)" xlink:href="#Безымянный_градиент_143"/></defs><g id="Слой_2" data-name="Слой 2"><g id="Слой_2-2" data-name="Слой 2"><path class="cls-1" d="M1.87,4.16V196H3.64V4.16Zm70.94,176V194a.34.34,0,0,0,0-.1V180.26A.34.34,0,0,0,72.81,180.16Zm0-173.54V20.5a.34.34,0,0,0,0-.1V6.72A.34.34,0,0,0,72.81,6.62Zm2.66,172.6h0a1,1,0,0,0-.77,1v13.67a1,1,0,0,0,1,1h0a1,1,0,0,0,.77-1V180.22A1,1,0,0,0,75.47,179.22Zm-1.46.92a.94.94,0,0,0-.28-.59,1,1,0,0,0-.26.67v13.67a1,1,0,0,0,.28.7A.92.92,0,0,0,74,194a.34.34,0,0,0,0-.1V180.24A.34.34,0,0,0,74,180.14ZM74,6.6A.94.94,0,0,0,73.73,6a1,1,0,0,0-.26.67V20.35a1,1,0,0,0,.28.7.92.92,0,0,0,.26-.57.34.34,0,0,0,0-.1V6.7A.34.34,0,0,0,74,6.6Zm1.46-.92h0a1,1,0,0,0-.77,1V20.33a1,1,0,0,0,1,1h0a1,1,0,0,0,.77-1V6.68A1,1,0,0,0,75.47,5.68Zm70.14-1.56V195.94h0V4.12Z"/><path class="cls-2" d="M1.87,4.14v0h68V6.72a1,1,0,0,1,1-1H71V4.14Zm69,190.8a1,1,0,0,1-1-1v2H71v-1ZM75.67,5.66l-.2,0a1,1,0,0,1,1,1v-1Zm0,173.54-.2,0a1,1,0,0,1,1,1v-1Zm0-157.87h.77v-1A1,1,0,0,1,75.67,21.33Zm-2.2-1V6.68A1,1,0,0,1,73.73,6,1,1,0,0,0,73,5.7H72l-.2,0a1,1,0,0,1,1,.9.34.34,0,0,1,0,.1V20.4a.34.34,0,0,1,0,.1,1,1,0,0,1-.77.88h1a1,1,0,0,0,.73-.33A1,1,0,0,1,73.47,20.35Zm0,173.54V180.22a1,1,0,0,1,.26-.67,1,1,0,0,0-.71-.31H72l-.2,0a1,1,0,0,1,1,.9.34.34,0,0,1,0,.1v13.68a.34.34,0,0,1,0,.1,1,1,0,0,1-.77.88h1a1,1,0,0,0,.73-.33A1,1,0,0,1,73.47,193.89ZM70.84,21.4a1,1,0,0,1-1-1V180.26a1,1,0,0,1,1-1H71V21.4Zm4.83,173.47h.77v-1A1,1,0,0,1,75.67,194.87Zm2-190.77v0h68v191.8h1.2V4.1Zm71.2,2.57V20.34a1,1,0,0,0,1,1V5.67A1,1,0,0,0,148.84,6.67Zm0,173.54v13.67a1,1,0,0,0,1,1V179.21A1,1,0,0,0,148.84,180.21Zm3-176.1H219V195.93h2V4.11ZM75.67,21.33h.77v-1A1,1,0,0,1,75.67,21.33Z"/><path class="cls-3" d="M0,0V200.55H222.86V0ZM74,20.38a.34.34,0,0,1,0,.1.92.92,0,0,1-.26.57,1,1,0,0,1-.73.33H72a1,1,0,0,1-1-1V180.24a1,1,0,0,1,.78-1h0l.2,0h1a1,1,0,0,1,.71.31.94.94,0,0,1,.28.59.34.34,0,0,1,0,.1v13.68a.34.34,0,0,1,0,.1.92.92,0,0,1-.26.57,1,1,0,0,1-.73.33H72a1,1,0,0,1-1-1V196h-1.2v0H3.64v0H1.87V4.14H71V6.7a1,1,0,0,1,.78-1h0l.2,0h1a1,1,0,0,1,.71.31A.94.94,0,0,1,74,6.6a.34.34,0,0,1,0,.1Zm72.8,175.54h-1.2v0h0v0h-68v-2a1,1,0,0,1-1,1h-1a1,1,0,0,1-1-1V180.2a1,1,0,0,1,.77-1h0l.2,0h1a1,1,0,0,1,1,1V20.33a1,1,0,0,1-1,1h-1a1,1,0,0,1-1-1V6.66a1,1,0,0,1,.77-1h0l.2,0h1a1,1,0,0,1,1,1V4.1h69.18Zm74.17,0H151.81v-2.05a1,1,0,0,1-1,1h-1a1,1,0,0,1-1-1V180.21a1,1,0,0,1,1-1h1a1,1,0,0,1,1,1V20.34a1,1,0,0,1-1,1h-1a1,1,0,0,1-1-1V6.67a1,1,0,0,1,1-1h1a1,1,0,0,1,1,1V4.11H221Z"/></g><g id="Слой_3" data-name="Слой 3"><polygon class="cls-4" points="209.28 15.74 209.28 184.21 208.56 183.51 208.56 16.54 209.28 15.74"/><polygon class="cls-5" points="209.28 15.74 208.56 16.54 164.28 16.54 163.43 15.74 209.28 15.74"/><rect class="cls-6" x="164.28" y="16.54" width="44.27" height="166.98"/><rect class="cls-6" x="164.28" y="16.54" width="44.27" height="166.98"/><path class="cls-7" d="M151.81,6.67V20.34a1,1,0,0,1-1,1h-1a1,1,0,0,1-1-1V6.67a1,1,0,0,1,1-1h1A1,1,0,0,1,151.81,6.67Z"/><path class="cls-8" d="M151.81,180.21v11.28h-3V180.21a1,1,0,0,1,1-1h1A1,1,0,0,1,151.81,180.21Z"/><path class="cls-9" d="M151.81,191.49v2.39a1,1,0,0,1-1,1h-1a1,1,0,0,1-1-1v-2.39Z"/><path class="cls-10" d="M217.43,96.73v6.11a2.27,2.27,0,0,1-.67,1.6l-.18.17V99.83a1.43,1.43,0,1,0-2.85,0v4.77a2.26,2.26,0,0,1-.84-1.76V96.73a2.27,2.27,0,0,1,.66-1.61,2.23,2.23,0,0,1,1.61-.67A2.28,2.28,0,0,1,217.43,96.73Z"/><path class="cls-11" d="M216.58,99.83v12.83a1.43,1.43,0,0,1-2.85,0V99.83a1.43,1.43,0,1,1,2.85,0Z"/><path class="cls-12" d="M77.64,4.1V195.92h69.18V4.1Zm57.47,180.1H89.24V15.74h45.87Zm8.15-81.37a1.24,1.24,0,0,1,0,.27,2.34,2.34,0,0,1,0,.26,1.83,1.83,0,0,1-.08.25,1.88,1.88,0,0,1-.22.45,1.33,1.33,0,0,1-.14.19.69.69,0,0,1-.11.13,1.51,1.51,0,0,1-.23.21v8.06a1.31,1.31,0,0,1-.12.56,1.36,1.36,0,0,1-.13.24,2,2,0,0,1-.18.21,1.23,1.23,0,0,1-.44.3,1.46,1.46,0,0,1-.55.11h0a1.43,1.43,0,0,1-1.42-1.42V104.6h0a2.28,2.28,0,0,1-.84-1.76V96.72a2.54,2.54,0,0,1,.1-.68.52.52,0,0,1,.06-.16c0-.06,0-.11.07-.16a2.06,2.06,0,0,1,.54-.7l.26-.2.16-.1a1.11,1.11,0,0,1,.19-.09l.21-.08a.54.54,0,0,1,.21,0,1.84,1.84,0,0,1,.47-.06h0a.82.82,0,0,1,.22,0,.57.57,0,0,1,.22,0l.22,0A2.2,2.2,0,0,1,143,95.63s0,0,0,0l.09.2a.9.9,0,0,1,.08.21,1.71,1.71,0,0,1,.09.45.82.82,0,0,1,0,.22Z"/><rect class="cls-6" x="90.1" y="16.54" width="44.26" height="166.98"/><polygon class="cls-13" points="89.23 184.21 135.1 184.21 134.36 183.51 90.1 183.51 89.23 184.21"/><polygon class="cls-4" points="89.23 15.74 89.23 184.21 90.1 183.51 90.1 16.54 89.23 15.74"/><polygon class="cls-4" points="134.36 16.54 134.36 183.51 135.1 184.21 135.1 15.74 134.36 16.54"/><polygon class="cls-5" points="89.23 15.74 90.1 16.54 134.36 16.54 135.1 15.74 89.23 15.74"/><rect class="cls-6" x="90.1" y="16.54" width="44.26" height="166.98"/><rect class="cls-6" x="90.1" y="16.54" width="44.26" height="166.98"/><path class="cls-14" d="M77.64,6.66V20.33a1,1,0,0,1-1,1h-1a1,1,0,0,1-1-1V6.66a1,1,0,0,1,.77-1h0l.2,0h1A1,1,0,0,1,77.64,6.66Z"/><path class="cls-15" d="M77.64,180.2v11.28h-3V180.2a1,1,0,0,1,.77-1h0l.2,0h1A1,1,0,0,1,77.64,180.2Z"/><path class="cls-9" d="M77.64,191.48v2.39a1,1,0,0,1-1,1h-1a1,1,0,0,1-1-1v-2.39Z"/><path class="cls-16" d="M138.7,96.73v6.11a2.27,2.27,0,0,0,.85,1.77V99.83A1.43,1.43,0,0,1,141,98.4h0a1.43,1.43,0,0,1,1.42,1.43v4.77a2.24,2.24,0,0,0,.85-1.76V96.73A2.28,2.28,0,0,0,141,94.45h0A2.28,2.28,0,0,0,138.7,96.73Z"/><path class="cls-17" d="M139.55,99.83v12.83a1.43,1.43,0,0,0,1.42,1.42h0a1.43,1.43,0,0,0,1.42-1.42V99.83A1.43,1.43,0,0,0,141,98.4h0A1.43,1.43,0,0,0,139.55,99.83Z"/><path class="cls-18" d="M1.87,4.14V196H71V4.14ZM10,102.87a1.24,1.24,0,0,1,0,.27,2.14,2.14,0,0,1-.4,1,1.24,1.24,0,0,1-.18.22,1.67,1.67,0,0,1-.23.23v8a1.39,1.39,0,0,1-.12.57,1.45,1.45,0,0,1-.75.75,1.47,1.47,0,0,1-.56.11,1.43,1.43,0,0,1-1.43-1.43v-8h0l-.17-.15a2.27,2.27,0,0,1-.66-1.61V96.76a2.31,2.31,0,0,1,.05-.46,1.6,1.6,0,0,1,0-.21,2,2,0,0,1,.1-.26,1,1,0,0,1,.12-.23l.14-.21a1.37,1.37,0,0,1,.19-.22A1.68,1.68,0,0,1,6.29,95a2.25,2.25,0,0,1,.51-.31,2.13,2.13,0,0,1,.43-.13.78.78,0,0,1,.22,0H7.7a2.27,2.27,0,0,1,1.6.67,2.21,2.21,0,0,1,.67,1.6Zm49.47,81.38H13.57V15.78H59.44Z"/><rect class="cls-6" x="14.3" y="16.58" width="44.26" height="166.99"/><polygon class="cls-13" points="59.43 184.25 13.56 184.25 14.3 183.56 58.56 183.56 59.43 184.25"/><polygon class="cls-4" points="14.3 16.57 14.3 183.56 13.56 184.25 13.56 15.79 14.3 16.57"/><polygon class="cls-4" points="59.43 15.79 59.43 184.25 58.56 183.56 58.56 16.57 59.43 15.79"/><polygon class="cls-5" points="59.43 15.79 58.56 16.57 14.3 16.57 13.56 15.79 59.43 15.79"/><rect class="cls-6" x="14.3" y="16.58" width="44.26" height="166.99"/><rect class="cls-6" x="14.3" y="16.58" width="44.26" height="166.99"/><path class="cls-19" d="M74,6.7V20.38a.34.34,0,0,1,0,.1.92.92,0,0,1-.26.57,1,1,0,0,1-.73.33H72a1,1,0,0,1-1-1V6.7a1,1,0,0,1,.78-1h0l.2,0h1a1,1,0,0,1,.71.31A.94.94,0,0,1,74,6.6.34.34,0,0,1,74,6.7Z"/><path class="cls-20" d="M74,180.24v11.29H71V180.24a1,1,0,0,1,.78-1h0l.2,0h1a1,1,0,0,1,.71.31.94.94,0,0,1,.28.59A.34.34,0,0,1,74,180.24Z"/><path class="cls-9" d="M74,191.53v2.39a.34.34,0,0,1,0,.1.92.92,0,0,1-.26.57,1,1,0,0,1-.73.33H72a1,1,0,0,1-1-1v-2.39Z"/><path class="cls-21" d="M10,96.77v6.11a2.3,2.3,0,0,1-.84,1.77V99.87a1.43,1.43,0,0,0-2.86,0v4.78l-.18-.16a2.27,2.27,0,0,1-.66-1.61V96.77a2.26,2.26,0,0,1,3.87-1.6A2.21,2.21,0,0,1,10,96.77Z"/><path class="cls-22" d="M9.12,99.87V112.7a1.43,1.43,0,0,1-2.86,0V99.87a1.43,1.43,0,0,1,2.86,0Z"/><path class="cls-23" d="M151.81,4.11V195.93H221V4.11Zm57.47,180.1H163.42V15.75h45.86Zm8.15-81.37a2.27,2.27,0,0,1-.67,1.6l-.18.17v8a1.43,1.43,0,0,1-2.85,0V104.6a2.26,2.26,0,0,1-.84-1.76V96.73a2.27,2.27,0,0,1,.66-1.61,2.23,2.23,0,0,1,1.61-.67,2.28,2.28,0,0,1,2.27,2.28Z"/><rect class="cls-6" x="164.28" y="16.54" width="44.27" height="166.98"/><polygon class="cls-13" points="209.28 184.21 163.43 184.21 164.28 183.51 208.56 183.51 209.28 184.21"/><polygon class="cls-4" points="164.28 16.54 164.28 183.51 163.43 184.21 163.43 15.74 164.28 16.54"/></g></g></svg>