<svg xmlns="http://www.w3.org/2000/svg" xmlns:xlink="http://www.w3.org/1999/xlink" viewBox="0 0 222.86 200.55"><defs><style>.cls-1{fill:url(#Безымянный_градиент_118);}.cls-2{fill:url(#Безымянный_градиент_118-2);}.cls-3{fill:url(#Безымянный_градиент_118-3);}.cls-4{fill:url(#Безымянный_градиент_118-4);}.cls-5{fill:#cecece;}.cls-6{fill:#b2b2b2;}.cls-7{fill:none;}.cls-8{fill:url(#Безымянный_градиент_143);}.cls-9{fill:#b5b5b5;}.cls-10{fill:url(#Безымянный_градиент_7);}.cls-11{fill:url(#Безымянный_градиент_7-2);}.cls-12{fill:#494949;}.cls-13{fill:url(#Безымянный_градиент_103);}.cls-14{fill:url(#Безымянный_градиент_90);}.cls-15{fill:url(#Безымянный_градиент_71);}.cls-16{fill:url(#Безымянный_градиент_7-3);}.cls-17{fill:url(#Безымянный_градиент_7-4);}.cls-18{fill:url(#Безымянный_градиент_103-2);}.cls-19{fill:url(#Безымянный_градиент_90-2);}.cls-20{fill:url(#Безымянный_градиент_143-2);}.cls-21{fill:url(#Безымянный_градиент_143-3);}</style><linearGradient id="Безымянный_градиент_118" x1="35.88" y1="171.68" x2="118.1" y2="29.27" gradientTransform="matrix(-1, 0, 0, 1, 222.86, 0)" gradientUnits="userSpaceOnUse"><stop offset="0" stop-color="#c69c6d"/><stop offset="0.74" stop-color="#c69c6d"/><stop offset="0.86" stop-color="#c49a6b"/><stop offset="0.91" stop-color="#bd9365"/><stop offset="0.95" stop-color="#b08659"/><stop offset="0.98" stop-color="#9e7449"/><stop offset="1" stop-color="#8c6239"/></linearGradient><linearGradient id="Безымянный_градиент_118-2" x1="89.86" y1="202.91" x2="208.63" y2="-2.81" xlink:href="#Безымянный_градиент_118"/><linearGradient id="Безымянный_градиент_118-3" x1="17.18" y1="204.13" x2="137.36" y2="-4.03" xlink:href="#Безымянный_градиент_118"/><linearGradient id="Безымянный_градиент_118-4" x1="40.15" y1="223.73" x2="182.71" y2="-23.18" xlink:href="#Безымянный_градиент_118"/><linearGradient id="Безымянный_градиент_143" x1="129.22" y1="165.28" x2="259.72" y2="34.78" gradientTransform="translate(-83.15)" gradientUnits="userSpaceOnUse"><stop offset="0" stop-color="#a67c52"/><stop offset="0.48" stop-color="#754c24"/><stop offset="0.98" stop-color="#a47a50"/><stop offset="1" stop-color="#a67c52"/></linearGradient><linearGradient id="Безымянный_градиент_7" x1="73.98" y1="13.51" x2="76.95" y2="13.51" gradientTransform="matrix(-1, 0, 0, 1, 222.86, 0)" gradientUnits="userSpaceOnUse"><stop offset="0" stop-color="#4d4d4d"/><stop offset="1" stop-color="#736357"/></linearGradient><linearGradient id="Безымянный_градиент_7-2" x1="73.98" y1="185.36" x2="76.95" y2="185.36" xlink:href="#Безымянный_градиент_7"/><linearGradient id="Безымянный_градиент_103" x1="163.45" y1="99.54" x2="168" y2="99.54" gradientTransform="translate(-83.15)" gradientUnits="userSpaceOnUse"><stop offset="0" stop-color="#4d4d4d"/><stop offset="1" stop-color="#333"/></linearGradient><linearGradient id="Безымянный_градиент_90" x1="164.3" y1="106.25" x2="167.15" y2="106.25" gradientTransform="translate(-83.15)" gradientUnits="userSpaceOnUse"><stop offset="0" stop-color="#4d4d4d"/><stop offset="1" stop-color="#1a1a1a"/></linearGradient><linearGradient id="Безымянный_градиент_71" x1="727.18" y1="165.32" x2="857.68" y2="34.82" gradientTransform="translate(-754.87)" gradientUnits="userSpaceOnUse"><stop offset="0" stop-color="#a67c52"/><stop offset="0.55" stop-color="#754c24"/><stop offset="0.82" stop-color="#a47a4e"/><stop offset="1" stop-color="#c69c6d"/></linearGradient><linearGradient id="Безымянный_градиент_7-3" x1="147.73" y1="13.56" x2="150.71" y2="13.56" xlink:href="#Безымянный_градиент_7"/><linearGradient id="Безымянный_градиент_7-4" x1="147.73" y1="185.4" x2="150.71" y2="185.4" xlink:href="#Безымянный_градиент_7"/><linearGradient id="Безымянный_градиент_103-2" x1="761.42" y1="99.58" x2="765.96" y2="99.58" gradientTransform="translate(-754.87)" xlink:href="#Безымянный_градиент_103"/><linearGradient id="Безымянный_градиент_90-2" x1="762.26" y1="106.29" x2="765.11" y2="106.29" gradientTransform="translate(-754.87)" xlink:href="#Безымянный_градиент_90"/><linearGradient id="Безымянный_градиент_143-2" x1="-44.96" y1="147.99" x2="50.95" y2="52.07" gradientTransform="matrix(-1, 0, 0, 1, 222.86, 0)" xlink:href="#Безымянный_градиент_143"/><linearGradient id="Безымянный_градиент_143-3" x1="-27.66" y1="165.28" x2="102.83" y2="34.78" gradientTransform="matrix(-1, 0, 0, 1, 222.86, 0)" xlink:href="#Безымянный_градиент_143"/></defs><g id="Слой_2" data-name="Слой 2"><g id="Слой_2-2" data-name="Слой 2"><path class="cls-1" d="M145.61,179.22v15.67h.89l.2,0h0a1,1,0,0,0,.79-1V180.22a1,1,0,0,0-.79-1h0l-.2,0Zm0-173.54V21.35h.3V5.68Z"/><path class="cls-2" d="M2.15,4.16V196H3.64V4.16Zm70.66,175.1v15.68h.49a1,1,0,0,0,1-1V180.26a1,1,0,0,0-1-1Zm71.72,14.63v2.05h.55v-1.16A1,1,0,0,1,144.53,193.89Zm0-173.54V180.22a1,1,0,0,1,.55-.89V21.24A1,1,0,0,1,144.53,20.35Zm0-16.23V6.68a1,1,0,0,1,.55-.89V4.12Z"/><path class="cls-3" d="M219,4.12V195.94h.85V4.12ZM146.71,194.87l.2,0h1a1,1,0,0,0,1-1V180.22a1,1,0,0,0-1-1h-1l-.2,0a1,1,0,0,1,.79,1v13.67A1,1,0,0,1,146.71,194.87Zm0-173.54.2,0h1a1,1,0,0,0,1-1V6.68a1,1,0,0,0-1-1h-1l-.2,0a1,1,0,0,1,.79,1V20.35A1,1,0,0,1,146.71,21.33ZM145.08,4.12V5.79a1,1,0,0,1,.45-.11h.38V4.12Zm0,17.12V179.33a1,1,0,0,1,.45-.11h.38V21.35h-.38A1,1,0,0,1,145.08,21.24Zm0,173.54v1.16h.83v-1.05h-.38A1,1,0,0,1,145.08,194.78Zm-71.78.16h.83a1,1,0,0,0,1-1V180.26a1,1,0,0,0-1-1H73.3a1,1,0,0,1,1,1v13.68A1,1,0,0,1,73.3,194.94Zm0-173.54h.83a1,1,0,0,0,1-1V6.72a1,1,0,0,0-1-1H73.3a1,1,0,0,1,1,1V20.4A1,1,0,0,1,73.3,21.4Zm-2-17.24V6.72a1,1,0,0,1,.83-1V4.16Zm0,16.24V180.26a1,1,0,0,1,.83-1V21.38A1,1,0,0,1,71.32,20.4Zm0,173.54V196h.83v-1.07A1,1,0,0,1,71.32,193.94Z"/><path class="cls-4" d="M0,0V200.55H222.86V0ZM75.13,20.4a1,1,0,0,1-1,1H73.3a1,1,0,0,0,1-1V6.72a1,1,0,0,0-1-1h.83a1,1,0,0,1,1,1Zm73.75,0a1,1,0,0,1-1,1h-1l-.2,0a1,1,0,0,0,.79-1V6.68a1,1,0,0,0-.79-1l.2,0h1a1,1,0,0,1,1,1Zm1.81-16.23h69.18V195.94H150.69Zm-74,0h69.18v175.1h.59l.2,0h0l.2,0h1a1,1,0,0,1,1,1v13.67a1,1,0,0,1-1,1h-1l-.2,0h0l-.2,0h-.59v1.05H76.73Zm-74.58,0h70v176.1a1,1,0,0,1,.66-.94v-.06h1.32a1,1,0,0,1,1,1v13.68a1,1,0,0,1-1,1H72.32l-.17,0V196h-70Z"/></g><g id="Слой_3" data-name="Слой 3"><polygon class="cls-5" points="162.4 15.76 162.4 184.22 163.13 183.53 163.13 16.55 162.4 15.76"/><polygon class="cls-6" points="162.39 15.76 163.12 16.55 207.39 16.55 208.25 15.76 162.39 15.76"/><rect class="cls-7" x="163.12" y="16.55" width="44.27" height="166.98"/><rect class="cls-7" x="163.12" y="16.55" width="44.27" height="166.98"/><path class="cls-8" d="M76.73,4.12V195.94h69.18V4.12ZM88.44,15.76h45.87V184.22H88.44Zm-8.15,81A2.23,2.23,0,0,1,81,95.13a2.25,2.25,0,0,1,1.6-.67h0a2.21,2.21,0,0,1,1.59.67,2.28,2.28,0,0,1,.67,1.61v6.11a2.26,2.26,0,0,1-.66,1.6l-.18.16h0v8a1.39,1.39,0,0,1-.42,1,1.37,1.37,0,0,1-1,.42h0a1.39,1.39,0,0,1-1-.42h0a1.73,1.73,0,0,1-.17-.21c0-.08-.1-.16-.14-.24a1.46,1.46,0,0,1-.11-.55v-8.06l-.18-.16a2.23,2.23,0,0,1-.67-1.6Z"/><rect class="cls-7" x="89.19" y="16.55" width="44.26" height="166.98"/><polygon class="cls-9" points="134.32 184.22 88.45 184.22 89.19 183.53 133.45 183.53 134.32 184.22"/><polygon class="cls-5" points="134.32 15.76 134.32 184.22 133.45 183.53 133.45 16.55 134.32 15.76"/><polygon class="cls-5" points="89.19 16.55 89.19 183.53 88.45 184.22 88.45 15.76 89.19 16.55"/><polygon class="cls-6" points="134.32 15.76 133.45 16.55 89.19 16.55 88.45 15.76 134.32 15.76"/><rect class="cls-7" x="89.19" y="16.55" width="44.26" height="166.98"/><rect class="cls-7" x="89.19" y="16.55" width="44.26" height="166.98"/><path class="cls-10" d="M145.91,6.68V20.35a1,1,0,0,0,.79,1h0l.2,0h1a1,1,0,0,0,1-1V6.68a1,1,0,0,0-1-1h-1l-.2,0h0A1,1,0,0,0,145.91,6.68Z"/><path class="cls-11" d="M145.91,180.22V191.5h3V180.22a1,1,0,0,0-1-1h-1l-.2,0h0A1,1,0,0,0,145.91,180.22Z"/><path class="cls-12" d="M145.91,191.5v2.39a1,1,0,0,0,.79,1h0l.2,0h1a1,1,0,0,0,1-1V191.5Z"/><path class="cls-13" d="M84.85,96.74v6.11a2.27,2.27,0,0,1-.85,1.77V99.84a1.43,1.43,0,0,0-1.42-1.43h0a1.43,1.43,0,0,0-1.42,1.43v4.77a2.24,2.24,0,0,1-.85-1.76V96.74a2.28,2.28,0,0,1,2.27-2.28h0A2.28,2.28,0,0,1,84.85,96.74Z"/><path class="cls-14" d="M84,99.84v12.83a1.43,1.43,0,0,1-1.42,1.42h0a1.43,1.43,0,0,1-1.42-1.42V99.84a1.43,1.43,0,0,1,1.42-1.43h0A1.43,1.43,0,0,1,84,99.84Z"/><path class="cls-15" d="M3,4.16V196H72.15V4.16ZM14.68,15.8H60.55V184.27H14.68Zm-8.14,81a2.26,2.26,0,0,1,3.87-1.6,2.21,2.21,0,0,1,.67,1.6v6.11a2.26,2.26,0,0,1-.66,1.6,1.29,1.29,0,0,1-.17.16h0v8a1.43,1.43,0,0,1-.42,1,1.41,1.41,0,0,1-2,0,1.36,1.36,0,0,1-.43-1v-8l-.17-.16h0a2.27,2.27,0,0,1-.66-1.61Z"/><rect class="cls-7" x="15.43" y="16.59" width="44.26" height="166.99"/><polygon class="cls-9" points="60.56 184.26 14.69 184.26 15.43 183.57 59.69 183.57 60.56 184.26"/><polygon class="cls-5" points="15.43 16.59 15.43 183.57 14.69 184.26 14.69 15.79 15.43 16.59"/><polygon class="cls-5" points="60.56 15.79 60.56 184.26 59.69 183.57 59.69 16.59 60.56 15.79"/><polygon class="cls-6" points="60.56 15.79 59.69 16.59 15.43 16.59 14.69 15.79 60.56 15.79"/><rect class="cls-7" x="15.43" y="16.59" width="44.26" height="166.99"/><rect class="cls-7" x="15.43" y="16.59" width="44.26" height="166.99"/><path class="cls-16" d="M72.15,6.72V20.4a1,1,0,0,0,.66.94,1,1,0,0,0,.34.06h1a1,1,0,0,0,1-1V6.72a1,1,0,0,0-1-1h-1a1,1,0,0,0-.34.06A1,1,0,0,0,72.15,6.72Z"/><path class="cls-17" d="M72.15,180.26v11.29h3V180.26a1,1,0,0,0-1-1h-1a1,1,0,0,0-.34.06A1,1,0,0,0,72.15,180.26Z"/><path class="cls-12" d="M72.15,191.55v2.39a1,1,0,0,0,.66.94,1,1,0,0,0,.34.06h1a1,1,0,0,0,1-1v-2.39Z"/><path class="cls-18" d="M11.09,96.78v6.11a2.3,2.3,0,0,1-.84,1.77V99.88a1.43,1.43,0,0,0-2.86,0v4.78l-.18-.16a2.27,2.27,0,0,1-.66-1.61V96.78a2.26,2.26,0,0,1,3.87-1.6A2.21,2.21,0,0,1,11.09,96.78Z"/><path class="cls-19" d="M10.25,99.88v12.83a1.43,1.43,0,1,1-2.86,0V99.88a1.43,1.43,0,0,1,2.86,0Z"/><path class="cls-20" d="M219.86,4.12V195.94h0V4.12Z"/><path class="cls-21" d="M150.69,4.12V195.94h69.17V4.12ZM162.4,15.76h45.86V184.22H162.4Z"/><rect class="cls-7" x="163.12" y="16.55" width="44.27" height="166.98"/><polygon class="cls-9" points="162.39 184.22 208.25 184.22 207.39 183.53 163.12 183.53 162.39 184.22"/><polygon class="cls-5" points="207.4 16.55 207.4 183.53 208.26 184.22 208.26 15.76 207.4 16.55"/></g></g></svg>