<svg xmlns="http://www.w3.org/2000/svg" xmlns:xlink="http://www.w3.org/1999/xlink" viewBox="0 0 222.86 200.55"><defs><style>.cls-1{fill:url(#Безымянный_градиент_118);}.cls-2{fill:#cecece;}.cls-3{fill:#b2b2b2;}.cls-4{fill:none;}.cls-5{fill:url(#Безымянный_градиент_143);}.cls-6{fill:url(#Безымянный_градиент_143-2);}.cls-7{fill:#b5b5b5;}.cls-8{fill:url(#Безымянный_градиент_71);}.cls-9{fill:url(#Безымянный_градиент_7);}.cls-10{fill:url(#Безымянный_градиент_7-2);}.cls-11{fill:#494949;}.cls-12{fill:url(#Безымянный_градиент_103);}.cls-13{fill:url(#Безымянный_градиент_90);}.cls-14{fill:url(#Безымянный_градиент_143-3);}.cls-15{fill:url(#Безымянный_градиент_143-4);}</style><linearGradient id="Безымянный_градиент_118" x1="40.15" y1="223.73" x2="182.71" y2="-23.18" gradientUnits="userSpaceOnUse"><stop offset="0" stop-color="#c69c6d"/><stop offset="0.74" stop-color="#c69c6d"/><stop offset="0.86" stop-color="#c49a6b"/><stop offset="0.91" stop-color="#bd9365"/><stop offset="0.95" stop-color="#b08659"/><stop offset="0.98" stop-color="#9e7449"/><stop offset="1" stop-color="#8c6239"/></linearGradient><linearGradient id="Безымянный_градиент_143" x1="29.29" y1="147.99" x2="125.2" y2="52.07" gradientUnits="userSpaceOnUse"><stop offset="0" stop-color="#a67c52"/><stop offset="0.48" stop-color="#754c24"/><stop offset="0.98" stop-color="#a47a50"/><stop offset="1" stop-color="#a67c52"/></linearGradient><linearGradient id="Безымянный_градиент_143-2" x1="46.59" y1="165.28" x2="177.08" y2="34.78" xlink:href="#Безымянный_градиент_143"/><linearGradient id="Безымянный_градиент_71" x1="119.38" y1="165.33" x2="249.88" y2="34.83" gradientUnits="userSpaceOnUse"><stop offset="0" stop-color="#a67c52"/><stop offset="0.55" stop-color="#754c24"/><stop offset="0.82" stop-color="#a47a4e"/><stop offset="1" stop-color="#c69c6d"/></linearGradient><linearGradient id="Безымянный_градиент_7" x1="219.21" y1="13.57" x2="222.19" y2="13.57" gradientUnits="userSpaceOnUse"><stop offset="0" stop-color="#4d4d4d"/><stop offset="1" stop-color="#736357"/></linearGradient><linearGradient id="Безымянный_градиент_7-2" x1="219.21" y1="185.41" x2="222.19" y2="185.41" xlink:href="#Безымянный_градиент_7"/><linearGradient id="Безымянный_градиент_103" x1="153.6" y1="99.59" x2="158.14" y2="99.59" gradientUnits="userSpaceOnUse"><stop offset="0" stop-color="#4d4d4d"/><stop offset="1" stop-color="#333"/></linearGradient><linearGradient id="Безымянный_градиент_90" x1="154.44" y1="106.3" x2="157.3" y2="106.3" gradientUnits="userSpaceOnUse"><stop offset="0" stop-color="#4d4d4d"/><stop offset="1" stop-color="#1a1a1a"/></linearGradient><linearGradient id="Безымянный_градиент_143-3" x1="-44.12" y1="147.99" x2="51.79" y2="52.07" xlink:href="#Безымянный_градиент_143"/><linearGradient id="Безымянный_градиент_143-4" x1="-26.82" y1="165.28" x2="103.67" y2="34.78" xlink:href="#Безымянный_градиент_143"/></defs><g id="Слой_2" data-name="Слой 2"><g id="Слой_2-2" data-name="Слой 2"><path class="cls-1" d="M0,0V200.55H222.86V0ZM73,195.94H3.84V4.12H73Zm73.4,0H77.25V4.12h69.17Zm72.8.05H150.05V4.17h69.17Z"/></g><g id="Слой_3" data-name="Слой 3"><polygon class="cls-2" points="61.3 15.77 61.3 184.23 60.57 183.54 60.57 16.55 61.3 15.77"/><polygon class="cls-3" points="61.3 15.77 60.57 16.55 16.3 16.55 15.44 15.77 61.3 15.77"/><rect class="cls-4" x="16.3" y="16.56" width="44.27" height="166.98"/><rect class="cls-4" x="16.3" y="16.56" width="44.27" height="166.98"/><path class="cls-5" d="M77.24,4.12V195.94h0V4.12Z"/><path class="cls-6" d="M77.25,4.12V195.94h69.17V4.12Zm57.57,180.11H89V15.77h45.87Z"/><rect class="cls-4" x="89.69" y="16.56" width="44.26" height="166.98"/><polygon class="cls-7" points="134.82 184.22 88.95 184.22 89.69 183.53 133.95 183.53 134.82 184.22"/><polygon class="cls-2" points="134.82 15.77 134.82 184.23 133.95 183.54 133.95 16.55 134.82 15.77"/><polygon class="cls-2" points="89.69 16.55 89.69 183.54 88.95 184.23 88.95 15.77 89.69 16.55"/><polygon class="cls-3" points="134.82 15.77 133.95 16.55 89.69 16.55 88.95 15.77 134.82 15.77"/><rect class="cls-4" x="89.69" y="16.56" width="44.26" height="166.98"/><rect class="cls-4" x="89.69" y="16.56" width="44.26" height="166.98"/><path class="cls-8" d="M150,4.17V196h69.17V4.17Zm8.1,98.73a2.3,2.3,0,0,1-.84,1.77v8a1.43,1.43,0,1,1-2.86,0v-8l-.18-.16a2.27,2.27,0,0,1-.66-1.61V96.79a2.26,2.26,0,0,1,3.87-1.6,2.21,2.21,0,0,1,.67,1.6Zm49.47,81.38H161.74V15.81h45.87Z"/><rect class="cls-4" x="162.48" y="16.6" width="44.26" height="166.99"/><polygon class="cls-7" points="207.61 184.28 161.74 184.28 162.48 183.59 206.74 183.59 207.61 184.28"/><polygon class="cls-2" points="162.48 16.59 162.48 183.59 161.74 184.28 161.74 15.8 162.48 16.59"/><polygon class="cls-2" points="207.61 15.8 207.61 184.28 206.74 183.59 206.74 16.59 207.61 15.8"/><polygon class="cls-3" points="207.61 15.8 206.74 16.59 162.48 16.59 161.74 15.8 207.61 15.8"/><rect class="cls-4" x="162.48" y="16.6" width="44.26" height="166.99"/><rect class="cls-4" x="162.48" y="16.6" width="44.26" height="166.99"/><rect class="cls-9" x="219.21" y="5.73" width="2.98" height="15.68" rx="1"/><path class="cls-10" d="M222.19,180.27v11.29h-3V180.27a1,1,0,0,1,1-1h1A1,1,0,0,1,222.19,180.27Z"/><path class="cls-11" d="M222.19,191.56V194a1,1,0,0,1-1,1h-1a1,1,0,0,1-1-1v-2.39Z"/><path class="cls-12" d="M158.14,96.79v6.11a2.3,2.3,0,0,1-.84,1.77V99.89a1.43,1.43,0,1,0-2.86,0v4.78l-.18-.16a2.27,2.27,0,0,1-.66-1.61V96.79a2.26,2.26,0,0,1,3.87-1.6A2.21,2.21,0,0,1,158.14,96.79Z"/><path class="cls-13" d="M157.3,99.89v12.83a1.43,1.43,0,1,1-2.86,0V99.89a1.43,1.43,0,1,1,2.86,0Z"/><path class="cls-14" d="M3.83,4.12V195.94h0V4.12Z"/><path class="cls-15" d="M3.84,4.12V195.94H73V4.12ZM61.3,184.23H15.44V15.77H61.3Z"/><rect class="cls-4" x="16.3" y="16.56" width="44.27" height="166.98"/><polygon class="cls-7" points="61.3 184.22 15.44 184.22 16.3 183.53 60.57 183.53 61.3 184.22"/><polygon class="cls-2" points="16.3 16.55 16.3 183.54 15.44 184.23 15.44 15.77 16.3 16.55"/></g></g></svg>