<svg xmlns="http://www.w3.org/2000/svg" xmlns:xlink="http://www.w3.org/1999/xlink" viewBox="0 0 222.86 200.55"><defs><style>.cls-1{fill:url(#Безымянный_градиент_118);}.cls-2{fill:#cecece;}.cls-3{fill:#b2b2b2;}.cls-4{fill:none;}.cls-5{fill:url(#Безымянный_градиент_7);}.cls-6{fill:url(#Безымянный_градиент_7-2);}.cls-7{fill:#494949;}.cls-8{fill:url(#Безымянный_градиент_103);}.cls-9{fill:url(#Безымянный_градиент_90);}.cls-10{fill:url(#Безымянный_градиент_143);}.cls-11{fill:#b5b5b5;}.cls-12{fill:url(#Безымянный_градиент_7-3);}.cls-13{fill:url(#Безымянный_градиент_7-4);}.cls-14{fill:url(#Безымянный_градиент_103-2);}.cls-15{fill:url(#Безымянный_градиент_90-2);}.cls-16{fill:url(#Безымянный_градиент_71);}.cls-17{fill:url(#Безымянный_градиент_7-5);}.cls-18{fill:url(#Безымянный_градиент_7-6);}.cls-19{fill:url(#Безымянный_градиент_103-3);}.cls-20{fill:url(#Безымянный_градиент_90-3);}.cls-21{fill:url(#Безымянный_градиент_143-2);}</style><linearGradient id="Безымянный_градиент_118" x1="1297.02" y1="223.73" x2="1439.57" y2="-23.18" gradientTransform="translate(-1256.86)" gradientUnits="userSpaceOnUse"><stop offset="0" stop-color="#c69c6d"/><stop offset="0.74" stop-color="#c69c6d"/><stop offset="0.86" stop-color="#c49a6b"/><stop offset="0.91" stop-color="#bd9365"/><stop offset="0.95" stop-color="#b08659"/><stop offset="0.98" stop-color="#9e7449"/><stop offset="1" stop-color="#8c6239"/></linearGradient><linearGradient id="Безымянный_градиент_7" x1="-10.32" y1="13.53" x2="-7.35" y2="13.53" gradientTransform="matrix(-1, 0, 0, 1, 65.67, 0)" gradientUnits="userSpaceOnUse"><stop offset="0" stop-color="#4d4d4d"/><stop offset="1" stop-color="#736357"/></linearGradient><linearGradient id="Безымянный_градиент_7-2" x1="-10.32" y1="185.37" x2="-7.35" y2="185.37" xlink:href="#Безымянный_градиент_7"/><linearGradient id="Безымянный_градиент_103" x1="53.73" y1="99.55" x2="58.27" y2="99.55" gradientTransform="matrix(-1, 0, 0, 1, 65.67, 0)" gradientUnits="userSpaceOnUse"><stop offset="0" stop-color="#4d4d4d"/><stop offset="1" stop-color="#333"/></linearGradient><linearGradient id="Безымянный_градиент_90" x1="54.57" y1="106.26" x2="57.42" y2="106.26" gradientTransform="matrix(-1, 0, 0, 1, 65.67, 0)" gradientUnits="userSpaceOnUse"><stop offset="0" stop-color="#4d4d4d"/><stop offset="1" stop-color="#1a1a1a"/></linearGradient><linearGradient id="Безымянный_градиент_143" x1="1303.45" y1="165.28" x2="1433.95" y2="34.78" gradientTransform="translate(-1256.86)" gradientUnits="userSpaceOnUse"><stop offset="0" stop-color="#a67c52"/><stop offset="0.48" stop-color="#754c24"/><stop offset="0.98" stop-color="#a47a50"/><stop offset="1" stop-color="#a67c52"/></linearGradient><linearGradient id="Безымянный_градиент_7-3" x1="1403.29" y1="13.52" x2="1406.26" y2="13.52" gradientTransform="translate(-1256.86)" xlink:href="#Безымянный_градиент_7"/><linearGradient id="Безымянный_градиент_7-4" x1="1403.29" y1="185.36" x2="1406.26" y2="185.36" gradientTransform="translate(-1256.86)" xlink:href="#Безымянный_градиент_7"/><linearGradient id="Безымянный_градиент_103-2" x1="1337.67" y1="99.54" x2="1342.22" y2="99.54" gradientTransform="translate(-1256.86)" xlink:href="#Безымянный_градиент_103"/><linearGradient id="Безымянный_градиент_90-2" x1="1338.52" y1="106.25" x2="1341.37" y2="106.25" gradientTransform="translate(-1256.86)" xlink:href="#Безымянный_градиент_90"/><linearGradient id="Безымянный_градиент_71" x1="1376.24" y1="165.32" x2="1506.74" y2="34.83" gradientTransform="translate(-1256.86)" gradientUnits="userSpaceOnUse"><stop offset="0" stop-color="#a67c52"/><stop offset="0.55" stop-color="#754c24"/><stop offset="0.82" stop-color="#a47a4e"/><stop offset="1" stop-color="#c69c6d"/></linearGradient><linearGradient id="Безымянный_градиент_7-5" x1="1476.08" y1="13.56" x2="1479.06" y2="13.56" gradientTransform="translate(-1256.86)" xlink:href="#Безымянный_градиент_7"/><linearGradient id="Безымянный_градиент_7-6" x1="1476.08" y1="185.4" x2="1479.06" y2="185.4" gradientTransform="translate(-1256.86)" xlink:href="#Безымянный_градиент_7"/><linearGradient id="Безымянный_градиент_103-3" x1="1410.47" y1="99.59" x2="1415.01" y2="99.59" gradientTransform="translate(-1256.86)" xlink:href="#Безымянный_градиент_103"/><linearGradient id="Безымянный_градиент_90-3" x1="1411.31" y1="106.3" x2="1414.17" y2="106.3" gradientTransform="translate(-1256.86)" xlink:href="#Безымянный_градиент_90"/><linearGradient id="Безымянный_градиент_143-2" x1="-38.01" y1="165.29" x2="92.49" y2="34.79" gradientTransform="matrix(-1, 0, 0, 1, 65.67, 0)" xlink:href="#Безымянный_градиент_143"/></defs><g id="Слой_2" data-name="Слой 2"><g id="Слой_2-2" data-name="Слой 2"><path class="cls-1" d="M0,0V200.55H222.86V0ZM73,195.94H3.84V4.12H73Zm73.4,0H77.25V4.12h69.17Zm72.8.05H150.05V4.16h69.17Z"/></g><g id="Слой_3" data-name="Слой 3"><polygon class="cls-2" points="15.55 15.77 15.55 184.23 16.28 183.54 16.28 16.56 15.55 15.77"/><polygon class="cls-3" points="15.55 15.77 16.28 16.56 60.55 16.56 61.41 15.77 15.55 15.77"/><rect class="cls-4" x="16.28" y="16.56" width="44.27" height="166.98"/><rect class="cls-4" x="16.28" y="16.56" width="44.27" height="166.98"/><path class="cls-5" d="M73,6.69V20.36a1,1,0,0,0,1,1h1a1,1,0,0,0,1-1V6.69a1,1,0,0,0-1-1H74A1,1,0,0,0,73,6.69Z"/><path class="cls-6" d="M73,180.23v11.28h3V180.23a1,1,0,0,0-1-1H74A1,1,0,0,0,73,180.23Z"/><path class="cls-7" d="M73,191.51v2.39a1,1,0,0,0,1,1h1a1,1,0,0,0,1-1v-2.39Z"/><path class="cls-8" d="M7.4,96.75v6.11a2.27,2.27,0,0,0,.67,1.6l.18.17V99.85a1.43,1.43,0,1,1,2.85,0v4.77a2.26,2.26,0,0,0,.84-1.76V96.75a2.27,2.27,0,0,0-.66-1.61,2.23,2.23,0,0,0-1.61-.67A2.28,2.28,0,0,0,7.4,96.75Z"/><path class="cls-9" d="M8.25,99.85v12.83a1.43,1.43,0,0,0,2.85,0V99.85a1.43,1.43,0,1,0-2.85,0Z"/><path class="cls-10" d="M77.24,4.12V195.94h69.18V4.12Zm8.12,98.73a2.27,2.27,0,0,1-.85,1.77v8a1.43,1.43,0,0,1-1.42,1.42h0a1.43,1.43,0,0,1-1.42-1.42v-8.06a2.25,2.25,0,0,1-.86-1.76V96.74a2.29,2.29,0,0,1,2.28-2.28h0a2.28,2.28,0,0,1,2.27,2.28Zm49.47,81.37H89V15.76h45.87Z"/><rect class="cls-4" x="89.7" y="16.55" width="44.26" height="166.98"/><polygon class="cls-11" points="134.82 184.22 88.95 184.22 89.69 183.53 133.96 183.53 134.82 184.22"/><polygon class="cls-2" points="134.82 15.76 134.82 184.22 133.96 183.53 133.96 16.55 134.82 15.76"/><polygon class="cls-2" points="89.69 16.55 89.69 183.53 88.95 184.22 88.95 15.76 89.69 16.55"/><polygon class="cls-3" points="134.82 15.76 133.96 16.55 89.69 16.55 88.95 15.76 134.82 15.76"/><rect class="cls-4" x="89.7" y="16.55" width="44.26" height="166.98"/><rect class="cls-4" x="89.7" y="16.55" width="44.26" height="166.98"/><path class="cls-12" d="M149.4,6.68V20.35a1,1,0,0,1-1,1h-1a1,1,0,0,1-1-1V6.68a1,1,0,0,1,1-1h1A1,1,0,0,1,149.4,6.68Z"/><path class="cls-13" d="M149.4,180.22V191.5h-3V180.22a1,1,0,0,1,1-1h1A1,1,0,0,1,149.4,180.22Z"/><path class="cls-7" d="M149.4,191.5v2.39a1,1,0,0,1-1,1h-1a1,1,0,0,1-1-1V191.5Z"/><path class="cls-14" d="M85.36,96.74v6.11a2.27,2.27,0,0,1-.85,1.77V99.84a1.43,1.43,0,0,0-1.42-1.43h0a1.43,1.43,0,0,0-1.42,1.43v4.77a2.25,2.25,0,0,1-.86-1.76V96.74a2.29,2.29,0,0,1,2.28-2.28h0A2.28,2.28,0,0,1,85.36,96.74Z"/><path class="cls-15" d="M84.51,99.84v12.83a1.43,1.43,0,0,1-1.42,1.42h0a1.43,1.43,0,0,1-1.42-1.42V99.84a1.43,1.43,0,0,1,1.42-1.43h0A1.43,1.43,0,0,1,84.51,99.84Z"/><path class="cls-16" d="M150.05,4.16V196h69.17V4.16Zm8.1,98.73a2.27,2.27,0,0,1-.85,1.77v8a1.43,1.43,0,1,1-2.85,0v-8l-.18-.16a2.27,2.27,0,0,1-.66-1.61V96.78a2.26,2.26,0,0,1,2.26-2.27,2.29,2.29,0,0,1,1.61.67,2.21,2.21,0,0,1,.67,1.6Zm49.46,81.38H161.74V15.8h45.87Z"/><rect class="cls-4" x="162.49" y="16.59" width="44.26" height="166.99"/><polygon class="cls-11" points="207.62 184.27 161.75 184.27 162.49 183.58 206.75 183.58 207.62 184.27"/><polygon class="cls-2" points="162.49 16.59 162.49 183.58 161.75 184.27 161.75 15.8 162.49 16.59"/><polygon class="cls-2" points="207.62 15.8 207.62 184.27 206.75 183.58 206.75 16.59 207.62 15.8"/><polygon class="cls-3" points="207.62 15.8 206.75 16.59 162.49 16.59 161.75 15.8 207.62 15.8"/><rect class="cls-4" x="162.49" y="16.59" width="44.26" height="166.99"/><rect class="cls-4" x="162.49" y="16.59" width="44.26" height="166.99"/><rect class="cls-17" x="219.22" y="5.72" width="2.98" height="15.68" rx="1"/><path class="cls-18" d="M222.2,180.26v11.29h-3V180.26a1,1,0,0,1,1-1h1A1,1,0,0,1,222.2,180.26Z"/><path class="cls-7" d="M222.2,191.55v2.39a1,1,0,0,1-1,1h-1a1,1,0,0,1-1-1v-2.39Z"/><path class="cls-19" d="M158.15,96.78v6.11a2.27,2.27,0,0,1-.85,1.77V99.88a1.43,1.43,0,1,0-2.85,0v4.78l-.18-.16a2.27,2.27,0,0,1-.66-1.61V96.78a2.26,2.26,0,0,1,2.26-2.27,2.29,2.29,0,0,1,1.61.67A2.21,2.21,0,0,1,158.15,96.78Z"/><path class="cls-20" d="M157.3,99.88v12.83a1.43,1.43,0,1,1-2.85,0V99.88a1.43,1.43,0,1,1,2.85,0Z"/><path class="cls-21" d="M3.84,4.13V196H73V4.13ZM15.55,15.77H61.41V184.23H15.55Zm-8.15,81a2.28,2.28,0,0,1,2.27-2.28,2.23,2.23,0,0,1,1.61.67,2.27,2.27,0,0,1,.66,1.61v6.11a2.26,2.26,0,0,1-.84,1.76v8.06a1.43,1.43,0,0,1-2.85,0v-8.05l-.18-.17a2.27,2.27,0,0,1-.67-1.6Z"/><rect class="cls-4" x="16.28" y="16.56" width="44.27" height="166.98"/><polygon class="cls-11" points="15.55 184.23 61.41 184.23 60.55 183.54 16.28 183.54 15.55 184.23"/><polygon class="cls-2" points="60.55 16.56 60.55 183.54 61.41 184.23 61.41 15.77 60.55 16.56"/></g></g></svg>