<svg xmlns="http://www.w3.org/2000/svg" xmlns:xlink="http://www.w3.org/1999/xlink" viewBox="0 0 222.86 200.55"><defs><style>.cls-1{fill:url(#Безымянный_градиент_118);}.cls-2{fill:url(#Безымянный_градиент_118-2);}.cls-3{fill:#cecece;}.cls-4{fill:#b2b2b2;}.cls-5{fill:none;}.cls-6{fill:url(#Безымянный_градиент_143);}.cls-7{fill:#b5b5b5;}.cls-8{fill:url(#Безымянный_градиент_7);}.cls-9{fill:url(#Безымянный_градиент_7-2);}.cls-10{fill:#494949;}.cls-11{fill:url(#Безымянный_градиент_103);}.cls-12{fill:url(#Безымянный_градиент_90);}.cls-13{fill:url(#Безымянный_градиент_71);}.cls-14{fill:url(#Безымянный_градиент_7-3);}.cls-15{fill:url(#Безымянный_градиент_7-4);}.cls-16{fill:url(#Безымянный_градиент_103-2);}.cls-17{fill:url(#Безымянный_градиент_90-2);}.cls-18{fill:url(#Безымянный_градиент_143-2);}.cls-19{fill:url(#Безымянный_градиент_143-3);}</style><linearGradient id="Безымянный_градиент_118" x1="1283.76" y1="186.77" x2="1384.22" y2="12.76" gradientTransform="matrix(-1, 0, 0, 1, 1444.6, 0)" gradientUnits="userSpaceOnUse"><stop offset="0" stop-color="#c69c6d"/><stop offset="0.74" stop-color="#c69c6d"/><stop offset="0.86" stop-color="#c49a6b"/><stop offset="0.91" stop-color="#bd9365"/><stop offset="0.95" stop-color="#b08659"/><stop offset="0.98" stop-color="#9e7449"/><stop offset="1" stop-color="#8c6239"/></linearGradient><linearGradient id="Безымянный_градиент_118-2" x1="1261.9" y1="223.73" x2="1404.45" y2="-23.18" xlink:href="#Безымянный_градиент_118"/><linearGradient id="Безымянный_градиент_143" x1="-512.17" y1="165.28" x2="-381.67" y2="34.78" gradientTransform="translate(556.86)" gradientUnits="userSpaceOnUse"><stop offset="0" stop-color="#a67c52"/><stop offset="0.48" stop-color="#754c24"/><stop offset="0.98" stop-color="#a47a50"/><stop offset="1" stop-color="#a67c52"/></linearGradient><linearGradient id="Безымянный_градиент_7" x1="1297.1" y1="13.51" x2="1300.07" y2="13.51" gradientTransform="matrix(-1, 0, 0, 1, 1444.6, 0)" gradientUnits="userSpaceOnUse"><stop offset="0" stop-color="#4d4d4d"/><stop offset="1" stop-color="#736357"/></linearGradient><linearGradient id="Безымянный_градиент_7-2" x1="1297.1" y1="185.36" x2="1300.07" y2="185.36" xlink:href="#Безымянный_градиент_7"/><linearGradient id="Безымянный_градиент_103" x1="-477.94" y1="99.54" x2="-473.39" y2="99.54" gradientTransform="translate(556.86)" gradientUnits="userSpaceOnUse"><stop offset="0" stop-color="#4d4d4d"/><stop offset="1" stop-color="#333"/></linearGradient><linearGradient id="Безымянный_градиент_90" x1="-477.09" y1="106.25" x2="-474.24" y2="106.25" gradientTransform="translate(556.86)" gradientUnits="userSpaceOnUse"><stop offset="0" stop-color="#4d4d4d"/><stop offset="1" stop-color="#1a1a1a"/></linearGradient><linearGradient id="Безымянный_градиент_71" x1="1341.12" y1="165.32" x2="1471.62" y2="34.82" gradientTransform="matrix(-1, 0, 0, 1, 1444.6, 0)" gradientUnits="userSpaceOnUse"><stop offset="0" stop-color="#a67c52"/><stop offset="0.55" stop-color="#754c24"/><stop offset="0.82" stop-color="#a47a4e"/><stop offset="1" stop-color="#c69c6d"/></linearGradient><linearGradient id="Безымянный_градиент_7-3" x1="1440.96" y1="13.56" x2="1443.94" y2="13.56" xlink:href="#Безымянный_градиент_7"/><linearGradient id="Безымянный_градиент_7-4" x1="1440.96" y1="185.4" x2="1443.94" y2="185.4" xlink:href="#Безымянный_градиент_7"/><linearGradient id="Безымянный_градиент_103-2" x1="1375.35" y1="99.58" x2="1379.89" y2="99.58" gradientTransform="matrix(-1, 0, 0, 1, 1444.6, 0)" xlink:href="#Безымянный_градиент_103"/><linearGradient id="Безымянный_градиент_90-2" x1="1376.19" y1="106.29" x2="1379.05" y2="106.29" gradientTransform="matrix(-1, 0, 0, 1, 1444.6, 0)" xlink:href="#Безымянный_градиент_90"/><linearGradient id="Безымянный_градиент_143-2" x1="1177.62" y1="147.99" x2="1273.54" y2="52.07" gradientTransform="matrix(-1, 0, 0, 1, 1444.6, 0)" xlink:href="#Безымянный_градиент_143"/><linearGradient id="Безымянный_градиент_143-3" x1="1194.92" y1="165.28" x2="1325.42" y2="34.78" gradientTransform="matrix(-1, 0, 0, 1, 1444.6, 0)" xlink:href="#Безымянный_градиент_143"/></defs><g id="Слой_2" data-name="Слой 2"><g id="Слой_2-2" data-name="Слой 2"><path class="cls-1" d="M75.35,4.12V195.94h1.09V4.12Zm70.26,175.1v15.67h.89a1,1,0,0,0,1-1V180.22a1,1,0,0,0-1-1Zm0-173.54V21.35h.89a1,1,0,0,0,1-1V6.68a1,1,0,0,0-1-1Z"/><path class="cls-2" d="M0,0V200.55H222.86V0ZM149.84,4.12H219V195.94H149.84Zm-74.49,0h69.18V6.68a1,1,0,0,1,1-1h1a1,1,0,0,1,1,1V20.35a1,1,0,0,1-1,1h-1a1,1,0,0,1-1-1V180.22a1,1,0,0,1,1-1h1a1,1,0,0,1,1,1v13.67a1,1,0,0,1-1,1h-1a1,1,0,0,1-1-1v2.05H75.35Zm-71.71,0H72.81V196H3.64Z"/></g><g id="Слой_3" data-name="Слой 3"><polygon class="cls-3" points="161.56 15.76 161.56 184.22 162.29 183.53 162.29 16.55 161.56 15.76"/><polygon class="cls-4" points="161.56 15.76 162.29 16.55 206.56 16.55 207.42 15.76 161.56 15.76"/><rect class="cls-5" x="162.29" y="16.55" width="44.27" height="166.98"/><rect class="cls-5" x="162.29" y="16.55" width="44.27" height="166.98"/><path class="cls-6" d="M75.35,4.12V195.94h69.18V4.12ZM87.06,15.76h45.87V184.22H87.06Zm-8.15,81a2.28,2.28,0,0,1,2.27-2.28h0a2.28,2.28,0,0,1,2.27,2.28v6.11a2.27,2.27,0,0,1-.85,1.77v8a1.43,1.43,0,0,1-1.42,1.42h0a1.43,1.43,0,0,1-1.42-1.42v-8.06a2.24,2.24,0,0,1-.85-1.76Z"/><rect class="cls-5" x="87.8" y="16.55" width="44.26" height="166.98"/><polygon class="cls-7" points="132.94 184.22 87.06 184.22 87.81 183.53 132.06 183.53 132.94 184.22"/><polygon class="cls-3" points="132.94 15.76 132.94 184.22 132.06 183.53 132.06 16.55 132.94 15.76"/><polygon class="cls-3" points="87.81 16.55 87.81 183.53 87.06 184.22 87.06 15.76 87.81 16.55"/><polygon class="cls-4" points="132.94 15.76 132.06 16.55 87.81 16.55 87.06 15.76 132.94 15.76"/><rect class="cls-5" x="87.8" y="16.55" width="44.26" height="166.98"/><rect class="cls-5" x="87.8" y="16.55" width="44.26" height="166.98"/><path class="cls-8" d="M144.53,6.68V20.35a1,1,0,0,0,1,1h1a1,1,0,0,0,1-1V6.68a1,1,0,0,0-1-1h-1A1,1,0,0,0,144.53,6.68Z"/><path class="cls-9" d="M144.53,180.22V191.5h3V180.22a1,1,0,0,0-1-1h-1A1,1,0,0,0,144.53,180.22Z"/><path class="cls-10" d="M144.53,191.5v2.39a1,1,0,0,0,1,1h1a1,1,0,0,0,1-1V191.5Z"/><path class="cls-11" d="M83.46,96.74v6.11a2.27,2.27,0,0,1-.85,1.77V99.84a1.43,1.43,0,0,0-1.42-1.43h0a1.43,1.43,0,0,0-1.42,1.43v4.77a2.24,2.24,0,0,1-.85-1.76V96.74a2.28,2.28,0,0,1,2.27-2.28h0A2.28,2.28,0,0,1,83.46,96.74Z"/><path class="cls-12" d="M82.61,99.84v12.83a1.43,1.43,0,0,1-1.42,1.42h0a1.43,1.43,0,0,1-1.42-1.42V99.84a1.43,1.43,0,0,1,1.42-1.43h0A1.43,1.43,0,0,1,82.61,99.84Z"/><path class="cls-13" d="M3.65,4.16V196H72.82V4.16ZM64.72,96.78a2.21,2.21,0,0,1,.67-1.6,2.26,2.26,0,0,1,3.87,1.6v6.11a2.27,2.27,0,0,1-.66,1.61l-.18.16v8a1.43,1.43,0,0,1-2.86,0v-8a2.3,2.3,0,0,1-.84-1.77Zm-49.47-81H61.12V184.27H15.25Z"/><rect class="cls-5" x="16.12" y="16.59" width="44.26" height="166.99"/><polygon class="cls-7" points="15.25 184.26 61.12 184.26 60.38 183.57 16.12 183.57 15.25 184.26"/><polygon class="cls-3" points="60.38 16.59 60.38 183.57 61.12 184.26 61.12 15.79 60.38 16.59"/><polygon class="cls-3" points="15.25 15.79 15.25 184.26 16.12 183.57 16.12 16.59 15.25 15.79"/><polygon class="cls-4" points="15.25 15.79 16.12 16.59 60.38 16.59 61.12 15.79 15.25 15.79"/><rect class="cls-5" x="16.12" y="16.59" width="44.26" height="166.99"/><rect class="cls-5" x="16.12" y="16.59" width="44.26" height="166.99"/><rect class="cls-14" x="0.67" y="5.72" width="2.98" height="15.68" rx="1"/><path class="cls-15" d="M.67,180.26v11.29h3V180.26a1,1,0,0,0-1-1h-1A1,1,0,0,0,.67,180.26Z"/><path class="cls-10" d="M.67,191.55v2.39a1,1,0,0,0,1,1h1a1,1,0,0,0,1-1v-2.39Z"/><path class="cls-16" d="M64.72,96.78v6.11a2.3,2.3,0,0,0,.84,1.77V99.88a1.43,1.43,0,0,1,2.86,0v4.78l.18-.16a2.27,2.27,0,0,0,.66-1.61V96.78a2.26,2.26,0,0,0-3.87-1.6A2.21,2.21,0,0,0,64.72,96.78Z"/><path class="cls-17" d="M65.56,99.88v12.83a1.43,1.43,0,0,0,2.86,0V99.88a1.43,1.43,0,0,0-2.86,0Z"/><path class="cls-18" d="M219,4.12V195.94h0V4.12Z"/><path class="cls-19" d="M149.85,4.12V195.94H219V4.12Zm11.71,11.64h45.86V184.22H161.56Z"/><rect class="cls-5" x="162.29" y="16.55" width="44.27" height="166.98"/><polygon class="cls-7" points="161.56 184.22 207.42 184.22 206.56 183.53 162.29 183.53 161.56 184.22"/><polygon class="cls-3" points="206.56 16.55 206.56 183.53 207.42 184.22 207.42 15.76 206.56 16.55"/></g></g></svg>