<svg xmlns="http://www.w3.org/2000/svg" xmlns:xlink="http://www.w3.org/1999/xlink" viewBox="0 0 222.86 200.55"><defs><style>.cls-1{fill:url(#Безымянный_градиент_118);}.cls-2{fill:#cecece;}.cls-3{fill:#b2b2b2;}.cls-4{fill:none;}.cls-5{fill:url(#Безымянный_градиент_7);}.cls-6{fill:url(#Безымянный_градиент_7-2);}.cls-7{fill:#494949;}.cls-8{fill:url(#Безымянный_градиент_103);}.cls-9{fill:url(#Безымянный_градиент_90);}.cls-10{fill:url(#Безымянный_градиент_143);}.cls-11{fill:#b5b5b5;}.cls-12{fill:url(#Безымянный_градиент_7-3);}.cls-13{fill:url(#Безымянный_градиент_7-4);}.cls-14{fill:url(#Безымянный_градиент_103-2);}.cls-15{fill:url(#Безымянный_градиент_90-2);}.cls-16{fill:url(#Безымянный_градиент_71);}.cls-17{fill:url(#Безымянный_градиент_7-5);}.cls-18{fill:url(#Безымянный_градиент_7-6);}.cls-19{fill:url(#Безымянный_градиент_103-3);}.cls-20{fill:url(#Безымянный_градиент_90-3);}.cls-21{fill:url(#Безымянный_градиент_143-2);}</style><linearGradient id="Безымянный_градиент_118" x1="40.15" y1="223.73" x2="182.71" y2="-23.18" gradientTransform="matrix(-1, 0, 0, 1, 222.86, 0)" gradientUnits="userSpaceOnUse"><stop offset="0" stop-color="#c69c6d"/><stop offset="0.74" stop-color="#c69c6d"/><stop offset="0.86" stop-color="#c49a6b"/><stop offset="0.91" stop-color="#bd9365"/><stop offset="0.95" stop-color="#b08659"/><stop offset="0.98" stop-color="#9e7449"/><stop offset="1" stop-color="#8c6239"/></linearGradient><linearGradient id="Безымянный_градиент_7" x1="0.86" y1="13.52" x2="3.84" y2="13.52" gradientTransform="matrix(-1, 0, 0, 1, 222.86, 0)" gradientUnits="userSpaceOnUse"><stop offset="0" stop-color="#4d4d4d"/><stop offset="1" stop-color="#736357"/></linearGradient><linearGradient id="Безымянный_градиент_7-2" x1="0.86" y1="185.36" x2="3.84" y2="185.36" xlink:href="#Безымянный_градиент_7"/><linearGradient id="Безымянный_градиент_103" x1="64.92" y1="99.54" x2="69.46" y2="99.54" gradientTransform="matrix(-1, 0, 0, 1, 222.86, 0)" gradientUnits="userSpaceOnUse"><stop offset="0" stop-color="#4d4d4d"/><stop offset="1" stop-color="#333"/></linearGradient><linearGradient id="Безымянный_градиент_90" x1="65.76" y1="106.25" x2="68.61" y2="106.25" gradientTransform="matrix(-1, 0, 0, 1, 222.86, 0)" gradientUnits="userSpaceOnUse"><stop offset="0" stop-color="#4d4d4d"/><stop offset="1" stop-color="#1a1a1a"/></linearGradient><linearGradient id="Безымянный_градиент_143" x1="46.58" y1="165.28" x2="177.08" y2="34.78" gradientTransform="matrix(-1, 0, 0, 1, 222.86, 0)" gradientUnits="userSpaceOnUse"><stop offset="0" stop-color="#a67c52"/><stop offset="0.48" stop-color="#754c24"/><stop offset="0.98" stop-color="#a47a50"/><stop offset="1" stop-color="#a67c52"/></linearGradient><linearGradient id="Безымянный_градиент_7-3" x1="146.42" y1="13.52" x2="149.4" y2="13.52" xlink:href="#Безымянный_градиент_7"/><linearGradient id="Безымянный_градиент_7-4" x1="146.42" y1="185.36" x2="149.4" y2="185.36" xlink:href="#Безымянный_градиент_7"/><linearGradient id="Безымянный_градиент_103-2" x1="80.8" y1="99.54" x2="85.36" y2="99.54" xlink:href="#Безымянный_градиент_103"/><linearGradient id="Безымянный_градиент_90-2" x1="81.66" y1="106.25" x2="84.51" y2="106.25" xlink:href="#Безымянный_градиент_90"/><linearGradient id="Безымянный_градиент_71" x1="119.38" y1="165.32" x2="249.88" y2="34.83" gradientTransform="matrix(-1, 0, 0, 1, 222.86, 0)" gradientUnits="userSpaceOnUse"><stop offset="0" stop-color="#a67c52"/><stop offset="0.55" stop-color="#754c24"/><stop offset="0.82" stop-color="#a47a4e"/><stop offset="1" stop-color="#c69c6d"/></linearGradient><linearGradient id="Безымянный_градиент_7-5" x1="219.22" y1="13.56" x2="222.2" y2="13.56" xlink:href="#Безымянный_градиент_7"/><linearGradient id="Безымянный_градиент_7-6" x1="219.22" y1="185.4" x2="222.2" y2="185.4" xlink:href="#Безымянный_градиент_7"/><linearGradient id="Безымянный_градиент_103-3" x1="153.61" y1="99.59" x2="158.15" y2="99.59" xlink:href="#Безымянный_градиент_103"/><linearGradient id="Безымянный_градиент_90-3" x1="154.45" y1="106.3" x2="157.3" y2="106.3" xlink:href="#Безымянный_градиент_90"/><linearGradient id="Безымянный_градиент_143-2" x1="-26.82" y1="165.28" x2="103.68" y2="34.78" xlink:href="#Безымянный_градиент_143"/></defs><g id="Слой_2" data-name="Слой 2"><g id="Слой_2-2" data-name="Слой 2"><path class="cls-1" d="M0,0V200.55H222.86V0ZM149.84,4.12H219V195.94H149.84Zm-73.4,0h69.17V195.94H76.44Zm-72.8,0H72.81V196H3.64Z"/></g><g id="Слой_3" data-name="Слой 3"><polygon class="cls-2" points="161.56 15.76 161.56 184.22 162.28 183.53 162.28 16.55 161.56 15.76"/><polygon class="cls-3" points="161.56 15.76 162.28 16.55 206.56 16.55 207.41 15.76 161.56 15.76"/><rect class="cls-4" x="162.28" y="16.55" width="44.27" height="166.98"/><rect class="cls-4" x="162.28" y="16.55" width="44.27" height="166.98"/><path class="cls-5" d="M219,6.68V20.35a1,1,0,0,0,1,1h1a1,1,0,0,0,1-1V6.68a1,1,0,0,0-1-1h-1A1,1,0,0,0,219,6.68Z"/><path class="cls-6" d="M219,180.22V191.5h3V180.22a1,1,0,0,0-1-1h-1A1,1,0,0,0,219,180.22Z"/><path class="cls-7" d="M219,191.5v2.39a1,1,0,0,0,1,1h1a1,1,0,0,0,1-1V191.5Z"/><path class="cls-8" d="M153.4,96.74v6.11a2.27,2.27,0,0,0,.67,1.6l.18.17V99.84a1.43,1.43,0,1,1,2.85,0v4.77a2.26,2.26,0,0,0,.84-1.76V96.74a2.27,2.27,0,0,0-.66-1.61,2.23,2.23,0,0,0-1.61-.67A2.28,2.28,0,0,0,153.4,96.74Z"/><path class="cls-9" d="M154.25,99.84v12.83a1.43,1.43,0,0,0,2.85,0V99.84a1.43,1.43,0,1,0-2.85,0Z"/><path class="cls-10" d="M76.43,4.12V195.94h69.18V4.12ZM137.5,96.74a2.28,2.28,0,0,1,2.27-2.28h0a2.28,2.28,0,0,1,2.27,2.28v6.11a2.24,2.24,0,0,1-.85,1.76v8.06a1.43,1.43,0,0,1-1.42,1.42h0a1.43,1.43,0,0,1-1.42-1.42v-8a2.27,2.27,0,0,1-.85-1.77ZM88,15.76H133.9V184.22H88Z"/><rect class="cls-4" x="88.9" y="16.55" width="44.26" height="166.98"/><polygon class="cls-11" points="88.03 184.22 133.91 184.22 133.16 183.53 88.91 183.53 88.03 184.22"/><polygon class="cls-2" points="88.03 15.76 88.03 184.22 88.91 183.53 88.91 16.55 88.03 15.76"/><polygon class="cls-2" points="133.16 16.55 133.16 183.53 133.91 184.22 133.91 15.76 133.16 16.55"/><polygon class="cls-3" points="88.03 15.76 88.91 16.55 133.16 16.55 133.91 15.76 88.03 15.76"/><rect class="cls-4" x="88.9" y="16.55" width="44.26" height="166.98"/><rect class="cls-4" x="88.9" y="16.55" width="44.26" height="166.98"/><path class="cls-12" d="M73.46,6.68V20.35a1,1,0,0,0,1,1h1a1,1,0,0,0,1-1V6.68a1,1,0,0,0-1-1h-1A1,1,0,0,0,73.46,6.68Z"/><path class="cls-13" d="M73.46,180.22V191.5h3V180.22a1,1,0,0,0-1-1h-1A1,1,0,0,0,73.46,180.22Z"/><path class="cls-7" d="M73.46,191.5v2.39a1,1,0,0,0,1,1h1a1,1,0,0,0,1-1V191.5Z"/><path class="cls-14" d="M137.5,96.74v6.11a2.27,2.27,0,0,0,.85,1.77V99.84a1.43,1.43,0,0,1,1.42-1.43h0a1.43,1.43,0,0,1,1.42,1.43v4.77a2.24,2.24,0,0,0,.85-1.76V96.74a2.28,2.28,0,0,0-2.27-2.28h0A2.28,2.28,0,0,0,137.5,96.74Z"/><path class="cls-15" d="M138.35,99.84v12.83a1.43,1.43,0,0,0,1.42,1.42h0a1.43,1.43,0,0,0,1.42-1.42V99.84a1.43,1.43,0,0,0-1.42-1.43h0A1.43,1.43,0,0,0,138.35,99.84Z"/><path class="cls-16" d="M3.64,4.16V196H72.81V4.16ZM64.71,96.78a2.21,2.21,0,0,1,.67-1.6,2.26,2.26,0,0,1,3.87,1.6v6.11a2.27,2.27,0,0,1-.66,1.61l-.18.16v8a1.43,1.43,0,1,1-2.86,0v-8a2.3,2.3,0,0,1-.84-1.77Zm-49.47-81H61.11V184.27H15.24Z"/><rect class="cls-4" x="16.11" y="16.59" width="44.26" height="166.99"/><polygon class="cls-11" points="15.24 184.27 61.12 184.27 60.38 183.58 16.11 183.58 15.24 184.27"/><polygon class="cls-2" points="60.38 16.59 60.38 183.58 61.12 184.27 61.12 15.8 60.38 16.59"/><polygon class="cls-2" points="15.24 15.8 15.24 184.27 16.11 183.58 16.11 16.59 15.24 15.8"/><polygon class="cls-3" points="15.24 15.8 16.11 16.59 60.38 16.59 61.12 15.8 15.24 15.8"/><rect class="cls-4" x="16.11" y="16.59" width="44.26" height="166.99"/><rect class="cls-4" x="16.11" y="16.59" width="44.26" height="166.99"/><rect class="cls-17" x="0.66" y="5.72" width="2.98" height="15.68" rx="1"/><path class="cls-18" d="M.66,180.26v11.29h3V180.26a1,1,0,0,0-1-1h-1A1,1,0,0,0,.66,180.26Z"/><path class="cls-7" d="M.66,191.55v2.39a1,1,0,0,0,1,1h1a1,1,0,0,0,1-1v-2.39Z"/><path class="cls-19" d="M64.71,96.78v6.11a2.3,2.3,0,0,0,.84,1.77V99.88a1.43,1.43,0,1,1,2.86,0v4.78l.18-.16a2.27,2.27,0,0,0,.66-1.61V96.78a2.26,2.26,0,0,0-3.87-1.6A2.21,2.21,0,0,0,64.71,96.78Z"/><path class="cls-20" d="M65.55,99.88v12.83a1.43,1.43,0,1,0,2.86,0V99.88a1.43,1.43,0,1,0-2.86,0Z"/><path class="cls-21" d="M149.84,4.12V195.94H219V4.12Zm11.71,11.64h45.86V184.22H161.55Zm-8.15,81a2.28,2.28,0,0,1,2.27-2.28,2.23,2.23,0,0,1,1.61.67,2.27,2.27,0,0,1,.66,1.61v6.11a2.26,2.26,0,0,1-.84,1.76v8.06a1.43,1.43,0,0,1-2.85,0v-8l-.18-.17a2.27,2.27,0,0,1-.67-1.6Z"/><rect class="cls-4" x="162.28" y="16.55" width="44.27" height="166.98"/><polygon class="cls-11" points="161.56 184.22 207.41 184.22 206.56 183.53 162.28 183.53 161.56 184.22"/><polygon class="cls-2" points="206.56 16.55 206.56 183.53 207.41 184.22 207.41 15.76 206.56 16.55"/></g></g></svg>