<svg xmlns="http://www.w3.org/2000/svg" xmlns:xlink="http://www.w3.org/1999/xlink" viewBox="0 0 222.86 200.55"><defs><style>.cls-1{fill:url(#Безымянный_градиент_118);}.cls-2{fill:url(#Безымянный_градиент_118-2);}.cls-3{fill:url(#Безымянный_градиент_118-3);}.cls-4{fill:url(#Безымянный_градиент_118-4);}.cls-5{fill:url(#Безымянный_градиент_118-5);}.cls-6{fill:#cecece;}.cls-7{fill:#b2b2b2;}.cls-8{fill:none;}.cls-9{fill:url(#Безымянный_градиент_143);}.cls-10{fill:#b5b5b5;}.cls-11{fill:url(#Безымянный_градиент_7);}.cls-12{fill:url(#Безымянный_градиент_7-2);}.cls-13{fill:#494949;}.cls-14{fill:url(#Безымянный_градиент_103);}.cls-15{fill:url(#Безымянный_градиент_90);}.cls-16{fill:url(#Безымянный_градиент_71);}.cls-17{fill:url(#Безымянный_градиент_7-3);}.cls-18{fill:url(#Безымянный_градиент_7-4);}.cls-19{fill:url(#Безымянный_градиент_103-2);}.cls-20{fill:url(#Безымянный_градиент_90-2);}.cls-21{fill:url(#Безымянный_градиент_143-2);}.cls-22{fill:url(#Безымянный_градиент_143-3);}</style><linearGradient id="Безымянный_градиент_118" x1="35.89" y1="171.68" x2="118.11" y2="29.27" gradientTransform="matrix(-1, 0, 0, 1, 222.87, 0)" gradientUnits="userSpaceOnUse"><stop offset="0" stop-color="#c69c6d"/><stop offset="0.74" stop-color="#c69c6d"/><stop offset="0.86" stop-color="#c49a6b"/><stop offset="0.91" stop-color="#bd9365"/><stop offset="0.95" stop-color="#b08659"/><stop offset="0.98" stop-color="#9e7449"/><stop offset="1" stop-color="#8c6239"/></linearGradient><linearGradient id="Безымянный_градиент_118-2" x1="89.16" y1="202.51" x2="206.88" y2="-1.4" xlink:href="#Безымянный_градиент_118"/><linearGradient id="Безымянный_градиент_118-3" x1="17.18" y1="204.13" x2="137.36" y2="-4.03" xlink:href="#Безымянный_градиент_118"/><linearGradient id="Безымянный_градиент_118-4" x1="61.22" y1="188.62" x2="180.03" y2="-17.18" xlink:href="#Безымянный_градиент_118"/><linearGradient id="Безымянный_градиент_118-5" x1="40.15" y1="223.73" x2="182.71" y2="-23.18" gradientTransform="matrix(1, 0, 0, 1, 0, 0)" xlink:href="#Безымянный_градиент_118"/><linearGradient id="Безымянный_градиент_143" x1="1332.6" y1="165.28" x2="1463.1" y2="34.78" gradientTransform="matrix(-1, 0, 0, 1, 1438.39, 0)" gradientUnits="userSpaceOnUse"><stop offset="0" stop-color="#a67c52"/><stop offset="0.48" stop-color="#754c24"/><stop offset="0.98" stop-color="#a47a50"/><stop offset="1" stop-color="#a67c52"/></linearGradient><linearGradient id="Безымянный_градиент_7" x1="2.98" y1="13.51" x2="5.95" y2="13.51" gradientUnits="userSpaceOnUse"><stop offset="0" stop-color="#4d4d4d"/><stop offset="1" stop-color="#736357"/></linearGradient><linearGradient id="Безымянный_градиент_7-2" x1="2.98" y1="185.36" x2="5.95" y2="185.36" xlink:href="#Безымянный_градиент_7"/><linearGradient id="Безымянный_градиент_103" x1="1366.83" y1="99.54" x2="1371.38" y2="99.54" gradientTransform="matrix(-1, 0, 0, 1, 1438.39, 0)" gradientUnits="userSpaceOnUse"><stop offset="0" stop-color="#4d4d4d"/><stop offset="1" stop-color="#333"/></linearGradient><linearGradient id="Безымянный_градиент_90" x1="1367.68" y1="106.25" x2="1370.53" y2="106.25" gradientTransform="matrix(-1, 0, 0, 1, 1438.39, 0)" gradientUnits="userSpaceOnUse"><stop offset="0" stop-color="#4d4d4d"/><stop offset="1" stop-color="#1a1a1a"/></linearGradient><linearGradient id="Безымянный_градиент_71" x1="1930.57" y1="165.32" x2="2061.07" y2="34.82" gradientTransform="matrix(-1, 0, 0, 1, 2110.11, 0)" gradientUnits="userSpaceOnUse"><stop offset="0" stop-color="#a67c52"/><stop offset="0.55" stop-color="#754c24"/><stop offset="0.82" stop-color="#a47a4e"/><stop offset="1" stop-color="#c69c6d"/></linearGradient><linearGradient id="Безымянный_градиент_7-3" x1="76.73" y1="13.56" x2="79.71" y2="13.56" xlink:href="#Безымянный_градиент_7"/><linearGradient id="Безымянный_градиент_7-4" x1="76.73" y1="185.41" x2="79.71" y2="185.41" xlink:href="#Безымянный_градиент_7"/><linearGradient id="Безымянный_градиент_103-2" x1="1964.79" y1="99.58" x2="1969.33" y2="99.58" gradientTransform="matrix(-1, 0, 0, 1, 2110.11, 0)" xlink:href="#Безымянный_градиент_103"/><linearGradient id="Безымянный_градиент_90-2" x1="1965.63" y1="106.29" x2="1968.49" y2="106.29" gradientTransform="matrix(-1, 0, 0, 1, 2110.11, 0)" xlink:href="#Безымянный_градиент_90"/><linearGradient id="Безымянный_градиент_143-2" x1="-44.96" y1="147.99" x2="50.96" y2="52.07" gradientTransform="matrix(-1, 0, 0, 1, 222.87, 0)" xlink:href="#Безымянный_градиент_143"/><linearGradient id="Безымянный_градиент_143-3" x1="-27.66" y1="165.28" x2="102.84" y2="34.78" gradientTransform="matrix(-1, 0, 0, 1, 222.87, 0)" xlink:href="#Безымянный_градиент_143"/></defs><g id="Слой_2" data-name="Слой 2"><g id="Слой_2-2" data-name="Слой 2"><path class="cls-1" d="M145.61,179.22v15.67h.89l.2,0h0a1,1,0,0,0,.79-1V180.22a1,1,0,0,0-.79-1h0l-.2,0Zm0-173.54V21.35h.3V5.68Z"/><path class="cls-2" d="M3,6.68V20.35a1,1,0,0,0,.66.94V5.74A1,1,0,0,0,3,6.68ZM3,180.22v13.67a1,1,0,0,0,.66.94V179.28A1,1,0,0,0,3,180.22Zm70.32-1h-.49v15.68h.49a1,1,0,0,0,1-1V180.26A1,1,0,0,0,73.3,179.26Zm71.23,14.63v2.05h.55v-1.16A1,1,0,0,1,144.53,193.89Zm0-173.54V180.22a1,1,0,0,1,.55-.89V95.78s0,0,0,0V21.24A1,1,0,0,1,144.53,20.35Zm0-16.23V6.68a1,1,0,0,1,.55-.89V4.12Z"/><path class="cls-3" d="M219,4.12V195.94h.85V4.12Zm-71.14,175.1h-1l-.2,0a1,1,0,0,1,.79,1v13.67a1,1,0,0,1-.79,1l.2,0h1a1,1,0,0,0,1-1V180.22A1,1,0,0,0,147.88,179.22Zm0-173.54h-1l-.2,0a1,1,0,0,1,.79,1V20.35a1,1,0,0,1-.79,1l.2,0h1a1,1,0,0,0,1-1V6.68A1,1,0,0,0,147.88,5.68Zm-2.8-1.56V5.79a1,1,0,0,1,.45-.11h.38V4.12Zm.45,17.23a1,1,0,0,1-.45-.11V95.77s0,0,0,0v83.55a1,1,0,0,1,.45-.11h.38V21.35Zm0,173.54a1,1,0,0,1-.45-.11v1.16h.83v-1.05Zm-71.4-15.63H73.3a1,1,0,0,1,1,1v13.68a1,1,0,0,1-1,1h.83a1,1,0,0,0,1-1V180.26A1,1,0,0,0,74.13,179.26Zm0-173.54H73.3a1,1,0,0,1,1,1V20.4a1,1,0,0,1-1,1h.83a1,1,0,0,0,1-1V6.72A1,1,0,0,0,74.13,5.72ZM71.32,4.16V6.72a1,1,0,0,1,.83-1V4.16Zm0,16.24v83.47h0v76.38a1,1,0,0,1,.83-1V21.38A1,1,0,0,1,71.32,20.4Zm0,173.54V196h.83v-1.07A1,1,0,0,1,71.32,193.94Z"/><path class="cls-4" d="M75.13,6.72V4.12H6v0h66.2v176.1a1,1,0,0,1,.66-.94v-.06h1.32a1,1,0,0,1,1,1V20.4a1,1,0,0,1-1,1H73.3a1,1,0,0,0,1-1V6.72a1,1,0,0,0-1-1h.83A1,1,0,0,1,75.13,6.72Zm-1,188.22H72.32l-.17,0v1h3v-2A1,1,0,0,1,74.13,194.94ZM147.88,5.68a1,1,0,0,1,1,1V4.16h-3V179.22h.59l.2,0h0l.2,0h1a1,1,0,0,1,1,1V20.35a1,1,0,0,1-1,1h-1l-.2,0a1,1,0,0,0,.79-1V6.68a1,1,0,0,0-.79-1l.2,0Zm0,189.21h-1l-.2,0h0l-.2,0h-.59v1.05H79.71V196h69.17v-2.1A1,1,0,0,1,147.88,194.89Z"/><path class="cls-5" d="M0,0V200.55H222.86V0ZM75.13,195.94h-3V196h-.83v-.05H6v-2.05a1,1,0,0,1-.79,1h0l-.2,0H4a1,1,0,0,1-.34-.06,1,1,0,0,1-.66-.94V180.22a1,1,0,0,1,.66-.94,1,1,0,0,1,.34-.06H5l.2,0h0a1,1,0,0,1,.79,1V20.35a1,1,0,0,1-.79,1h0l-.2,0H4a1,1,0,0,1-.34-.06A1,1,0,0,1,3,20.35V6.68a1,1,0,0,1,.66-.94A1,1,0,0,1,4,5.68H5l.2,0h0a1,1,0,0,1,.79,1V4.12H75.13Zm73.75.05H79.71v-2.05a1,1,0,0,1-.66.94,1,1,0,0,1-.34.06h-1a1,1,0,0,1-1-1V180.26a1,1,0,0,1,1-1h1a1,1,0,0,1,.34.06,1,1,0,0,1,.66.94V20.4a1,1,0,0,1-.66.94,1,1,0,0,1-.34.06h-1a1,1,0,0,1-1-1V6.72a1,1,0,0,1,1-1h1a1,1,0,0,1,.34.06,1,1,0,0,1,.66.94V4.16h64.82v0h1.38v0h3Zm71-.05H150.69V4.12h69.18Z"/></g><g id="Слой_3" data-name="Слой 3"><polygon class="cls-6" points="162.4 15.76 162.4 184.22 163.13 183.53 163.13 16.55 162.4 15.76"/><polygon class="cls-7" points="162.4 15.76 163.13 16.55 207.4 16.55 208.26 15.76 162.4 15.76"/><rect class="cls-8" x="163.13" y="16.55" width="44.27" height="166.98"/><rect class="cls-8" x="163.13" y="16.55" width="44.27" height="166.98"/><path class="cls-9" d="M6,4.12V195.94H75.13V4.12Zm57.47,180.1H17.55V15.76H63.42ZM71,104.33l-.13.14-.16.14v8.06a1.33,1.33,0,0,1-.08.45,1.22,1.22,0,0,1-.07.17,1.34,1.34,0,0,1-.18.28s0,0,0,0a1.07,1.07,0,0,1-.19.18,1.14,1.14,0,0,1-.23.15l-.17.07a1.19,1.19,0,0,1-.47.09h0a1.43,1.43,0,0,1-1.42-1.42v-8a2.23,2.23,0,0,1-.27-.26l-.23-.3a1.76,1.76,0,0,1-.19-.39l-.06-.18a1.05,1.05,0,0,1-.05-.19.58.58,0,0,1,0-.19,2.28,2.28,0,0,1,0-.26V96.74a2.64,2.64,0,0,1,0-.29,2.25,2.25,0,0,1,1-1.6,2.42,2.42,0,0,1,.39-.21l.21-.08a3.12,3.12,0,0,1,.44-.09h.24a2.21,2.21,0,0,1,1.59.67.54.54,0,0,1,.15.15,1.33,1.33,0,0,1,.14.19c0,.08.1.16.14.24a.75.75,0,0,1,.08.18,1.91,1.91,0,0,1,.15.58,2.45,2.45,0,0,1,0,.27v6.11a2.11,2.11,0,0,1,0,.26,1.65,1.65,0,0,1-.06.32,1.87,1.87,0,0,1-.07.22,1.47,1.47,0,0,1-.1.22h0A1.8,1.8,0,0,1,71,104.33Z"/><rect class="cls-8" x="18.42" y="16.55" width="44.26" height="166.98"/><polygon class="cls-10" points="17.55 184.22 63.42 184.22 62.68 183.53 18.42 183.53 17.55 184.22"/><polygon class="cls-6" points="17.55 15.76 17.55 184.22 18.42 183.53 18.42 16.55 17.55 15.76"/><polygon class="cls-6" points="62.68 16.55 62.68 183.53 63.42 184.22 63.42 15.76 62.68 16.55"/><polygon class="cls-7" points="17.55 15.76 18.42 16.55 62.68 16.55 63.42 15.76 17.55 15.76"/><rect class="cls-8" x="18.42" y="16.55" width="44.26" height="166.98"/><rect class="cls-8" x="18.42" y="16.55" width="44.26" height="166.98"/><path class="cls-11" d="M6,6.68V20.35a1,1,0,0,1-.79,1h0l-.2,0H4a1,1,0,0,1-.34-.06A1,1,0,0,1,3,20.35V6.68a1,1,0,0,1,.66-.94A1,1,0,0,1,4,5.68H5l.2,0h0A1,1,0,0,1,6,6.68Z"/><path class="cls-12" d="M6,180.22V191.5H3V180.22a1,1,0,0,1,.66-.94,1,1,0,0,1,.34-.06H5l.2,0h0A1,1,0,0,1,6,180.22Z"/><path class="cls-13" d="M6,191.5v2.39a1,1,0,0,1-.79,1h0l-.2,0H4a1,1,0,0,1-.34-.06,1,1,0,0,1-.66-.94V191.5Z"/><path class="cls-14" d="M67,96.74v6.11a2.27,2.27,0,0,0,.85,1.77V99.84a1.43,1.43,0,0,1,1.42-1.43h0a1.43,1.43,0,0,1,1.42,1.43v4.77a2.24,2.24,0,0,0,.85-1.76V96.74a2.28,2.28,0,0,0-2.27-2.28h0A2.28,2.28,0,0,0,67,96.74Z"/><path class="cls-15" d="M67.87,99.84v12.83a1.43,1.43,0,0,0,1.42,1.42h0a1.43,1.43,0,0,0,1.42-1.42V99.84a1.43,1.43,0,0,0-1.42-1.43h0A1.43,1.43,0,0,0,67.87,99.84Z"/><path class="cls-16" d="M79.71,4.16V196h69.17V4.16Zm61.07,92.62a2.21,2.21,0,0,1,.67-1.6,2.27,2.27,0,0,1,1.6-.67,2.18,2.18,0,0,1,.63.09l.17.06a2.18,2.18,0,0,1,.23.09l.13.08a1.72,1.72,0,0,1,.32.23h0l.12.11a1.87,1.87,0,0,1,.28.33h0a2,2,0,0,1,.14.25s0,0,0,0a.94.94,0,0,1,.1.23.6.6,0,0,1,.06.19,1.55,1.55,0,0,1,.06.31.57.57,0,0,1,0,.13.66.66,0,0,1,0,.14v6.11a.91.91,0,0,1,0,.17.31.31,0,0,1,0,.1,1.65,1.65,0,0,1-.06.32.6.6,0,0,1-.06.19,1.22,1.22,0,0,1-.1.24,2,2,0,0,1-.14.25,2.3,2.3,0,0,1-.28.34l-.13.11h0l-.05,0v8a1.33,1.33,0,0,1-.43,1,1.41,1.41,0,0,1-1,.42,1.43,1.43,0,0,1-1.43-1.43v-8a2.27,2.27,0,0,1-.31-.31l-.09-.12a2,2,0,0,1-.28-.52l-.06-.18a1.05,1.05,0,0,1,0-.19.58.58,0,0,1,0-.19,2.28,2.28,0,0,1,0-.26Zm-49.47-81h45.87V184.27H91.31Z"/><rect class="cls-8" x="92.18" y="16.59" width="44.26" height="166.99"/><polygon class="cls-10" points="91.31 184.27 137.18 184.27 136.44 183.58 92.18 183.58 91.31 184.27"/><polygon class="cls-6" points="136.44 16.59 136.44 183.58 137.18 184.27 137.18 15.8 136.44 16.59"/><polygon class="cls-6" points="91.31 15.8 91.31 184.27 92.18 183.58 92.18 16.59 91.31 15.8"/><polygon class="cls-7" points="91.31 15.8 92.18 16.59 136.44 16.59 137.18 15.8 91.31 15.8"/><rect class="cls-8" x="92.18" y="16.59" width="44.26" height="166.99"/><rect class="cls-8" x="92.18" y="16.59" width="44.26" height="166.99"/><path class="cls-17" d="M79.71,6.72V20.4a1,1,0,0,1-.66.94,1,1,0,0,1-.34.06h-1a1,1,0,0,1-1-1V6.72a1,1,0,0,1,1-1h1a1,1,0,0,1,.34.06A1,1,0,0,1,79.71,6.72Z"/><path class="cls-18" d="M79.71,180.26v11.29h-3V180.26a1,1,0,0,1,1-1h1a1,1,0,0,1,.34.06A1,1,0,0,1,79.71,180.26Z"/><path class="cls-13" d="M79.71,191.55v2.39a1,1,0,0,1-.66.94,1,1,0,0,1-.34.06h-1a1,1,0,0,1-1-1v-2.39Z"/><path class="cls-19" d="M140.78,96.78v6.11a2.3,2.3,0,0,0,.84,1.77V99.88a1.43,1.43,0,1,1,2.86,0v4.78l.18-.16a2.27,2.27,0,0,0,.66-1.61V96.78a2.26,2.26,0,0,0-3.87-1.6A2.21,2.21,0,0,0,140.78,96.78Z"/><path class="cls-20" d="M141.62,99.88v12.83a1.43,1.43,0,0,0,2.86,0V99.88a1.43,1.43,0,1,0-2.86,0Z"/><path class="cls-21" d="M219.86,4.12V195.94h0V4.12Z"/><path class="cls-22" d="M150.69,4.12V195.94h69.17V4.12Zm57.57,180.1H162.4V15.76h45.86Z"/><rect class="cls-8" x="163.13" y="16.55" width="44.27" height="166.98"/><polygon class="cls-10" points="162.4 184.22 208.26 184.22 207.4 183.53 163.13 183.53 162.4 184.22"/><polygon class="cls-6" points="207.4 16.55 207.4 183.53 208.26 184.22 208.26 15.76 207.4 16.55"/></g></g></svg>