<svg xmlns="http://www.w3.org/2000/svg" xmlns:xlink="http://www.w3.org/1999/xlink" viewBox="0 0 222.86 200.55"><defs><style>.cls-1{fill:url(#Безымянный_градиент_118);}.cls-2{fill:url(#Безымянный_градиент_118-2);}.cls-3{fill:url(#Безымянный_градиент_118-3);}.cls-4{fill:#cecece;}.cls-5{fill:#b2b2b2;}.cls-6{fill:none;}.cls-7{fill:url(#Безымянный_градиент_7);}.cls-8{fill:url(#Безымянный_градиент_7-2);}.cls-9{fill:#494949;}.cls-10{fill:url(#Безымянный_градиент_103);}.cls-11{fill:url(#Безымянный_градиент_90);}.cls-12{fill:url(#Безымянный_градиент_143);}.cls-13{fill:#b5b5b5;}.cls-14{fill:url(#Безымянный_градиент_7-3);}.cls-15{fill:url(#Безымянный_градиент_7-4);}.cls-16{fill:url(#Безымянный_градиент_103-2);}.cls-17{fill:url(#Безымянный_градиент_90-2);}.cls-18{fill:url(#Безымянный_градиент_71);}.cls-19{fill:url(#Безымянный_градиент_7-5);}.cls-20{fill:url(#Безымянный_градиент_7-6);}.cls-21{fill:url(#Безымянный_градиент_103-3);}.cls-22{fill:url(#Безымянный_градиент_90-3);}.cls-23{fill:url(#Безымянный_градиент_143-2);}</style><linearGradient id="Безымянный_градиент_118" x1="89.68" y1="203.12" x2="208.12" y2="-2.02" gradientUnits="userSpaceOnUse"><stop offset="0" stop-color="#c69c6d"/><stop offset="0.74" stop-color="#c69c6d"/><stop offset="0.86" stop-color="#c49a6b"/><stop offset="0.91" stop-color="#bd9365"/><stop offset="0.95" stop-color="#b08659"/><stop offset="0.98" stop-color="#9e7449"/><stop offset="1" stop-color="#8c6239"/></linearGradient><linearGradient id="Безымянный_градиент_118-2" x1="16.38" y1="204.95" x2="154.05" y2="-33.51" xlink:href="#Безымянный_градиент_118"/><linearGradient id="Безымянный_градиент_118-3" x1="40.15" y1="223.73" x2="182.71" y2="-23.18" xlink:href="#Безымянный_градиент_118"/><linearGradient id="Безымянный_градиент_7" x1="219.22" y1="13.52" x2="222.19" y2="13.52" gradientUnits="userSpaceOnUse"><stop offset="0" stop-color="#4d4d4d"/><stop offset="1" stop-color="#736357"/></linearGradient><linearGradient id="Безымянный_градиент_7-2" x1="219.22" y1="185.36" x2="222.19" y2="185.36" xlink:href="#Безымянный_градиент_7"/><linearGradient id="Безымянный_градиент_103" x1="-1143.68" y1="99.54" x2="-1139.14" y2="99.54" gradientTransform="matrix(-1, 0, 0, 1, -985.54, 0)" gradientUnits="userSpaceOnUse"><stop offset="0" stop-color="#4d4d4d"/><stop offset="1" stop-color="#333"/></linearGradient><linearGradient id="Безымянный_градиент_90" x1="-1142.84" y1="106.25" x2="-1139.99" y2="106.25" gradientTransform="matrix(-1, 0, 0, 1, -985.54, 0)" gradientUnits="userSpaceOnUse"><stop offset="0" stop-color="#4d4d4d"/><stop offset="1" stop-color="#1a1a1a"/></linearGradient><linearGradient id="Безымянный_градиент_143" x1="-1162.01" y1="165.28" x2="-1031.51" y2="34.78" gradientTransform="matrix(-1, 0, 0, 1, -985.54, 0)" gradientUnits="userSpaceOnUse"><stop offset="0" stop-color="#a67c52"/><stop offset="0.48" stop-color="#754c24"/><stop offset="0.98" stop-color="#a47a50"/><stop offset="1" stop-color="#a67c52"/></linearGradient><linearGradient id="Безымянный_градиент_7-3" x1="73.66" y1="13.52" x2="76.63" y2="13.52" xlink:href="#Безымянный_градиент_7"/><linearGradient id="Безымянный_градиент_7-4" x1="73.66" y1="185.36" x2="76.63" y2="185.36" xlink:href="#Безымянный_градиент_7"/><linearGradient id="Безымянный_градиент_103-2" x1="-1127.79" y1="99.54" x2="-1123.24" y2="99.54" xlink:href="#Безымянный_градиент_103"/><linearGradient id="Безымянный_градиент_90-2" x1="-1126.94" y1="106.25" x2="-1124.09" y2="106.25" xlink:href="#Безымянный_градиент_90"/><linearGradient id="Безымянный_градиент_71" x1="120.71" y1="165.33" x2="251.21" y2="34.83" gradientTransform="translate(-150.51)" gradientUnits="userSpaceOnUse"><stop offset="0" stop-color="#a67c52"/><stop offset="0.55" stop-color="#754c24"/><stop offset="0.82" stop-color="#a47a4e"/><stop offset="1" stop-color="#c69c6d"/></linearGradient><linearGradient id="Безымянный_градиент_7-5" x1="70.03" y1="13.56" x2="73.01" y2="13.56" xlink:href="#Безымянный_градиент_7"/><linearGradient id="Безымянный_градиент_7-6" x1="70.03" y1="185.41" x2="73.01" y2="185.41" xlink:href="#Безымянный_градиент_7"/><linearGradient id="Безымянный_градиент_103-3" x1="154.93" y1="99.59" x2="159.47" y2="99.59" gradientTransform="translate(-150.51)" xlink:href="#Безымянный_градиент_103"/><linearGradient id="Безымянный_градиент_90-3" x1="155.77" y1="106.3" x2="158.63" y2="106.3" gradientTransform="translate(-150.51)" xlink:href="#Безымянный_градиент_90"/><linearGradient id="Безымянный_градиент_143-2" x1="-1235.42" y1="165.28" x2="-1104.92" y2="34.78" xlink:href="#Безымянный_градиент_143"/></defs><g id="Слой_2" data-name="Слой 2"><g id="Слой_2-2" data-name="Слой 2"><path class="cls-1" d="M77.24,4.12V195.94h0V4.12ZM150,6.72V20.4a.34.34,0,0,0,0,.1V6.62A.34.34,0,0,0,150,6.72Zm0,173.54v13.68a.34.34,0,0,0,0,.1V180.16A.34.34,0,0,0,150,180.26ZM221.19,5.68h-1a1,1,0,0,0-1,1V20.35a1,1,0,0,0,1,1h1a1,1,0,0,0,1-1V6.68A1,1,0,0,0,221.19,5.68Zm0,173.54h-1a1,1,0,0,0-1,1v13.67a1,1,0,0,0,1,1h1a1,1,0,0,0,1-1V180.22A1,1,0,0,0,221.19,179.22Z"/><path class="cls-2" d="M3.84,195.94V4.16h-3V196H70v-.05ZM76.63,4.12V6.68a1,1,0,0,0-1-1h-1a1,1,0,0,0-1,1V20.35a1,1,0,0,0,1,1h1a1,1,0,0,0,1-1V180.22a1,1,0,0,0-1-1h-1a1,1,0,0,0-1,1v13.67a1,1,0,0,0,1,1h1a1,1,0,0,0,1-1v2.05h.61V4.12ZM152,21.4h-1a1,1,0,0,1-1-.9.34.34,0,0,1,0-.1V180.26a.34.34,0,0,1,0-.1,1,1,0,0,1,1-.9h1a1,1,0,0,1,1,1V20.4A1,1,0,0,1,152,21.4Zm0,173.54h-1a1,1,0,0,1-1-.9.34.34,0,0,1,0-.1v2h3v-2A1,1,0,0,1,152,194.94ZM150,4.12v2.6a.34.34,0,0,1,0-.1,1,1,0,0,1,1-.9h1a1,1,0,0,1,1,1V4.16h66.2v0Z"/><path class="cls-3" d="M0,0V200.55H222.86V0ZM73,20.4a.34.34,0,0,1,0,.1,1,1,0,0,1-1,.9H71a1,1,0,0,1-1-1V180.26a1,1,0,0,1,1-1h1a1,1,0,0,1,1,.9.34.34,0,0,1,0,.1v13.68a.34.34,0,0,1,0,.1,1,1,0,0,1-1,.9H71a1,1,0,0,1-1-1V196H.86V4.16H70V6.72a1,1,0,0,1,1-1h1a1,1,0,0,1,1,.9.34.34,0,0,1,0,.1Zm72.8,175.54H76.63v-2.05a1,1,0,0,1-1,1h-1a1,1,0,0,1-1-1V180.22a1,1,0,0,1,1-1h1a1,1,0,0,1,1,1V20.35a1,1,0,0,1-1,1h-1a1,1,0,0,1-1-1V6.68a1,1,0,0,1,1-1h1a1,1,0,0,1,1,1V4.12h69.18ZM222.19,20.35a1,1,0,0,1-1,1h-1a1,1,0,0,1-1-1V180.22a1,1,0,0,1,1-1h1a1,1,0,0,1,1,1v13.67a1,1,0,0,1-1,1h-1a1,1,0,0,1-1-1V196H153v-.05h-3V4.12h69.18V6.68a1,1,0,0,1,1-1h1a1,1,0,0,1,1,1Z"/></g><g id="Слой_3" data-name="Слой 3"><polygon class="cls-4" points="161.75 15.76 161.75 184.22 162.48 183.53 162.48 16.55 161.75 15.76"/><polygon class="cls-5" points="161.75 15.76 162.48 16.55 206.75 16.55 207.61 15.76 161.75 15.76"/><rect class="cls-6" x="162.48" y="16.55" width="44.27" height="166.98"/><rect class="cls-6" x="162.48" y="16.55" width="44.27" height="166.98"/><rect class="cls-7" x="219.22" y="5.68" width="2.97" height="15.67" rx="1"/><path class="cls-8" d="M222.19,180.22V191.5h-3V180.22a1,1,0,0,1,1-1h1A1,1,0,0,1,222.19,180.22Z"/><path class="cls-9" d="M222.19,191.5v2.39a1,1,0,0,1-1,1h-1a1,1,0,0,1-1-1V191.5Z"/><path class="cls-10" d="M153.6,96.74v6.11a2.27,2.27,0,0,0,.67,1.6l.18.17V99.84a1.43,1.43,0,1,1,2.85,0v4.77a2.26,2.26,0,0,0,.84-1.76V96.74a2.27,2.27,0,0,0-.66-1.61,2.23,2.23,0,0,0-1.61-.67A2.28,2.28,0,0,0,153.6,96.74Z"/><path class="cls-11" d="M154.45,99.84v12.83a1.43,1.43,0,0,0,2.85,0V99.84a1.43,1.43,0,1,0-2.85,0Z"/><path class="cls-12" d="M76.63,4.12V195.94h69.18V4.12Zm57.47,180.1H88.23V15.76H134.1Zm8.15-81.37a2.24,2.24,0,0,1-.85,1.76v8.06a1.43,1.43,0,0,1-1.42,1.42h0a1.43,1.43,0,0,1-1.42-1.42v-8a2.27,2.27,0,0,1-.85-1.77V96.74A2.28,2.28,0,0,1,140,94.46h0a2.28,2.28,0,0,1,2.27,2.28Z"/><rect class="cls-6" x="89.1" y="16.55" width="44.26" height="166.98"/><polygon class="cls-13" points="88.23 184.22 134.1 184.22 133.36 183.53 89.1 183.53 88.23 184.22"/><polygon class="cls-4" points="88.23 15.76 88.23 184.22 89.1 183.53 89.1 16.55 88.23 15.76"/><polygon class="cls-4" points="133.36 16.55 133.36 183.53 134.1 184.22 134.1 15.76 133.36 16.55"/><polygon class="cls-5" points="88.23 15.76 89.1 16.55 133.36 16.55 134.1 15.76 88.23 15.76"/><rect class="cls-6" x="89.1" y="16.55" width="44.26" height="166.98"/><rect class="cls-6" x="89.1" y="16.55" width="44.26" height="166.98"/><path class="cls-14" d="M76.63,6.68V20.35a1,1,0,0,1-1,1h-1a1,1,0,0,1-1-1V6.68a1,1,0,0,1,1-1h1A1,1,0,0,1,76.63,6.68Z"/><path class="cls-15" d="M76.63,180.22V191.5h-3V180.22a1,1,0,0,1,1-1h1A1,1,0,0,1,76.63,180.22Z"/><path class="cls-9" d="M76.63,191.5v2.39a1,1,0,0,1-1,1h-1a1,1,0,0,1-1-1V191.5Z"/><path class="cls-16" d="M137.7,96.74v6.11a2.27,2.27,0,0,0,.85,1.77V99.84A1.43,1.43,0,0,1,140,98.41h0a1.43,1.43,0,0,1,1.42,1.43v4.77a2.24,2.24,0,0,0,.85-1.76V96.74A2.28,2.28,0,0,0,140,94.46h0A2.28,2.28,0,0,0,137.7,96.74Z"/><path class="cls-17" d="M138.55,99.84v12.83a1.43,1.43,0,0,0,1.42,1.42h0a1.43,1.43,0,0,0,1.42-1.42V99.84A1.43,1.43,0,0,0,140,98.41h0A1.43,1.43,0,0,0,138.55,99.84Z"/><path class="cls-18" d="M.86,4.16V196H70V4.16ZM12.56,15.8H58.43V184.27H12.56Zm-8.14,81a2.26,2.26,0,0,1,3.87-1.6A2.21,2.21,0,0,1,9,96.78v6.11a2.3,2.3,0,0,1-.84,1.77v8a1.43,1.43,0,1,1-2.86,0v-8l-.18-.16a2.27,2.27,0,0,1-.66-1.61Z"/><rect class="cls-6" x="13.3" y="16.59" width="44.26" height="166.99"/><polygon class="cls-13" points="58.43 184.27 12.56 184.27 13.3 183.58 57.56 183.58 58.43 184.27"/><polygon class="cls-4" points="13.3 16.59 13.3 183.58 12.56 184.27 12.56 15.8 13.3 16.59"/><polygon class="cls-4" points="58.43 15.8 58.43 184.27 57.56 183.58 57.56 16.59 58.43 15.8"/><polygon class="cls-5" points="58.43 15.8 57.56 16.59 13.3 16.59 12.56 15.8 58.43 15.8"/><rect class="cls-6" x="13.3" y="16.59" width="44.26" height="166.99"/><rect class="cls-6" x="13.3" y="16.59" width="44.26" height="166.99"/><path class="cls-19" d="M73,6.72V20.4a.34.34,0,0,1,0,.1,1,1,0,0,1-1,.9H71a1,1,0,0,1-1-1V6.72a1,1,0,0,1,1-1h1a1,1,0,0,1,1,.9A.34.34,0,0,1,73,6.72Z"/><path class="cls-20" d="M73,180.26v11.29H70V180.26a1,1,0,0,1,1-1h1a1,1,0,0,1,1,.9A.34.34,0,0,1,73,180.26Z"/><path class="cls-9" d="M73,191.55v2.39a.34.34,0,0,1,0,.1,1,1,0,0,1-1,.9H71a1,1,0,0,1-1-1v-2.39Z"/><path class="cls-21" d="M9,96.78v6.11a2.3,2.3,0,0,1-.84,1.77V99.88a1.43,1.43,0,0,0-2.86,0v4.78l-.18-.16a2.27,2.27,0,0,1-.66-1.61V96.78a2.26,2.26,0,0,1,3.87-1.6A2.21,2.21,0,0,1,9,96.78Z"/><path class="cls-22" d="M8.12,99.88v12.83a1.43,1.43,0,1,1-2.86,0V99.88a1.43,1.43,0,0,1,2.86,0Z"/><path class="cls-23" d="M150,4.12V195.94h69.18V4.12Zm8.1,98.73a2.26,2.26,0,0,1-.84,1.76v8.06a1.43,1.43,0,0,1-2.85,0v-8l-.18-.17a2.27,2.27,0,0,1-.67-1.6V96.74a2.28,2.28,0,0,1,2.27-2.28,2.23,2.23,0,0,1,1.61.67,2.27,2.27,0,0,1,.66,1.61Zm49.47,81.37H161.75V15.76h45.86Z"/><rect class="cls-6" x="162.48" y="16.55" width="44.27" height="166.98"/><polygon class="cls-13" points="161.75 184.22 207.61 184.22 206.75 183.53 162.48 183.53 161.75 184.22"/><polygon class="cls-4" points="206.75 16.55 206.75 183.53 207.61 184.22 207.61 15.76 206.75 16.55"/></g></g></svg>