<svg xmlns="http://www.w3.org/2000/svg" xmlns:xlink="http://www.w3.org/1999/xlink" viewBox="0 0 222.86 200.55"><defs><style>.cls-1{fill:url(#Безымянный_градиент_118);}.cls-2{fill:#cecece;}.cls-3{fill:#b2b2b2;}.cls-4{fill:none;}.cls-5{fill:url(#Безымянный_градиент_143);}.cls-6{fill:#b5b5b5;}.cls-7{fill:url(#Безымянный_градиент_7);}.cls-8{fill:url(#Безымянный_градиент_7-2);}.cls-9{fill:#494949;}.cls-10{fill:url(#Безымянный_градиент_103);}.cls-11{fill:url(#Безымянный_градиент_90);}.cls-12{fill:url(#Безымянный_градиент_143-2);}.cls-13{fill:url(#Безымянный_градиент_143-3);}</style><linearGradient id="Безымянный_градиент_118" x1="40.15" y1="223.73" x2="182.71" y2="-23.18" gradientUnits="userSpaceOnUse"><stop offset="0" stop-color="#c69c6d"/><stop offset="0.74" stop-color="#c69c6d"/><stop offset="0.86" stop-color="#c49a6b"/><stop offset="0.91" stop-color="#bd9365"/><stop offset="0.95" stop-color="#b08659"/><stop offset="0.98" stop-color="#9e7449"/><stop offset="1" stop-color="#8c6239"/></linearGradient><linearGradient id="Безымянный_градиент_143" x1="46.58" y1="165.28" x2="177.08" y2="34.78" gradientUnits="userSpaceOnUse"><stop offset="0" stop-color="#a67c52"/><stop offset="0.48" stop-color="#754c24"/><stop offset="0.98" stop-color="#a47a50"/><stop offset="1" stop-color="#a67c52"/></linearGradient><linearGradient id="Безымянный_градиент_7" x1="146.42" y1="13.51" x2="149.39" y2="13.51" gradientUnits="userSpaceOnUse"><stop offset="0" stop-color="#4d4d4d"/><stop offset="1" stop-color="#736357"/></linearGradient><linearGradient id="Безымянный_градиент_7-2" x1="146.42" y1="185.36" x2="149.39" y2="185.36" xlink:href="#Безымянный_градиент_7"/><linearGradient id="Безымянный_градиент_103" x1="80.8" y1="99.54" x2="85.35" y2="99.54" gradientUnits="userSpaceOnUse"><stop offset="0" stop-color="#4d4d4d"/><stop offset="1" stop-color="#333"/></linearGradient><linearGradient id="Безымянный_градиент_90" x1="81.65" y1="106.25" x2="84.5" y2="106.25" gradientUnits="userSpaceOnUse"><stop offset="0" stop-color="#4d4d4d"/><stop offset="1" stop-color="#1a1a1a"/></linearGradient><linearGradient id="Безымянный_градиент_143-2" x1="119.38" y1="165.32" x2="249.88" y2="34.83" xlink:href="#Безымянный_градиент_143"/><linearGradient id="Безымянный_градиент_143-3" x1="-26.82" y1="165.28" x2="103.67" y2="34.78" xlink:href="#Безымянный_градиент_143"/></defs><g id="Слой_2" data-name="Слой 2"><g id="Слой_2-2" data-name="Слой 2"><path class="cls-1" d="M0,0V200.55H222.86V0ZM73,195.94H3.84V4.12H73Zm73.4,0H77.25V4.12h69.17Zm72.8.05H150.05V4.16h69.17Z"/></g><g id="Слой_3" data-name="Слой 3"><polygon class="cls-2" points="61.3 15.76 61.3 184.22 60.57 183.53 60.57 16.55 61.3 15.76"/><polygon class="cls-3" points="61.3 15.76 60.58 16.55 16.3 16.55 15.45 15.76 61.3 15.76"/><rect class="cls-4" x="16.3" y="16.55" width="44.27" height="166.98"/><rect class="cls-4" x="16.3" y="16.55" width="44.27" height="166.98"/><path class="cls-5" d="M77.24,4.12V195.94h69.18V4.12Zm8.11,98.73a2.27,2.27,0,0,1-.85,1.77v8a1.43,1.43,0,0,1-1.42,1.42h0a1.43,1.43,0,0,1-1.42-1.42v-8.06a2.24,2.24,0,0,1-.85-1.76V96.74a2.28,2.28,0,0,1,2.27-2.28h0a2.28,2.28,0,0,1,2.27,2.28Zm49.47,81.37H89V15.76h45.87Z"/><rect class="cls-4" x="89.69" y="16.55" width="44.26" height="166.98"/><polygon class="cls-6" points="134.82 184.22 88.95 184.22 89.69 183.53 133.96 183.53 134.82 184.22"/><polygon class="cls-2" points="134.82 15.76 134.82 184.22 133.96 183.53 133.96 16.55 134.82 15.76"/><polygon class="cls-2" points="89.69 16.55 89.69 183.53 88.95 184.22 88.95 15.76 89.69 16.55"/><polygon class="cls-3" points="134.82 15.76 133.96 16.55 89.69 16.55 88.95 15.76 134.82 15.76"/><rect class="cls-4" x="89.69" y="16.55" width="44.26" height="166.98"/><rect class="cls-4" x="89.69" y="16.55" width="44.26" height="166.98"/><path class="cls-7" d="M149.39,6.68V20.35a1,1,0,0,1-1,1h-1a1,1,0,0,1-1-1V6.68a1,1,0,0,1,1-1h1A1,1,0,0,1,149.39,6.68Z"/><path class="cls-8" d="M149.39,180.22V191.5h-3V180.22a1,1,0,0,1,1-1h1A1,1,0,0,1,149.39,180.22Z"/><path class="cls-9" d="M149.39,191.5v2.39a1,1,0,0,1-1,1h-1a1,1,0,0,1-1-1V191.5Z"/><path class="cls-10" d="M85.35,96.74v6.11a2.27,2.27,0,0,1-.85,1.77V99.84a1.43,1.43,0,0,0-1.42-1.43h0a1.43,1.43,0,0,0-1.42,1.43v4.77a2.24,2.24,0,0,1-.85-1.76V96.74a2.28,2.28,0,0,1,2.27-2.28h0A2.28,2.28,0,0,1,85.35,96.74Z"/><path class="cls-11" d="M84.5,99.84v12.83a1.43,1.43,0,0,1-1.42,1.42h0a1.43,1.43,0,0,1-1.42-1.42V99.84a1.43,1.43,0,0,1,1.42-1.43h0A1.43,1.43,0,0,1,84.5,99.84Z"/><path class="cls-12" d="M150.05,4.16V196h69.17V4.16Zm57.56,180.11H161.74V15.8h45.87Z"/><rect class="cls-4" x="162.48" y="16.59" width="44.26" height="166.99"/><polygon class="cls-6" points="207.62 184.26 161.75 184.26 162.49 183.57 206.75 183.57 207.62 184.26"/><polygon class="cls-2" points="162.49 16.59 162.49 183.58 161.74 184.27 161.74 15.8 162.49 16.59"/><polygon class="cls-2" points="207.61 15.8 207.61 184.27 206.74 183.58 206.74 16.59 207.61 15.8"/><polygon class="cls-3" points="207.62 15.79 206.75 16.59 162.49 16.59 161.75 15.79 207.62 15.79"/><rect class="cls-4" x="162.48" y="16.59" width="44.26" height="166.99"/><rect class="cls-4" x="162.48" y="16.59" width="44.26" height="166.99"/><path class="cls-13" d="M3.84,4.12V195.94H73V4.12ZM61.3,184.22H15.44V15.76H61.3Z"/><rect class="cls-4" x="16.3" y="16.55" width="44.27" height="166.98"/><polygon class="cls-6" points="61.3 184.22 15.45 184.22 16.3 183.53 60.58 183.53 61.3 184.22"/><polygon class="cls-2" points="16.3 16.55 16.3 183.53 15.44 184.22 15.44 15.76 16.3 16.55"/></g></g></svg>